<svg xmlns="http://www.w3.org/2000/svg" viewBox="0 0 418.22 417.85"><defs><style>.cls-1{fill:#fff;}</style></defs><g id="レイヤー_2" data-name="レイヤー 2"><g id="レイヤー_1-2" data-name="レイヤー 1"><path class="cls-1" d="M359.88,354.24l-35.46-21.86-16,13.25,14.89,38.9-18.7,10.87-26.44-32.19-19.42,7.34,1.45,41.63L239,416.39l-14.55-39-20.76.63-12.13,39.85-21.45-2.91L169,373.3l-19.83-6.13-24.42,33.74-19.34-9.71,12.49-39.74-16.77-12.24-34.05,24L52,347.74l24.72-33.53-11.89-17-40,11.63-9.3-19.54,34.26-23.69-5.71-20-41.6-2L0,222.14l40.1-11.28,1.08-20.73L2.47,174.74l4.67-21.13L48.72,156l7.76-19.26L24.86,109.58,36.14,91.11l38.57,15.73L88.3,91.14,67.2,55.22,83.86,41.41l31.38,27.4,18-10.44L124.9,17.55l20.24-7.64L165.92,46l20.36-4L191.7.66,213.32,0l7.94,40.89,20.57,2.79,18.53-37.3L281,12.77,275.26,54l18.55,9.32,29.64-29.27,17.47,12.77L322.07,84l14.52,14.83,37.54-18L386.51,98.5l-29.89,29,8.92,18.75,41.36-4.89,6,20.8L375.16,179.9l2.35,20.63,40.71,8.8-1.13,21.61-41.4,4.53-4.48,20.27,35.64,21.55-8.08,20.07-40.63-9.16-10.82,17.72,26.72,32Z"/></g></g></svg>