<?xml version="1.0" encoding="UTF-8"?>
<svg id="_レイヤー_2" data-name="レイヤー 2" xmlns="http://www.w3.org/2000/svg" viewBox="0 0 300 300">
  <defs>
    <style>
      .cls-1 {
        stroke: #fff;
      }

      .cls-1, .cls-2 {
        fill: none;
        stroke-miterlimit: 10;
      }

      .cls-3, .cls-4 {
        stroke-width: 0px;
      }

      .cls-4 {
        fill: #fff;
      }

      .cls-2 {
        stroke: #000;
        stroke-width: .5px;
      }
    </style>
  </defs>
  <g id="_レイヤー_1-2" data-name="レイヤー 1">
    <path class="cls-4" d="m230.54,278.08l-20-10.89-15,6.7-5.32,22.21-18.17,3.9-13.85-18.12h-16.38l-13.82,18.12-18.23-3.9-5.33-22.21-15-6.7-20,10.88-15.08-11,4.12-22.46-11-12.25-22.58,1.76-9.33-16.24,12.86-18.88-5.07-15.66-21.36-7.61-2-18.64,19.36-12,1.72-16.38-16.48-15.71,5.76-17.83,22.53-3,8.19-14.27-8.68-21.09,12.47-13.93,21.79,6.47,13.26-9.68.61-22.84,17-7.62,17.32,14.79,16-3.43L140.67,0h18.64l9.8,20.62,16,3.42,17.31-14.82,17,7.62.61,22.84,13.25,9.69,21.79-6.48,12.48,13.94-8.68,21.11,8.19,14.27,22.53,3,5.8,17.79-16.47,15.73,1.72,16.39,19.36,12-1.95,18.64-21.41,7.64-5.06,15.67,12.86,18.84-9.33,16.23-22.65-1.78-11,12.25,4.13,22.46-15.05,11.01Z"/>
    <circle class="cls-3" cx="150" cy="149.65" r="120"/>
    <circle class="cls-3" cx="150" cy="149.65" r="120"/>
    <path class="cls-1" d="m138.94,35.56c6.84,5.12,12.63,23.31,12.98,33.54.47,10.79-1.46,18.84-5.4,26.48,8.11,16.51,14.96,30.19,18.59,48.64,14.87-1.8,29.23-5.53,39.4-18.17,4.45-5.7,6.13-11.76,5.84-14.47-.09-1.78.28-2.75.77-3.16.56-.51,1.43-.02,1.83,1.37.81,2.48,4.01,13.9-4.96,24.94-7.89,9.83-22.67,12.93-42.16,13.77,3,19.06,1.16,37.93-8.17,51.82-11.23,16.67-29.03,20.01-41.01,11.04-1.14-.85-2.32-1.89-3.31-2.95-13.23-13.95-10.56-32.97-1.07-45.65,1.72-2.3,3.85-4.44,5.95-6.29,12.23-10.16,28.39-10.83,39.15-11.66-2.25-16.01-8.37-28.53-14.46-43.22-.93,1.48-2.05,2.98-3.17,4.48-1.27,1.7-2.44,1.6-3.09.8-.72-.7-.74-2.11.23-3.41,1.46-1.71,2.88-3.61,4.41-5.89-4.83-11.86-10.43-26.96-12.66-39.68-1.28-7.81-.94-17.05,2.27-21.35.9-1.2,2.06-2.04,3.53-2.34,1.47-.3,3.02.24,4.51,1.35Zm-19.82,124.7c-1.69,1.54-3.07,3.15-4.34,4.85-9.34,12.48-9.8,29.26.87,39.74,8,7.86,20.76,6.5,30.17-6.07,1.12-1.5,2.2-3.18,3.24-5.05,7.96-14.44,10.24-29.86,8.75-44.99-11.9.44-28.62,2.1-38.7,11.53Zm12.63-103.45c2.87,13.52,7.23,23.63,12.81,34.97,2.9-5.77,4.88-12.7,4.69-20.78-.42-17.75-10.34-33.27-14.63-31.35-3.39,1.67-5.04,7.44-2.87,17.16Z"/>
    <path class="cls-1" d="m164.81,34.21c1.47.3,2.63,1.14,3.53,2.34,3.21,4.29,3.55,13.54,2.27,21.35-2.23,12.72-7.83,27.82-12.66,39.68,1.53,2.28,2.95,4.18,4.41,5.89.97,1.3.96,2.71.23,3.41-.65.8-1.82.9-3.09-.8-1.12-1.5-2.24-2.99-3.17-4.48-6.1,14.68-12.21,27.2-14.46,43.22,10.76.82,26.92,1.5,39.15,11.66,2.1,1.85,4.23,3.99,5.95,6.29,9.49,12.68,12.16,31.7-1.07,45.65-.99,1.05-2.17,2.09-3.31,2.95-11.98,8.96-29.78,5.62-41.01-11.04-9.33-13.89-11.17-32.76-8.17-51.82-19.49-.83-34.27-3.94-42.16-13.77-8.97-11.04-5.78-22.46-4.96-24.94.39-1.38,1.26-1.88,1.83-1.37.49.41.86,1.38.77,3.16-.29,2.71,1.4,8.76,5.84,14.47,10.17,12.64,24.53,16.37,39.4,18.17,3.63-18.45,10.48-32.13,18.59-48.64-3.94-7.64-5.87-15.69-5.4-26.48.35-10.23,6.14-28.42,12.98-33.54,1.48-1.11,3.04-1.65,4.51-1.35Zm-23.39,114.52c-1.49,15.13.79,30.55,8.75,44.99,1.04,1.87,2.12,3.55,3.24,5.05,9.41,12.58,22.17,13.93,30.17,6.07,10.67-10.48,10.21-27.26.87-39.74-1.27-1.7-2.65-3.31-4.34-4.85-10.08-9.43-26.8-11.09-38.7-11.53Zm23.2-109.08c-4.29-1.93-14.21,13.59-14.63,31.35-.18,8.08,1.8,15.01,4.69,20.78,5.58-11.34,9.93-21.45,12.81-34.97,2.16-9.72.51-15.49-2.87-17.16Z"/>
    <path class="cls-1" d="m178.62,38.66c4.68,7.15,3.9,26.23.73,35.96-3.25,10.3-7.82,17.2-14.13,23.04,1.98,18.29,3.73,33.49.84,52.07,14.59,3.4,29.36,4.8,43.24-3.6,6.13-3.84,9.79-8.96,10.44-11.6.52-1.7,1.2-2.49,1.8-2.71.7-.29,1.35.48,1.25,1.91-.08,2.61-.99,14.44-13.19,21.74-10.77,6.54-25.73,4.4-44.33-1.48-3.7,18.94-11.88,36.04-25.4,45.9-16.25,11.82-34.12,8.87-42.31-3.65-.78-1.19-1.53-2.57-2.1-3.9-7.66-17.63,1.35-34.6,14.6-43.27,2.4-1.57,5.14-2.85,7.75-3.88,14.97-5.36,30.39-.47,40.78,2.44,3.36-15.82,1.89-29.67,1.19-45.56-1.38,1.07-2.95,2.1-4.51,3.12-1.77,1.16-2.84.67-3.18-.3-.44-.9.03-2.23,1.39-3.12,1.96-1.11,3.94-2.41,6.16-4.03-.48-12.8-.58-28.91,1.68-41.62,1.47-7.77,4.95-16.35,9.44-19.28,1.25-.82,2.63-1.21,4.12-.99,1.48.22,2.76,1.26,3.77,2.81Zm-61.27,110.4c-2.11.87-3.96,1.91-5.74,3.07-13.04,8.53-19.21,24.15-12.77,37.64,4.83,10.12,17.28,13.21,30.43,4.61,1.57-1.02,3.16-2.24,4.77-3.63,12.42-10.85,19.84-24.56,23.62-39.29-11.33-3.65-27.61-7.82-40.31-2.4Zm47.25-92.89c-1.92,13.69-1.29,24.68.08,37.24,4.7-4.44,8.93-10.27,11.52-17.92,5.68-16.83,1.67-34.8-3.02-34.46-3.75.41-7.28,5.27-8.57,15.14Z"/>
    <path class="cls-1" d="m203.4,46.24c1.28.79,2.08,1.98,2.52,3.41,1.55,5.13-1.3,13.94-5.17,20.84-6.44,11.19-16.88,23.46-25.47,32.96.66,2.67,1.34,4.93,2.13,7.04.47,1.55-.02,2.87-.94,3.28-.88.53-2.02.22-2.63-1.81-.54-1.79-1.08-3.58-1.45-5.29-10.75,11.71-20.78,21.38-28.37,35.66,9.83,4.45,24.79,10.62,32.81,24.34,1.34,2.46,2.61,5.2,3.44,7.95,4.58,15.16.58,33.95-16.62,42.53-1.29.65-2.76,1.22-4.12,1.64-14.32,4.33-29.91-4.9-34.76-24.41-4.01-16.24.71-34.6,10.05-51.49-18.03-7.45-30.86-15.43-34.91-27.36-4.66-13.44,2.26-23.08,3.87-25.13.84-1.17,1.83-1.33,2.18-.66.32.56.33,1.59-.36,3.24-1.2,2.45-1.68,8.71.54,15.6,5.23,15.35,17.45,23.77,30.81,30.55,9.73-16.09,20.84-26.61,34.11-39.35-1.09-8.53-.15-16.76,3.98-26.73,3.83-9.49,15.49-24.61,23.67-27.08,1.77-.54,3.42-.51,4.7.27Zm-61.15,99.61c-6.58,13.71-9.7,28.98-7.16,45.27.34,2.11.78,4.06,1.32,5.85,4.54,15.04,16.07,20.67,26.28,16.03,13.61-6.19,18.92-22.12,14.41-37.04-.61-2.03-1.36-4.02-2.42-6.04-6.25-12.31-21.4-19.59-32.43-24.07Zm59.1-94.57c-3.37-3.28-18,7.91-24.47,24.45-2.94,7.53-3.44,14.72-2.7,21.13,9.12-8.75,16.67-16.76,24-28.48,5.35-8.39,5.78-14.38,3.17-17.11Z"/>
    <path class="cls-1" d="m214.86,55.14c1.95,8.32-5.31,25.98-11.61,34.04-6.57,8.57-13.23,13.49-21.16,16.81-4.39,17.86-7.95,32.74-17.02,49.21,12.55,8.18,25.95,14.55,41.86,11.41,7.07-1.51,12.26-5.07,13.78-7.33,1.08-1.42,1.98-1.93,2.62-1.93.76-.03,1.11.91.52,2.22-.97,2.42-5.86,13.23-19.83,15.92-12.36,2.46-25.68-4.66-41.15-16.55-9.96,16.53-23.49,29.8-39.56,34.45-19.32,5.55-35.1-3.33-38.52-17.9-.33-1.39-.56-2.94-.64-4.39-1.17-19.19,13.1-32.05,28.52-35.66,2.79-.65,5.8-.92,8.6-.99,15.9.08,28.71,9.95,37.49,16.24,8.57-13.72,11.93-27.24,16.7-42.4-1.67.54-3.49.96-5.31,1.39-2.06.48-2.9-.35-2.88-1.37-.11-1,.79-2.09,2.37-2.46,2.22-.37,4.52-.91,7.16-1.68,3.93-12.19,9.34-27.36,15.81-38.54,4.04-6.8,10.24-13.67,15.46-14.89,1.46-.34,2.89-.24,4.21.48,1.32.71,2.16,2.13,2.59,3.93Zm-95.34,82.79c-2.28.1-4.38.44-6.44.93-15.17,3.56-26.32,16.12-24.88,31,1.08,11.16,11.72,18.33,27.02,14.74,1.82-.43,3.73-1.02,5.73-1.78,15.38-5.95,27.04-16.29,35.63-28.84-9.4-7.31-23.27-16.79-37.06-16.05Zm76.17-71.12c-6.49,12.2-9.65,22.75-12.67,35.02,5.93-2.56,11.9-6.59,16.95-12.9,11.09-13.87,13.47-32.13,8.94-33.42-3.67-.9-8.64,2.47-13.23,11.3Z"/>
    <path class="cls-1" d="m235.54,70.74c.93,1.18,1.28,2.57,1.2,4.06-.3,5.35-5.99,12.65-11.98,17.81-9.88,8.31-23.88,16.27-35.21,22.26-.3,2.73-.43,5.1-.41,7.34-.09,1.62-1.01,2.69-2.01,2.76-1.01.19-1.97-.48-1.85-2.6.1-1.87.21-3.73.45-5.47-14.11,7.33-26.84,12.99-38.86,23.81,7.71,7.55,19.66,18.45,22.5,34.1.42,2.77.68,5.78.52,8.64-.88,15.81-11.07,32.1-30.17,34.28-1.44.17-3.01.21-4.43.13-14.94-.83-26.43-14.84-24.32-34.82,1.78-16.63,12.5-32.27,27.05-44.94-14.39-13.17-23.72-25.05-23.45-37.65.22-14.22,10.01-20.92,12.23-22.29,1.19-.81,2.18-.63,2.28.13.11.63-.23,1.61-1.45,2.92-1.96,1.89-4.56,7.61-4.82,14.84-.33,16.21,8.27,28.31,18.5,39.24,14.64-11.8,28.68-17.88,45.51-25.31,1.89-8.39,5.59-15.8,12.88-23.76,6.85-7.61,22.97-17.82,31.51-17.35,1.85.1,3.39.69,4.32,1.86Zm-91.53,72.69c-10.87,10.63-19.03,23.91-22.21,40.09-.4,2.1-.66,4.08-.76,5.95-.88,15.69,8.03,24.92,19.21,24.05,14.91-1.17,25.34-14.32,26.21-29.88.12-2.12.09-4.24-.21-6.51-1.66-13.7-13.41-25.72-22.24-33.71Zm87.88-68.65c-2.05-4.23-19.62,1.28-31.35,14.61-5.33,6.07-8.27,12.65-9.76,18.94,11.56-5.1,21.4-10.05,32.29-18.55,7.9-6.05,10.35-11.54,8.83-14.99Z"/>
    <path class="cls-1" d="m243.27,83.02c-1.01,8.49-13.87,22.6-22.56,28.02-9.11,5.8-17.05,8.15-25.63,8.56-10.24,15.28-18.67,28.05-32.83,40.42,8.99,11.98,19.41,22.55,35.43,25.04,7.16,1,13.25-.57,15.45-2.17,1.5-.97,2.52-1.13,3.12-.92.73.23.73,1.24-.27,2.26-1.74,1.95-10.03,10.43-24.08,8.17-12.45-1.92-22.54-13.17-33-29.63-15.01,12.13-32.27,19.97-48.96,18.84-20.05-1.39-31.84-15.14-30.07-29.99.17-1.42.48-2.96.9-4.34,5.47-18.43,23.28-25.63,39-23.76,2.85.34,5.77,1.12,8.42,2.01,14.91,5.51,23.58,19.17,29.67,28.08,12.74-9.96,20.52-21.51,30.19-34.13-1.75-.07-3.61-.29-5.46-.51-2.1-.25-2.61-1.32-2.24-2.28.24-.98,1.46-1.69,3.07-1.5,2.21.41,4.56.69,7.3.87,7.86-10.11,18.13-22.52,28.04-30.81,6.12-5.01,14.3-9.34,19.62-8.71,1.49.18,2.8.76,3.79,1.89,1,1.12,1.31,2.74,1.09,4.58Zm-117.9,45.19c-2.18-.69-4.27-1.08-6.37-1.33-15.48-1.85-30.24,6.15-33.98,20.62-2.8,10.86,4.75,21.23,20.35,23.09,1.86.22,3.85.32,5.99.28,16.49-.33,30.98-6.06,43.34-14.92-6.33-10.08-16.13-23.74-29.33-27.75Zm95.9-40.79c-10.27,9.25-16.85,18.08-23.88,28.58,6.45-.38,13.44-2.13,20.34-6.33,15.17-9.24,23.65-25.59,19.83-28.34-3.14-2.1-8.96-.64-16.3,6.09Z"/>
    <path class="cls-1" d="m257.37,104.75c.48,1.42.33,2.85-.26,4.23-2.11,4.93-9.95,9.84-17.35,12.64-12.13,4.43-28.01,7.12-40.7,8.88-1.21,2.47-2.14,4.64-2.9,6.76-.64,1.49-1.87,2.18-2.83,1.91-1.02-.16-1.69-1.13-.85-3.08.74-1.72,1.47-3.44,2.29-4.99-15.76,2.06-29.66,3.02-44.66,9.08,4.67,9.73,12.17,24.07,9.48,39.74-.56,2.75-1.34,5.66-2.47,8.3-6.24,14.55-21.38,26.38-40.07,21.9-1.41-.33-2.9-.83-4.21-1.4-13.75-5.89-19.76-22.98-10.94-41.04,7.37-15.02,22.79-26.05,40.79-32.98-9.02-17.29-13.72-31.65-9.16-43.39,5.07-13.29,16.57-16.23,19.12-16.77,1.39-.35,2.26.15,2.1.9-.11.63-.77,1.43-2.36,2.25-2.49,1.1-6.89,5.59-9.61,12.3-5.86,15.12-1.91,29.43,3.97,43.21,17.79-6.08,33.07-6.99,51.42-8.22,4.65-7.23,10.66-12.93,20.23-17.92,9.04-4.81,27.68-8.89,35.54-5.53,1.7.73,2.95,1.81,3.42,3.23Zm-110.88,37c-13.85,6.27-26.06,15.96-34.59,30.08-1.1,1.84-2.01,3.61-2.75,5.33-6.19,14.44-.98,26.17,9.83,29.17,14.41,4,28.71-4.79,34.85-19.11.83-1.95,1.54-3.95,2.03-6.18,3.13-13.45-3.8-28.76-9.37-39.28Zm106.06-34.45c-.48-4.68-18.88-5.51-34.46,3.01-7.09,3.88-12.1,9.06-15.65,14.45,12.61-.84,23.54-2.12,36.69-6.39,9.49-2.99,13.67-7.3,13.42-11.07Z"/>
    <path class="cls-1" d="m260.43,118.94c-3.86,7.63-20.76,16.49-30.78,18.61-10.54,2.34-18.81,1.83-27.02-.72-14.85,10.86-27.14,19.97-44.67,26.76,4.35,14.33,10.52,27.83,24.73,35.65,6.39,3.39,12.65,4,15.26,3.24,1.74-.4,2.76-.2,3.25.21.6.46.26,1.41-1.03,2.04-2.3,1.23-12.99,6.36-25.42-.55-11.05-6.06-16.67-20.08-20.88-39.13-18.25,6.26-37.15,7.73-52.45.96-18.37-8.16-24.75-25.12-18-38.47.64-1.27,1.46-2.62,2.33-3.77,11.44-15.45,30.64-16.13,44.77-8.98,2.56,1.29,5.04,3.02,7.23,4.77,12.13,10.28,15.6,26.08,18.28,36.54,15.38-5,26.64-13.2,40.05-21.75-1.62-.66-3.29-1.5-4.96-2.35-1.89-.96-2-2.13-1.33-2.9.56-.83,1.95-1.09,3.39-.36,1.94,1.14,4.05,2.21,6.57,3.32,10.85-6.81,24.74-14.96,36.88-19.36,7.47-2.61,16.63-3.89,21.42-1.47,1.34.67,2.37,1.67,2.92,3.07.55,1.4.29,3.02-.55,4.67Zm-126.25,2.14c-1.81-1.39-3.64-2.48-5.53-3.43-13.91-7.03-30.52-4.57-38.98,7.76-6.35,9.24-2.8,21.57,11.22,28.66,1.67.84,3.51,1.62,5.53,2.32,15.61,5.33,31.19,4.9,45.83.81-2.5-11.64-7.04-27.82-18.07-36.11Zm104.07-5.52c-12.81,5.18-22.02,11.23-32.21,18.69,6.19,1.85,13.36,2.6,21.28,1.01,17.41-3.49,30.97-15.96,28.33-19.85-2.23-3.04-8.2-3.67-17.4.15Z"/>
    <path class="cls-1" d="m266.25,144.18c-.04,1.5-.67,2.79-1.69,3.88-3.67,3.91-12.72,5.85-20.63,5.94-12.92.02-28.76-2.89-41.28-5.58-1.98,1.9-3.6,3.63-5.04,5.36-1.11,1.18-2.5,1.41-3.31.82-.9-.5-1.2-1.64.25-3.18,1.28-1.36,2.56-2.73,3.86-3.9-15.52-3.45-28.91-7.3-45.07-6.74,1.06,10.74,3.2,26.78-4.68,40.58-1.46,2.39-3.2,4.86-5.16,6.95-10.84,11.54-29.11,17.48-45.14,6.87-1.21-.79-2.44-1.77-3.48-2.75-10.91-10.24-10.71-28.35,3.76-42.31,12.06-11.6,30.32-16.68,49.61-17.04-2.56-19.34-2.07-34.44,6.24-43.91,9.31-10.75,21.12-9.59,23.7-9.22,1.43.14,2.07.92,1.66,1.56-.32.55-1.21,1.08-2.98,1.3-2.72.19-8.39,2.9-13.24,8.27-10.68,12.21-11.86,27-11.05,41.96,18.8.38,33.47,4.74,51.13,9.86,6.84-5.21,14.44-8.51,25.14-9.92,10.14-1.43,29.05,1.11,35.29,6.96,1.35,1.27,2.15,2.7,2.11,4.21Zm-116.84-3.15c-15.16,1.16-29.95,6.09-42.79,16.43-1.66,1.35-3.13,2.71-4.41,4.07-10.75,11.45-9.87,24.25-.74,30.77,12.17,8.69,28.62,5.32,39.29-6.04,1.45-1.55,2.8-3.19,4.02-5.12,7.54-11.57,6.26-28.32,4.63-40.12Zm111.45,3.9c1.15-4.56-15.85-11.63-33.41-8.96-7.99,1.22-14.47,4.38-19.65,8.23,12.13,3.52,22.85,6.06,36.66,6.54,9.94.44,15.34-2.19,16.4-5.81Z"/>
    <path class="cls-1" d="m264.28,158.56c-6.23,5.85-25.15,8.39-35.29,6.96-10.7-1.41-18.3-4.71-25.14-9.92-17.66,5.12-32.33,9.49-51.13,9.86-.81,14.96.37,29.75,11.05,41.96,4.85,5.37,10.52,8.08,13.24,8.27,1.77.22,2.66.75,2.98,1.3.41.64-.23,1.42-1.66,1.56-2.58.37-14.39,1.54-23.7-9.22-8.31-9.47-8.8-24.57-6.24-43.91-19.29-.36-37.55-5.44-49.61-17.04-14.47-13.95-14.66-32.07-3.76-42.31,1.04-.98,2.27-1.96,3.48-2.75,16.03-10.61,34.31-4.67,45.14,6.87,1.96,2.09,3.7,4.56,5.16,6.95,7.88,13.81,5.74,29.84,4.68,40.58,16.16.56,29.55-3.29,45.07-6.74-1.3-1.17-2.58-2.54-3.86-3.9-1.45-1.55-1.15-2.68-.25-3.18.81-.59,2.2-.36,3.31.82,1.43,1.73,3.05,3.46,5.04,5.36,12.52-2.69,28.36-5.59,41.28-5.58,7.91.1,16.96,2.04,20.63,5.94,1.02,1.09,1.65,2.38,1.69,3.88.04,1.5-.76,2.94-2.11,4.21Zm-119.36-41.17c-1.22-1.93-2.57-3.57-4.02-5.12-10.67-11.36-27.12-14.73-39.29-6.04-9.13,6.52-10.01,19.32.74,30.77,1.28,1.36,2.75,2.72,4.41,4.07,12.84,10.35,27.63,15.28,42.79,16.43,1.63-11.79,2.91-28.55-4.63-40.12Zm99.68,30.4c-13.81.48-24.53,3.02-36.66,6.54,5.18,3.86,11.66,7.01,19.65,8.23,17.56,2.67,34.56-4.4,33.41-8.96-1.06-3.62-6.46-6.25-16.4-5.81Z"/>
    <path class="cls-1" d="m261.11,184.27c-.55,1.4-1.58,2.4-2.92,3.07-4.78,2.42-13.95,1.14-21.42-1.47-12.14-4.4-26.04-12.55-36.88-19.36-2.51,1.11-4.63,2.18-6.57,3.32-1.45.73-2.83.47-3.4-.36-.67-.78-.57-1.95,1.33-2.9,1.67-.84,3.34-1.69,4.96-2.35-13.4-8.55-24.67-16.75-40.05-21.75-2.68,10.45-6.15,26.25-18.28,36.54-2.19,1.75-4.67,3.48-7.23,4.77-14.13,7.14-33.33,6.47-44.77-8.98-.86-1.16-1.68-2.5-2.33-3.77-6.75-13.35-.37-30.31,18-38.47,15.3-6.77,34.2-5.31,52.45.96,4.21-19.05,9.83-33.07,20.88-39.13,12.43-6.92,23.12-1.79,25.42-.55,1.29.62,1.63,1.57,1.03,2.04-.49.41-1.51.6-3.25.21-2.62-.75-8.87-.14-15.26,3.24-14.21,7.82-20.38,21.32-24.73,35.65,17.54,6.78,29.83,15.9,44.67,26.76,8.21-2.55,16.48-3.06,27.02-.72,10.01,2.12,26.92,10.98,30.78,18.61.84,1.65,1.1,3.28.54,4.67Zm-108.72-42.92c-14.64-4.1-30.22-4.52-45.83.81-2.02.7-3.87,1.47-5.53,2.32-14.02,7.08-17.57,19.42-11.22,28.66,8.46,12.33,25.07,14.79,38.98,7.76,1.89-.96,3.72-2.04,5.53-3.43,11.04-8.29,15.57-24.47,18.07-36.11Zm103.39,41.79c2.64-3.89-10.92-16.36-28.33-19.85-7.92-1.58-15.09-.84-21.28,1.01,10.2,7.46,19.4,13.51,32.21,18.69,9.19,3.82,15.16,3.19,17.4.15Z"/>
    <path class="cls-1" d="m254.34,197.1c-7.86,3.37-26.5-.72-35.54-5.53-9.58-4.98-15.58-10.69-20.23-17.92-18.35-1.23-33.62-2.14-51.42-8.22-5.88,13.78-9.83,28.08-3.97,43.21,2.72,6.7,7.12,11.19,9.61,12.3,1.59.81,2.24,1.62,2.36,2.25.16.74-.7,1.25-2.1.9-2.55-.53-14.05-3.48-19.12-16.77-4.57-11.74.13-26.1,9.16-43.39-18.01-6.93-33.43-17.96-40.79-32.98-8.82-18.06-2.81-35.15,10.94-41.04,1.31-.56,2.8-1.06,4.21-1.4,18.7-4.48,33.84,7.34,40.07,21.9,1.13,2.64,1.92,5.55,2.47,8.3,2.68,15.67-4.82,30.01-9.48,39.74,14.99,6.05,28.89,7.02,44.66,9.08-.82-1.55-1.55-3.27-2.29-4.99-.83-1.95-.16-2.91.85-3.08.96-.28,2.19.42,2.83,1.91.75,2.12,1.69,4.3,2.9,6.76,12.69,1.75,28.57,4.44,40.7,8.88,7.4,2.8,15.24,7.71,17.35,12.64.59,1.38.74,2.8.26,4.23-.47,1.42-1.72,2.5-3.42,3.23Zm-98.08-79.51c-.49-2.23-1.19-4.24-2.03-6.18-6.14-14.33-20.44-23.12-34.85-19.11-10.8,3-16.01,14.73-9.83,29.17.74,1.72,1.65,3.5,2.75,5.33,8.53,14.12,20.74,23.8,34.59,30.08,5.57-10.52,12.49-25.83,9.37-39.28Zm83.27,62.66c-13.15-4.27-24.08-5.55-36.69-6.39,3.55,5.4,8.56,10.57,15.65,14.46,15.58,8.52,33.98,7.68,34.46,3,.25-3.77-3.93-8.08-13.42-11.07Z"/>
    <path class="cls-1" d="m242.57,220.18c-1,1.12-2.31,1.71-3.79,1.89-5.32.63-13.5-3.7-19.62-8.71-9.91-8.29-20.18-20.7-28.04-30.81-2.74.18-5.09.46-7.3.87-1.61.19-2.83-.52-3.07-1.5-.37-.96.13-2.03,2.24-2.28,1.86-.22,3.71-.44,5.46-.51-9.67-12.62-17.45-24.18-30.19-34.13-6.09,8.91-14.76,22.57-29.67,28.08-2.66.89-5.58,1.67-8.42,2.01-15.72,1.88-33.53-5.32-39-23.76-.42-1.38-.73-2.93-.9-4.34-1.77-14.86,10.02-28.6,30.07-29.99,16.69-1.13,33.95,6.71,48.96,18.84,10.47-16.46,20.55-27.71,33-29.63,14.05-2.25,22.34,6.23,24.08,8.17,1,1.03,1,2.03.27,2.26-.6.21-1.63.05-3.12-.92-2.2-1.6-8.29-3.17-15.45-2.17-16.03,2.49-26.44,13.06-35.43,25.04,14.16,12.37,22.59,25.14,32.83,40.42,8.59.41,16.53,2.76,25.63,8.56,8.68,5.42,21.54,19.53,22.56,28.02.22,1.84-.09,3.46-1.09,4.58Zm-87.48-77.52c-12.36-8.86-26.85-14.59-43.34-14.92-2.14-.03-4.14.06-5.99.28-15.6,1.86-23.15,12.24-20.35,23.09,3.74,14.48,18.5,22.47,33.98,20.62,2.1-.25,4.19-.64,6.37-1.33,13.21-4.01,23-17.67,29.33-27.75Zm82.87,74.63c3.81-2.75-4.67-19.1-19.83-28.34-6.9-4.2-13.89-5.95-20.34-6.33,7.03,10.5,13.61,19.33,23.88,28.58,7.33,6.73,13.16,8.19,16.3,6.09Z"/>
    <path class="cls-1" d="m231.81,229.93c-8.54.48-24.66-9.74-31.51-17.35-7.29-7.96-10.99-15.37-12.88-23.76-16.83-7.43-30.86-13.51-45.51-25.31-10.24,10.94-18.84,23.03-18.5,39.24.26,7.23,2.86,12.95,4.82,14.84,1.21,1.31,1.55,2.29,1.45,2.92-.1.75-1.09.94-2.28.13-2.22-1.37-12.01-8.07-12.23-22.29-.28-12.6,9.05-24.48,23.44-37.65-14.55-12.67-25.27-28.31-27.05-44.94-2.11-19.99,9.38-33.99,24.32-34.82,1.42-.08,2.99-.04,4.43.13,19.1,2.18,29.29,18.47,30.17,34.28.16,2.86-.1,5.87-.52,8.65-2.84,15.64-14.79,26.55-22.5,34.1,12.02,10.82,24.75,16.48,38.86,23.81-.24-1.73-.34-3.6-.45-5.47-.12-2.12.84-2.79,1.85-2.6,1,.07,1.92,1.14,2.01,2.76-.02,2.25.11,4.61.41,7.34,11.32,5.99,25.32,13.95,35.21,22.26,6,5.16,11.68,12.46,11.98,17.81.08,1.49-.27,2.89-1.2,4.06-.93,1.18-2.47,1.76-4.32,1.86Zm-64.98-108.26c.3-2.26.33-4.39.21-6.5-.87-15.56-11.31-28.71-26.21-29.88-11.18-.88-20.08,8.36-19.21,24.05.1,1.87.36,3.85.76,5.95,3.18,16.18,11.35,29.46,22.21,40.09,8.83-7.98,20.58-20,22.24-33.71Zm56.82,87.36c-10.89-8.51-20.73-13.45-32.29-18.55,1.49,6.29,4.43,12.87,9.76,18.94,11.73,13.33,29.31,18.84,31.35,14.61,1.52-3.46-.93-8.94-8.83-14.99Z"/>
    <path class="cls-1" d="m212.86,247.59c-1.32.72-2.75.82-4.21.48-5.22-1.22-11.42-8.09-15.46-14.89-6.47-11.18-11.88-26.35-15.81-38.54-2.64-.77-4.94-1.31-7.16-1.68-1.58-.37-2.47-1.46-2.37-2.46-.02-1.03.82-1.86,2.88-1.37,1.82.43,3.64.85,5.31,1.39-4.77-15.17-8.13-28.69-16.7-42.4-8.77,6.29-21.59,16.16-37.49,16.24-2.8-.07-5.81-.34-8.6-.99-15.42-3.61-29.69-16.47-28.52-35.66.08-1.44.32-3,.64-4.39,3.41-14.57,19.2-23.45,38.52-17.9,16.07,4.64,29.61,17.92,39.56,34.45,15.46-11.89,28.79-19.01,41.14-16.55,13.97,2.69,18.86,13.5,19.83,15.92.59,1.31.24,2.25-.52,2.22-.64,0-1.55-.51-2.62-1.93-1.52-2.26-6.7-5.82-13.78-7.33-15.91-3.14-29.31,3.23-41.86,11.41,9.07,16.47,12.63,31.35,17.02,49.21,7.93,3.32,14.59,8.25,21.16,16.81,6.31,8.06,13.56,25.72,11.61,34.04-.42,1.8-1.27,3.21-2.59,3.93Zm-55.69-102.77c-8.58-12.55-20.25-22.89-35.63-28.84-2-.76-3.91-1.36-5.73-1.78-15.29-3.58-25.94,3.58-27.02,14.74-1.44,14.88,9.7,27.45,24.88,31,2.06.48,4.16.83,6.44.93,13.78.74,27.66-8.74,37.06-16.05Zm52.35,98.47c4.53-1.28,2.15-19.55-8.94-33.42-5.05-6.31-11.02-10.34-16.95-12.9,3.02,12.27,6.18,22.81,12.67,35.02,4.59,8.83,9.56,12.19,13.23,11.3Z"/>
    <path class="cls-1" d="m199.42,253.06c-8.18-2.47-19.84-17.59-23.67-27.08-4.13-9.97-5.07-18.2-3.98-26.73-13.27-12.73-24.38-23.25-34.11-39.35-13.36,6.77-25.58,15.2-30.81,30.55-2.23,6.88-1.74,13.15-.54,15.6.69,1.64.68,2.68.36,3.24-.35.67-1.34.51-2.18-.66-1.61-2.05-8.53-11.69-3.87-25.13,4.05-11.93,16.88-19.91,34.91-27.36-9.34-16.89-14.06-35.25-10.05-51.49,4.85-19.5,20.44-28.73,34.76-24.41,1.36.41,2.83.98,4.12,1.64,17.2,8.58,21.2,27.37,16.62,42.53-.83,2.74-2.1,5.49-3.44,7.95-8.02,13.73-22.98,19.89-32.81,24.34,7.59,14.28,17.62,23.95,28.37,35.66.37-1.71.91-3.5,1.45-5.29.61-2.03,1.75-2.34,2.63-1.81.92.41,1.41,1.73.94,3.28-.79,2.11-1.47,4.38-2.13,7.04,8.59,9.5,19.03,21.77,25.47,32.96,3.87,6.9,6.72,15.7,5.17,20.84-.43,1.43-1.24,2.62-2.52,3.41-1.28.79-2.92.81-4.7.27Zm-24.03-123.96c1.06-2.02,1.81-4.01,2.42-6.04,4.51-14.92-.8-30.85-14.41-37.04-10.21-4.65-21.73.99-26.28,16.03-.54,1.79-.98,3.74-1.32,5.85-2.54,16.29.59,31.57,7.16,45.27,11.03-4.48,26.18-11.76,32.43-24.07Zm23.51,101.53c-7.33-11.72-14.88-19.73-24-28.48-.75,6.42-.24,13.6,2.7,21.13,6.46,16.54,21.09,27.73,24.47,24.45,2.61-2.73,2.19-8.72-3.17-17.11Z"/>
    <path class="cls-1" d="m175.57,263.18c-1.49.22-2.87-.17-4.12-.99-4.49-2.94-7.96-11.51-9.44-19.28-2.26-12.72-2.15-28.82-1.68-41.62-2.22-1.62-4.2-2.92-6.16-4.03-1.36-.89-1.83-2.22-1.39-3.12.34-.97,1.4-1.46,3.18-.3,1.57,1.02,3.13,2.05,4.51,3.12.71-15.88,2.17-29.74-1.19-45.56-10.39,2.91-25.81,7.8-40.78,2.44-2.61-1.02-5.35-2.31-7.75-3.88-13.25-8.67-22.27-25.63-14.6-43.27.57-1.33,1.32-2.71,2.1-3.9,8.19-12.52,26.06-15.47,42.31-3.65,13.51,9.86,21.7,26.96,25.4,45.9,18.6-5.88,33.55-8.02,44.32-1.48,12.21,7.3,13.11,19.13,13.19,21.74.11,1.43-.54,2.2-1.25,1.91-.6-.22-1.28-1.01-1.8-2.71-.66-2.64-4.31-7.76-10.44-11.6-13.88-8.4-28.65-6.99-43.24-3.6,2.89,18.58,1.14,33.78-.84,52.07,6.31,5.83,10.89,12.74,14.13,23.04,3.17,9.73,3.95,28.81-.73,35.96-1.01,1.55-2.29,2.59-3.77,2.81Zm-17.19-115.62c-3.77-14.73-11.19-28.44-23.62-39.29-1.62-1.4-3.21-2.61-4.77-3.63-13.15-8.6-25.6-5.51-30.43,4.61-6.44,13.49-.27,29.11,12.77,37.64,1.77,1.16,3.62,2.2,5.74,3.07,12.7,5.41,28.98,1.25,40.31-2.4Zm15.51,110.43c4.69.34,8.7-17.63,3.02-34.46-2.59-7.65-6.82-13.49-11.52-17.92-1.36,12.56-2,23.55-.08,37.24,1.29,9.87,4.82,14.73,8.57,15.14Z"/>
    <path class="cls-1" d="m161.07,263.73c-6.84-5.12-12.63-23.31-12.99-33.54-.47-10.79,1.46-18.84,5.4-26.48-8.11-16.51-14.96-30.19-18.59-48.64-14.87,1.8-29.23,5.53-39.4,18.17-4.45,5.71-6.13,11.76-5.84,14.47.09,1.78-.28,2.75-.77,3.16-.56.51-1.43.02-1.83-1.37-.81-2.48-4.01-13.9,4.96-24.94,7.89-9.83,22.67-12.93,42.16-13.77-3-19.06-1.16-37.93,8.17-51.82,11.23-16.67,29.03-20.01,41.01-11.04,1.14.85,2.32,1.89,3.31,2.95,13.23,13.95,10.56,32.97,1.07,45.65-1.72,2.3-3.85,4.44-5.95,6.29-12.23,10.16-28.39,10.83-39.16,11.66,2.25,16.01,8.37,28.53,14.47,43.21.93-1.48,2.05-2.98,3.17-4.48,1.27-1.7,2.44-1.6,3.09-.8.72.7.74,2.11-.23,3.41-1.46,1.71-2.88,3.61-4.41,5.89,4.83,11.86,10.43,26.96,12.66,39.68,1.28,7.81.94,17.05-2.27,21.35-.9,1.2-2.06,2.04-3.53,2.34-1.47.3-3.02-.24-4.51-1.35Zm19.81-124.7c1.69-1.54,3.07-3.15,4.34-4.85,9.34-12.48,9.8-29.26-.87-39.74-8-7.86-20.76-6.5-30.17,6.07-1.12,1.5-2.2,3.18-3.24,5.05-7.96,14.44-10.24,29.86-8.75,44.99,11.9-.44,28.62-2.1,38.7-11.53Zm-12.63,103.45c-2.88-13.52-7.23-23.63-12.81-34.97-2.9,5.77-4.88,12.7-4.69,20.78.42,17.75,10.34,33.27,14.63,31.35,3.38-1.67,5.04-7.44,2.87-17.16Z"/>
    <path class="cls-1" d="m135.2,265.08c-1.47-.3-2.63-1.14-3.53-2.34-3.21-4.29-3.55-13.54-2.27-21.35,2.23-12.72,7.83-27.82,12.66-39.68-1.53-2.28-2.95-4.18-4.41-5.89-.97-1.3-.96-2.71-.23-3.41.65-.8,1.82-.9,3.09.8,1.12,1.5,2.24,2.99,3.17,4.48,6.1-14.68,12.21-27.2,14.46-43.21-10.76-.82-26.92-1.5-39.15-11.66-2.1-1.85-4.23-3.99-5.95-6.29-9.49-12.68-12.16-31.7,1.07-45.65.99-1.05,2.17-2.09,3.31-2.95,11.98-8.96,29.78-5.62,41.01,11.04,9.33,13.89,11.17,32.76,8.17,51.82,19.49.83,34.27,3.94,42.16,13.77,8.97,11.04,5.78,22.46,4.96,24.94-.39,1.38-1.26,1.88-1.83,1.37-.49-.41-.86-1.38-.77-3.16.29-2.71-1.4-8.76-5.84-14.47-10.17-12.64-24.53-16.37-39.4-18.17-3.63,18.45-10.48,32.13-18.59,48.64,3.94,7.64,5.87,15.69,5.4,26.48-.35,10.23-6.14,28.42-12.98,33.54-1.48,1.11-3.04,1.65-4.51,1.35Zm23.39-114.52c1.49-15.13-.79-30.55-8.75-44.99-1.04-1.87-2.12-3.55-3.24-5.05-9.41-12.58-22.17-13.93-30.17-6.07-10.67,10.48-10.21,27.26-.87,39.74,1.27,1.7,2.65,3.31,4.34,4.85,10.08,9.43,26.8,11.09,38.7,11.53Zm-23.2,109.08c4.29,1.93,14.21-13.59,14.63-31.35.18-8.08-1.8-15.01-4.69-20.78-5.58,11.34-9.93,21.45-12.81,34.97-2.16,9.72-.51,15.49,2.87,17.16Z"/>
    <path class="cls-1" d="m121.39,260.63c-4.68-7.15-3.9-26.23-.73-35.96,3.25-10.3,7.82-17.2,14.13-23.04-1.98-18.29-3.73-33.49-.84-52.07-14.59-3.4-29.36-4.8-43.24,3.6-6.13,3.84-9.79,8.96-10.44,11.6-.52,1.71-1.2,2.49-1.8,2.71-.7.29-1.35-.48-1.25-1.91.08-2.61.99-14.44,13.19-21.74,10.77-6.54,25.73-4.4,44.33,1.48,3.7-18.94,11.88-36.04,25.4-45.9,16.25-11.82,34.12-8.87,42.31,3.65.78,1.19,1.53,2.57,2.1,3.9,7.66,17.63-1.35,34.6-14.6,43.27-2.4,1.57-5.14,2.85-7.75,3.88-14.97,5.36-30.39.47-40.78-2.44-3.36,15.82-1.89,29.67-1.19,45.56,1.38-1.07,2.95-2.1,4.51-3.12,1.77-1.16,2.84-.67,3.18.3.44.9-.03,2.23-1.39,3.12-1.96,1.11-3.94,2.41-6.16,4.03.48,12.8.58,28.9-1.68,41.62-1.47,7.77-4.95,16.35-9.44,19.28-1.25.82-2.63,1.21-4.12.99-1.48-.22-2.76-1.26-3.77-2.81Zm14.02-17.51c1.92-13.69,1.29-24.68-.08-37.24-4.7,4.43-8.93,10.27-11.52,17.92-5.68,16.83-1.67,34.8,3.02,34.46,3.75-.41,7.28-5.27,8.57-15.14Zm47.25-92.89c2.11-.87,3.96-1.91,5.74-3.07,13.04-8.53,19.21-24.15,12.77-37.64-4.83-10.12-17.28-13.21-30.43-4.61-1.57,1.02-3.16,2.24-4.77,3.63-12.42,10.85-19.84,24.56-23.62,39.29,11.33,3.66,27.61,7.82,40.31,2.41Z"/>
    <path class="cls-1" d="m96.61,253.05c-1.28-.79-2.08-1.98-2.52-3.41-1.55-5.13,1.3-13.94,5.17-20.84,6.44-11.19,16.88-23.46,25.47-32.96-.66-2.67-1.34-4.94-2.13-7.04-.47-1.55.02-2.87.94-3.28.88-.53,2.02-.22,2.63,1.81.54,1.79,1.08,3.58,1.45,5.29,10.75-11.71,20.78-21.38,28.37-35.66-9.83-4.45-24.79-10.62-32.81-24.34-1.34-2.46-2.61-5.2-3.44-7.95-4.58-15.16-.58-33.95,16.62-42.53,1.29-.65,2.76-1.22,4.12-1.64,14.32-4.33,29.91,4.9,34.76,24.41,4.01,16.24-.71,34.6-10.05,51.49,18.03,7.45,30.86,15.43,34.91,27.36,4.66,13.44-2.26,23.08-3.87,25.13-.84,1.17-1.83,1.33-2.18.66-.32-.56-.33-1.59.36-3.23,1.2-2.45,1.68-8.71-.54-15.6-5.23-15.35-17.45-23.77-30.81-30.55-9.73,16.09-20.84,26.61-34.11,39.35,1.09,8.53.15,16.76-3.98,26.73-3.83,9.49-15.49,24.61-23.67,27.08-1.77.54-3.42.51-4.7-.27Zm2.05-5.05c3.37,3.28,18-7.91,24.47-24.45,2.94-7.53,3.44-14.72,2.7-21.13-9.12,8.75-16.67,16.76-24,28.48-5.35,8.39-5.78,14.38-3.17,17.11Zm59.1-94.57c6.58-13.71,9.7-28.98,7.16-45.27-.34-2.11-.78-4.06-1.32-5.85-4.54-15.04-16.07-20.67-26.28-16.03-13.61,6.19-18.92,22.13-14.41,37.04.61,2.03,1.36,4.02,2.42,6.04,6.25,12.31,21.4,19.59,32.43,24.07Z"/>
    <path class="cls-1" d="m85.15,244.15c-1.95-8.32,5.31-25.98,11.61-34.04,6.57-8.56,13.23-13.49,21.16-16.81,4.39-17.86,7.95-32.74,17.02-49.21-12.55-8.18-25.95-14.55-41.86-11.41-7.07,1.51-12.26,5.07-13.78,7.33-1.08,1.42-1.98,1.93-2.62,1.93-.76.03-1.11-.91-.52-2.22.97-2.42,5.86-13.23,19.83-15.92,12.36-2.46,25.68,4.66,41.14,16.55,9.96-16.53,23.49-29.8,39.56-34.45,19.32-5.55,35.1,3.33,38.52,17.9.33,1.39.56,2.94.64,4.39,1.17,19.19-13.1,32.05-28.52,35.66-2.79.65-5.8.92-8.6.99-15.9-.08-28.71-9.95-37.49-16.24-8.57,13.72-11.93,27.24-16.7,42.4,1.67-.54,3.49-.96,5.31-1.39,2.06-.48,2.9.35,2.88,1.37.11,1-.79,2.09-2.37,2.46-2.22.37-4.52.91-7.16,1.68-3.93,12.19-9.34,27.36-15.81,38.54-4.04,6.8-10.24,13.67-15.46,14.89-1.46.34-2.89.24-4.21-.48-1.32-.71-2.16-2.13-2.59-3.93Zm19.16-11.66c6.49-12.2,9.65-22.75,12.67-35.02-5.93,2.56-11.9,6.59-16.95,12.9-11.09,13.87-13.47,32.13-8.94,33.42,3.67.9,8.64-2.46,13.23-11.3Zm76.17-71.12c2.28-.1,4.38-.44,6.44-.92,15.17-3.56,26.31-16.12,24.88-31-1.08-11.16-11.72-18.33-27.02-14.74-1.82.43-3.73,1.02-5.73,1.78-15.38,5.95-27.04,16.29-35.63,28.84,9.4,7.31,23.27,16.79,37.06,16.05Z"/>
    <path class="cls-1" d="m64.46,228.56c-.93-1.18-1.28-2.57-1.2-4.06.3-5.35,5.98-12.65,11.98-17.81,9.88-8.31,23.88-16.28,35.21-22.26.3-2.73.43-5.1.41-7.34.09-1.62,1.01-2.69,2.01-2.76,1.01-.19,1.97.48,1.85,2.6-.1,1.87-.21,3.73-.45,5.47,14.11-7.33,26.84-12.99,38.86-23.81-7.71-7.55-19.66-18.45-22.5-34.1-.42-2.77-.68-5.78-.52-8.65.88-15.81,11.07-32.1,30.17-34.28,1.44-.17,3.01-.21,4.43-.13,14.94.83,26.43,14.84,24.32,34.82-1.78,16.63-12.5,32.27-27.05,44.94,14.39,13.17,23.72,25.05,23.44,37.65-.22,14.22-10.01,20.92-12.23,22.29-1.19.81-2.18.63-2.28-.13-.11-.63.23-1.61,1.45-2.92,1.96-1.89,4.56-7.61,4.82-14.84.33-16.21-8.27-28.31-18.5-39.24-14.64,11.8-28.68,17.88-45.51,25.31-1.89,8.39-5.59,15.8-12.88,23.76-6.85,7.61-22.97,17.82-31.51,17.35-1.85-.1-3.39-.69-4.32-1.86Zm3.65-4.04c2.05,4.23,19.62-1.28,31.35-14.61,5.33-6.07,8.27-12.65,9.76-18.94-11.56,5.1-21.4,10.05-32.29,18.55-7.9,6.05-10.35,11.54-8.83,14.99Zm87.88-68.65c10.87-10.63,19.03-23.91,22.21-40.09.4-2.1.66-4.08.76-5.95.88-15.69-8.03-24.92-19.21-24.05-14.91,1.17-25.34,14.32-26.21,29.88-.12,2.12-.09,4.24.21,6.51,1.66,13.7,13.41,25.72,22.24,33.71Z"/>
    <path class="cls-1" d="m56.74,216.27c1.01-8.49,13.87-22.59,22.56-28.02,9.11-5.8,17.05-8.15,25.63-8.56,10.24-15.28,18.67-28.05,32.83-40.42-8.99-11.98-19.41-22.55-35.43-25.04-7.16-1-13.25.57-15.45,2.17-1.5.97-2.52,1.13-3.12.92-.73-.23-.73-1.23.27-2.26,1.74-1.95,10.03-10.43,24.08-8.17,12.45,1.92,22.54,13.17,33,29.63,15.01-12.13,32.27-19.97,48.96-18.84,20.05,1.39,31.84,15.14,30.07,29.99-.17,1.41-.48,2.96-.9,4.34-5.47,18.43-23.28,25.63-39,23.76-2.85-.34-5.77-1.12-8.42-2.01-14.91-5.51-23.58-19.17-29.67-28.08-12.74,9.96-20.52,21.51-30.19,34.14,1.75.07,3.61.29,5.46.51,2.1.25,2.61,1.32,2.24,2.28-.24.98-1.46,1.69-3.07,1.5-2.21-.41-4.56-.69-7.3-.87-7.86,10.11-18.13,22.52-28.04,30.81-6.12,5.01-14.3,9.34-19.62,8.71-1.49-.18-2.8-.76-3.79-1.89-1-1.12-1.31-2.74-1.09-4.58Zm22-4.4c10.27-9.25,16.85-18.08,23.88-28.58-6.45.38-13.44,2.13-20.34,6.32-15.17,9.24-23.65,25.59-19.83,28.34,3.14,2.09,8.96.64,16.3-6.09Zm95.9-40.78c2.18.69,4.27,1.08,6.37,1.33,15.48,1.85,30.24-6.15,33.98-20.62,2.8-10.86-4.75-21.23-20.35-23.09-1.86-.22-3.85-.32-5.99-.28-16.49.33-30.98,6.06-43.34,14.92,6.33,10.08,16.13,23.74,29.33,27.75Z"/>
    <path class="cls-1" d="m42.63,194.54c-.48-1.42-.33-2.85.26-4.23,2.11-4.93,9.95-9.84,17.35-12.64,12.13-4.43,28.01-7.12,40.7-8.88,1.21-2.47,2.14-4.64,2.9-6.76.64-1.49,1.87-2.18,2.83-1.91,1.02.16,1.69,1.13.85,3.08-.74,1.72-1.47,3.44-2.29,4.99,15.76-2.06,29.66-3.03,44.66-9.08-4.67-9.73-12.17-24.07-9.48-39.74.56-2.75,1.34-5.66,2.47-8.3,6.24-14.55,21.38-26.38,40.07-21.9,1.41.33,2.9.83,4.21,1.4,13.75,5.89,19.76,22.98,10.94,41.04-7.36,15.02-22.78,26.05-40.79,32.98,9.02,17.29,13.72,31.65,9.16,43.39-5.07,13.29-16.57,16.23-19.12,16.77-1.39.35-2.26-.15-2.1-.9.12-.63.77-1.43,2.36-2.25,2.49-1.1,6.89-5.59,9.61-12.3,5.86-15.12,1.91-29.43-3.97-43.21-17.79,6.08-33.07,6.99-51.42,8.22-4.65,7.23-10.66,12.93-20.23,17.92-9.04,4.81-27.68,8.89-35.54,5.53-1.7-.73-2.95-1.81-3.42-3.23Zm4.81-2.55c.48,4.68,18.88,5.51,34.46-3,7.09-3.88,12.1-9.06,15.65-14.46-12.61.84-23.54,2.12-36.69,6.39-9.49,2.99-13.67,7.3-13.42,11.07Zm106.06-34.45c13.85-6.27,26.06-15.96,34.59-30.08,1.1-1.84,2.01-3.61,2.75-5.33,6.19-14.44.98-26.17-9.83-29.17-14.41-4-28.71,4.79-34.85,19.11-.83,1.95-1.54,3.95-2.03,6.18-3.13,13.45,3.8,28.76,9.37,39.28Z"/>
    <path class="cls-1" d="m39.58,180.36c3.86-7.63,20.76-16.49,30.78-18.61,10.54-2.34,18.81-1.83,27.02.72,14.85-10.86,27.14-19.97,44.67-26.76-4.35-14.33-10.52-27.83-24.73-35.65-6.39-3.39-12.65-4-15.26-3.24-1.74.4-2.76.2-3.25-.21-.6-.46-.27-1.41,1.03-2.04,2.3-1.23,12.99-6.36,25.42.56,11.05,6.06,16.67,20.08,20.88,39.13,18.25-6.26,37.15-7.73,52.45-.96,18.37,8.16,24.75,25.12,18,38.47-.64,1.27-1.46,2.62-2.33,3.77-11.44,15.45-30.64,16.13-44.77,8.98-2.56-1.29-5.04-3.02-7.23-4.77-12.13-10.28-15.6-26.08-18.28-36.53-15.38,5-26.64,13.2-40.05,21.75,1.62.66,3.29,1.5,4.96,2.35,1.89.96,2,2.13,1.33,2.9-.56.83-1.95,1.09-3.4.36-1.94-1.14-4.05-2.21-6.57-3.32-10.85,6.81-24.74,14.96-36.88,19.36-7.47,2.61-16.63,3.89-21.42,1.47-1.34-.67-2.37-1.67-2.92-3.07-.55-1.4-.29-3.02.54-4.67Zm22.18,3.38c12.81-5.18,22.02-11.22,32.21-18.69-6.19-1.85-13.36-2.6-21.28-1.01-17.41,3.49-30.97,15.96-28.33,19.85,2.23,3.04,8.21,3.67,17.4-.15Zm104.07-5.52c1.81,1.39,3.64,2.48,5.53,3.43,13.91,7.03,30.52,4.57,38.98-7.76,6.35-9.25,2.8-21.58-11.22-28.66-1.67-.84-3.51-1.62-5.53-2.32-15.61-5.33-31.19-4.9-45.83-.81,2.5,11.64,7.04,27.82,18.07,36.11Z"/>
    <path class="cls-1" d="m33.75,155.11c.04-1.5.67-2.79,1.69-3.88,3.67-3.91,12.72-5.85,20.63-5.94,12.92-.02,28.76,2.88,41.28,5.58,1.98-1.9,3.6-3.63,5.04-5.36,1.11-1.18,2.5-1.41,3.31-.82.9.5,1.2,1.64-.25,3.18-1.28,1.36-2.56,2.73-3.86,3.9,15.52,3.45,28.91,7.3,45.07,6.74-1.06-10.74-3.2-26.78,4.68-40.58,1.46-2.39,3.2-4.86,5.16-6.95,10.84-11.54,29.11-17.48,45.15-6.87,1.21.79,2.44,1.78,3.48,2.75,10.91,10.24,10.71,28.35-3.76,42.31-12.06,11.59-30.32,16.68-49.61,17.04,2.56,19.34,2.07,34.44-6.24,43.91-9.31,10.75-21.12,9.59-23.7,9.22-1.43-.14-2.07-.92-1.66-1.56.32-.55,1.21-1.08,2.98-1.3,2.72-.19,8.39-2.9,13.23-8.27,10.68-12.21,11.86-27,11.05-41.96-18.8-.38-33.47-4.74-51.13-9.86-6.84,5.21-14.44,8.51-25.14,9.92-10.14,1.43-29.05-1.11-35.29-6.96-1.35-1.27-2.15-2.7-2.11-4.21Zm5.39-.75c-1.15,4.56,15.85,11.63,33.41,8.96,7.99-1.22,14.47-4.38,19.65-8.23-12.13-3.52-22.85-6.06-36.66-6.54-9.94-.44-15.34,2.19-16.4,5.81Zm111.45,3.9c15.16-1.16,29.95-6.09,42.79-16.43,1.66-1.35,3.13-2.71,4.41-4.07,10.75-11.45,9.87-24.25.74-30.77-12.17-8.69-28.62-5.32-39.29,6.04-1.45,1.55-2.8,3.19-4.02,5.12-7.54,11.57-6.26,28.32-4.63,40.12Z"/>
    <path class="cls-1" d="m35.73,140.73c6.23-5.85,25.15-8.39,35.29-6.96,10.7,1.41,18.3,4.71,25.14,9.92,17.66-5.12,32.33-9.49,51.13-9.86.81-14.96-.37-29.75-11.05-41.96-4.85-5.37-10.52-8.08-13.24-8.27-1.77-.22-2.66-.75-2.98-1.3-.41-.64.23-1.42,1.66-1.56,2.58-.37,14.39-1.54,23.7,9.22,8.31,9.47,8.8,24.57,6.24,43.91,19.29.36,37.55,5.44,49.61,17.04,14.47,13.95,14.66,32.07,3.76,42.31-1.04.98-2.27,1.96-3.48,2.75-16.03,10.61-34.31,4.67-45.14-6.87-1.96-2.09-3.7-4.56-5.16-6.95-7.88-13.81-5.74-29.84-4.68-40.58-16.16-.56-29.55,3.29-45.07,6.74,1.3,1.17,2.58,2.54,3.86,3.9,1.45,1.55,1.15,2.68.25,3.18-.81.59-2.2.36-3.31-.82-1.43-1.73-3.05-3.46-5.04-5.36-12.52,2.69-28.36,5.59-41.28,5.58-7.91-.1-16.96-2.04-20.63-5.94-1.02-1.09-1.65-2.38-1.69-3.88-.04-1.5.76-2.94,2.11-4.2Zm19.68,10.77c13.81-.48,24.53-3.02,36.66-6.54-5.18-3.86-11.66-7.01-19.65-8.23-17.56-2.67-34.56,4.4-33.41,8.96,1.06,3.62,6.46,6.25,16.4,5.81Zm99.68,30.4c1.22,1.93,2.57,3.57,4.02,5.12,10.67,11.36,27.12,14.73,39.29,6.04,9.13-6.52,10.01-19.32-.74-30.77-1.28-1.36-2.75-2.72-4.41-4.07-12.84-10.35-27.63-15.27-42.79-16.43-1.63,11.79-2.91,28.55,4.63,40.12Z"/>
    <path class="cls-1" d="m38.9,115.02c.55-1.4,1.58-2.4,2.92-3.07,4.79-2.42,13.95-1.14,21.42,1.47,12.14,4.4,26.04,12.55,36.88,19.36,2.51-1.11,4.63-2.18,6.57-3.32,1.45-.73,2.83-.47,3.39.36.67.78.57,1.95-1.33,2.9-1.67.84-3.34,1.69-4.96,2.35,13.4,8.55,24.67,16.75,40.05,21.75,2.68-10.45,6.15-26.25,18.28-36.54,2.19-1.75,4.67-3.48,7.23-4.77,14.13-7.14,33.33-6.47,44.77,8.98.87,1.16,1.68,2.5,2.33,3.77,6.75,13.35.37,30.31-18,38.47-15.3,6.77-34.2,5.31-52.45-.96-4.21,19.05-9.83,33.07-20.88,39.13-12.43,6.92-23.12,1.79-25.42.55-1.29-.62-1.63-1.57-1.03-2.04.49-.41,1.51-.6,3.25-.21,2.62.75,8.87.14,15.26-3.24,14.21-7.82,20.38-21.32,24.73-35.65-17.54-6.78-29.83-15.9-44.67-26.76-8.21,2.55-16.48,3.06-27.02.72-10.01-2.12-26.92-10.98-30.78-18.61-.83-1.65-1.1-3.28-.54-4.67Zm5.33,1.14c-2.64,3.89,10.92,16.36,28.33,19.85,7.92,1.58,15.09.84,21.28-1.01-10.2-7.46-19.4-13.51-32.21-18.69-9.19-3.82-15.16-3.19-17.4-.15Zm103.39,41.79c14.64,4.1,30.22,4.52,45.83-.81,2.02-.7,3.87-1.47,5.54-2.32,14.02-7.08,17.57-19.42,11.22-28.66-8.46-12.33-25.07-14.79-38.98-7.76-1.89.96-3.72,2.04-5.53,3.43-11.04,8.29-15.57,24.47-18.07,36.11Z"/>
    <path class="cls-1" d="m45.67,102.19c7.86-3.37,26.5.72,35.54,5.53,9.58,4.98,15.58,10.69,20.23,17.92,18.35,1.23,33.62,2.14,51.42,8.22,5.88-13.78,9.83-28.08,3.97-43.21-2.72-6.7-7.12-11.19-9.61-12.3-1.59-.81-2.24-1.62-2.36-2.25-.16-.74.7-1.25,2.1-.9,2.55.53,14.05,3.48,19.12,16.77,4.57,11.74-.13,26.1-9.16,43.39,18.01,6.93,33.43,17.96,40.79,32.98,8.82,18.06,2.81,35.15-10.94,41.04-1.31.56-2.8,1.06-4.21,1.4-18.7,4.48-33.84-7.34-40.07-21.9-1.13-2.64-1.92-5.55-2.47-8.3-2.68-15.67,4.82-30.01,9.48-39.74-14.99-6.05-28.89-7.02-44.66-9.08.82,1.55,1.55,3.27,2.29,4.99.83,1.95.16,2.91-.85,3.08-.96.28-2.19-.42-2.83-1.91-.75-2.12-1.69-4.3-2.9-6.76-12.69-1.75-28.57-4.44-40.7-8.88-7.4-2.8-15.24-7.71-17.35-12.64-.59-1.38-.74-2.8-.26-4.23.47-1.42,1.72-2.5,3.42-3.23Zm14.81,16.85c13.15,4.27,24.08,5.55,36.69,6.39-3.55-5.4-8.56-10.57-15.65-14.46-15.58-8.52-33.98-7.68-34.46-3-.25,3.77,3.93,8.08,13.42,11.07Zm83.27,62.66c.49,2.23,1.19,4.24,2.03,6.18,6.14,14.33,20.44,23.12,34.85,19.11,10.8-3,16.01-14.73,9.83-29.17-.74-1.72-1.65-3.5-2.75-5.33-8.53-14.12-20.74-23.8-34.59-30.08-5.57,10.52-12.49,25.83-9.37,39.28Z"/>
    <path class="cls-1" d="m57.44,79.11c1-1.12,2.31-1.71,3.79-1.89,5.32-.63,13.5,3.7,19.62,8.71,9.9,8.29,20.18,20.69,28.04,30.81,2.74-.18,5.09-.46,7.3-.87,1.61-.19,2.82.52,3.07,1.5.37.96-.13,2.03-2.24,2.28-1.86.22-3.71.44-5.46.51,9.67,12.62,17.45,24.18,30.19,34.14,6.09-8.91,14.76-22.57,29.67-28.08,2.66-.89,5.58-1.67,8.42-2.01,15.72-1.88,33.53,5.32,39,23.76.42,1.39.73,2.93.9,4.34,1.77,14.86-10.02,28.6-30.07,29.99-16.69,1.13-33.95-6.71-48.96-18.84-10.47,16.46-20.55,27.71-33,29.63-14.05,2.25-22.34-6.23-24.08-8.17-1-1.03-1-2.03-.27-2.26.6-.21,1.63-.05,3.12.92,2.2,1.6,8.29,3.17,15.45,2.17,16.03-2.49,26.44-13.06,35.43-25.04-14.16-12.37-22.59-25.14-32.83-40.42-8.59-.41-16.53-2.76-25.63-8.56-8.68-5.42-21.54-19.53-22.56-28.02-.22-1.84.09-3.46,1.09-4.58Zm4.61,2.89c-3.81,2.75,4.67,19.1,19.83,28.34,6.91,4.2,13.89,5.95,20.34,6.32-7.03-10.5-13.61-19.33-23.88-28.58-7.33-6.73-13.16-8.19-16.3-6.09Zm82.87,74.63c12.36,8.86,26.85,14.59,43.34,14.92,2.14.03,4.14-.06,5.99-.28,15.6-1.86,23.15-12.24,20.35-23.09-3.74-14.48-18.5-22.47-33.98-20.62-2.1.25-4.19.64-6.37,1.33-13.21,4.02-23,17.67-29.33,27.75Z"/>
    <path class="cls-1" d="m68.2,69.37c8.54-.48,24.66,9.74,31.51,17.35,7.29,7.96,10.99,15.37,12.88,23.76,16.83,7.43,30.86,13.51,45.51,25.31,10.24-10.94,18.84-23.03,18.5-39.24-.26-7.23-2.86-12.95-4.82-14.84-1.21-1.31-1.55-2.29-1.45-2.92.1-.75,1.09-.93,2.28-.13,2.22,1.38,12.01,8.07,12.23,22.29.28,12.6-9.05,24.48-23.44,37.65,14.55,12.67,25.27,28.31,27.05,44.94,2.11,19.99-9.38,33.99-24.32,34.82-1.42.08-2.99.04-4.43-.13-19.1-2.18-29.29-18.47-30.17-34.28-.16-2.86.1-5.87.52-8.64,2.84-15.64,14.79-26.55,22.5-34.1-12.02-10.82-24.75-16.48-38.86-23.81.24,1.73.34,3.6.45,5.47.12,2.12-.84,2.79-1.85,2.6-1-.07-1.92-1.14-2.01-2.76.02-2.25-.11-4.61-.41-7.34-11.32-5.99-25.32-13.95-35.21-22.26-6-5.16-11.68-12.46-11.98-17.81-.08-1.49.27-2.89,1.2-4.06.93-1.18,2.47-1.76,4.32-1.86Zm8.16,20.9c10.89,8.51,20.73,13.45,32.29,18.55-1.49-6.29-4.43-12.86-9.76-18.94-11.73-13.33-29.31-18.84-31.35-14.61-1.52,3.46.93,8.94,8.83,14.99Zm56.82,87.36c-.3,2.26-.33,4.39-.21,6.51.87,15.56,11.31,28.71,26.21,29.88,11.18.87,20.08-8.36,19.21-24.05-.1-1.87-.36-3.85-.76-5.95-3.18-16.18-11.35-29.46-22.21-40.09-8.83,7.98-20.58,20-22.24,33.71Z"/>
    <path class="cls-1" d="m87.15,51.7c1.32-.72,2.75-.82,4.21-.48,5.22,1.22,11.42,8.09,15.46,14.89,6.47,11.18,11.88,26.35,15.81,38.54,2.64.76,4.94,1.31,7.16,1.68,1.58.37,2.48,1.46,2.37,2.46.02,1.03-.82,1.86-2.88,1.37-1.82-.43-3.64-.85-5.31-1.39,4.77,15.17,8.13,28.69,16.7,42.4,8.77-6.29,21.59-16.16,37.49-16.24,2.8.07,5.81.34,8.6.99,15.42,3.61,29.69,16.47,28.52,35.66-.08,1.45-.32,3-.64,4.39-3.41,14.57-19.2,23.45-38.52,17.9-16.07-4.64-29.61-17.92-39.56-34.45-15.46,11.89-28.79,19.01-41.15,16.55-13.97-2.69-18.86-13.5-19.83-15.92-.59-1.31-.24-2.25.52-2.22.64,0,1.55.51,2.62,1.93,1.52,2.26,6.7,5.82,13.78,7.33,15.91,3.14,29.31-3.23,41.86-11.41-9.07-16.47-12.63-31.35-17.02-49.21-7.93-3.32-14.59-8.25-21.16-16.81-6.31-8.06-13.56-25.72-11.61-34.04.42-1.8,1.27-3.22,2.59-3.93Zm3.35,4.3c-4.53,1.28-2.15,19.55,8.94,33.42,5.05,6.31,11.02,10.34,16.95,12.9-3.02-12.27-6.18-22.82-12.67-35.02-4.59-8.83-9.56-12.19-13.23-11.3Zm52.35,98.47c8.58,12.55,20.25,22.89,35.63,28.84,2,.76,3.91,1.36,5.73,1.78,15.3,3.58,25.94-3.58,27.02-14.74,1.44-14.88-9.7-27.45-24.88-31-2.06-.48-4.16-.83-6.44-.92-13.78-.74-27.66,8.74-37.06,16.05Z"/>
    <path class="cls-1" d="m100.59,46.23c8.18,2.47,19.84,17.59,23.67,27.08,4.13,9.97,5.07,18.2,3.98,26.73,13.27,12.73,24.38,23.25,34.11,39.35,13.36-6.77,25.58-15.2,30.81-30.55,2.23-6.88,1.74-13.15.54-15.6-.69-1.64-.68-2.68-.36-3.24.35-.67,1.34-.51,2.18.66,1.61,2.05,8.53,11.69,3.87,25.13-4.05,11.93-16.88,19.91-34.91,27.36,9.34,16.89,14.06,35.25,10.05,51.49-4.85,19.5-20.44,28.73-34.76,24.41-1.36-.41-2.83-.98-4.12-1.64-17.2-8.58-21.2-27.37-16.62-42.53.83-2.74,2.1-5.49,3.44-7.95,8.02-13.73,22.98-19.89,32.81-24.34-7.59-14.28-17.62-23.95-28.37-35.66-.37,1.71-.91,3.5-1.45,5.29-.61,2.03-1.75,2.34-2.63,1.81-.92-.41-1.41-1.73-.94-3.28.79-2.11,1.47-4.38,2.13-7.04-8.59-9.5-19.03-21.77-25.47-32.96-3.87-6.9-6.72-15.71-5.17-20.84.43-1.43,1.24-2.62,2.52-3.41,1.28-.79,2.92-.81,4.7-.27Zm.52,22.43c7.33,11.72,14.88,19.73,24,28.48.75-6.42.24-13.6-2.7-21.13-6.46-16.54-21.09-27.73-24.47-24.45-2.61,2.73-2.19,8.72,3.17,17.11Zm23.51,101.53c-1.06,2.02-1.81,4.01-2.42,6.04-4.51,14.92.8,30.85,14.41,37.04,10.21,4.65,21.73-.99,26.28-16.03.54-1.79.98-3.74,1.32-5.85,2.54-16.29-.59-31.57-7.16-45.27-11.03,4.48-26.18,11.76-32.43,24.07Z"/>
    <path class="cls-1" d="m124.44,36.11c1.49-.22,2.87.17,4.12.99,4.49,2.94,7.96,11.51,9.44,19.28,2.26,12.72,2.15,28.82,1.68,41.62,2.22,1.62,4.2,2.92,6.16,4.03,1.36.89,1.83,2.22,1.39,3.12-.34.97-1.4,1.46-3.18.3-1.57-1.02-3.13-2.05-4.51-3.12-.71,15.88-2.17,29.74,1.19,45.56,10.39-2.91,25.81-7.8,40.78-2.44,2.61,1.02,5.35,2.3,7.75,3.87,13.25,8.67,22.27,25.63,14.6,43.27-.57,1.33-1.32,2.71-2.1,3.9-8.19,12.52-26.06,15.47-42.31,3.65-13.51-9.86-21.7-26.96-25.4-45.9-18.6,5.88-33.55,8.02-44.32,1.48-12.21-7.3-13.11-19.13-13.19-21.74-.11-1.43.54-2.2,1.25-1.91.6.22,1.28,1.01,1.8,2.71.66,2.64,4.31,7.76,10.44,11.6,13.88,8.4,28.65,6.99,43.24,3.6-2.89-18.58-1.14-33.78.84-52.07-6.31-5.83-10.89-12.74-14.13-23.04-3.17-9.73-3.95-28.81.73-35.96,1.01-1.55,2.29-2.59,3.77-2.81Zm1.68,5.18c-4.69-.34-8.7,17.63-3.02,34.46,2.59,7.66,6.82,13.49,11.52,17.92,1.36-12.56,2-23.55.08-37.24-1.29-9.87-4.82-14.73-8.57-15.14Zm15.51,110.43c3.77,14.73,11.19,28.44,23.62,39.29,1.62,1.4,3.21,2.61,4.77,3.63,13.15,8.6,25.6,5.51,30.43-4.61,6.44-13.49.27-29.11-12.77-37.64-1.77-1.16-3.62-2.2-5.74-3.07-12.7-5.41-28.98-1.25-40.31,2.4Z"/>
    <path class="cls-1" d="m138.94,35.56c6.84,5.12,12.63,23.31,12.99,33.54.47,10.79-1.46,18.84-5.4,26.48,8.11,16.51,14.96,30.19,18.59,48.64,14.87-1.8,29.23-5.53,39.4-18.17,4.45-5.71,6.13-11.76,5.84-14.47-.09-1.78.28-2.75.77-3.16.56-.51,1.43-.02,1.83,1.37.81,2.48,4.01,13.9-4.96,24.94-7.89,9.83-22.67,12.93-42.16,13.77,3,19.06,1.16,37.93-8.17,51.82-11.23,16.67-29.03,20.01-41.01,11.04-1.14-.85-2.32-1.89-3.31-2.95-13.23-13.95-10.56-32.97-1.07-45.65,1.72-2.3,3.85-4.44,5.95-6.29,12.23-10.16,28.39-10.83,39.16-11.66-2.25-16.01-8.37-28.53-14.47-43.21-.93,1.48-2.05,2.98-3.17,4.48-1.27,1.7-2.44,1.6-3.09.8-.72-.7-.74-2.11.23-3.41,1.46-1.71,2.88-3.61,4.41-5.89-4.83-11.86-10.43-26.96-12.66-39.68-1.28-7.81-.94-17.05,2.27-21.35.9-1.2,2.06-2.04,3.53-2.34,1.47-.3,3.02.24,4.51,1.35Zm-19.81,124.7c-1.69,1.54-3.07,3.15-4.34,4.85-9.34,12.48-9.8,29.26.87,39.74,8,7.86,20.76,6.5,30.17-6.07,1.12-1.5,2.2-3.18,3.24-5.05,7.96-14.44,10.24-29.86,8.75-44.99-11.9.44-28.62,2.1-38.7,11.53Zm12.63-103.45c2.88,13.52,7.23,23.63,12.81,34.97,2.9-5.77,4.88-12.7,4.69-20.78-.42-17.75-10.34-33.27-14.63-31.35-3.38,1.67-5.04,7.44-2.87,17.16Z"/>
    <path class="cls-1" d="m164.81,34.21c1.47.3,2.63,1.14,3.53,2.34,3.21,4.29,3.55,13.54,2.27,21.35-2.23,12.72-7.83,27.82-12.66,39.68,1.53,2.28,2.95,4.18,4.41,5.89.97,1.3.96,2.71.23,3.41-.65.8-1.82.9-3.09-.8-1.12-1.5-2.24-2.99-3.17-4.48-6.1,14.68-12.21,27.2-14.46,43.21,10.76.82,26.92,1.5,39.15,11.66,2.1,1.85,4.23,3.99,5.95,6.29,9.49,12.68,12.16,31.7-1.07,45.65-.99,1.05-2.17,2.09-3.31,2.95-11.98,8.96-29.78,5.62-41.01-11.04-9.33-13.89-11.17-32.76-8.17-51.82-19.49-.83-34.27-3.94-42.16-13.77-8.97-11.04-5.78-22.46-4.96-24.94.39-1.38,1.26-1.88,1.83-1.37.49.41.86,1.38.77,3.16-.29,2.71,1.4,8.76,5.84,14.47,10.17,12.64,24.53,16.37,39.4,18.17,3.63-18.45,10.48-32.13,18.59-48.64-3.94-7.64-5.87-15.69-5.4-26.48.35-10.23,6.14-28.42,12.98-33.54,1.48-1.11,3.04-1.65,4.51-1.35Zm-23.39,114.52c-1.49,15.13.79,30.55,8.75,44.99,1.04,1.87,2.12,3.55,3.24,5.05,9.41,12.58,22.17,13.93,30.17,6.07,10.67-10.48,10.21-27.26.87-39.74-1.27-1.7-2.65-3.31-4.34-4.85-10.08-9.43-26.8-11.09-38.7-11.53Zm23.2-109.08c-4.29-1.93-14.21,13.59-14.63,31.35-.18,8.08,1.8,15.01,4.69,20.78,5.58-11.34,9.93-21.45,12.81-34.97,2.16-9.72.51-15.49-2.87-17.16Z"/>
    <path class="cls-1" d="m178.62,38.66c4.68,7.15,3.9,26.23.73,35.96-3.25,10.3-7.82,17.2-14.13,23.04,1.98,18.29,3.73,33.49.84,52.07,14.59,3.4,29.36,4.8,43.24-3.6,6.13-3.84,9.79-8.96,10.44-11.6.52-1.71,1.2-2.49,1.8-2.71.7-.29,1.35.48,1.25,1.91-.08,2.61-.99,14.44-13.19,21.74-10.77,6.54-25.73,4.4-44.33-1.48-3.7,18.94-11.88,36.04-25.4,45.9-16.25,11.82-34.12,8.87-42.31-3.65-.78-1.19-1.53-2.57-2.1-3.9-7.66-17.63,1.35-34.6,14.6-43.27,2.4-1.57,5.14-2.85,7.75-3.88,14.97-5.36,30.39-.47,40.78,2.44,3.36-15.82,1.89-29.67,1.19-45.56-1.38,1.07-2.95,2.1-4.51,3.12-1.77,1.16-2.84.67-3.18-.3-.44-.9.03-2.23,1.39-3.12,1.96-1.11,3.94-2.41,6.16-4.03-.48-12.8-.58-28.9,1.68-41.62,1.47-7.77,4.95-16.35,9.44-19.28,1.25-.82,2.63-1.21,4.12-.99,1.48.22,2.76,1.26,3.77,2.81Zm-61.27,110.4c-2.11.87-3.96,1.91-5.74,3.07-13.04,8.53-19.21,24.15-12.77,37.64,4.83,10.12,17.28,13.21,30.43,4.61,1.57-1.02,3.16-2.24,4.77-3.63,12.42-10.85,19.84-24.56,23.62-39.29-11.33-3.66-27.61-7.82-40.31-2.41Zm47.25-92.89c-1.92,13.69-1.29,24.68.08,37.24,4.7-4.43,8.93-10.27,11.52-17.92,5.68-16.83,1.67-34.8-3.02-34.46-3.75.41-7.28,5.27-8.57,15.14Z"/>
    <path class="cls-1" d="m203.4,46.24c1.28.79,2.08,1.98,2.52,3.41,1.55,5.13-1.3,13.94-5.17,20.84-6.44,11.19-16.88,23.46-25.47,32.96.66,2.67,1.34,4.93,2.13,7.04.47,1.55-.02,2.87-.94,3.28-.88.53-2.02.22-2.63-1.81-.54-1.79-1.08-3.58-1.45-5.29-10.75,11.71-20.78,21.39-28.37,35.66,9.83,4.45,24.79,10.62,32.81,24.34,1.34,2.46,2.61,5.2,3.44,7.95,4.58,15.16.58,33.95-16.62,42.53-1.29.65-2.76,1.22-4.12,1.64-14.32,4.33-29.91-4.9-34.76-24.41-4.01-16.24.71-34.6,10.05-51.49-18.03-7.45-30.86-15.42-34.91-27.36-4.66-13.44,2.26-23.08,3.87-25.13.84-1.17,1.83-1.33,2.18-.66.32.56.33,1.59-.36,3.24-1.2,2.45-1.68,8.71.54,15.6,5.23,15.35,17.45,23.77,30.81,30.55,9.73-16.09,20.84-26.61,34.11-39.35-1.09-8.53-.15-16.76,3.98-26.73,3.83-9.49,15.49-24.61,23.67-27.08,1.77-.54,3.42-.51,4.7.27Zm-61.15,99.61c-6.58,13.71-9.7,28.98-7.16,45.27.34,2.11.78,4.06,1.32,5.85,4.54,15.04,16.07,20.67,26.28,16.03,13.61-6.2,18.92-22.13,14.41-37.04-.61-2.03-1.36-4.02-2.42-6.04-6.25-12.31-21.4-19.58-32.43-24.07Zm59.1-94.57c-3.37-3.28-18,7.91-24.47,24.45-2.94,7.53-3.44,14.72-2.7,21.13,9.12-8.75,16.67-16.76,24-28.48,5.35-8.39,5.78-14.38,3.17-17.11Z"/>
    <path class="cls-1" d="m214.86,55.14c1.95,8.32-5.31,25.98-11.61,34.04-6.57,8.56-13.23,13.49-21.16,16.81-4.39,17.86-7.95,32.74-17.02,49.21,12.55,8.18,25.95,14.55,41.86,11.41,7.07-1.51,12.26-5.07,13.78-7.33,1.08-1.42,1.98-1.93,2.62-1.93.76-.03,1.11.91.52,2.22-.97,2.42-5.86,13.23-19.83,15.92-12.36,2.46-25.68-4.66-41.15-16.55-9.96,16.53-23.49,29.8-39.56,34.45-19.32,5.55-35.1-3.33-38.52-17.9-.33-1.39-.56-2.94-.64-4.39-1.17-19.19,13.1-32.05,28.52-35.66,2.79-.65,5.8-.92,8.6-.99,15.9.08,28.71,9.95,37.49,16.24,8.57-13.72,11.93-27.24,16.7-42.4-1.67.54-3.49.96-5.31,1.39-2.06.48-2.9-.35-2.88-1.37-.11-1,.79-2.09,2.37-2.46,2.22-.37,4.52-.91,7.16-1.68,3.93-12.19,9.34-27.36,15.81-38.54,4.04-6.8,10.24-13.67,15.46-14.89,1.46-.34,2.89-.24,4.21.48,1.32.71,2.16,2.13,2.59,3.93Zm-95.34,82.79c-2.28.1-4.38.44-6.44.92-15.17,3.56-26.31,16.12-24.88,31,1.08,11.16,11.72,18.33,27.02,14.74,1.82-.43,3.73-1.02,5.73-1.78,15.38-5.95,27.04-16.29,35.63-28.84-9.4-7.31-23.27-16.79-37.06-16.05Zm76.17-71.12c-6.49,12.2-9.65,22.75-12.67,35.02,5.93-2.56,11.9-6.59,16.95-12.9,11.09-13.87,13.47-32.13,8.94-33.42-3.67-.9-8.64,2.46-13.23,11.3Z"/>
    <path class="cls-1" d="m235.55,70.74c.93,1.18,1.28,2.57,1.2,4.06-.3,5.35-5.98,12.65-11.98,17.81-9.88,8.31-23.88,16.28-35.21,22.26-.3,2.73-.43,5.1-.41,7.34-.09,1.62-1.01,2.69-2.01,2.76-1.01.19-1.97-.48-1.85-2.6.1-1.87.21-3.73.45-5.47-14.11,7.33-26.84,12.99-38.86,23.81,7.71,7.55,19.66,18.45,22.5,34.1.42,2.77.68,5.78.52,8.65-.88,15.81-11.07,32.1-30.17,34.28-1.44.17-3.01.21-4.43.13-14.94-.83-26.43-14.84-24.32-34.82,1.78-16.63,12.5-32.27,27.05-44.94-14.39-13.17-23.72-25.05-23.44-37.65.22-14.22,10.01-20.92,12.23-22.29,1.19-.81,2.18-.63,2.28.13.11.63-.23,1.61-1.45,2.92-1.96,1.89-4.56,7.61-4.82,14.84-.33,16.21,8.27,28.31,18.5,39.24,14.64-11.8,28.68-17.88,45.51-25.31,1.89-8.39,5.59-15.8,12.88-23.76,6.85-7.61,22.97-17.82,31.51-17.35,1.85.1,3.39.69,4.32,1.86Zm-91.53,72.69c-10.87,10.63-19.03,23.91-22.21,40.09-.4,2.1-.66,4.08-.76,5.95-.88,15.69,8.03,24.92,19.21,24.05,14.91-1.17,25.34-14.32,26.21-29.88.12-2.12.09-4.24-.21-6.5-1.66-13.7-13.41-25.72-22.24-33.71Zm87.88-68.65c-2.05-4.23-19.62,1.28-31.35,14.61-5.33,6.07-8.27,12.65-9.76,18.94,11.56-5.1,21.4-10.05,32.29-18.55,7.9-6.05,10.35-11.54,8.83-14.99Z"/>
    <circle class="cls-1" cx="150.5" cy="148.15" r="112"/>
    <circle class="cls-1" cx="150.5" cy="148.15" r="115"/>
    <circle class="cls-1" cx="150.5" cy="148.15" r="115"/>
    <path class="cls-2" d="m166.65,126.32c-.04-.1.08-.32.29-.46.66-.43.59-1.6.03-2.48-.3-.45-1.06-1.27-2.8-1.77-2.76-.8-5.53.04-9.06-2.04-.4-.24-.98-.83-1.54-1.5.02.73-.19,1.47-.72,2.01-.31.3-.65.52-1.02.67-.92.39-1.97.41-2.93.32-.65-.06-1.46.03-2.1.3-.44.19-.76.45-.91.8-.09.23-.07.46.02.69.24.57,1.02,1.05,1.72,1.16.98.18,1.9.05,2.45-.19.39-.17.62-.39.57-.63-.1-.56-1.03-.83-1.86-.91-.25-.01-.38-.12-.42-.23-.05-.12.07-.27.38-.26,1.23-.05,2.6.49,2.51,1.49-.05.4-.38.71-.9.94-.73.31-1.8.44-2.82.27-1.13-.16-2.47-1.07-2.92-2.13-.17-.38-.22-.77-.09-1.16.21-.71.72-1.17,1.32-1.43.92-.39,2.11-.35,2.97-.12,1.84.48,2.9.67,3.65-.1.55-.57.69-1.44.32-2.29-.09-.2-.2-.39-.34-.6l-.22-.31c-.24-.3-.58-.59-.96-.86-3.06-.41-7.36-1.44-10.37-3.58-2.61-1.83-4.03-3.64-4.72-5.24-1.01-2.37-.43-4.3.42-5.16.36-.37.79-.63,1.27-.83,1.45-.62,3.19-.55,4.07-.02.3.18.5.41.61.65.22.51.04,1.04-.32,1.22-.46.27-.99.23-1.24-.11-.27-.32-.21-.75.04-.93.12-.1.19-.2.18-.27-.01-.09-.1-.17-.27-.24-.23-.09-1.27-.22-2.25.2-.3.13-.6.31-.87.56-.89.84-.91,2.12-.3,3.55,1.27,2.96,5.17,6.55,9.26,8.28,3.85,1.63,10.33,2.21,13.68.77,1.06-.45,1.79-1.1,2.06-1.98.29-.96.17-1.89-.22-2.8-1.03-2.41-3.98-4.47-6.33-5.31-2.09-.76-5.01-1.09-6.98-.24-.6.26-1.12.62-1.48,1.11-.64.85-.63,1.76-.27,2.61.56,1.31,1.94,2.5,3.01,3.09,1.85,1.08,4.12.99,5.06.78.32-.09.51,0,.57.12.04.1-.05.26-.29.34-1.04.3-3.13.57-5.68-.7-1.39-.7-2.7-2.1-3.35-3.64-.56-1.32-.65-2.72.1-3.83.46-.7,1.14-1.21,1.97-1.56,2.09-.9,5.13-.71,8.07.62,2.66,1.19,4.99,3.66,6.02,6.07.55,1.29.73,2.59.37,3.65-.35,1.01-1.23,1.7-2.31,2.16-2.16.92-5.18.97-6.8.95-.2-.01-.42-.04-.67-.05.07.16.13.38.24.62.37.87,1.04,2.12,2.06,2.71,2.88,1.76,6.4,1.28,8.74,1.86,1.83.46,3.64,1.27,4.17,2.81.42,1.3-.61,2.32-1.52,2.61-.22.07-.3.06-.34-.02Z"/>
    <path class="cls-2" d="m173.62,133.42c0-.11.18-.28.43-.33.77-.17,1.1-1.3.87-2.32-.13-.52-.56-1.56-2.02-2.62-2.32-1.7-5.21-1.85-7.81-5.01-.29-.36-.64-1.11-.93-1.93-.24.7-.68,1.32-1.36,1.64-.39.18-.79.26-1.19.29-1,.06-1.99-.29-2.87-.7-.59-.28-1.38-.47-2.08-.44-.47.03-.87.16-1.13.44-.17.19-.23.41-.21.65.03.62.6,1.33,1.22,1.67.85.5,1.77.7,2.36.66.42-.02.72-.15.75-.4.09-.56-.69-1.13-1.43-1.48-.23-.1-.31-.25-.32-.36,0-.13.16-.23.44-.11,1.17.38,2.28,1.35,1.85,2.26-.18.36-.6.54-1.17.57-.8.04-1.84-.21-2.74-.71-1.01-.54-1.96-1.85-2.02-3-.02-.42.06-.8.31-1.12.44-.6,1.08-.85,1.73-.89,1-.06,2.1.39,2.83.9,1.56,1.08,2.49,1.62,3.47,1.15.71-.35,1.14-1.12,1.09-2.04-.01-.22-.05-.44-.11-.68l-.1-.37c-.12-.37-.34-.75-.61-1.13-2.73-1.43-6.42-3.88-8.52-6.91-1.82-2.61-2.55-4.8-2.64-6.54-.14-2.57,1.07-4.18,2.17-4.71.46-.22.96-.32,1.48-.35,1.57-.09,3.19.57,3.83,1.38.22.27.33.55.35.82.03.55-.32.99-.72,1.03-.52.1-1.01-.12-1.13-.53-.15-.39.06-.77.35-.86.15-.05.24-.12.26-.19.02-.09-.04-.2-.17-.32-.18-.17-1.11-.64-2.19-.58-.32.02-.67.08-1.01.23-1.12.48-1.58,1.68-1.5,3.24.18,3.21,2.62,7.93,5.87,10.94,3.06,2.85,8.95,5.61,12.59,5.41,1.15-.06,2.05-.42,2.61-1.16.61-.81.8-1.72.75-2.71-.15-2.62-2.21-5.57-4.13-7.16-1.71-1.43-4.33-2.74-6.48-2.62-.65.04-1.27.2-1.77.54-.89.58-1.2,1.43-1.15,2.36.08,1.43.97,3.01,1.77,3.94,1.37,1.64,3.53,2.34,4.49,2.46.33.03.48.17.49.3,0,.11-.14.23-.39.22-1.08-.07-3.13-.53-5.1-2.6-1.06-1.13-1.81-2.9-1.91-4.57-.08-1.43.32-2.77,1.4-3.56.67-.5,1.49-.74,2.38-.79,2.27-.13,5.07,1.08,7.37,3.34,2.09,2.02,3.44,5.14,3.59,7.76.08,1.41-.2,2.68-.9,3.56-.68.83-1.74,1.18-2.91,1.24-2.35.13-5.2-.86-6.71-1.43-.18-.08-.39-.18-.62-.27,0,.18,0,.4.01.66.05.94.26,2.34,1.01,3.25,2.1,2.64,5.57,3.39,7.57,4.74,1.56,1.06,2.99,2.44,2.96,4.07-.05,1.37-1.37,1.97-2.32,1.94-.23,0-.3-.05-.31-.14Z"/>
    <path class="cls-2" d="m177.75,142.48c.03-.11.27-.2.52-.17.78.1,1.48-.84,1.61-1.88.06-.53,0-1.65-1-3.16-1.6-2.39-4.26-3.52-5.63-7.38-.15-.44-.22-1.26-.22-2.14-.46.57-1.09,1.01-1.84,1.08-.43.03-.83-.02-1.21-.14-.96-.29-1.78-.95-2.46-1.64-.46-.46-1.13-.92-1.8-1.12-.45-.14-.87-.15-1.21.03-.22.12-.35.31-.42.54-.18.59.11,1.46.57,1.99.63.77,1.42,1.26,2,1.43.41.12.73.1.84-.11.28-.49-.26-1.3-.84-1.89-.18-.17-.21-.34-.18-.44.04-.13.23-.16.46.04.97.75,1.68,2.05.97,2.75-.29.28-.74.3-1.29.14-.77-.23-1.66-.82-2.34-1.6-.76-.85-1.2-2.41-.87-3.51.12-.4.32-.73.68-.95.62-.41,1.31-.43,1.93-.25.96.29,1.84,1.08,2.35,1.81,1.1,1.55,1.79,2.38,2.87,2.27.78-.08,1.45-.66,1.72-1.55.06-.21.1-.43.13-.67l.04-.38c.01-.39-.06-.82-.19-1.28-2.08-2.28-4.71-5.84-5.64-9.41-.82-3.08-.75-5.38-.25-7.04.75-2.47,2.43-3.57,3.65-3.68.51-.05,1.01.03,1.51.18,1.51.46,2.8,1.63,3.13,2.6.11.33.12.63.04.89-.16.53-.64.82-1.03.72-.52-.09-.91-.46-.88-.89,0-.42.32-.71.62-.69.16,0,.27-.03.31-.09.05-.08.03-.2-.05-.36-.12-.22-.83-.98-1.85-1.29-.31-.09-.66-.15-1.03-.13-1.22.07-2.06,1.04-2.51,2.53-.93,3.08-.25,8.34,1.77,12.29,1.9,3.73,6.49,8.33,9.98,9.39,1.1.33,2.07.3,2.85-.2.84-.55,1.34-1.34,1.63-2.29.76-2.51-.18-5.99-1.43-8.14-1.12-1.92-3.14-4.05-5.19-4.67-.62-.19-1.26-.24-1.85-.1-1.04.24-1.62.94-1.88,1.82-.41,1.37-.12,3.16.32,4.31.72,2.01,2.52,3.41,3.38,3.85.3.14.4.33.36.45-.03.11-.21.17-.44.07-.99-.44-2.76-1.57-3.9-4.19-.61-1.43-.71-3.34-.23-4.95.41-1.37,1.25-2.5,2.54-2.87.8-.24,1.65-.19,2.51.07,2.18.66,4.39,2.75,5.78,5.66,1.27,2.62,1.47,6.01.72,8.52-.41,1.35-1.11,2.45-2.06,3.03-.92.55-2.03.51-3.16.17-2.25-.68-4.6-2.58-5.82-3.64-.14-.14-.3-.3-.49-.47-.05.17-.14.37-.22.63-.27.91-.56,2.29-.17,3.4,1.07,3.2,4.08,5.09,5.5,7.04,1.1,1.53,1.98,3.31,1.38,4.83-.51,1.27-1.96,1.39-2.84,1.03-.21-.09-.27-.15-.24-.23Z"/>
    <path class="cls-2" d="m178.53,152.4c.07-.09.32-.09.54.02.7.36,1.68-.28,2.16-1.22.24-.48.57-1.55.14-3.31-.69-2.79-2.8-4.76-2.77-8.86,0-.46.23-1.26.53-2.08-.63.38-1.37.57-2.1.38-.41-.12-.77-.3-1.09-.54-.8-.6-1.34-1.5-1.75-2.38-.28-.59-.75-1.25-1.31-1.67-.38-.29-.77-.44-1.14-.39-.25.04-.44.17-.58.36-.37.49-.4,1.41-.14,2.07.33.93.91,1.67,1.39,2.03.34.25.65.35.83.18.43-.37.2-1.31-.14-2.06-.11-.22-.08-.39-.01-.48.08-.11.27-.07.41.2.66,1.04.88,2.5-.03,2.92-.37.16-.8.03-1.26-.31-.64-.48-1.28-1.34-1.65-2.3-.42-1.06-.31-2.68.38-3.59.25-.34.56-.58.96-.66.72-.17,1.37.04,1.89.43.8.6,1.36,1.65,1.59,2.51.5,1.83.87,2.85,1.92,3.11.77.19,1.59-.13,2.15-.87.13-.18.24-.37.35-.59l.16-.34c.14-.36.22-.8.26-1.26-1.17-2.86-2.43-7.1-2.08-10.77.28-3.17,1.13-5.31,2.18-6.7,1.54-2.06,3.51-2.52,4.69-2.21.5.13.94.37,1.36.69,1.26.94,2.07,2.49,2.05,3.52-.01.35-.1.64-.26.85-.33.44-.88.55-1.21.33-.46-.26-.69-.74-.52-1.13.14-.39.54-.56.82-.43.15.05.27.06.33.02.07-.05.1-.17.08-.35-.04-.25-.44-1.21-1.3-1.85-.26-.2-.57-.37-.93-.47-1.17-.35-2.29.27-3.23,1.52-1.93,2.57-3.09,7.75-2.54,12.15.51,4.15,3.25,10.05,6.17,12.24.92.69,1.84,1,2.75.79.98-.23,1.72-.8,2.32-1.59,1.57-2.1,1.88-5.69,1.44-8.14-.39-2.19-1.56-4.88-3.28-6.17-.52-.39-1.1-.66-1.7-.73-1.06-.13-1.84.33-2.39,1.07-.86,1.15-1.19,2.93-1.17,4.16,0,2.14,1.2,4.06,1.86,4.77.23.23.26.44.18.55-.07.09-.25.09-.44-.08-.78-.75-2.06-2.42-2.23-5.27-.09-1.55.47-3.39,1.48-4.73.86-1.15,2.03-1.92,3.37-1.83.84.05,1.62.38,2.34.92,1.82,1.36,3.18,4.09,3.5,7.29.3,2.89-.67,6.15-2.24,8.25-.84,1.13-1.88,1.92-2.98,2.15-1.06.2-2.09-.21-3.03-.92-1.88-1.41-3.44-4-4.22-5.41-.09-.17-.18-.38-.29-.61-.11.14-.26.3-.42.51-.57.76-1.31,1.96-1.32,3.14-.09,3.37,2.09,6.18,2.76,8.5.52,1.81.73,3.79-.35,5.02-.92,1.02-2.32.63-3.02,0-.17-.15-.2-.23-.15-.3Z"/>
    <path class="cls-2" d="m175.87,161.99c.09-.06.33.02.5.21.53.58,1.67.31,2.45-.4.39-.37,1.07-1.27,1.26-3.06.31-2.86-1-5.44.43-9.27.16-.43.64-1.11,1.21-1.77-.72.14-1.48.07-2.1-.36-.35-.25-.62-.55-.84-.88-.55-.84-.75-1.87-.83-2.83-.06-.65-.28-1.43-.66-2.02-.26-.4-.57-.67-.94-.76-.24-.05-.47,0-.67.14-.52.34-.85,1.19-.84,1.89,0,.99.28,1.88.61,2.38.23.36.49.55.72.46.53-.2.63-1.16.57-1.98-.03-.25.06-.4.15-.46.11-.07.28.03.32.33.26,1.2-.03,2.65-1.03,2.73-.4.02-.77-.25-1.08-.73-.44-.67-.74-1.7-.76-2.73-.04-1.14.63-2.62,1.59-3.25.35-.23.72-.35,1.13-.29.74.08,1.28.51,1.63,1.05.55.84.71,2.01.63,2.9-.16,1.89-.16,2.97.74,3.58.65.44,1.54.43,2.31-.08.18-.12.35-.26.53-.44l.27-.27c.26-.29.48-.67.68-1.1-.12-3.08.15-7.5,1.73-10.83,1.35-2.88,2.88-4.6,4.34-5.56,2.16-1.41,4.16-1.17,5.16-.48.43.29.75.67,1.04,1.11.86,1.32,1.1,3.04.73,4-.13.32-.31.56-.54.71-.46.3-1.02.22-1.25-.11-.34-.4-.4-.93-.1-1.25.26-.32.7-.34.92-.12.12.1.23.15.3.13.09-.03.15-.13.19-.31.05-.24,0-1.28-.59-2.18-.18-.27-.41-.54-.71-.76-.98-.73-2.24-.53-3.55.32-2.69,1.76-5.55,6.23-6.54,10.55-.94,4.08-.38,10.55,1.61,13.61.63.96,1.39,1.57,2.31,1.68,1,.12,1.89-.16,2.72-.71,2.19-1.43,3.71-4.7,4.13-7.15.38-2.19.2-5.12-.97-6.92-.36-.54-.81-.99-1.35-1.26-.95-.48-1.84-.32-2.61.19-1.2.78-2.12,2.34-2.52,3.5-.74,2.01-.26,4.23.11,5.12.14.3.09.51-.02.58-.09.06-.27,0-.38-.23-.48-.97-1.11-2.98-.3-5.72.45-1.49,1.6-3.02,3-3.94,1.2-.78,2.56-1.11,3.79-.57.77.33,1.39.91,1.88,1.67,1.25,1.9,1.59,4.93.79,8.05-.71,2.82-2.73,5.55-4.93,6.99-1.18.77-2.42,1.17-3.53,1-1.06-.17-1.89-.92-2.53-1.9-1.29-1.97-1.86-4.93-2.11-6.53-.02-.2-.04-.42-.07-.67-.15.1-.35.2-.57.34-.79.52-1.9,1.39-2.31,2.5-1.24,3.14-.15,6.52-.32,8.93-.14,1.88-.61,3.81-2.05,4.59-1.21.64-2.39-.2-2.84-1.04-.1-.2-.11-.29-.04-.33Z"/>
    <path class="cls-2" d="m170.08,170.09c.11-.02.3.13.4.37.31.72,1.47.86,2.44.46.49-.22,1.43-.82,2.23-2.45,1.27-2.58.92-5.45,3.58-8.57.3-.35.98-.82,1.74-1.26-.73-.11-1.42-.44-1.85-1.05-.24-.35-.4-.73-.49-1.12-.23-.97-.07-2.01.19-2.95.17-.63.23-1.44.07-2.12-.11-.46-.31-.83-.63-1.03-.21-.13-.44-.15-.68-.1-.6.14-1.21.82-1.44,1.49-.35.93-.38,1.86-.24,2.44.1.41.27.68.52.67.56,0,.99-.88,1.21-1.67.06-.24.19-.35.3-.38.13-.03.25.12.19.42-.17,1.22-.94,2.48-1.9,2.22-.39-.11-.63-.49-.77-1.05-.18-.78-.12-1.85.22-2.82.36-1.08,1.49-2.25,2.6-2.51.41-.1.79-.08,1.16.11.67.33,1.03.91,1.18,1.55.23.97-.02,2.14-.4,2.94-.79,1.73-1.17,2.74-.53,3.62.46.63,1.3.93,2.2.72.21-.05.42-.12.65-.23l.35-.16c.34-.18.68-.47,1.01-.8.94-2.94,2.7-7,5.33-9.59,2.25-2.25,4.28-3.34,5.98-3.74,2.51-.59,4.31.33,5.01,1.32.3.42.48.89.6,1.4.36,1.53,0,3.24-.69,4.01-.23.26-.49.42-.75.48-.54.13-1.03-.14-1.14-.53-.19-.5-.06-1.01.33-1.21.36-.21.77-.08.91.2.08.14.16.22.23.23.09,0,.19-.07.29-.22.13-.21.44-1.21.19-2.25-.07-.32-.2-.65-.4-.96-.67-1.02-1.93-1.27-3.45-.91-3.13.73-7.35,3.96-9.76,7.68-2.27,3.51-3.97,9.79-3.14,13.34.26,1.12.77,1.95,1.6,2.37.9.46,1.83.49,2.8.27,2.55-.6,5.1-3.15,6.33-5.31,1.11-1.93,1.94-4.74,1.45-6.83-.15-.63-.42-1.21-.84-1.65-.73-.78-1.62-.93-2.52-.72-1.39.33-2.8,1.48-3.57,2.43-1.38,1.63-1.69,3.89-1.64,4.85.03.33-.08.51-.21.54-.11.03-.25-.1-.28-.34-.12-1.08-.02-3.18,1.68-5.48.93-1.24,2.54-2.29,4.17-2.67,1.39-.33,2.79-.17,3.75.76.61.58.99,1.33,1.2,2.21.52,2.21-.19,5.18-2.01,7.84-1.63,2.41-4.47,4.28-7.02,4.88-1.37.32-2.67.27-3.66-.27-.94-.52-1.46-1.51-1.73-2.65-.54-2.29-.06-5.27.25-6.86.05-.19.11-.41.16-.65-.17.04-.39.07-.65.13-.92.22-2.26.66-3.03,1.56-2.23,2.53-2.38,6.08-3.35,8.28-.77,1.72-1.88,3.37-3.49,3.62-1.36.19-2.18-1-2.31-1.95-.03-.22,0-.31.08-.33Z"/>
    <path class="cls-2" d="m161.88,175.72c.11.01.24.23.25.48.04.78,1.08,1.31,2.13,1.26.54-.04,1.63-.28,2.93-1.54,2.08-1.99,2.72-4.81,6.29-6.83.4-.23,1.2-.44,2.06-.58-.64-.35-1.18-.9-1.38-1.62-.1-.42-.12-.82-.08-1.22.12-.99.63-1.91,1.19-2.7.37-.53.71-1.28.79-1.97.06-.47,0-.88-.24-1.19-.16-.19-.36-.3-.61-.32-.61-.07-1.42.36-1.86.91-.64.75-.99,1.62-1.06,2.21-.05.42.02.73.26.81.53.19,1.23-.48,1.71-1.15.14-.21.3-.27.41-.25.13.02.2.2.03.46-.57,1.09-1.73,2.01-2.54,1.43-.33-.24-.43-.68-.36-1.25.09-.79.52-1.77,1.17-2.58.71-.9,2.17-1.6,3.3-1.47.42.05.78.19,1.05.5.51.54.65,1.21.58,1.86-.12.99-.75,2-1.38,2.63-1.34,1.35-2.03,2.17-1.74,3.22.22.76.91,1.32,1.83,1.43.22.03.44.03.69,0l.38-.03c.38-.06.8-.21,1.22-.41,1.89-2.44,4.93-5.65,8.29-7.19,2.89-1.34,5.17-1.67,6.89-1.47,2.56.31,3.93,1.78,4.26,2.95.14.5.15,1,.08,1.52-.19,1.56-1.12,3.04-2.02,3.53-.31.17-.6.23-.87.2-.55-.06-.92-.49-.89-.89,0-.53.29-.97.72-1.02.41-.08.75.19.78.5.03.15.08.26.14.29.08.04.2,0,.35-.11.2-.15.83-.98.95-2.05.04-.32.04-.68-.05-1.04-.28-1.19-1.38-1.85-2.93-2.04-3.19-.38-8.26,1.2-11.8,3.88-3.34,2.52-7.08,7.84-7.51,11.46-.14,1.14.06,2.1.69,2.78.69.74,1.55,1.09,2.54,1.21,2.6.31,5.87-1.21,7.76-2.82,1.7-1.43,3.45-3.79,3.7-5.93.08-.65.02-1.28-.22-1.84-.42-.98-1.2-1.43-2.12-1.54-1.42-.17-3.13.43-4.18,1.06-1.86,1.06-2.92,3.08-3.21,4-.08.32-.25.45-.38.43-.11-.01-.2-.17-.15-.42.26-1.05,1.07-2.99,3.45-4.57,1.3-.85,3.17-1.28,4.83-1.08,1.42.17,2.68.8,3.26,2,.38.75.48,1.59.37,2.49-.27,2.26-1.95,4.8-4.57,6.68-2.35,1.71-5.66,2.5-8.27,2.18-1.4-.17-2.6-.66-3.35-1.51-.7-.81-.86-1.91-.72-3.08.28-2.33,1.75-4.98,2.58-6.36.11-.16.24-.35.38-.56-.18-.02-.39-.07-.65-.1-.94-.11-2.35-.16-3.38.43-2.96,1.61-4.31,4.9-5.98,6.64-1.31,1.35-2.92,2.52-4.52,2.2-1.34-.29-1.71-1.69-1.51-2.62.05-.22.1-.29.19-.28Z"/>
    <path class="cls-2" d="m152.25,178.21c.1.05.15.3.07.54-.23.75.57,1.6,1.57,1.92.52.15,1.63.29,3.28-.44,2.63-1.16,4.21-3.59,8.25-4.26.46-.08,1.28,0,2.14.16-.49-.55-.8-1.25-.74-2,.04-.43.17-.81.35-1.17.45-.89,1.24-1.58,2.04-2.13.53-.37,1.1-.96,1.42-1.58.21-.42.3-.83.18-1.19-.08-.24-.24-.4-.46-.51-.55-.28-1.46-.15-2.06.22-.86.49-1.49,1.18-1.76,1.72-.19.38-.23.7-.04.85.43.36,1.32-.03,2-.5.2-.15.37-.15.47-.1.12.06.12.26-.12.44-.91.83-2.31,1.3-2.88.48-.22-.34-.17-.79.09-1.3.36-.71,1.1-1.49,1.98-2.02.97-.6,2.58-.77,3.6-.25.37.19.66.45.81.83.3.68.2,1.36-.09,1.94-.45.89-1.39,1.62-2.2,2-1.72.81-2.65,1.35-2.73,2.43-.05.79.4,1.55,1.23,1.96.2.1.41.18.64.24l.37.1c.38.08.82.08,1.29.04,2.61-1.65,6.57-3.63,10.25-3.92,3.17-.27,5.43.19,6.98.98,2.3,1.16,3.09,3.02,2.99,4.23-.04.51-.2.99-.44,1.46-.71,1.41-2.09,2.47-3.1,2.63-.35.05-.65,0-.88-.11-.49-.25-.7-.77-.53-1.14.18-.5.61-.81,1.03-.71.41.07.64.44.57.73-.03.15-.01.27.03.33.07.06.19.07.36.01.24-.08,1.11-.64,1.6-1.6.15-.29.26-.62.3-.99.14-1.21-.66-2.21-2.05-2.91-2.87-1.45-8.17-1.69-12.41-.39-4,1.23-9.33,4.95-10.98,8.2-.52,1.03-.66,1.99-.3,2.84.39.93,1.09,1.56,1.97,2,2.34,1.18,5.93.87,8.26,0,2.09-.76,4.54-2.38,5.5-4.3.29-.58.46-1.2.42-1.81-.05-1.06-.64-1.75-1.47-2.17-1.28-.65-3.09-.67-4.29-.43-2.11.36-3.79,1.89-4.38,2.66-.19.27-.39.33-.51.27-.1-.05-.13-.23,0-.45.6-.9,2.03-2.45,4.81-3.12,1.51-.36,3.42-.12,4.91.63,1.28.65,2.24,1.67,2.38,3,.1.83-.1,1.66-.5,2.46-1.03,2.03-3.47,3.85-6.58,4.71-2.8.8-6.17.41-8.51-.77-1.26-.64-2.22-1.51-2.63-2.56-.38-1-.15-2.09.38-3.14,1.06-2.1,3.34-4.08,4.6-5.1.16-.12.35-.25.55-.4-.16-.08-.34-.2-.58-.32-.84-.43-2.16-.95-3.32-.75-3.34.5-5.73,3.13-7.89,4.19-1.7.82-3.6,1.37-5,.53-1.16-.73-1.03-2.17-.52-2.98.12-.19.19-.24.27-.2Z"/>
    <path class="cls-2" d="m142.34,177.26c.08.08.04.33-.12.53-.47.63-.01,1.7.82,2.34.43.32,1.43.83,3.24.71,2.87-.19,5.18-1.93,9.21-1.18.46.08,1.2.44,1.96.88-.27-.69-.33-1.44-.01-2.13.19-.39.43-.71.72-.98.73-.68,1.71-1.06,2.65-1.31.63-.17,1.36-.52,1.87-1,.35-.32.56-.68.58-1.06,0-.25-.09-.46-.25-.64-.42-.45-1.32-.64-2.01-.5-.98.16-1.8.6-2.24,1.01-.31.29-.45.58-.32.79.29.49,1.25.42,2.05.21.24-.07.4-.01.48.07.09.1.02.28-.27.37-1.14.47-2.61.43-2.87-.54-.09-.39.11-.8.53-1.19.58-.55,1.54-1.02,2.55-1.22,1.12-.23,2.69.16,3.47,1,.29.31.47.65.48,1.06.05.74-.28,1.35-.75,1.79-.73.68-1.86,1.05-2.75,1.13-1.89.18-2.96.36-3.4,1.35-.32.72-.15,1.59.48,2.27.15.16.32.3.52.45l.31.22c.33.2.75.36,1.2.48,3.02-.66,7.41-1.16,10.97-.18,3.08.83,5.03,2.04,6.22,3.31,1.76,1.88,1.87,3.89,1.37,5-.21.47-.53.86-.91,1.22-1.15,1.08-2.81,1.61-3.82,1.41-.34-.07-.61-.21-.79-.41-.38-.4-.39-.96-.11-1.25.34-.41.85-.56,1.21-.32.36.2.45.63.28.88-.08.13-.11.25-.08.32.04.08.15.13.34.14.25,0,1.26-.22,2.05-.96.24-.22.46-.49.63-.83.55-1.09.14-2.3-.93-3.44-2.2-2.34-7.1-4.39-11.53-4.61-4.18-.22-10.46,1.46-13.12,3.95-.84.79-1.3,1.64-1.26,2.57.05,1.01.49,1.83,1.17,2.56,1.79,1.91,5.27,2.84,7.76,2.83,2.22,0,5.08-.69,6.65-2.16.47-.44.84-.97,1.01-1.55.31-1.02,0-1.87-.64-2.54-.98-1.04-2.68-1.68-3.89-1.88-2.11-.38-4.21.48-5.02,1-.27.19-.48.18-.57.08-.08-.08-.04-.26.16-.42.88-.64,2.74-1.61,5.58-1.28,1.54.18,3.25,1.05,4.4,2.27.98,1.04,1.54,2.33,1.21,3.63-.19.82-.66,1.52-1.32,2.14-1.66,1.56-4.58,2.43-7.79,2.18-2.9-.21-5.94-1.73-7.74-3.64-.96-1.03-1.57-2.18-1.59-3.31-.01-1.07.57-2.02,1.43-2.82,1.71-1.61,4.54-2.69,6.06-3.22.19-.06.41-.11.65-.19-.12-.13-.25-.31-.43-.5-.65-.69-1.7-1.63-2.86-1.84-3.3-.67-6.45.98-8.85,1.24-1.88.19-3.86.06-4.88-1.22-.84-1.08-.22-2.39.53-2.98.18-.14.26-.16.32-.09Z"/>
    <path class="cls-2" d="m133.36,172.97c.04.1-.08.32-.29.46-.66.43-.59,1.6-.03,2.48.3.45,1.06,1.27,2.8,1.77,2.76.8,5.53-.05,9.06,2.04.4.24.98.83,1.54,1.5-.02-.74.19-1.47.72-2.01.31-.3.65-.52,1.02-.67.92-.39,1.97-.41,2.93-.32.65.06,1.46-.03,2.1-.3.44-.19.76-.45.91-.8.09-.23.07-.46-.02-.69-.24-.57-1.02-1.05-1.72-1.16-.98-.18-1.9-.05-2.45.19-.39.17-.62.39-.57.63.1.56,1.03.83,1.86.91.25.01.38.12.42.23.05.12-.07.27-.38.26-1.23.05-2.6-.49-2.51-1.49.05-.4.38-.71.9-.94.73-.31,1.8-.44,2.82-.27,1.13.16,2.47,1.07,2.92,2.12.17.38.22.77.09,1.16-.21.71-.72,1.17-1.32,1.43-.92.39-2.11.35-2.97.12-1.84-.48-2.9-.67-3.65.11-.55.57-.69,1.44-.32,2.29.09.2.2.39.34.6l.22.31c.24.3.58.59.96.86,3.06.41,7.36,1.44,10.37,3.58,2.61,1.83,4.03,3.64,4.72,5.24,1.01,2.37.43,4.3-.42,5.16-.36.37-.79.63-1.27.83-1.45.62-3.19.55-4.07.02-.3-.18-.5-.41-.61-.65-.22-.51-.04-1.04.32-1.22.46-.27.99-.23,1.24.11.27.31.21.75-.04.93-.12.1-.19.2-.18.27.01.09.1.17.27.24.23.09,1.27.22,2.25-.2.3-.13.6-.31.87-.56.89-.84.91-2.12.3-3.55-1.27-2.96-5.17-6.55-9.26-8.28-3.85-1.63-10.33-2.21-13.68-.77-1.06.45-1.79,1.1-2.06,1.98-.29.96-.17,1.89.22,2.8,1.03,2.41,3.98,4.47,6.33,5.31,2.09.76,5.01,1.09,6.98.24.6-.26,1.12-.62,1.48-1.11.64-.85.63-1.76.27-2.61-.56-1.31-1.94-2.5-3.01-3.09-1.85-1.08-4.12-.99-5.06-.78-.32.09-.51,0-.57-.12-.04-.1.05-.26.29-.34,1.04-.3,3.13-.57,5.68.7,1.39.7,2.7,2.1,3.35,3.64.56,1.32.65,2.72-.1,3.83-.46.7-1.14,1.21-1.97,1.56-2.09.9-5.13.71-8.07-.62-2.66-1.19-4.99-3.66-6.02-6.07-.55-1.29-.73-2.59-.37-3.65.35-1.01,1.23-1.7,2.31-2.16,2.16-.93,5.18-.98,6.8-.95.2.01.42.04.67.05-.07-.16-.13-.38-.24-.62-.37-.87-1.04-2.12-2.06-2.71-2.88-1.76-6.4-1.28-8.74-1.86-1.83-.46-3.64-1.27-4.17-2.81-.42-1.3.61-2.32,1.52-2.61.22-.07.3-.06.34.02Z"/>
    <path class="cls-2" d="m126.39,165.87c0,.11-.18.28-.43.33-.77.17-1.1,1.3-.87,2.32.13.52.56,1.56,2.02,2.62,2.32,1.7,5.21,1.85,7.81,5.01.29.36.64,1.11.93,1.93.24-.7.68-1.32,1.36-1.64.39-.17.79-.26,1.19-.29,1-.06,1.99.29,2.87.7.59.28,1.38.47,2.08.44.47-.03.87-.16,1.13-.44.17-.19.23-.41.21-.65-.03-.62-.6-1.33-1.22-1.67-.85-.5-1.77-.7-2.36-.66-.42.02-.72.15-.75.4-.09.56.69,1.13,1.43,1.48.23.1.31.25.32.36,0,.13-.16.23-.44.11-1.17-.38-2.28-1.35-1.85-2.26.18-.36.6-.54,1.17-.57.8-.04,1.84.21,2.74.71,1.01.54,1.96,1.85,2.02,3,.02.42-.06.8-.31,1.12-.44.6-1.08.85-1.73.89-1,.06-2.1-.39-2.83-.9-1.56-1.08-2.49-1.62-3.47-1.15-.71.35-1.14,1.12-1.09,2.04.01.22.05.44.11.68l.1.37c.12.37.34.75.61,1.13,2.73,1.43,6.42,3.88,8.52,6.91,1.82,2.61,2.55,4.8,2.64,6.54.14,2.57-1.07,4.18-2.17,4.71-.46.22-.96.32-1.48.35-1.57.09-3.19-.57-3.83-1.37-.22-.27-.33-.55-.35-.82-.03-.55.32-.99.72-1.03.52-.1,1.01.12,1.13.53.15.39-.06.78-.35.86-.15.05-.24.12-.26.19-.02.09.04.19.17.32.18.17,1.11.64,2.19.58.32-.02.67-.08,1.01-.23,1.12-.48,1.58-1.68,1.5-3.24-.18-3.21-2.62-7.93-5.87-10.94-3.06-2.85-8.95-5.61-12.59-5.41-1.15.06-2.05.42-2.61,1.16-.61.81-.8,1.72-.75,2.71.15,2.62,2.21,5.57,4.13,7.16,1.71,1.43,4.33,2.74,6.48,2.62.65-.04,1.27-.2,1.77-.54.89-.58,1.2-1.43,1.15-2.36-.08-1.43-.97-3.01-1.77-3.94-1.37-1.64-3.53-2.34-4.49-2.46-.33-.03-.48-.17-.49-.3,0-.11.14-.23.39-.22,1.08.07,3.13.53,5.1,2.6,1.06,1.13,1.81,2.9,1.91,4.57.08,1.43-.32,2.77-1.4,3.56-.67.5-1.49.74-2.38.79-2.27.13-5.07-1.08-7.37-3.34-2.09-2.02-3.44-5.14-3.59-7.76-.08-1.41.2-2.68.9-3.56.68-.83,1.74-1.18,2.91-1.24,2.35-.13,5.2.86,6.71,1.43.18.08.39.18.62.27,0-.18,0-.4-.01-.66-.05-.94-.26-2.34-1.01-3.25-2.1-2.64-5.57-3.39-7.57-4.74-1.56-1.06-2.99-2.43-2.96-4.07.05-1.37,1.37-1.97,2.32-1.94.23,0,.3.05.31.14Z"/>
    <path class="cls-2" d="m122.26,156.81c-.03.11-.27.2-.52.16-.78-.1-1.48.84-1.61,1.88-.06.54,0,1.66,1,3.16,1.6,2.39,4.26,3.52,5.63,7.38.16.44.22,1.26.22,2.13.46-.57,1.09-1.01,1.84-1.08.43-.03.83.02,1.21.14.96.29,1.78.95,2.46,1.64.46.46,1.13.92,1.8,1.12.45.14.87.15,1.21-.03.22-.12.35-.31.42-.54.18-.59-.11-1.46-.57-1.99-.63-.77-1.42-1.26-2-1.43-.41-.12-.73-.1-.84.11-.28.49.26,1.3.84,1.89.18.17.21.34.18.45-.04.13-.23.16-.46-.04-.97-.75-1.68-2.05-.97-2.75.29-.28.74-.3,1.29-.14.77.23,1.66.82,2.34,1.6.76.85,1.2,2.41.87,3.51-.12.4-.33.73-.68.95-.62.41-1.31.43-1.93.25-.96-.29-1.84-1.08-2.35-1.81-1.1-1.55-1.79-2.38-2.87-2.27-.78.08-1.45.66-1.72,1.55-.06.21-.1.43-.13.67l-.04.38c-.01.39.06.82.19,1.28,2.08,2.28,4.71,5.84,5.64,9.41.82,3.08.75,5.38.25,7.04-.74,2.47-2.43,3.57-3.65,3.68-.51.05-1.01-.03-1.51-.18-1.51-.46-2.8-1.63-3.13-2.6-.11-.33-.12-.63-.04-.89.16-.53.64-.82,1.03-.72.52.09.91.46.88.89,0,.42-.32.71-.62.69-.16,0-.27.03-.31.09-.05.08-.03.2.05.36.12.22.83.98,1.85,1.29.31.09.66.15,1.03.13,1.22-.07,2.06-1.04,2.51-2.53.93-3.08.25-8.34-1.77-12.29-1.9-3.73-6.49-8.33-9.98-9.39-1.1-.33-2.07-.3-2.85.2-.85.55-1.35,1.34-1.63,2.29-.76,2.51.18,5.99,1.43,8.14,1.12,1.92,3.14,4.05,5.19,4.67.62.19,1.26.24,1.85.1,1.04-.24,1.62-.94,1.88-1.82.41-1.37.12-3.16-.32-4.31-.72-2.01-2.52-3.41-3.38-3.85-.3-.14-.4-.33-.36-.45.03-.11.21-.17.44-.07.99.44,2.76,1.57,3.9,4.19.61,1.43.71,3.34.23,4.95-.41,1.37-1.25,2.5-2.54,2.87-.8.24-1.65.19-2.51-.07-2.18-.66-4.39-2.75-5.78-5.66-1.27-2.62-1.47-6.01-.72-8.52.41-1.35,1.11-2.45,2.06-3.03.92-.55,2.04-.51,3.16-.17,2.25.68,4.6,2.58,5.82,3.64.14.14.3.3.49.47.05-.17.14-.37.21-.62.27-.91.56-2.29.17-3.4-1.07-3.2-4.07-5.1-5.5-7.04-1.1-1.53-1.98-3.31-1.39-4.83.51-1.27,1.96-1.39,2.84-1.03.21.09.27.15.24.23Z"/>
    <path class="cls-2" d="m121.48,146.89c-.07.09-.32.09-.55-.02-.7-.36-1.68.28-2.16,1.22-.24.48-.57,1.55-.14,3.31.69,2.79,2.8,4.76,2.77,8.86,0,.46-.23,1.26-.53,2.08.63-.38,1.37-.57,2.1-.38.41.12.77.3,1.09.54.8.6,1.34,1.5,1.75,2.38.28.59.75,1.25,1.31,1.67.38.29.77.44,1.14.39.25-.04.44-.17.58-.36.37-.49.4-1.41.14-2.07-.33-.93-.91-1.67-1.39-2.03-.34-.25-.65-.35-.83-.18-.43.37-.2,1.31.14,2.06.11.22.08.39.01.48-.08.11-.27.07-.41-.2-.66-1.04-.88-2.5.03-2.92.37-.16.8-.03,1.26.31.64.48,1.28,1.34,1.65,2.3.42,1.06.31,2.68-.38,3.59-.25.34-.56.58-.96.66-.72.17-1.37-.04-1.89-.43-.8-.6-1.36-1.65-1.59-2.51-.5-1.83-.87-2.85-1.92-3.11-.76-.19-1.59.13-2.15.87-.13.18-.24.37-.35.59l-.16.34c-.14.36-.22.8-.26,1.26,1.17,2.86,2.43,7.1,2.08,10.77-.28,3.17-1.13,5.31-2.18,6.7-1.54,2.06-3.51,2.52-4.69,2.21-.5-.13-.94-.37-1.36-.69-1.26-.94-2.07-2.49-2.05-3.52.01-.35.1-.64.26-.85.33-.44.88-.55,1.21-.33.46.26.69.74.52,1.13-.14.39-.54.56-.82.43-.15-.05-.27-.06-.33-.02-.07.05-.1.17-.08.35.03.25.44,1.21,1.3,1.85.26.2.57.37.93.47,1.17.35,2.29-.27,3.23-1.52,1.93-2.57,3.09-7.75,2.54-12.15-.51-4.15-3.25-10.05-6.17-12.24-.92-.69-1.85-1-2.75-.79-.98.23-1.72.8-2.32,1.59-1.57,2.1-1.88,5.69-1.44,8.14.39,2.19,1.56,4.88,3.28,6.17.52.39,1.1.66,1.7.73,1.06.13,1.84-.33,2.39-1.07.86-1.15,1.19-2.93,1.17-4.16,0-2.14-1.21-4.06-1.86-4.77-.23-.23-.26-.44-.18-.55.07-.09.25-.09.44.08.78.75,2.06,2.42,2.23,5.27.09,1.55-.47,3.39-1.48,4.73-.86,1.15-2.03,1.92-3.37,1.83-.84-.05-1.62-.38-2.34-.92-1.82-1.36-3.18-4.09-3.5-7.29-.3-2.89.67-6.15,2.24-8.25.84-1.13,1.88-1.92,2.98-2.15,1.06-.2,2.09.21,3.03.92,1.88,1.41,3.44,4,4.22,5.41.09.17.18.38.29.61.11-.14.26-.3.42-.51.57-.76,1.31-1.96,1.32-3.14.09-3.37-2.09-6.18-2.76-8.5-.52-1.81-.73-3.79.35-5.02.92-1.02,2.32-.63,3.02,0,.17.15.2.23.15.3Z"/>
    <path class="cls-2" d="m124.14,137.3c-.09.06-.33-.02-.5-.21-.53-.58-1.67-.31-2.44.4-.39.37-1.07,1.27-1.26,3.06-.31,2.86,1,5.44-.43,9.27-.16.43-.64,1.11-1.21,1.78.72-.14,1.48-.07,2.1.36.35.25.62.55.84.88.55.84.75,1.87.83,2.83.06.65.28,1.43.66,2.02.26.4.57.67.94.76.24.05.47,0,.67-.14.52-.34.86-1.19.84-1.89,0-.99-.28-1.88-.61-2.38-.23-.36-.49-.55-.72-.46-.53.2-.63,1.16-.57,1.98.03.25-.06.4-.15.46-.11.07-.28-.03-.32-.33-.26-1.2.03-2.65,1.03-2.73.4-.02.77.25,1.08.73.44.67.74,1.7.76,2.73.04,1.14-.63,2.62-1.59,3.25-.35.23-.72.35-1.13.29-.74-.08-1.28-.51-1.63-1.05-.55-.84-.71-2.01-.63-2.9.16-1.89.16-2.97-.74-3.58-.65-.44-1.54-.43-2.32.08-.18.12-.35.26-.53.44l-.27.27c-.26.29-.48.67-.68,1.1.12,3.08-.15,7.5-1.73,10.84-1.35,2.88-2.88,4.6-4.34,5.55-2.16,1.41-4.16,1.17-5.16.48-.43-.29-.75-.67-1.04-1.11-.86-1.32-1.1-3.04-.73-4,.13-.32.32-.56.54-.71.46-.3,1.02-.22,1.25.11.34.4.4.93.1,1.25-.26.32-.7.34-.92.12-.12-.1-.23-.15-.3-.13-.09.03-.15.13-.19.31-.05.24,0,1.28.59,2.18.18.27.41.54.71.76.98.73,2.24.53,3.55-.32,2.69-1.76,5.55-6.23,6.54-10.55.94-4.08.38-10.55-1.61-13.61-.63-.96-1.39-1.57-2.31-1.68-1-.12-1.89.16-2.72.71-2.19,1.43-3.71,4.7-4.13,7.15-.38,2.19-.2,5.12.97,6.92.36.54.81.99,1.35,1.26.95.48,1.84.32,2.61-.19,1.2-.78,2.12-2.34,2.52-3.5.74-2.01.26-4.23-.11-5.12-.14-.3-.09-.5.02-.58.09-.06.27,0,.38.23.48.97,1.11,2.98.3,5.72-.45,1.49-1.6,3.02-3,3.94-1.2.78-2.56,1.11-3.79.57-.77-.33-1.39-.92-1.88-1.67-1.25-1.9-1.59-4.93-.79-8.05.71-2.82,2.74-5.55,4.93-6.99,1.18-.77,2.42-1.17,3.53-1,1.06.17,1.89.91,2.53,1.9,1.29,1.97,1.86,4.94,2.11,6.53.02.19.04.42.07.67.15-.1.34-.2.57-.34.79-.52,1.9-1.39,2.31-2.5,1.24-3.14.15-6.52.32-8.93.14-1.88.61-3.81,2.05-4.59,1.21-.64,2.39.2,2.84,1.04.1.2.11.29.04.33Z"/>
    <path class="cls-2" d="m129.93,129.2c-.11.03-.3-.13-.4-.37-.31-.72-1.47-.86-2.44-.46-.49.22-1.43.82-2.23,2.45-1.27,2.58-.92,5.45-3.58,8.57-.3.35-.98.82-1.74,1.25.73.11,1.42.44,1.85,1.05.24.35.4.73.49,1.12.23.97.07,2.01-.19,2.95-.17.63-.23,1.44-.07,2.12.11.46.31.83.63,1.03.21.13.44.15.68.1.6-.14,1.21-.82,1.44-1.49.35-.93.38-1.86.24-2.44-.1-.41-.27-.68-.52-.67-.56,0-.99.88-1.21,1.67-.06.24-.19.35-.3.38-.13.03-.25-.12-.19-.42.17-1.22.94-2.48,1.9-2.22.39.11.63.49.77,1.05.18.78.12,1.85-.22,2.82-.36,1.08-1.49,2.25-2.6,2.51-.41.1-.79.08-1.16-.11-.67-.33-1.03-.91-1.18-1.55-.23-.97.02-2.13.4-2.94.79-1.73,1.17-2.74.53-3.62-.46-.64-1.3-.93-2.2-.72-.21.05-.42.12-.65.23l-.35.16c-.34.18-.68.47-1.01.8-.94,2.94-2.7,7-5.33,9.59-2.25,2.25-4.28,3.34-5.98,3.74-2.51.59-4.31-.33-5.01-1.32-.3-.42-.48-.89-.6-1.4-.36-1.53,0-3.24.69-4.01.23-.26.49-.42.75-.48.54-.13,1.03.14,1.14.53.19.5.06,1.01-.33,1.21-.36.21-.77.08-.91-.2-.08-.14-.17-.22-.24-.23-.09,0-.19.07-.29.22-.13.21-.44,1.21-.19,2.25.07.32.2.65.4.96.67,1.02,1.93,1.27,3.45.91,3.13-.73,7.35-3.96,9.76-7.68,2.27-3.51,3.97-9.79,3.14-13.34-.26-1.12-.77-1.95-1.6-2.37-.9-.46-1.83-.49-2.8-.27-2.55.6-5.1,3.15-6.33,5.31-1.11,1.93-1.94,4.74-1.45,6.83.15.63.42,1.21.84,1.65.73.78,1.62.93,2.52.72,1.39-.33,2.8-1.48,3.57-2.43,1.38-1.63,1.69-3.89,1.64-4.85-.03-.33.08-.51.21-.54.11-.03.25.1.28.34.12,1.08.02,3.18-1.68,5.48-.93,1.25-2.54,2.29-4.17,2.67-1.39.33-2.79.17-3.75-.76-.61-.58-.99-1.33-1.2-2.21-.52-2.21.19-5.18,2.01-7.84,1.63-2.41,4.47-4.28,7.02-4.88,1.37-.32,2.67-.27,3.66.27.94.52,1.46,1.51,1.73,2.65.54,2.29.06,5.27-.25,6.86-.05.19-.11.41-.16.65.17-.04.39-.07.65-.13.92-.22,2.26-.66,3.03-1.56,2.23-2.53,2.38-6.08,3.35-8.28.77-1.72,1.88-3.37,3.5-3.62,1.36-.19,2.18,1,2.31,1.95.03.22,0,.31-.08.33Z"/>
    <path class="cls-2" d="m138.13,123.57c-.11-.01-.24-.23-.25-.48-.04-.78-1.08-1.31-2.13-1.26-.54.04-1.63.28-2.93,1.54-2.08,1.99-2.72,4.81-6.29,6.83-.4.23-1.2.44-2.06.58.64.35,1.18.9,1.38,1.62.1.42.12.82.08,1.22-.12.99-.63,1.91-1.19,2.7-.37.53-.71,1.28-.79,1.97-.06.47,0,.88.23,1.19.16.19.36.29.61.32.61.07,1.42-.36,1.86-.91.64-.75.99-1.62,1.06-2.21.05-.42-.02-.73-.26-.81-.53-.19-1.23.48-1.71,1.16-.14.21-.3.27-.41.25-.13-.02-.2-.2-.03-.46.57-1.09,1.73-2.01,2.54-1.43.33.24.43.68.36,1.25-.09.79-.52,1.78-1.17,2.58-.71.9-2.17,1.6-3.3,1.47-.42-.05-.78-.19-1.05-.5-.51-.54-.65-1.21-.58-1.86.12-.99.75-2,1.38-2.63,1.34-1.35,2.03-2.17,1.74-3.22-.22-.76-.91-1.32-1.83-1.43-.22-.03-.44-.03-.69,0l-.38.03c-.38.05-.8.21-1.22.41-1.89,2.44-4.93,5.65-8.29,7.19-2.89,1.34-5.17,1.67-6.89,1.47-2.56-.31-3.93-1.78-4.26-2.95-.14-.5-.15-1-.08-1.52.19-1.56,1.12-3.04,2.02-3.53.31-.16.6-.23.87-.2.55.06.92.49.89.89,0,.53-.29.97-.72,1.02-.41.08-.75-.19-.78-.5-.03-.15-.08-.26-.14-.29-.08-.04-.2,0-.35.11-.2.15-.83.98-.95,2.05-.04.32-.04.68.05,1.04.28,1.19,1.38,1.85,2.93,2.04,3.19.38,8.26-1.2,11.79-3.88,3.34-2.52,7.08-7.84,7.51-11.46.14-1.14-.06-2.1-.69-2.78-.69-.74-1.55-1.09-2.54-1.21-2.6-.31-5.87,1.21-7.76,2.82-1.7,1.43-3.45,3.79-3.7,5.93-.08.65-.02,1.28.22,1.84.42.98,1.2,1.43,2.12,1.54,1.42.17,3.13-.43,4.19-1.06,1.86-1.06,2.92-3.07,3.2-4,.08-.32.25-.45.38-.43.11.01.2.17.15.42-.26,1.05-1.07,2.99-3.45,4.57-1.3.85-3.17,1.28-4.83,1.08-1.42-.17-2.68-.8-3.26-2-.38-.75-.48-1.59-.37-2.49.27-2.26,1.95-4.8,4.57-6.68,2.35-1.71,5.66-2.5,8.27-2.18,1.4.17,2.6.66,3.35,1.51.7.81.86,1.92.72,3.08-.28,2.33-1.75,4.98-2.58,6.36-.11.16-.24.35-.38.56.18.02.39.07.65.1.94.11,2.35.15,3.38-.43,2.96-1.61,4.31-4.9,5.98-6.64,1.31-1.35,2.92-2.52,4.52-2.2,1.34.29,1.71,1.69,1.51,2.62-.05.22-.1.29-.19.28Z"/>
    <path class="cls-2" d="m147.77,121.08c-.1-.05-.15-.3-.07-.54.23-.75-.57-1.6-1.57-1.92-.52-.15-1.63-.29-3.28.44-2.63,1.16-4.21,3.59-8.25,4.26-.46.08-1.28,0-2.14-.16.49.55.8,1.25.74,2-.04.43-.17.81-.35,1.17-.45.89-1.24,1.58-2.04,2.13-.53.37-1.1.96-1.42,1.58-.21.42-.3.83-.18,1.2.08.24.24.4.46.51.55.28,1.46.15,2.06-.22.86-.49,1.49-1.18,1.76-1.72.19-.38.23-.7.04-.85-.43-.36-1.32.03-2,.5-.2.15-.37.15-.47.1-.12-.06-.12-.25.12-.44.91-.83,2.31-1.3,2.88-.48.22.34.17.79-.09,1.3-.36.71-1.1,1.49-1.98,2.02-.97.6-2.58.77-3.6.25-.37-.19-.66-.45-.81-.83-.3-.68-.2-1.36.09-1.94.45-.89,1.39-1.62,2.2-2,1.72-.81,2.65-1.35,2.73-2.43.05-.79-.4-1.55-1.23-1.96-.2-.1-.41-.18-.64-.24l-.37-.1c-.38-.08-.82-.08-1.29-.04-2.61,1.65-6.57,3.63-10.25,3.92-3.17.27-5.43-.19-6.98-.98-2.3-1.16-3.09-3.02-2.99-4.23.04-.51.2-.99.44-1.46.71-1.41,2.09-2.47,3.1-2.63.35-.05.65,0,.88.11.49.25.7.77.53,1.14-.18.5-.61.81-1.03.71-.41-.07-.64-.44-.57-.73.03-.15.01-.27-.03-.33-.07-.06-.19-.07-.36-.02-.24.08-1.11.64-1.6,1.6-.15.29-.26.62-.3.99-.14,1.22.66,2.21,2.05,2.91,2.87,1.45,8.17,1.69,12.41.39,4-1.23,9.33-4.95,10.98-8.2.52-1.03.66-1.99.3-2.84-.39-.93-1.09-1.56-1.97-2-2.34-1.18-5.93-.87-8.26,0-2.09.77-4.54,2.39-5.5,4.3-.29.58-.46,1.2-.42,1.81.05,1.06.64,1.75,1.47,2.17,1.28.65,3.09.67,4.29.43,2.11-.36,3.79-1.89,4.38-2.66.19-.27.39-.33.51-.28.1.05.13.23,0,.45-.6.9-2.03,2.45-4.81,3.12-1.51.36-3.42.12-4.91-.63-1.28-.65-2.24-1.67-2.38-3-.1-.83.1-1.66.5-2.46,1.03-2.03,3.47-3.85,6.58-4.71,2.8-.8,6.17-.41,8.51.77,1.26.64,2.22,1.51,2.63,2.56.38,1,.15,2.09-.38,3.14-1.06,2.1-3.34,4.08-4.6,5.1-.16.12-.35.25-.55.4.16.08.34.2.58.32.84.43,2.16.95,3.32.75,3.34-.5,5.73-3.13,7.89-4.19,1.7-.82,3.6-1.37,5-.53,1.16.73,1.03,2.17.52,2.98-.12.19-.19.24-.27.2Z"/>
    <path class="cls-2" d="m157.67,122.04c-.08-.08-.04-.33.12-.53.47-.63.01-1.7-.82-2.34-.43-.32-1.43-.83-3.24-.71-2.87.19-5.18,1.93-9.21,1.18-.46-.08-1.2-.44-1.96-.88.27.69.33,1.44.01,2.13-.19.39-.43.71-.72.98-.73.68-1.71,1.06-2.65,1.31-.63.17-1.36.52-1.87,1-.35.33-.56.68-.58,1.06,0,.25.09.46.25.64.42.45,1.32.64,2.01.5.98-.16,1.8-.6,2.24-1.01.31-.29.45-.58.32-.79-.29-.49-1.25-.42-2.05-.22-.24.07-.4.01-.48-.07-.09-.1-.02-.28.27-.37,1.14-.47,2.61-.43,2.87.54.09.39-.11.8-.53,1.19-.58.55-1.54,1.02-2.55,1.22-1.12.23-2.69-.16-3.47-1-.29-.31-.47-.65-.48-1.06-.05-.74.28-1.35.75-1.79.73-.68,1.86-1.05,2.75-1.13,1.89-.17,2.96-.36,3.4-1.35.32-.72.15-1.59-.48-2.27-.15-.16-.32-.3-.52-.45l-.31-.22c-.33-.21-.75-.36-1.2-.48-3.02.66-7.41,1.16-10.97.18-3.08-.83-5.03-2.04-6.22-3.31-1.76-1.88-1.87-3.89-1.37-5,.21-.47.53-.86.91-1.22,1.15-1.08,2.81-1.61,3.82-1.41.34.07.61.21.79.4.38.4.39.96.11,1.25-.34.41-.85.56-1.21.32-.36-.2-.45-.63-.28-.88.08-.13.11-.25.08-.32-.04-.08-.15-.13-.34-.14-.25,0-1.26.22-2.05.96-.24.22-.46.49-.63.83-.55,1.09-.14,2.3.93,3.44,2.2,2.34,7.1,4.39,11.53,4.61,4.18.21,10.46-1.46,13.12-3.95.84-.79,1.3-1.64,1.26-2.57-.05-1.01-.49-1.84-1.17-2.56-1.79-1.91-5.27-2.84-7.76-2.83-2.22,0-5.08.69-6.65,2.16-.47.45-.84.97-1.01,1.55-.31,1.02,0,1.87.64,2.54.98,1.04,2.68,1.68,3.89,1.88,2.11.38,4.21-.48,5.02-1,.27-.19.48-.18.57-.08.08.08.04.26-.16.42-.88.64-2.74,1.61-5.58,1.28-1.54-.18-3.25-1.05-4.4-2.27-.98-1.04-1.54-2.33-1.21-3.63.19-.82.66-1.53,1.32-2.14,1.66-1.56,4.58-2.43,7.79-2.18,2.9.21,5.94,1.73,7.74,3.64.96,1.03,1.57,2.18,1.59,3.31.01,1.07-.57,2.02-1.43,2.82-1.71,1.61-4.54,2.69-6.06,3.22-.19.06-.41.11-.65.19.12.13.25.31.43.5.65.69,1.7,1.63,2.86,1.84,3.3.67,6.45-.98,8.85-1.24,1.88-.19,3.86-.06,4.88,1.22.84,1.08.22,2.39-.53,2.98-.18.14-.26.16-.32.09Z"/>
    <path class="cls-2" d="m166.65,126.32c-.04-.1.08-.32.29-.46.66-.43.59-1.6.03-2.48-.3-.45-1.06-1.27-2.8-1.77-2.76-.8-5.53.04-9.06-2.04-.4-.24-.98-.83-1.54-1.5.02.74-.19,1.47-.72,2.01-.31.3-.65.52-1.02.67-.92.39-1.97.41-2.93.32-.65-.06-1.46.03-2.1.3-.44.19-.76.45-.91.8-.09.23-.07.46.02.69.24.57,1.02,1.05,1.72,1.16.98.18,1.9.05,2.45-.19.39-.17.62-.39.57-.63-.1-.55-1.03-.83-1.86-.9-.25-.01-.38-.12-.42-.23-.05-.12.07-.27.38-.26,1.23-.05,2.6.49,2.51,1.49-.05.4-.38.71-.9.94-.73.31-1.8.44-2.82.27-1.13-.16-2.47-1.07-2.92-2.12-.17-.38-.22-.77-.09-1.16.21-.71.72-1.17,1.32-1.43.92-.39,2.11-.35,2.97-.12,1.84.48,2.9.67,3.65-.1.55-.57.69-1.44.32-2.29-.09-.2-.2-.39-.34-.6l-.22-.31c-.24-.3-.58-.59-.96-.86-3.06-.41-7.36-1.44-10.37-3.58-2.61-1.83-4.03-3.64-4.72-5.24-1.01-2.37-.43-4.3.42-5.17.36-.37.79-.63,1.27-.83,1.45-.62,3.19-.55,4.07-.02.3.18.5.41.61.65.22.51.04,1.04-.32,1.22-.46.27-.99.23-1.24-.11-.27-.31-.21-.75.04-.93.12-.1.19-.2.18-.27-.01-.09-.1-.17-.27-.24-.23-.09-1.26-.22-2.25.2-.3.13-.6.31-.87.56-.89.84-.91,2.12-.3,3.55,1.27,2.96,5.17,6.55,9.26,8.28,3.85,1.63,10.33,2.21,13.68.77,1.06-.45,1.79-1.1,2.06-1.98.29-.96.17-1.89-.22-2.8-1.03-2.41-3.98-4.47-6.33-5.31-2.09-.76-5.01-1.09-6.98-.24-.6.26-1.12.62-1.48,1.11-.64.85-.63,1.76-.27,2.61.56,1.31,1.94,2.5,3.01,3.09,1.85,1.08,4.12.99,5.06.78.32-.09.51,0,.57.12.04.1-.05.26-.29.34-1.04.3-3.13.57-5.68-.7-1.39-.7-2.7-2.1-3.35-3.64-.56-1.32-.65-2.72.1-3.83.46-.7,1.14-1.21,1.97-1.56,2.09-.9,5.13-.71,8.07.62,2.66,1.19,4.99,3.66,6.03,6.07.55,1.29.73,2.59.37,3.65-.35,1.01-1.23,1.7-2.31,2.16-2.16.93-5.18.97-6.8.95-.2-.01-.42-.03-.67-.05.07.16.13.38.24.62.37.87,1.04,2.12,2.06,2.71,2.88,1.76,6.4,1.28,8.74,1.86,1.83.46,3.64,1.27,4.17,2.81.42,1.3-.61,2.32-1.52,2.61-.22.07-.3.06-.34-.02Z"/>
    <path class="cls-2" d="m173.63,133.42c0-.11.18-.28.43-.33.77-.17,1.1-1.3.87-2.32-.13-.52-.56-1.56-2.02-2.62-2.32-1.7-5.21-1.85-7.81-5.01-.29-.36-.64-1.11-.93-1.93-.24.7-.68,1.32-1.36,1.64-.39.17-.79.26-1.19.29-1,.06-1.99-.29-2.87-.7-.59-.28-1.38-.47-2.08-.44-.47.03-.87.16-1.13.44-.17.18-.23.41-.21.65.03.62.6,1.33,1.22,1.67.85.5,1.77.7,2.37.66.42-.02.72-.15.75-.4.09-.56-.69-1.13-1.43-1.48-.23-.1-.31-.25-.32-.36,0-.13.16-.23.44-.11,1.17.38,2.28,1.35,1.85,2.26-.18.36-.6.54-1.17.57-.8.04-1.84-.21-2.74-.71-1.01-.54-1.96-1.85-2.02-3-.02-.42.06-.8.31-1.12.44-.6,1.08-.85,1.73-.89,1-.06,2.1.39,2.83.9,1.56,1.08,2.49,1.62,3.47,1.15.71-.35,1.14-1.12,1.09-2.04-.01-.22-.05-.44-.11-.68l-.1-.37c-.12-.37-.34-.75-.61-1.13-2.73-1.43-6.42-3.88-8.52-6.91-1.82-2.61-2.54-4.8-2.64-6.54-.14-2.57,1.07-4.18,2.17-4.71.46-.22.96-.32,1.48-.35,1.57-.09,3.19.57,3.83,1.37.21.27.33.55.35.82.03.55-.32.99-.72,1.03-.52.1-1.01-.12-1.13-.53-.15-.39.06-.78.35-.86.15-.05.24-.12.26-.19.02-.09-.04-.19-.17-.32-.18-.17-1.11-.64-2.19-.58-.32.02-.67.08-1.01.23-1.12.48-1.58,1.68-1.5,3.24.18,3.21,2.62,7.93,5.87,10.94,3.06,2.85,8.95,5.61,12.59,5.41,1.15-.06,2.05-.42,2.61-1.16.61-.81.81-1.72.75-2.71-.15-2.62-2.21-5.57-4.13-7.16-1.71-1.43-4.33-2.74-6.48-2.62-.65.04-1.27.2-1.77.54-.89.58-1.2,1.43-1.15,2.36.08,1.43.97,3.01,1.77,3.94,1.37,1.64,3.54,2.34,4.49,2.46.33.03.49.17.49.3,0,.11-.14.23-.39.22-1.08-.07-3.13-.53-5.1-2.6-1.06-1.13-1.81-2.9-1.91-4.57-.08-1.43.32-2.77,1.4-3.56.67-.5,1.49-.74,2.38-.79,2.27-.13,5.07,1.08,7.37,3.34,2.09,2.02,3.44,5.14,3.59,7.76.08,1.41-.2,2.68-.9,3.56-.68.83-1.74,1.18-2.91,1.24-2.35.13-5.2-.86-6.71-1.43-.18-.08-.38-.18-.62-.27,0,.18,0,.4.01.66.05.94.26,2.34,1.01,3.25,2.1,2.64,5.57,3.39,7.57,4.74,1.56,1.06,2.99,2.43,2.96,4.07-.05,1.37-1.37,1.97-2.32,1.94-.23,0-.3-.05-.31-.14Z"/>
  </g>
</svg>