<?xml version="1.0" encoding="UTF-8"?>
<svg id="_レイヤー_2" data-name="レイヤー 2" xmlns="http://www.w3.org/2000/svg" viewBox="0 0 569.29 569.74">
  <defs>
    <style>
      .cls-1 {
        fill: #fff;
        stroke-width: 0px;
      }
    </style>
  </defs>
  <g id="_レイヤー_1-2" data-name="レイヤー 1">
    <path class="cls-1" d="m547.47,274.05l21.82-7.96-2.34-22.06-23-3.24-4.48-21.06,19.7-12.34-6.87-21.15-23.18,1.62-8.81-19.71,16.72-16.13-11.08-19.26-22.35,6.39-12.67-17.42,13-19.26-14.88-16.51-20.46,10.89-16.02-14.4,8.7-21.54-18.02-13.06-17.81,14.92-18.67-10.77,4.04-22.87-20.33-9.05-14.31,18.31-20.5-6.64-.82-23.21-21.82-4.63-10.17,20.87-21.43-2.25-5.63-22.53h-22.25l-5.64,22.53-21.42,2.26-10.19-20.87-21.77,4.62-.82,23.23-20.5,6.65-14.3-18.3-20.34,9.04,4.02,22.88-18.66,10.77-17.74-14.93-18.03,13.08,8.66,21.59-16.01,14.36-20.53-10.89-14.88,16.53,12.98,19.25-12.67,17.43-22.33-6.4-11.12,19.26,16.69,16.13-8.76,19.64-23.2-1.59-6.88,21.15,19.71,12.33-4.49,21.07-23.01,3.24-2.32,22.12,21.82,7.95v21.54l-21.82,7.95,2.32,22.11,23.06,3.22,4.47,21.07-19.7,12.33,6.87,21.15,23.19-1.62,8.75,19.68-16.7,16.13,11.07,19.26,22.34-6.41,12.66,17.43-12.99,19.26,14.89,16.52,20.49-10.91,16.02,14.41-8.7,21.53,18.03,13.07,17.8-14.9,18.66,10.77-4.03,22.88,20.33,9.04,14.32-18.3,20.49,6.64.79,23.2,21.78,4.65,10.2-20.88,21.44,2.25,5.61,22.54h22.26l5.63-22.54,21.43-2.26,10.19,20.88,21.77-4.63.83-23.21,20.49-6.64,14.28,18.25,20.33-9.05-4.03-22.87,18.66-10.77,17.81,14.92,18.03-13.07-8.69-21.54,16.02-14.41,20.54,10.91,14.89-16.53-12.99-19.25,12.67-17.42,22.34,6.38,11.13-19.26-16.71-16.13,8.77-19.68,23.18,1.62,6.87-21.15-19.69-12.34,4.48-21.06,23.01-3.25,2.33-22.1-21.82-7.96v-21.53Zm-262.71,255.92c-135.31,0-245-109.69-245-245S149.45,39.97,284.76,39.97s245,109.69,245,245-109.69,245-245,245Z"/>
  </g>
</svg>