<?xml version="1.0" encoding="UTF-8"?>
<svg id="_レイヤー_2" data-name="レイヤー 2" xmlns="http://www.w3.org/2000/svg" viewBox="0 0 399.3 399.3">
  <defs>
    <style>
      .cls-1 {
        font-size: 30px;
      }

      .cls-1, .cls-2 {
        font-family: AnnabelleJF, AnnabelleJF;
      }

      .cls-3, .cls-4 {
        stroke-width: 0px;
      }

      .cls-4, .cls-2 {
        fill: #fff;
      }

      .cls-2 {
        font-size: 60.29px;
      }
    </style>
  </defs>
  <g id="_レイヤー_1-2" data-name="レイヤー 1">
    <path class="cls-4" d="m399.3,209.57v-19.84l-23.49-8.64-2.88-18.23,19.66-15.47-6.13-18.87-25-1c-3.76-7.37-4.63-9.07-8.38-16.44l13.92-20.75-11.67-16.06-24.07,6.82-13.05-13.09,6.79-24-16-11.7-20.82,13.92-16.45-8.38-1-25-18.82-6.13-15.47,19.66-18.23-2.88L209.57,0h-19.84l-8.64,23.49-18.23,2.88-15.47-19.66-18.87,6.13-1,25-16.44,8.38-20.75-13.92-16.06,11.7,6.82,24-13,13-24.09-6.73-11.7,16.06,13.92,20.79-8.38,16.45-25,1-6.13,18.82,19.66,15.47-2.88,18.23L0,189.73v19.84l23.49,8.64,2.88,18.23-19.66,15.47,6.13,18.87,25,1c3.76,7.37,4.63,9.07,8.38,16.44l-13.92,20.78,11.7,16,24-6.79,13,13.05-6.82,24.08,16.15,11.66,20.79-13.92,16.45,8.38,1,25,18.87,6.13,15.47-19.66,18.23,2.88,8.64,23.49h19.84l8.64-23.49,18.23-2.88,15.47,19.66,18.87-6.13,1-25,16.44-8.38,20.73,13.92,16-11.67-6.82-24.07,13.05-13.05,24.11,6.79,11.66-16-13.92-20.79,8.38-16.45,25-1,6.13-18.87-19.66-15.47,2.88-18.23,23.49-8.62Z"/>
    <circle class="cls-3" cx="200.08" cy="200.09" r="164"/>
    <circle class="cls-4" cx="200.08" cy="200.09" r="132"/>
    <circle class="cls-3" cx="200.08" cy="200.09" r="120"/>
    <text class="cls-2" transform="translate(185.87 97.07) rotate(-30)"><tspan x="0" y="0">B</tspan></text>
    <text class="cls-2" transform="translate(214.28 97.07) rotate(-150) scale(.99 -1)"><tspan x="0" y="0">B</tspan></text>
    <text class="cls-2" transform="translate(203.95 96.16) rotate(-20.01)"><tspan x="0" y="0">B</tspan></text>
    <text class="cls-2" transform="translate(231.94 101.09) rotate(-140.01) scale(.99 -1)"><tspan x="0" y="0">B</tspan></text>
    <text class="cls-2" transform="translate(221.92 98.41) rotate(-10.02)"><tspan x="0" y="0">B</tspan></text>
    <text class="cls-2" transform="translate(248.62 108.12) rotate(-130.02) scale(.99 -1)"><tspan x="0" y="0">B</tspan></text>
    <text class="cls-2" transform="translate(239.22 103.74) rotate(-.04)"><tspan x="0" y="0">B</tspan></text>
    <text class="cls-2" transform="translate(263.84 117.93) rotate(-120.04) scale(.99 -1)"><tspan x="0" y="0">B</tspan></text>
    <text class="cls-2" transform="translate(255.34 111.99) rotate(9.95)"><tspan x="0" y="0">B</tspan></text>
    <text class="cls-2" transform="translate(277.12 130.24) rotate(-110.05) scale(.99 -1)"><tspan x="0" y="0">B</tspan></text>
    <text class="cls-2" transform="translate(269.78 122.91) rotate(19.94)"><tspan x="0" y="0">B</tspan></text>
    <text class="cls-2" transform="translate(288.07 144.66) rotate(-100.06) scale(.99 -1)"><tspan x="0" y="0">B</tspan></text>
    <text class="cls-2" transform="translate(282.11 136.17) rotate(29.93)"><tspan x="0" y="0">B</tspan></text>
    <text class="cls-2" transform="translate(296.35 160.76) rotate(-90.07) scale(.99 -1)"><tspan x="0" y="0">B</tspan></text>
    <text class="cls-2" transform="translate(291.95 151.37) rotate(39.92)"><tspan x="0" y="0">B</tspan></text>
    <text class="cls-2" transform="translate(301.71 178.06) rotate(-80.08) scale(.99 -1)"><tspan x="0" y="0">B</tspan></text>
    <text class="cls-2" transform="translate(299.01 168.04) rotate(49.91)"><tspan x="0" y="0">B</tspan></text>
    <text class="cls-2" transform="translate(303.99 196.02) rotate(-70.09) scale(.99 -1)"><tspan x="0" y="0">B</tspan></text>
    <text class="cls-2" transform="translate(303.07 185.69) rotate(59.89)"><tspan x="0" y="0">B</tspan></text>
    <text class="cls-2" transform="translate(303.12 214.1) rotate(-60.11) scale(.99 -1)"><tspan x="0" y="0">B</tspan></text>
    <text class="cls-2" transform="translate(304 203.77) rotate(69.88)"><tspan x="0" y="0">B</tspan></text>
    <text class="cls-2" transform="translate(299.13 231.76) rotate(-50.12) scale(.99 -1)"><tspan x="0" y="0">B</tspan></text>
    <text class="cls-2" transform="translate(301.79 221.74) rotate(79.87)"><tspan x="0" y="0">B</tspan></text>
    <text class="cls-2" transform="translate(292.13 248.46) rotate(-40.13) scale(.99 -1)"><tspan x="0" y="0">B</tspan></text>
    <text class="cls-2" transform="translate(296.49 239.06) rotate(89.86)"><tspan x="0" y="0">B</tspan></text>
    <text class="cls-2" transform="translate(282.34 263.7) rotate(-30.14) scale(.99 -1)"><tspan x="0" y="0">B</tspan></text>
    <text class="cls-2" transform="translate(288.27 255.19) rotate(99.85)"><tspan x="0" y="0">B</tspan></text>
    <text class="cls-2" transform="translate(270.06 277) rotate(-20.15) scale(.99 -1)"><tspan x="0" y="0">B</tspan></text>
    <text class="cls-2" transform="translate(277.38 269.65) rotate(109.84)"><tspan x="0" y="0">B</tspan></text>
    <text class="cls-2" transform="translate(255.66 287.98) rotate(-10.16) scale(.99 -1)"><tspan x="0" y="0">B</tspan></text>
    <text class="cls-2" transform="translate(264.14 282) rotate(119.82)"><tspan x="0" y="0">B</tspan></text>
    <text class="cls-2" transform="translate(239.62 296.25) rotate(-.18) scale(.99 -1)"><tspan x="0" y="0">B</tspan></text>
    <text class="cls-2" transform="translate(248.96 291.87) rotate(129.81)"><tspan x="0" y="0">B</tspan></text>
    <text class="cls-2" transform="translate(222.34 301.65) rotate(9.81) scale(.99 -1)"><tspan x="0" y="0">B</tspan></text>
    <text class="cls-2" transform="translate(232.3 298.96) rotate(139.8)"><tspan x="0" y="0">B</tspan></text>
    <text class="cls-2" transform="translate(204.38 303.97) rotate(19.8) scale(.99 -1)"><tspan x="0" y="0">B</tspan></text>
    <text class="cls-2" transform="translate(214.66 303.05) rotate(149.79)"><tspan x="0" y="0">B</tspan></text>
    <text class="cls-2" transform="translate(186.3 303.14) rotate(29.79) scale(.99 -1)"><tspan x="0" y="0">B</tspan></text>
    <text class="cls-2" transform="translate(196.58 304.02) rotate(159.78)"><tspan x="0" y="0">B</tspan></text>
    <text class="cls-2" transform="translate(168.63 299.19) rotate(39.78) scale(.99 -1)"><tspan x="0" y="0">B</tspan></text>
    <text class="cls-2" transform="translate(178.61 301.84) rotate(169.77)"><tspan x="0" y="0">B</tspan></text>
    <text class="cls-2" transform="translate(151.92 292.24) rotate(49.77) scale(.99 -1)"><tspan x="0" y="0">B</tspan></text>
    <text class="cls-2" transform="translate(161.28 296.57) rotate(179.75)"><tspan x="0" y="0">B</tspan></text>
    <text class="cls-2" transform="translate(136.67 282.49) rotate(59.75) scale(.99 -1)"><tspan x="0" y="0">B</tspan></text>
    <text class="cls-2" transform="translate(145.14 288.38) rotate(-170.26)"><tspan x="0" y="0">B</tspan></text>
    <text class="cls-2" transform="translate(123.34 270.24) rotate(69.74) scale(.99 -1)"><tspan x="0" y="0">B</tspan></text>
    <text class="cls-2" transform="translate(130.65 277.52) rotate(-160.27)"><tspan x="0" y="0">B</tspan></text>
    <text class="cls-2" transform="translate(112.33 255.87) rotate(79.73) scale(.99 -1)"><tspan x="0" y="0">B</tspan></text>
    <text class="cls-2" transform="translate(118.28 264.3) rotate(-150.28)"><tspan x="0" y="0">B</tspan></text>
    <text class="cls-2" transform="translate(103.99 239.8) rotate(89.72) scale(.99 -1)"><tspan x="0" y="0">B</tspan></text>
    <text class="cls-2" transform="translate(108.38 249.14) rotate(-140.29)"><tspan x="0" y="0">B</tspan></text>
    <text class="cls-2" transform="translate(98.55 222.54) rotate(99.71) scale(.99 -1)"><tspan x="0" y="0">B</tspan></text>
    <text class="cls-2" transform="translate(101.26 232.49) rotate(-130.3)"><tspan x="0" y="0">B</tspan></text>
    <text class="cls-2" transform="translate(96.2 204.59) rotate(109.7) scale(.99 -1)"><tspan x="0" y="0">B</tspan></text>
    <text class="cls-2" transform="translate(97.14 214.86) rotate(-120.32)"><tspan x="0" y="0">B</tspan></text>
    <text class="cls-2" transform="translate(96.99 186.5) rotate(119.68) scale(.99 -1)"><tspan x="0" y="0">B</tspan></text>
    <text class="cls-2" transform="translate(96.13 196.78) rotate(-110.33)"><tspan x="0" y="0">B</tspan></text>
    <text class="cls-2" transform="translate(100.91 168.83) rotate(129.67) scale(.99 -1)"><tspan x="0" y="0">B</tspan></text>
    <text class="cls-2" transform="translate(98.28 178.81) rotate(-100.34)"><tspan x="0" y="0">B</tspan></text>
    <text class="cls-2" transform="translate(107.83 152.1) rotate(139.66) scale(.99 -1)"><tspan x="0" y="0">B</tspan></text>
    <text class="cls-2" transform="translate(103.52 161.47) rotate(-90.35)"><tspan x="0" y="0">B</tspan></text>
    <text class="cls-2" transform="translate(117.56 136.83) rotate(149.65) scale(.99 -1)"><tspan x="0" y="0">B</tspan></text>
    <text class="cls-2" transform="translate(111.68 145.31) rotate(-80.36)"><tspan x="0" y="0">B</tspan></text>
    <text class="cls-2" transform="translate(129.78 123.48) rotate(159.64) scale(.99 -1)"><tspan x="0" y="0">B</tspan></text>
    <text class="cls-2" transform="translate(122.52 130.81) rotate(-70.37)"><tspan x="0" y="0">B</tspan></text>
    <text class="cls-2" transform="translate(144.13 112.44) rotate(169.63) scale(.99 -1)"><tspan x="0" y="0">B</tspan></text>
    <text class="cls-2" transform="translate(135.71 118.41) rotate(-60.39)"><tspan x="0" y="0">B</tspan></text>
    <text class="cls-2" transform="translate(160.18 104.07) rotate(179.61) scale(.99 -1)"><tspan x="0" y="0">B</tspan></text>
    <text class="cls-2" transform="translate(150.85 108.48) rotate(-50.4)"><tspan x="0" y="0">B</tspan></text>
    <text class="cls-2" transform="translate(177.44 98.61) rotate(-170.4) scale(.99 -1)"><tspan x="0" y="0">B</tspan></text>
    <text class="cls-2" transform="translate(167.49 101.33) rotate(-40.41)"><tspan x="0" y="0">B</tspan></text>
    <text class="cls-2" transform="translate(195.39 96.22) rotate(-160.41) scale(.99 -1)"><tspan x="0" y="0">B</tspan></text>
    <circle class="cls-4" cx="200.08" cy="200.09" r="107"/>
    <circle class="cls-3" cx="200.08" cy="200.09" r="88"/>
    <text class="cls-1" transform="translate(189.95 110.51)"><tspan x="0" y="0">r</tspan></text>
    <text class="cls-1" transform="translate(210.2 110.51) rotate(-180) scale(1 -1)"><tspan x="0" y="0">r</tspan></text>
    <text class="cls-1" transform="translate(198.4 109.96) rotate(5.38)"><tspan x="0" y="0">r</tspan></text>
    <text class="cls-1" transform="translate(218.56 111.85) rotate(-174.62) scale(1 -1)"><tspan x="0" y="0">r</tspan></text>
    <text class="cls-1" transform="translate(206.86 110.2) rotate(10.77)"><tspan x="0" y="0">r</tspan></text>
    <text class="cls-1" transform="translate(226.75 113.98) rotate(-169.23) scale(1 -1)"><tspan x="0" y="0">r</tspan></text>
    <text class="cls-1" transform="translate(215.26 111.23) rotate(16.15)"><tspan x="0" y="0">r</tspan></text>
    <text class="cls-1" transform="translate(234.71 116.86) rotate(-163.85) scale(1 -1)"><tspan x="0" y="0">r</tspan></text>
    <text class="cls-1" transform="translate(223.53 113.05) rotate(21.53)"><tspan x="0" y="0">r</tspan></text>
    <text class="cls-1" transform="translate(242.36 120.48) rotate(-158.47) scale(1 -1)"><tspan x="0" y="0">r</tspan></text>
    <text class="cls-1" transform="translate(231.59 115.63) rotate(26.91)"><tspan x="0" y="0">r</tspan></text>
    <text class="cls-1" transform="translate(249.64 124.79) rotate(-153.09) scale(1 -1)"><tspan x="0" y="0">r</tspan></text>
    <text class="cls-1" transform="translate(239.38 118.96) rotate(32.3)"><tspan x="0" y="0">r</tspan></text>
    <text class="cls-1" transform="translate(256.49 129.78) rotate(-147.7) scale(1 -1)"><tspan x="0" y="0">r</tspan></text>
    <text class="cls-1" transform="translate(246.81 123) rotate(37.68)"><tspan x="0" y="0">r</tspan></text>
    <text class="cls-1" transform="translate(262.84 135.38) rotate(-142.32) scale(1 -1)"><tspan x="0" y="0">r</tspan></text>
    <text class="cls-1" transform="translate(253.84 127.73) rotate(43.06)"><tspan x="0" y="0">r</tspan></text>
    <text class="cls-1" transform="translate(268.63 141.55) rotate(-136.94) scale(1 -1)"><tspan x="0" y="0">r</tspan></text>
    <text class="cls-1" transform="translate(260.39 133.09) rotate(48.44)"><tspan x="0" y="0">r</tspan></text>
    <text class="cls-1" transform="translate(273.82 148.24) rotate(-131.56) scale(1 -1)"><tspan x="0" y="0">r</tspan></text>
    <text class="cls-1" transform="translate(266.41 139.04) rotate(53.83)"><tspan x="0" y="0">r</tspan></text>
    <text class="cls-1" transform="translate(278.36 155.38) rotate(-126.17) scale(1 -1)"><tspan x="0" y="0">r</tspan></text>
    <text class="cls-1" transform="translate(271.84 145.54) rotate(59.21)"><tspan x="0" y="0">r</tspan></text>
    <text class="cls-1" transform="translate(282.2 162.93) rotate(-120.79) scale(1 -1)"><tspan x="0" y="0">r</tspan></text>
    <text class="cls-1" transform="translate(276.64 152.51) rotate(64.59)"><tspan x="0" y="0">r</tspan></text>
    <text class="cls-1" transform="translate(285.33 170.79) rotate(-115.41) scale(1 -1)"><tspan x="0" y="0">r</tspan></text>
    <text class="cls-1" transform="translate(280.77 159.9) rotate(69.97)"><tspan x="0" y="0">r</tspan></text>
    <text class="cls-1" transform="translate(287.7 178.92) rotate(-110.03) scale(1 -1)"><tspan x="0" y="0">r</tspan></text>
    <text class="cls-1" transform="translate(284.18 167.65) rotate(75.36)"><tspan x="0" y="0">r</tspan></text>
    <text class="cls-1" transform="translate(289.3 187.23) rotate(-104.64) scale(1 -1)"><tspan x="0" y="0">r</tspan></text>
    <text class="cls-1" transform="translate(286.85 175.68) rotate(80.74)"><tspan x="0" y="0">r</tspan></text>
    <text class="cls-1" transform="translate(290.11 195.66) rotate(-99.26) scale(1 -1)"><tspan x="0" y="0">r</tspan></text>
    <text class="cls-1" transform="translate(288.76 183.93) rotate(86.12)"><tspan x="0" y="0">r</tspan></text>
    <text class="cls-1" transform="translate(290.13 204.12) rotate(-93.88) scale(1 -1)"><tspan x="0" y="0">r</tspan></text>
    <text class="cls-1" transform="translate(289.88 192.32) rotate(91.5)"><tspan x="0" y="0">r</tspan></text>
    <text class="cls-1" transform="translate(289.35 212.55) rotate(-88.5) scale(1 -1)"><tspan x="0" y="0">r</tspan></text>
    <text class="cls-1" transform="translate(290.22 200.78) rotate(96.89)"><tspan x="0" y="0">r</tspan></text>
    <text class="cls-1" transform="translate(287.79 220.87) rotate(-83.11) scale(1 -1)"><tspan x="0" y="0">r</tspan></text>
    <text class="cls-1" transform="translate(289.76 209.23) rotate(102.27)"><tspan x="0" y="0">r</tspan></text>
    <text class="cls-1" transform="translate(285.45 229.01) rotate(-77.73) scale(1 -1)"><tspan x="0" y="0">r</tspan></text>
    <text class="cls-1" transform="translate(288.5 217.6) rotate(107.65)"><tspan x="0" y="0">r</tspan></text>
    <text class="cls-1" transform="translate(282.36 236.89) rotate(-72.35) scale(1 -1)"><tspan x="0" y="0">r</tspan></text>
    <text class="cls-1" transform="translate(286.47 225.82) rotate(113.03)"><tspan x="0" y="0">r</tspan></text>
    <text class="cls-1" transform="translate(278.54 244.45) rotate(-66.97) scale(1 -1)"><tspan x="0" y="0">r</tspan></text>
    <text class="cls-1" transform="translate(283.67 233.81) rotate(118.42)"><tspan x="0" y="0">r</tspan></text>
    <text class="cls-1" transform="translate(274.04 251.61) rotate(-61.58) scale(1 -1)"><tspan x="0" y="0">r</tspan></text>
    <text class="cls-1" transform="translate(280.14 241.5) rotate(123.8)"><tspan x="0" y="0">r</tspan></text>
    <text class="cls-1" transform="translate(268.88 258.32) rotate(-56.2) scale(1 -1)"><tspan x="0" y="0">r</tspan></text>
    <text class="cls-1" transform="translate(275.9 248.83) rotate(129.18)"><tspan x="0" y="0">r</tspan></text>
    <text class="cls-1" transform="translate(263.11 264.52) rotate(-50.82) scale(1 -1)"><tspan x="0" y="0">r</tspan></text>
    <text class="cls-1" transform="translate(271 255.73) rotate(134.56)"><tspan x="0" y="0">r</tspan></text>
    <text class="cls-1" transform="translate(256.79 270.15) rotate(-45.44) scale(1 -1)"><tspan x="0" y="0">r</tspan></text>
    <text class="cls-1" transform="translate(265.46 262.14) rotate(139.95)"><tspan x="0" y="0">r</tspan></text>
    <text class="cls-1" transform="translate(249.97 275.16) rotate(-40.05) scale(1 -1)"><tspan x="0" y="0">r</tspan></text>
    <text class="cls-1" transform="translate(259.36 268) rotate(145.33)"><tspan x="0" y="0">r</tspan></text>
    <text class="cls-1" transform="translate(242.7 279.51) rotate(-34.67) scale(1 -1)"><tspan x="0" y="0">r</tspan></text>
    <text class="cls-1" transform="translate(252.72 273.26) rotate(150.71)"><tspan x="0" y="0">r</tspan></text>
    <text class="cls-1" transform="translate(235.07 283.16) rotate(-29.29) scale(1 -1)"><tspan x="0" y="0">r</tspan></text>
    <text class="cls-1" transform="translate(245.63 277.88) rotate(156.1)"><tspan x="0" y="0">r</tspan></text>
    <text class="cls-1" transform="translate(227.12 286.07) rotate(-23.9) scale(1 -1)"><tspan x="0" y="0">r</tspan></text>
    <text class="cls-1" transform="translate(238.13 281.81) rotate(161.48)"><tspan x="0" y="0">r</tspan></text>
    <text class="cls-1" transform="translate(218.93 288.23) rotate(-18.52) scale(1 -1)"><tspan x="0" y="0">r</tspan></text>
    <text class="cls-1" transform="translate(230.29 285.02) rotate(166.86)"><tspan x="0" y="0">r</tspan></text>
    <text class="cls-1" transform="translate(210.58 289.61) rotate(-13.14) scale(1 -1)"><tspan x="0" y="0">r</tspan></text>
    <text class="cls-1" transform="translate(222.19 287.48) rotate(172.24)"><tspan x="0" y="0">r</tspan></text>
    <text class="cls-1" transform="translate(202.14 290.2) rotate(-7.76) scale(1 -1)"><tspan x="0" y="0">r</tspan></text>
    <text class="cls-1" transform="translate(213.9 289.17) rotate(177.63)"><tspan x="0" y="0">r</tspan></text>
    <text class="cls-1" transform="translate(193.67 290) rotate(-2.37) scale(1 -1)"><tspan x="0" y="0">r</tspan></text>
    <text class="cls-1" transform="translate(205.48 290.07) rotate(-176.99)"><tspan x="0" y="0">r</tspan></text>
    <text class="cls-1" transform="translate(185.27 289) rotate(3.01) scale(1 -1)"><tspan x="0" y="0">r</tspan></text>
    <text class="cls-1" transform="translate(197.02 290.18) rotate(-171.61)"><tspan x="0" y="0">r</tspan></text>
    <text class="cls-1" transform="translate(176.99 287.22) rotate(8.39) scale(1 -1)"><tspan x="0" y="0">r</tspan></text>
    <text class="cls-1" transform="translate(188.58 289.5) rotate(-166.23)"><tspan x="0" y="0">r</tspan></text>
    <text class="cls-1" transform="translate(168.92 284.67) rotate(13.77) scale(1 -1)"><tspan x="0" y="0">r</tspan></text>
    <text class="cls-1" transform="translate(180.24 288.02) rotate(-160.84)"><tspan x="0" y="0">r</tspan></text>
    <text class="cls-1" transform="translate(161.12 281.38) rotate(19.16) scale(1 -1)"><tspan x="0" y="0">r</tspan></text>
    <text class="cls-1" transform="translate(172.08 285.78) rotate(-155.46)"><tspan x="0" y="0">r</tspan></text>
    <text class="cls-1" transform="translate(153.67 277.36) rotate(24.54) scale(1 -1)"><tspan x="0" y="0">r</tspan></text>
    <text class="cls-1" transform="translate(164.16 282.77) rotate(-150.08)"><tspan x="0" y="0">r</tspan></text>
    <text class="cls-1" transform="translate(146.62 272.67) rotate(29.92) scale(1 -1)"><tspan x="0" y="0">r</tspan></text>
    <text class="cls-1" transform="translate(156.57 279.04) rotate(-144.7)"><tspan x="0" y="0">r</tspan></text>
    <text class="cls-1" transform="translate(140.05 267.34) rotate(35.3) scale(1 -1)"><tspan x="0" y="0">r</tspan></text>
    <text class="cls-1" transform="translate(149.35 274.61) rotate(-139.31)"><tspan x="0" y="0">r</tspan></text>
    <text class="cls-1" transform="translate(134.01 261.41) rotate(40.69) scale(1 -1)"><tspan x="0" y="0">r</tspan></text>
    <text class="cls-1" transform="translate(142.59 269.52) rotate(-133.93)"><tspan x="0" y="0">r</tspan></text>
    <text class="cls-1" transform="translate(128.55 254.94) rotate(46.07) scale(1 -1)"><tspan x="0" y="0">r</tspan></text>
    <text class="cls-1" transform="translate(136.33 263.82) rotate(-128.55)"><tspan x="0" y="0">r</tspan></text>
    <text class="cls-1" transform="translate(123.72 247.99) rotate(51.45) scale(1 -1)"><tspan x="0" y="0">r</tspan></text>
    <text class="cls-1" transform="translate(130.63 257.56) rotate(-123.17)"><tspan x="0" y="0">r</tspan></text>
    <text class="cls-1" transform="translate(119.56 240.62) rotate(56.83) scale(1 -1)"><tspan x="0" y="0">r</tspan></text>
    <text class="cls-1" transform="translate(125.54 250.79) rotate(-117.78)"><tspan x="0" y="0">r</tspan></text>
    <text class="cls-1" transform="translate(116.11 232.88) rotate(62.22) scale(1 -1)"><tspan x="0" y="0">r</tspan></text>
    <text class="cls-1" transform="translate(121.12 243.58) rotate(-112.4)"><tspan x="0" y="0">r</tspan></text>
    <text class="cls-1" transform="translate(113.41 224.86) rotate(67.6) scale(1 -1)"><tspan x="0" y="0">r</tspan></text>
    <text class="cls-1" transform="translate(117.38 235.98) rotate(-107.02)"><tspan x="0" y="0">r</tspan></text>
    <text class="cls-1" transform="translate(111.46 216.62) rotate(72.98) scale(1 -1)"><tspan x="0" y="0">r</tspan></text>
    <text class="cls-1" transform="translate(114.38 228.07) rotate(-101.64)"><tspan x="0" y="0">r</tspan></text>
    <text class="cls-1" transform="translate(110.3 208.24) rotate(78.36) scale(1 -1)"><tspan x="0" y="0">r</tspan></text>
    <text class="cls-1" transform="translate(112.13 219.9) rotate(-96.25)"><tspan x="0" y="0">r</tspan></text>
    <text class="cls-1" transform="translate(109.93 199.78) rotate(83.75) scale(1 -1)"><tspan x="0" y="0">r</tspan></text>
    <text class="cls-1" transform="translate(110.66 211.57) rotate(-90.87)"><tspan x="0" y="0">r</tspan></text>
    <text class="cls-1" transform="translate(110.36 191.33) rotate(89.13) scale(1 -1)"><tspan x="0" y="0">r</tspan></text>
    <text class="cls-1" transform="translate(109.98 203.13) rotate(-85.49)"><tspan x="0" y="0">r</tspan></text>
    <text class="cls-1" transform="translate(111.58 182.95) rotate(94.51) scale(1 -1)"><tspan x="0" y="0">r</tspan></text>
    <text class="cls-1" transform="translate(110.09 194.66) rotate(-80.1)"><tspan x="0" y="0">r</tspan></text>
    <text class="cls-1" transform="translate(113.57 174.72) rotate(99.9) scale(1 -1)"><tspan x="0" y="0">r</tspan></text>
    <text class="cls-1" transform="translate(111 186.25) rotate(-74.72)"><tspan x="0" y="0">r</tspan></text>
    <text class="cls-1" transform="translate(116.33 166.72) rotate(105.28) scale(1 -1)"><tspan x="0" y="0">r</tspan></text>
    <text class="cls-1" transform="translate(112.69 177.95) rotate(-69.34)"><tspan x="0" y="0">r</tspan></text>
    <text class="cls-1" transform="translate(119.83 159.01) rotate(110.66) scale(1 -1)"><tspan x="0" y="0">r</tspan></text>
    <text class="cls-1" transform="translate(115.15 169.85) rotate(-63.96)"><tspan x="0" y="0">r</tspan></text>
    <text class="cls-1" transform="translate(124.04 151.67) rotate(116.04) scale(1 -1)"><tspan x="0" y="0">r</tspan></text>
    <text class="cls-1" transform="translate(118.36 162.02) rotate(-58.57)"><tspan x="0" y="0">r</tspan></text>
    <text class="cls-1" transform="translate(128.92 144.75) rotate(121.43) scale(1 -1)"><tspan x="0" y="0">r</tspan></text>
    <text class="cls-1" transform="translate(122.29 154.52) rotate(-53.19)"><tspan x="0" y="0">r</tspan></text>
    <text class="cls-1" transform="translate(134.42 138.32) rotate(126.81) scale(1 -1)"><tspan x="0" y="0">r</tspan></text>
    <text class="cls-1" transform="translate(126.91 147.43) rotate(-47.81)"><tspan x="0" y="0">r</tspan></text>
    <text class="cls-1" transform="translate(140.51 132.43) rotate(132.19) scale(1 -1)"><tspan x="0" y="0">r</tspan></text>
    <text class="cls-1" transform="translate(132.17 140.79) rotate(-42.43)"><tspan x="0" y="0">r</tspan></text>
    <text class="cls-1" transform="translate(147.12 127.14) rotate(137.57) scale(1 -1)"><tspan x="0" y="0">r</tspan></text>
    <text class="cls-1" transform="translate(138.03 134.69) rotate(-37.04)"><tspan x="0" y="0">r</tspan></text>
    <text class="cls-1" transform="translate(154.19 122.5) rotate(142.96) scale(1 -1)"><tspan x="0" y="0">r</tspan></text>
    <text class="cls-1" transform="translate(144.44 129.15) rotate(-31.66)"><tspan x="0" y="0">r</tspan></text>
    <text class="cls-1" transform="translate(161.67 118.53) rotate(148.34) scale(1 -1)"><tspan x="0" y="0">r</tspan></text>
    <text class="cls-1" transform="translate(151.34 124.25) rotate(-26.28)"><tspan x="0" y="0">r</tspan></text>
    <text class="cls-1" transform="translate(169.49 115.29) rotate(153.72) scale(1 -1)"><tspan x="0" y="0">r</tspan></text>
    <text class="cls-1" transform="translate(158.67 120.01) rotate(-20.9)"><tspan x="0" y="0">r</tspan></text>
    <text class="cls-1" transform="translate(177.58 112.8) rotate(159.1) scale(1 -1)"><tspan x="0" y="0">r</tspan></text>
    <text class="cls-1" transform="translate(166.36 116.48) rotate(-15.51)"><tspan x="0" y="0">r</tspan></text>
    <text class="cls-1" transform="translate(185.87 111.07) rotate(164.49) scale(1 -1)"><tspan x="0" y="0">r</tspan></text>
    <text class="cls-1" transform="translate(174.35 113.68) rotate(-10.13)"><tspan x="0" y="0">r</tspan></text>
    <text class="cls-1" transform="translate(194.28 110.13) rotate(169.87) scale(1 -1)"><tspan x="0" y="0">r</tspan></text>
    <text class="cls-1" transform="translate(182.57 111.65) rotate(-4.75)"><tspan x="0" y="0">r</tspan></text>
    <text class="cls-1" transform="translate(202.75 109.98) rotate(175.25) scale(1 -1)"><tspan x="0" y="0">r</tspan></text>
  </g>
</svg>