<?xml version="1.0" encoding="UTF-8"?>
<svg id="_レイヤー_2" data-name="レイヤー 2" xmlns="http://www.w3.org/2000/svg" viewBox="0 0 470.41 470.41">
  <defs>
    <style>
      .cls-1 {
        stroke-width: 3px;
      }

      .cls-1, .cls-2, .cls-3, .cls-4, .cls-5 {
        stroke: #231815;
        stroke-miterlimit: 10;
      }

      .cls-1, .cls-2, .cls-4, .cls-5 {
        fill: #fff;
      }

      .cls-2 {
        stroke-width: 6px;
      }

      .cls-3 {
        fill: #231815;
      }

      .cls-4 {
        stroke-width: 7px;
      }
    </style>
  </defs>
  <g id="_レイヤー_1-2" data-name="レイヤー 1">
    <path class="cls-5" d="M249.6,.5l4.32,27.95c13.99,2.22,13.4,2.12,27.39,4.34l12.74-25.25c15.83,5.14,11.54,3.75,27.37,8.89l-4.53,27.92,24.71,12.59,19.92-20.07,23.28,16.92-12.93,25.15c10.01,10.01,9.59,9.59,19.61,19.61l25.15-12.93c9.78,13.47,7.13,9.82,16.92,23.28l-20.07,19.92c6.43,12.62,6.16,12.09,12.59,24.71l27.92-4.53c5.14,15.83,3.75,11.54,8.89,27.37l-25.25,12.74,4.34,27.39,27.95,4.32v28.78l-27.95,4.32-4.34,27.39,25.25,12.74c-5.14,15.83-3.75,11.54-8.89,27.37l-27.92-4.53c-6.43,12.62-6.16,12.09-12.59,24.71l20.07,19.92-16.92,23.28-25.15-12.93c-10.01,10.01-9.59,9.59-19.61,19.61l12.93,25.15-23.28,16.92-19.92-20.07c-12.62,6.43-12.09,6.16-24.71,12.59l4.53,27.92c-15.83,5.14-11.54,3.75-27.37,8.89l-12.74-25.25c-13.99,2.22-13.4,2.12-27.39,4.34l-4.32,27.95h-28.78l-4.32-27.95-27.39-4.34-12.74,25.25c-15.83-5.14-11.54-3.75-27.37-8.89l4.53-27.92c-12.62-6.43-12.09-6.16-24.71-12.59l-19.92,20.07c-13.47-9.78-9.82-7.13-23.28-16.92l12.93-25.15c-10.01-10.01-9.59-9.59-19.61-19.61l-25.15,12.93-16.92-23.28,20.07-19.92-12.59-24.71-27.92,4.53c-5.14-15.83-3.75-11.54-8.89-27.37l25.25-12.74-4.34-27.39L.5,249.6v-28.78l27.95-4.32c2.22-13.99,2.12-13.4,4.34-27.39l-25.25-12.74,8.89-27.37,27.92,4.53c6.43-12.62,6.16-12.09,12.59-24.71l-20.07-19.92c9.78-13.47,7.13-9.82,16.92-23.28l25.15,12.93c10.01-10.01,9.59-9.59,19.61-19.61l-12.93-25.15c13.47-9.78,9.82-7.13,23.28-16.92l19.92,20.07,24.71-12.59-4.53-27.92c15.83-5.14,11.54-3.75,27.37-8.89l12.74,25.25,27.39-4.34L220.82,.5h28.78Z"/>
    <path class="cls-5" d="M249.6,.5l4.32,27.95c13.99,2.22,13.4,2.12,27.39,4.34l12.74-25.25c15.83,5.14,11.54,3.75,27.37,8.89l-4.53,27.92,24.71,12.59,19.92-20.07,23.28,16.92-12.93,25.15c10.01,10.01,9.59,9.59,19.61,19.61l25.15-12.93c9.78,13.47,7.13,9.82,16.92,23.28l-20.07,19.92c6.43,12.62,6.16,12.09,12.59,24.71l27.92-4.53c5.14,15.83,3.75,11.54,8.89,27.37l-25.25,12.74,4.34,27.39,27.95,4.32v28.78l-27.95,4.32-4.34,27.39,25.25,12.74c-5.14,15.83-3.75,11.54-8.89,27.37l-27.92-4.53c-6.43,12.62-6.16,12.09-12.59,24.71l20.07,19.92-16.92,23.28-25.15-12.93c-10.01,10.01-9.59,9.59-19.61,19.61l12.93,25.15-23.28,16.92-19.92-20.07c-12.62,6.43-12.09,6.16-24.71,12.59l4.53,27.92c-15.83,5.14-11.54,3.75-27.37,8.89l-12.74-25.25c-13.99,2.22-13.4,2.12-27.39,4.34l-4.32,27.95h-28.78l-4.32-27.95-27.39-4.34-12.74,25.25c-15.83-5.14-11.54-3.75-27.37-8.89l4.53-27.92c-12.62-6.43-12.09-6.16-24.71-12.59l-19.92,20.07c-13.47-9.78-9.82-7.13-23.28-16.92l12.93-25.15c-10.01-10.01-9.59-9.59-19.61-19.61l-25.15,12.93-16.92-23.28,20.07-19.92-12.59-24.71-27.92,4.53c-5.14-15.83-3.75-11.54-8.89-27.37l25.25-12.74-4.34-27.39L.5,249.6v-28.78l27.95-4.32c2.22-13.99,2.12-13.4,4.34-27.39l-25.25-12.74,8.89-27.37,27.92,4.53c6.43-12.62,6.16-12.09,12.59-24.71l-20.07-19.92c9.78-13.47,7.13-9.82,16.92-23.28l25.15,12.93c10.01-10.01,9.59-9.59,19.61-19.61l-12.93-25.15c13.47-9.78,9.82-7.13,23.28-16.92l19.92,20.07,24.71-12.59-4.53-27.92c15.83-5.14,11.54-3.75,27.37-8.89l12.74,25.25,27.39-4.34L220.82,.5h28.78Z"/>
    <path class="cls-5" d="M249.6,.5l4.32,27.95c13.99,2.22,13.4,2.12,27.39,4.34l12.74-25.25c15.83,5.14,11.54,3.75,27.37,8.89l-4.53,27.92,24.71,12.59,19.92-20.07,23.28,16.92-12.93,25.15c10.01,10.01,9.59,9.59,19.61,19.61l25.15-12.93c9.78,13.47,7.13,9.82,16.92,23.28l-20.07,19.92c6.43,12.62,6.16,12.09,12.59,24.71l27.92-4.53c5.14,15.83,3.75,11.54,8.89,27.37l-25.25,12.74,4.34,27.39,27.95,4.32v28.78l-27.95,4.32-4.34,27.39,25.25,12.74c-5.14,15.83-3.75,11.54-8.89,27.37l-27.92-4.53c-6.43,12.62-6.16,12.09-12.59,24.71l20.07,19.92-16.92,23.28-25.15-12.93c-10.01,10.01-9.59,9.59-19.61,19.61l12.93,25.15-23.28,16.92-19.92-20.07c-12.62,6.43-12.09,6.16-24.71,12.59l4.53,27.92c-15.83,5.14-11.54,3.75-27.37,8.89l-12.74-25.25c-13.99,2.22-13.4,2.12-27.39,4.34l-4.32,27.95h-28.78l-4.32-27.95-27.39-4.34-12.74,25.25c-15.83-5.14-11.54-3.75-27.37-8.89l4.53-27.92c-12.62-6.43-12.09-6.16-24.71-12.59l-19.92,20.07c-13.47-9.78-9.82-7.13-23.28-16.92l12.93-25.15c-10.01-10.01-9.59-9.59-19.61-19.61l-25.15,12.93-16.92-23.28,20.07-19.92-12.59-24.71-27.92,4.53c-5.14-15.83-3.75-11.54-8.89-27.37l25.25-12.74-4.34-27.39L.5,249.6v-28.78l27.95-4.32c2.22-13.99,2.12-13.4,4.34-27.39l-25.25-12.74,8.89-27.37,27.92,4.53c6.43-12.62,6.16-12.09,12.59-24.71l-20.07-19.92c9.78-13.47,7.13-9.82,16.92-23.28l25.15,12.93c10.01-10.01,9.59-9.59,19.61-19.61l-12.93-25.15c13.47-9.78,9.82-7.13,23.28-16.92l19.92,20.07,24.71-12.59-4.53-27.92c15.83-5.14,11.54-3.75,27.37-8.89l12.74,25.25,27.39-4.34L220.82,.5h28.78Z"/>
    <circle class="cls-5" cx="235.21" cy="235.21" r="187.78"/>
    <circle class="cls-4" cx="235.21" cy="235.21" r="178.5"/>
    <circle class="cls-4" cx="235.21" cy="235.21" r="83.87"/>
    <circle class="cls-1" cx="235.21" cy="235.21" r="48.32"/>
    <circle class="cls-2" cx="235.21" cy="235.21" r="114.98"/>
    <circle class="cls-3" cx="235.21" cy="235.21" r="30.24"/>
    <circle class="cls-3" cx="235.21" cy="235.21" r="30.24"/>
    <path class="cls-3" d="M257.84,102.16c4.31,5.31,6.88,12.08,6.88,19.46,0,4.52-.97,8.81-2.7,12.68-4.5,25.93-19.32,47.96-19.92,48.85,.27-.57,4.22-9.59-3.64-30.92-1.54,.24-3.11,.36-4.71,.36-1.67,0-3.31-.15-4.92-.4h0s0,0,0,0c-8.32-1.33-15.53-5.96-20.24-12.51-20.12-16.89-31.7-40.73-32.2-41.78,.4,.58,6.25,8.47,28.54,12.4,1.15-2.93,2.75-5.62,4.69-8.03h0s.01-.01,.02-.02c5.02-6.24,12.39-10.5,20.79-11.39,25.21-9.39,52.34-7.4,52.34-7.4,0,0-9.94,.59-24.92,18.71Z"/>
    <path class="cls-3" d="M257.84,102.16c4.31,5.31,6.88,12.08,6.88,19.46,0,4.52-.97,8.81-2.7,12.68-4.5,25.93-19.32,47.96-19.92,48.85,.27-.57,4.22-9.59-3.64-30.92-1.54,.24-3.11,.36-4.71,.36-1.67,0-3.31-.15-4.92-.4h0s0,0,0,0c-8.32-1.33-15.53-5.96-20.24-12.51-20.12-16.89-31.7-40.73-32.2-41.78,.4,.58,6.25,8.47,28.54,12.4,1.15-2.93,2.75-5.62,4.69-8.03h0s.01-.01,.02-.02c5.02-6.24,12.39-10.5,20.79-11.39,25.21-9.39,52.34-7.4,52.34-7.4,0,0-9.94,.59-24.92,18.71Z"/>
    <path class="cls-3" d="M339.56,320.78c-6.75,1.11-13.91,0-20.32-3.66-3.93-2.24-7.17-5.2-9.67-8.63-20.3-16.76-32.09-40.54-32.57-41.5,.36,.52,6.24,8.41,28.66,12.16,.56-1.45,1.23-2.88,2.02-4.27,.83-1.45,1.77-2.81,2.79-4.07h0s0,0,0,0c5.27-6.56,12.87-10.54,20.9-11.38,24.64-9.1,51.08-7.35,52.25-7.27-.7,.06-10.46,1.23-24.91,18.65,1.97,2.45,3.52,5.17,4.66,8.05h0s0,.01,0,.02c2.93,7.45,2.98,15.97-.4,23.7-4.34,26.55-19.51,49.13-19.51,49.13,0,0,4.42-8.93-3.9-30.92Z"/>
    <path class="cls-3" d="M109.17,283.45c2.38-6.41,6.9-12.08,13.25-15.83,3.89-2.3,8.07-3.65,12.29-4.13,24.61-9.33,51.11-7.79,52.19-7.72-.63,.06-10.4,1.25-24.76,18.87,.99,1.2,1.89,2.5,2.7,3.87,.85,1.44,1.56,2.93,2.16,4.44h0s0,0,0,0c3.09,7.83,2.78,16.4-.47,23.79-4.3,25.92-18.92,48.01-19.57,48.98,.29-.64,4.11-9.7-3.85-30.88-3.1,.5-6.24,.5-9.3,.06h0s-.02,0-.03,0c-7.92-1.14-15.34-5.32-20.39-12.09-20.91-16.92-33.01-41.29-33.01-41.29,0,0,5.57,8.26,28.79,11.93Z"/>
  </g>
</svg>