<?xml version="1.0" encoding="UTF-8"?>
<svg id="_レイヤー_2" data-name="レイヤー 2" xmlns="http://www.w3.org/2000/svg" viewBox="0 0 300 300">
  <defs>
    <style>
      .cls-1 {
        stroke-width: 3px;
      }

      .cls-1, .cls-2, .cls-3, .cls-4 {
        stroke: #000;
        stroke-miterlimit: 10;
      }

      .cls-1, .cls-2, .cls-4 {
        fill: none;
      }

      .cls-2 {
        stroke-width: 26px;
      }

      .cls-3 {
        stroke-width: 5px;
      }

      .cls-4 {
        stroke-width: 2px;
      }

      .cls-5, .cls-6 {
        stroke-width: 0px;
      }

      .cls-6 {
        fill: #fff;
      }
    </style>
  </defs>
  <g id="_レイヤー_1-2" data-name="レイヤー 1">
    <g>
      <path class="cls-6" d="m230.54,278.08l-20-10.89-15,6.7-5.32,22.21-18.17,3.9-13.85-18.12h-16.38l-13.82,18.12-18.23-3.9-5.33-22.21-15-6.7-20,10.88-15.08-11,4.12-22.46-11-12.25-22.58,1.76-9.33-16.24,12.86-18.88-5.07-15.66-21.36-7.61-2-18.64,19.36-12,1.72-16.38-16.48-15.71,5.76-17.83,22.53-3,8.19-14.27-8.68-21.09,12.47-13.93,21.79,6.47,13.26-9.68.61-22.84,17-7.62,17.32,14.79,16-3.43L140.67,0h18.64l9.8,20.62,16,3.42,17.31-14.82,17,7.62.61,22.84,13.25,9.69,21.79-6.48,12.48,13.94-8.68,21.11,8.19,14.27,22.53,3,5.8,17.79-16.47,15.73,1.72,16.39,19.36,12-1.95,18.64-21.41,7.64-5.06,15.67,12.86,18.84-9.33,16.23-22.65-1.78-11,12.25,4.13,22.46-15.05,11.01Z"/>
      <circle class="cls-2" cx="150" cy="149.65" r="102"/>
      <circle class="cls-1" cx="150" cy="149.65" r="35.5"/>
      <circle class="cls-3" cx="150" cy="149.65" r="20.5"/>
      <path class="cls-6" d="m203.89,28.85c-3.66.9-10.02,5.7-13.56,10.2-4.38,5.64-7.08,10.44-9.3,15,1.08.36,3.54,1.02,4.86,1.62.84.36,1.08.9.96,1.26-.12.48-.9.78-1.68.36-1.62-.84-3.78-1.44-4.8-1.8-1.8,4.02-4.2,8.16-6.78,13.56-1.74,3.66-3.72,6.36-4.74,6.9-1.8,1.02-6.36,1.98-8.34,1.92-.66,0-.96-.18-.9-.42.06-.18.36-.36.78-.54,1.98-.84,4.2-2.52,6.36-5.4,4.8-6.66,8.04-12,10.92-16.8-4.02-1.08-8.34-1.98-12.6-2.58-3.18,5.76-7.62,11.76-13.86,17.28-9.3,8.28-19.92,12.12-27.96,12.12-5.46,0-9.78-1.74-11.64-5.04-.78-1.38-1.14-2.82-1.14-4.26,0-7.74,10.56-15.24,16.38-17.94-.54-1.14-.78-2.52-.78-3.96,0-5.34,3.42-12.18,10.32-17.4,6.54-4.98,14.88-7.8,21.72-7.8,3.9,0,7.26.9,9.54,2.82,1.86,1.5,2.76,4.08,2.76,7.32,0,4.26-1.56,9.66-4.62,15.48,4.62.66,8.88,1.56,12.72,2.58,2.82-4.74,5.58-9.12,9.36-13.8,5.82-7.32,12.18-11.34,16.32-12.24.36-.06.6.24.6.54.06.36-.18.84-.9,1.02Zm-45.72,22.56c-1.08-.06-2.28-.12-3.48-.18-1.02,1.44-2.4,2.94-4.14,4.26-3.42,2.64-8.4,4.44-13.02,4.44-3.84,0-7.44-1.2-9.78-4.08-1.26.54-2.46,1.14-3.66,1.86-6,3.54-11.52,9.12-11.52,13.62,0,.96.3,1.92.84,2.76,1.38,2.16,4.38,3.06,8.16,3.06,9.42,0,23.82-5.76,31.68-13.14,3.3-3.06,6.78-7.5,9.66-12.18-1.56-.18-3.18-.36-4.74-.42Zm1.56-24.42c-5.64,0-12.9,2.7-17.7,6-7.5,5.28-12.06,14.22-11.16,19.8,6.24-1.98,14.7-3.18,22.98-3.06,1.62-2.4,2.4-4.62,2.76-6.18.12-.54.48-.9.84-.96.3,0,.6.36.42,1.38-.24,1.62-.9,3.66-2.16,5.82.9,0,1.8.06,2.76.12,1.8.18,3.54.36,5.28.54,3-5.16,5.04-10.62,5.04-15,0-3-.96-5.52-3.36-7.08-1.5-.96-3.48-1.38-5.7-1.38Zm-28.38,27.48c.24.54.6,1.08,1.02,1.5,1.56,1.62,3.78,2.28,6.12,2.28,3.84,0,8.1-1.74,10.8-3.78,1.32-1.08,2.46-2.16,3.36-3.24-6.6.06-14.4.9-21.3,3.24Z"/>
      <path class="cls-6" d="m245.38,58c-3.73-.54-11.43,1.51-16.4,4.35-6.18,3.58-10.49,7.01-14.26,10.4.86.74,2.9,2.28,3.89,3.33.64.65.66,1.24.42,1.53-.29.4-1.13.38-1.69-.3-1.18-1.39-2.96-2.76-3.77-3.47-3.18,3.05-6.96,5.98-11.38,10.01-2.99,2.74-5.84,4.49-6.99,4.61-2.05.27-6.64-.56-8.45-1.36-.61-.25-.82-.53-.68-.73.12-.14.47-.2.93-.21,2.15-.03,4.84-.75,7.92-2.61,6.95-4.36,11.96-8.09,16.44-11.46-3.32-2.51-6.98-4.97-10.7-7.13-5.11,4.14-11.48,8.03-19.34,10.79-11.73,4.17-23.02,3.74-30.46.71-5.06-2.05-8.41-5.29-8.89-9.05-.2-1.57,0-3.04.55-4.38,2.91-7.17,15.52-10.15,21.93-10.46-.07-1.26.22-2.63.77-3.96,2.01-4.95,7.75-10,16.11-12.24,7.93-2.15,16.72-1.63,23.06.95,3.61,1.47,6.39,3.56,7.78,6.2,1.16,2.09,1.02,4.82-.2,7.82-1.6,3.95-5.08,8.36-10.1,12.6,4.03,2.35,7.64,4.79,10.81,7.18,4.4-3.33,8.6-6.35,13.86-9.26,8.15-4.59,15.55-5.92,19.73-5.2.36.08.46.45.35.73-.08.36-.48.71-1.22.61Zm-50.85,3.7c-.98-.46-2.07-.97-3.16-1.48-1.49.95-3.33,1.82-5.44,2.39-4.16,1.16-9.45.95-13.73-.79-3.56-1.44-6.44-3.91-7.53-7.46-1.37.03-2.71.13-4.09.35-6.89,1.02-14.1,4.12-15.8,8.28-.36.89-.44,1.89-.26,2.87.47,2.52,2.91,4.48,6.41,5.91,8.73,3.54,24.24,3.62,34.29-.25,4.21-1.59,9.1-4.4,13.53-7.65-1.38-.75-2.81-1.53-4.23-2.17Zm-26-7.25c.02.59.15,1.23.38,1.77.84,2.09,2.64,3.53,4.81,4.42,3.56,1.44,8.16,1.44,11.43.56,1.63-.5,3.09-1.08,4.33-1.74-6.14-2.43-13.68-4.58-20.95-5.01Zm36.63-14.78c-5.23-2.12-12.97-2.35-18.66-1.1-8.93,2.07-16.52,8.64-17.79,14.15,6.53.51,14.82,2.58,22.44,5.81,2.4-1.61,3.96-3.38,4.88-4.69.31-.46.78-.65,1.14-.57.28.11.42.56-.13,1.44-.83,1.41-2.21,3.05-4.19,4.58.83.34,1.65.73,2.51,1.15,1.6.84,3.14,1.67,4.69,2.49,4.72-3.65,8.66-7.94,10.31-12,1.13-2.78,1.19-5.48-.45-7.82-1.03-1.45-2.7-2.59-4.76-3.42Z"/>
      <path class="cls-6" d="m272.85,100.62c-3.25-1.91-11.16-2.9-16.83-2.14-7.07.99-12.35,2.55-17.12,4.27.52,1.01,1.83,3.2,2.35,4.55.35.84.15,1.4-.19,1.57-.42.26-1.19-.07-1.46-.91-.58-1.73-1.71-3.67-2.19-4.64-4.09,1.63-8.7,2.92-14.31,4.99-3.8,1.41-7.1,1.97-8.21,1.64-2-.52-5.94-3.02-7.32-4.44-.47-.46-.56-.8-.35-.93.17-.09.51,0,.94.16,2.01.78,4.77,1.12,8.32.56,8.08-1.43,14.13-3,19.54-4.43-2.13-3.58-4.6-7.23-7.23-10.63-6.29,1.91-13.66,3.12-21.98,2.72-12.44-.55-22.73-5.2-28.49-10.81-3.91-3.81-5.8-8.07-4.83-11.73.4-1.53,1.15-2.82,2.15-3.85,5.4-5.55,18.19-3.56,24.25-1.44.41-1.19,1.2-2.35,2.2-3.38,3.72-3.83,10.94-6.35,19.53-5.28,8.16.99,16.11,4.78,21.01,9.55,2.8,2.72,4.58,5.71,4.87,8.67.29,2.37-.87,4.85-3.12,7.17-2.97,3.05-7.85,5.84-14.1,7.88,2.85,3.69,5.28,7.31,7.32,10.72,5.33-1.43,10.36-2.65,16.33-3.37,9.28-1.19,16.64.36,20.23,2.6.3.21.26.59.05.8-.21.3-.71.48-1.36.1Zm-48.5-15.7c-.73-.8-1.55-1.68-2.37-2.56-1.74.32-3.77.43-5.94.17-4.29-.49-9.12-2.67-12.43-5.89-2.75-2.68-4.5-6.05-4.17-9.74-1.28-.49-2.56-.9-3.92-1.22-6.77-1.64-14.62-1.49-17.75,1.73-.67.69-1.12,1.59-1.32,2.57-.52,2.51,1.01,5.25,3.72,7.88,6.75,6.57,21.09,12.48,31.87,12.67,4.5.11,10.09-.65,15.42-2-.99-1.22-2.03-2.47-3.1-3.6Zm-21.36-16.5c-.2.55-.32,1.19-.31,1.79-.01,2.25,1.12,4.27,2.8,5.9,2.75,2.68,7.02,4.4,10.38,4.82,1.7.15,3.27.17,4.67.02-4.77-4.56-10.95-9.39-17.53-12.53Zm39.5.09c-4.04-3.93-11.13-7.06-16.87-8.04-9.06-1.44-18.56,1.79-21.8,6.41,5.85,2.93,12.76,7.97,18.61,13.83,2.83-.59,4.94-1.64,6.29-2.51.46-.3.97-.31,1.27-.1.21.21.18.68-.66,1.28-1.3.99-3.2,2-5.61,2.67.65.63,1.25,1.3,1.89,2.01,1.17,1.38,2.29,2.73,3.41,4.07,5.75-1.61,11.02-4.1,14.07-7.24,2.09-2.15,3.16-4.63,2.53-7.42-.41-1.73-1.53-3.42-3.12-4.96Z"/>
      <path class="cls-6" d="m282.27,150.45c-2.29-2.99-9.25-6.88-14.79-8.32-6.92-1.74-12.41-2.29-17.47-2.49.1,1.13.49,3.65.47,5.1,0,.91-.39,1.35-.77,1.39-.49.08-1.08-.51-1-1.39.12-1.82-.2-4.04-.28-5.12-4.41-.03-9.16-.57-15.14-.76-4.05-.12-7.32-.85-8.22-1.57-1.66-1.24-4.37-5.03-5.11-6.87-.27-.6-.22-.95.02-.99.19-.02.47.18.81.5,1.57,1.48,4,2.83,7.5,3.65,8.03,1.72,14.22,2.54,19.77,3.25-.63-4.12-1.54-8.43-2.7-12.57-6.55-.6-13.83-2.25-21.39-5.75-11.32-5.19-19.1-13.37-22.33-20.73-2.19-5-2.34-9.65-.06-12.68.95-1.27,2.12-2.18,3.44-2.75,7.09-3.11,18.2,3.54,23.01,7.79.83-.95,1.99-1.73,3.31-2.31,4.89-2.15,12.53-1.76,20.08,2.46,7.19,3.99,13.12,10.49,15.87,16.75,1.57,3.57,2.09,7.01,1.25,9.87-.63,2.31-2.63,4.17-5.59,5.47-3.9,1.71-9.47,2.46-16.03,1.99,1.25,4.49,2.14,8.76,2.75,12.68,5.47.68,10.59,1.44,16.4,3.02,9.04,2.39,15.28,6.6,17.77,10.03.2.31.02.65-.25.77-.31.2-.84.17-1.3-.42Zm-39.03-32.8c-.38-1.01-.81-2.14-1.23-3.26-1.73-.36-3.66-1.02-5.57-2.08-3.79-2.07-7.44-5.91-9.3-10.14-1.54-3.52-1.89-7.29-.19-10.59-1-.94-2.03-1.79-3.17-2.6-5.65-4.07-12.98-6.88-17.1-5.08-.88.39-1.64,1.05-2.19,1.88-1.42,2.13-1.04,5.24.48,8.7,3.79,8.63,14.85,19.5,24.76,23.73,4.13,1.79,9.59,3.2,15.03,3.95-.46-1.5-.95-3.06-1.52-4.51Zm-13.58-23.33c-.4.44-.75.98-.96,1.54-.86,2.08-.57,4.38.37,6.52,1.54,3.52,4.85,6.72,7.8,8.37,1.52.77,2.97,1.38,4.32,1.78-2.71-6.02-6.61-12.82-11.53-18.2Zm36.57,14.94c-2.27-5.16-7.66-10.73-12.61-13.79-7.85-4.75-17.87-5.33-22.62-2.26,4.32,4.92,8.82,12.18,12.04,19.81,2.85.52,5.2.34,6.77.04.54-.11,1.02.08,1.22.38.12.27-.09.69-1.09.94-1.58.43-3.71.65-6.2.36.36.82.67,1.67,1,2.58.56,1.72,1.09,3.39,1.63,5.05,5.93.67,11.75.35,15.76-1.41,2.75-1.21,4.67-3.1,5.13-5.92.28-1.76-.13-3.74-1.03-5.77Z"/>
      <path class="cls-6" d="m272.25,200.15c-1-3.63-5.98-9.86-10.57-13.27-5.76-4.22-10.63-6.79-15.25-8.88-.33,1.09-.92,3.57-1.48,4.9-.34.85-.87,1.1-1.23.99-.48-.11-.8-.88-.41-1.67.79-1.64,1.33-3.82,1.67-4.85-4.07-1.69-8.27-3.97-13.74-6.4-3.71-1.64-6.46-3.54-7.03-4.55-1.07-1.77-2.16-6.3-2.15-8.28-.02-.66.15-.96.39-.91.18.06.37.35.56.77.9,1.96,2.64,4.13,5.57,6.21,6.79,4.61,12.22,7.7,17.1,10.45.97-4.05,1.75-8.39,2.23-12.67-5.85-3.02-11.97-7.29-17.66-13.37-8.54-9.07-12.67-19.58-12.89-27.61-.15-5.46,1.47-9.82,4.71-11.78,1.36-.82,2.79-1.22,4.23-1.26,7.74-.21,15.53,10.13,18.39,15.87,1.12-.57,2.5-.85,3.94-.89,5.34-.15,12.27,3.08,17.68,9.83,5.16,6.4,8.21,14.66,8.4,21.49.11,3.9-.7,7.28-2.55,9.61-1.45,1.9-4,2.87-7.24,2.96-4.26.12-9.7-1.29-15.6-4.19-.53,4.64-1.31,8.92-2.23,12.79,4.82,2.69,9.27,5.32,14.05,8.97,7.48,5.61,11.67,11.86,12.69,15.97.07.36-.22.61-.52.61-.36.07-.84-.16-1.04-.87Zm-23.82-45.07c.03-1.08.06-2.28.08-3.48-1.47-.98-3.01-2.32-4.37-4.02-2.73-3.34-4.67-8.27-4.8-12.89-.11-3.84.99-7.47,3.81-9.89-.58-1.25-1.21-2.43-1.96-3.61-3.71-5.9-9.44-11.26-13.93-11.14-.96.03-1.91.35-2.74.92-2.12,1.44-2.94,4.46-2.83,8.24.26,9.42,6.42,23.65,14.01,31.3,3.15,3.21,7.69,6.57,12.44,9.32.14-1.56.27-3.19.29-4.75Zm-3.8-26.72c-.53.26-1.06.63-1.47,1.06-1.58,1.6-2.17,3.84-2.11,6.18.11,3.84,1.96,8.05,4.08,10.69,1.12,1.29,2.23,2.4,3.33,3.27-.24-6.59-1.3-14.37-3.83-21.2Zm28.26,27.6c-.16-5.64-3.06-12.82-6.49-17.53-5.49-7.35-14.55-11.66-20.1-10.6,2.15,6.18,3.59,14.61,3.7,22.88,2.44,1.55,4.68,2.27,6.25,2.59.54.1.91.45.98.81,0,.3-.34.61-1.37.46-1.63-.2-3.68-.8-5.88-2,.03.9,0,1.8-.04,2.76-.13,1.8-.26,3.55-.39,5.29,5.24,2.85,10.76,4.74,15.13,4.62,3-.08,5.49-1.11,6.98-3.55.92-1.53,1.28-3.52,1.22-5.74Z"/>
      <path class="cls-6" d="m244.27,242.44c.44-3.74-1.83-11.38-4.8-16.27-3.75-6.08-7.3-10.29-10.79-13.96-.72.88-2.2,2.96-3.22,3.98-.63.66-1.22.7-1.52.46-.41-.28-.42-1.12.25-1.7,1.35-1.22,2.67-3.04,3.37-3.86-3.13-3.09-6.17-6.79-10.33-11.1-2.82-2.91-4.65-5.71-4.8-6.86-.33-2.04.37-6.65,1.12-8.48.23-.62.5-.84.71-.7.15.12.21.46.23.92.09,2.15.89,4.82,2.83,7.85,4.56,6.83,8.42,11.73,11.91,16.11,2.42-3.39,4.78-7.12,6.83-10.9-4.28-5-8.34-11.26-11.33-19.03-4.5-11.61-4.37-22.9-1.56-30.43,1.91-5.11,5.05-8.55,8.8-9.14,1.57-.25,3.04-.08,4.39.43,7.25,2.71,10.57,15.23,11.06,21.63,1.26-.11,2.63.15,3.98.66,5,1.87,10.21,7.47,12.68,15.76,2.37,7.87,2.09,16.67-.3,23.08-1.37,3.65-3.39,6.48-5.98,7.95-2.06,1.22-4.79,1.16-7.82.02-3.99-1.49-8.5-4.84-12.88-9.75-2.24,4.1-4.57,7.77-6.87,11.01,3.45,4.3,6.59,8.42,9.65,13.6,4.82,8.02,6.36,15.38,5.75,19.57-.07.36-.44.48-.72.37-.36-.07-.72-.46-.64-1.2Zm-5.11-50.72c.44-.99.91-2.09,1.39-3.2-.99-1.46-1.91-3.28-2.54-5.37-1.27-4.13-1.22-9.42.4-13.75,1.34-3.6,3.73-6.55,7.25-7.73-.06-1.37-.21-2.7-.46-4.08-1.21-6.86-4.51-13.98-8.72-15.56-.9-.34-1.9-.39-2.88-.18-2.51.54-4.4,3.03-5.72,6.57-3.3,8.82-2.95,24.33,1.21,34.27,1.71,4.16,4.65,8.98,8.02,13.31.71-1.4,1.45-2.85,2.05-4.29Zm22.33,10.02c1.98-5.28,1.99-13.03.58-18.68-2.32-8.87-9.09-16.28-14.63-17.39-.33,6.54-2.17,14.88-5.18,22.59,1.68,2.36,3.49,3.87,4.82,4.75.46.3.68.76.61,1.12-.11.28-.55.44-1.44-.09-1.43-.79-3.11-2.13-4.69-4.06-.32.84-.69,1.66-1.08,2.54-.8,1.62-1.58,3.19-2.36,4.76,3.78,4.62,8.18,8.44,12.28,9.97,2.81,1.05,5.51,1.03,7.81-.67,1.42-1.07,2.51-2.78,3.29-4.86Zm-15.8-36.21c-.59.04-1.22.18-1.76.43-2.06.89-3.46,2.74-4.28,4.93-1.34,3.6-1.21,8.2-.24,11.44.55,1.62,1.16,3.06,1.86,4.28,2.25-6.2,4.2-13.8,4.43-21.09Z"/>
      <path class="cls-6" d="m202.43,271.08c1.82-3.3,2.59-11.23,1.67-16.89-1.19-7.04-2.89-12.28-4.74-17-1,.55-3.15,1.91-4.48,2.48-.83.37-1.39.19-1.58-.15-.27-.41.03-1.19.87-1.48,1.71-.62,3.62-1.81,4.57-2.31-1.74-4.05-3.16-8.62-5.39-14.17-1.52-3.76-2.16-7.04-1.87-8.16.47-2.02,2.85-6.02,4.23-7.44.45-.49.78-.58.92-.38.09.17.02.51-.13.94-.72,2.03-.99,4.8-.33,8.34,1.65,8.04,3.39,14.04,4.97,19.41,3.52-2.23,7.1-4.8,10.43-7.53-2.09-6.24-3.5-13.57-3.33-21.9.2-12.45,4.56-22.86,10.01-28.78,3.7-4.02,7.9-6.02,11.59-5.16,1.54.36,2.85,1.07,3.91,2.05,5.7,5.24,4.07,18.09,2.11,24.2,1.21.37,2.38,1.13,3.44,2.11,3.93,3.61,6.65,10.76,5.82,19.37-.76,8.18-4.33,16.23-8.96,21.27-2.64,2.87-5.58,4.73-8.53,5.11-2.36.35-4.87-.73-7.26-2.92-3.14-2.88-6.05-7.69-8.27-13.88-3.61,2.95-7.16,5.48-10.51,7.61,1.58,5.28,2.93,10.28,3.82,16.23,1.45,9.24.1,16.64-2.04,20.3-.2.3-.58.28-.8.08-.31-.2-.5-.7-.14-1.35Zm14.35-48.92c.78-.75,1.63-1.6,2.49-2.44-.37-1.73-.54-3.76-.33-5.93.37-4.3,2.42-9.19,5.55-12.59,2.6-2.83,5.92-4.66,9.62-4.44.46-1.29.83-2.58,1.11-3.95,1.46-6.81,1.09-14.65-2.22-17.7-.71-.65-1.62-1.08-2.6-1.25-2.52-.45-5.22,1.15-7.78,3.93-6.38,6.93-11.88,21.43-11.78,32.21.02,4.5.93,10.07,2.43,15.35,1.19-1.03,2.42-2.1,3.52-3.2Zm16.92,17.68c3.82-4.15,6.75-11.32,7.57-17.09,1.19-9.09-2.3-18.5-7.02-21.62-2.77,5.93-7.61,12.97-13.3,18.98.67,2.82,1.77,4.89,2.68,6.22.32.45.34.96.14,1.27-.2.22-.67.2-1.3-.63-1.03-1.27-2.08-3.14-2.82-5.53-.61.66-1.26,1.28-1.96,1.95-1.35,1.2-2.66,2.36-3.97,3.52,1.77,5.7,4.41,10.9,7.63,13.86,2.21,2.03,4.71,3.03,7.49,2.32,1.72-.45,3.37-1.63,4.88-3.26Zm-1.01-39.49c-.56-.19-1.2-.29-1.79-.26-2.25.05-4.24,1.24-5.82,2.96-2.6,2.83-4.2,7.14-4.53,10.51-.1,1.7-.08,3.27.11,4.67,4.42-4.9,9.09-11.21,12.04-17.87Z"/>
      <path class="cls-6" d="m152.88,281.88c2.92-2.38,6.62-9.43,7.9-15.02,1.55-6.97,1.94-12.46,2-17.53-1.13.13-3.64.59-5.09.61-.91.03-1.36-.35-1.41-.73-.1-.49.48-1.09,1.36-1.04,1.82.07,4.03-.31,5.11-.42-.09-4.4.31-9.17.34-15.16,0-4.05.65-7.34,1.34-8.26,1.19-1.69,4.9-4.51,6.72-5.3.6-.28.94-.25.99,0,.02.19-.17.48-.48.82-1.43,1.61-2.72,4.07-3.44,7.6-1.5,8.07-2.14,14.28-2.7,19.85,4.1-.74,8.39-1.77,12.49-3.05.41-6.57,1.87-13.89,5.15-21.54,4.87-11.46,12.83-19.47,20.1-22.9,4.94-2.33,9.59-2.6,12.68-.42,1.29.92,2.23,2.06,2.85,3.36,3.31,7-3.04,18.29-7.15,23.22.98.8,1.78,1.94,2.4,3.25,2.28,4.83,2.11,12.47-1.9,20.14-3.79,7.3-10.12,13.41-16.31,16.33-3.53,1.67-6.95,2.29-9.83,1.53-2.32-.56-4.24-2.51-5.62-5.44-1.82-3.85-2.72-9.4-2.44-15.97-4.46,1.38-8.69,2.38-12.6,3.1-.53,5.49-1.15,10.63-2.57,16.48-2.14,9.1-6.17,15.46-9.53,18.04-.3.21-.64.04-.77-.23-.21-.3-.2-.84.38-1.31Zm40.72-17.18c5.1-2.41,10.51-7.95,13.44-12.99,4.52-7.98,4.83-18.01,1.63-22.67-4.8,4.46-11.93,9.15-19.47,12.58-.44,2.86-.2,5.2.14,6.77.12.54-.05,1.02-.35,1.23-.27.13-.7-.07-.97-1.07-.47-1.57-.75-3.69-.53-6.18-.81.38-1.65.71-2.55,1.07-1.7.61-3.35,1.19-5,1.77-.51,5.95-.02,11.75,1.85,15.71,1.28,2.71,3.23,4.58,6.06,4.97,1.77.23,3.73-.24,5.74-1.19Zm-9.02-22.74c1-.41,2.11-.87,3.22-1.32.31-1.74.92-3.68,1.92-5.62,1.96-3.85,5.7-7.6,9.88-9.58,3.47-1.64,7.24-2.09,10.58-.49.91-1.03,1.74-2.08,2.51-3.25,3.91-5.76,6.52-13.17,4.6-17.23-.41-.87-1.09-1.61-1.94-2.14-2.17-1.36-5.27-.9-8.68.72-8.52,4.02-19.08,15.38-23.03,25.41-1.68,4.18-2.93,9.68-3.53,15.14,1.49-.5,3.03-1.03,4.46-1.65Zm22.94-14.22c-.45-.39-1-.72-1.56-.92-2.1-.8-4.39-.45-6.51.55-3.47,1.64-6.58,5.03-8.15,8.03-.73,1.54-1.3,3-1.65,4.37,5.94-2.87,12.63-6.97,17.87-12.03Z"/>
      <path class="cls-6" d="m102.92,273.25c3.6-1.1,9.69-6.25,12.97-10.94,4.06-5.87,6.49-10.82,8.45-15.49-1.1-.3-3.59-.82-4.94-1.35-.86-.31-1.13-.84-1.03-1.2.09-.49.86-.83,1.66-.45,1.66.75,3.85,1.23,4.89,1.53,1.57-4.11,3.74-8.38,6.02-13.92,1.53-3.75,3.36-6.56,4.35-7.15,1.74-1.12,6.24-2.33,8.22-2.38.66-.04.97.13.92.37-.05.18-.34.38-.75.58-1.93.95-4.05,2.75-6.05,5.75-4.42,6.92-7.36,12.43-9.97,17.38,4.07.85,8.44,1.51,12.72,1.88,2.85-5.93,6.95-12.17,12.88-18.02,8.82-8.78,19.21-13.21,27.24-13.66,5.45-.3,9.86,1.19,11.9,4.38.86,1.34,1.3,2.75,1.38,4.19.43,7.73-9.7,15.8-15.36,18.82.6,1.11.92,2.47,1,3.91.3,5.33-2.74,12.35-9.33,17.95-6.25,5.33-14.42,8.61-21.25,8.99-3.89.22-7.3-.49-9.68-2.28-1.94-1.39-2.98-3.92-3.16-7.16-.24-4.25,1.02-9.73,3.75-15.71-4.65-.4-8.95-1.06-12.84-1.87-2.55,4.89-5.06,9.42-8.58,14.3-5.4,7.63-11.53,12-15.61,13.13-.36.08-.61-.21-.63-.51-.08-.36.13-.85.84-1.07Zm44.19-.6c5.63-.31,12.73-3.41,17.34-6.98,7.19-5.69,11.25-14.87,10.04-20.39-6.12,2.32-14.5,3.99-22.77,4.33-1.48,2.49-2.14,4.75-2.41,6.32-.09.54-.43.92-.79,1-.3.02-.62-.33-.5-1.35.15-1.63.69-3.7,1.83-5.93-.9.05-1.8.04-2.76.03-1.81-.08-3.55-.16-5.3-.25-2.71,5.32-4.44,10.88-4.2,15.26.17,3,1.27,5.46,3.75,6.88,1.55.87,3.55,1.18,5.77,1.06Zm.2-24.47c1.08,0,2.28,0,3.48-.01.94-1.49,2.23-3.07,3.9-4.48,3.27-2.83,8.14-4.9,12.75-5.16,3.83-.21,7.49.78,9.99,3.53,1.23-.61,2.39-1.27,3.55-2.06,5.79-3.87,10.99-9.75,10.74-14.24-.05-.96-.41-1.9-.99-2.71-1.5-2.08-4.54-2.81-8.32-2.6-9.41.52-23.46,7.08-30.9,14.88-3.12,3.24-6.35,7.87-8.97,12.7,1.57.09,3.19.18,4.75.16Zm26.61-4.55c-.27-.52-.66-1.04-1.1-1.44-1.65-1.53-3.9-2.07-6.24-1.94-3.83.21-7.99,2.19-10.57,4.37-1.26,1.15-2.34,2.29-3.18,3.42,6.59-.43,14.33-1.7,21.09-4.42Z"/>
      <path class="cls-6" d="m59.87,246.45c3.75.33,11.33-2.14,16.13-5.25,5.97-3.92,10.08-7.58,13.66-11.18-.9-.69-3.02-2.11-4.07-3.11-.68-.61-.73-1.2-.5-1.5.27-.42,1.1-.45,1.71.2,1.26,1.32,3.11,2.59,3.96,3.26,3-3.22,6.62-6.36,10.81-10.63,2.83-2.9,5.58-4.81,6.72-4.99,2.03-.38,6.66.19,8.51.89.62.21.85.48.72.69-.12.15-.46.22-.91.26-2.15.15-4.79,1.02-7.77,3.05-6.7,4.74-11.5,8.75-15.78,12.35,3.45,2.33,7.25,4.58,11.08,6.53,4.88-4.42,11.02-8.66,18.71-11.86,11.48-4.82,22.77-5.01,30.38-2.4,5.16,1.77,8.69,4.82,9.38,8.54.29,1.56.16,3.04-.3,4.4-2.51,7.32-14.93,10.99-21.31,11.66.14,1.25-.08,2.64-.55,4-1.73,5.05-7.18,10.41-15.4,13.12-7.8,2.59-16.6,2.56-23.07.34-3.69-1.26-6.58-3.2-8.11-5.76-1.27-2.02-1.29-4.75-.24-7.82,1.38-4.03,4.61-8.63,9.39-13.15-4.16-2.12-7.89-4.35-11.2-6.56-4.2,3.57-8.23,6.82-13.33,10.02-7.88,5.04-15.2,6.78-19.41,6.29-.36-.06-.49-.42-.39-.71.06-.36.44-.74,1.18-.67Zm41.17,16.07c5.33,1.83,13.08,1.63,18.69.06,8.8-2.56,16.02-9.54,16.97-15.11-6.54-.15-14.94-1.76-22.73-4.55-2.31,1.75-3.77,3.59-4.61,4.95-.29.47-.75.7-1.11.64-.28-.1-.45-.54.05-1.44.75-1.45,2.04-3.17,3.93-4.81-.85-.29-1.68-.64-2.57-1.01-1.64-.75-3.23-1.49-4.82-2.22-4.51,3.91-8.21,8.41-9.63,12.56-.97,2.84-.88,5.53.88,7.79,1.11,1.39,2.84,2.43,4.95,3.15Zm9.39-22.6c1,.41,2.12.85,3.23,1.3,1.43-1.03,3.22-2,5.3-2.69,4.09-1.39,9.38-1.48,13.76.02,3.63,1.24,6.65,3.55,7.93,7.03,1.37-.1,2.7-.28,4.07-.57,6.82-1.4,13.85-4.89,15.31-9.15.31-.91.34-1.91.1-2.88-.61-2.49-3.15-4.31-6.73-5.54-8.91-3.05-24.4-2.27-34.23,2.16-4.11,1.83-8.85,4.9-13.09,8.39,1.42.68,2.89,1.37,4.35,1.93Zm26.36,5.8c-.05-.59-.22-1.22-.48-1.75-.95-2.04-2.84-3.38-5.05-4.14-3.63-1.24-8.23-.98-11.44.08-1.6.59-3.03,1.25-4.23,1.98,6.26,2.08,13.91,3.82,21.2,3.84Z"/>
      <path class="cls-6" d="m30.07,205.43c3.35,1.72,11.3,2.27,16.92,1.2,7.01-1.38,12.19-3.23,16.86-5.22-.58-.98-2-3.09-2.6-4.41-.4-.82-.22-1.39.1-1.58.41-.28,1.19,0,1.5.83.67,1.7,1.91,3.57,2.44,4.51,4-1.85,8.52-3.4,14.01-5.78,3.71-1.62,6.98-2.36,8.1-2.1,2.03.41,6.1,2.68,7.55,4.02.5.43.61.77.4.91-.16.1-.51.04-.94-.11-2.05-.67-4.82-.85-8.34-.1-7.99,1.87-13.94,3.78-19.26,5.51,2.32,3.45,4.99,6.97,7.81,10.21,6.18-2.26,13.47-3.87,21.8-3.94,12.45-.14,22.98,3.93,29.05,9.2,4.12,3.58,6.24,7.73,5.47,11.44-.32,1.55-.99,2.88-1.94,3.96-5.08,5.84-17.97,4.57-24.13,2.79-.34,1.21-1.07,2.41-2.01,3.5-3.5,4.03-10.57,6.95-19.2,6.36-8.2-.54-16.35-3.88-21.51-8.37-2.94-2.56-4.89-5.44-5.35-8.39-.42-2.35.6-4.89,2.72-7.33,2.8-3.21,7.52-6.27,13.64-8.65-3.05-3.53-5.68-7-7.9-10.29-5.24,1.72-10.19,3.22-16.12,4.27-9.19,1.7-16.63.56-20.35-1.47-.31-.19-.3-.57-.1-.8.19-.31.69-.52,1.35-.18Zm32.1,30.38c4.26,3.7,11.5,6.43,17.29,7.09,9.12.94,18.43-2.82,21.41-7.62-6.01-2.6-13.18-7.25-19.35-12.77-2.8.75-4.84,1.91-6.14,2.85-.44.33-.95.36-1.26.17-.23-.2-.22-.67.59-1.32,1.24-1.06,3.08-2.17,5.45-2.97-.68-.59-1.32-1.23-2-1.9-1.24-1.32-2.43-2.6-3.63-3.87-5.65,1.93-10.77,4.71-13.65,8.01-1.97,2.26-2.9,4.79-2.11,7.55.5,1.71,1.72,3.33,3.4,4.78Zm17.2-17.4c.78.75,1.64,1.59,2.51,2.42,1.71-.42,3.74-.64,5.92-.5,4.31.25,9.25,2.16,12.74,5.19,2.9,2.52,4.83,5.79,4.7,9.5,1.3.42,2.6.75,3.98,1,6.85,1.27,14.68.68,17.63-2.72.63-.72,1.03-1.65,1.18-2.63.38-2.54-1.3-5.18-4.15-7.66-7.11-6.18-21.75-11.29-32.53-10.87-4.5.14-10.04,1.21-15.28,2.85,1.06,1.16,2.16,2.36,3.3,3.43Zm22.25,15.29c.17-.56.26-1.21.21-1.8-.11-2.25-1.35-4.2-3.12-5.74-2.9-2.52-7.25-4-10.63-4.24-1.71-.05-3.27.02-4.66.24,5.02,4.29,11.46,8.77,18.2,11.53Z"/>
      <path class="cls-6" d="m17.9,156.21c2.46,2.86,9.61,6.36,15.23,7.48,7.01,1.36,12.51,1.59,17.58,1.51-.17-1.13-.69-3.62-.75-5.07-.06-.91.31-1.37.69-1.43.48-.11,1.1.45,1.08,1.34-.02,1.83.43,4.02.56,5.09,4.4-.21,9.18.06,15.16-.08,4.05-.1,7.35.44,8.3,1.11,1.72,1.14,4.64,4.78,5.48,6.57.3.59.27.94.03.99-.19.03-.48-.16-.83-.45-1.65-1.39-4.15-2.61-7.69-3.23-8.11-1.27-14.34-1.75-19.92-2.14.85,4.07,2,8.33,3.4,12.4,6.57.23,13.93,1.48,21.68,4.55,11.59,4.55,19.82,12.29,23.45,19.46,2.47,4.87,2.87,9.51.77,12.66-.88,1.32-2,2.29-3.29,2.94-6.9,3.5-18.37-2.53-23.41-6.5-.77,1-1.9,1.83-3.18,2.49-4.76,2.41-12.41,2.46-20.19-1.34-7.4-3.58-13.69-9.75-16.78-15.85-1.76-3.48-2.48-6.88-1.8-9.78.5-2.34,2.39-4.31,5.28-5.77,3.8-1.93,9.32-2.98,15.9-2.88-1.5-4.42-2.62-8.62-3.45-12.51-5.5-.37-10.66-.85-16.54-2.11-9.16-1.88-15.62-5.74-18.3-9.02-.22-.29-.06-.64.21-.78.29-.21.83-.22,1.32.34Zm18.31,40.23c2.55,5.03,8.24,10.29,13.35,13.07,8.1,4.3,18.14,4.33,22.71,1-4.59-4.67-9.48-11.67-13.12-19.11-2.87-.36-5.21-.05-6.76.33-.54.14-1.02-.02-1.24-.31-.14-.27.05-.7,1.04-1,1.55-.52,3.67-.85,6.17-.71-.41-.8-.76-1.63-1.14-2.52-.65-1.69-1.28-3.32-1.91-4.95-5.96-.34-11.75.31-15.66,2.29-2.68,1.36-4.49,3.35-4.8,6.2-.18,1.77.34,3.73,1.35,5.71Zm22.48-9.65c.44.99.92,2.09,1.41,3.19,1.75.26,3.71.81,5.67,1.77,3.9,1.86,7.76,5.48,9.85,9.6,1.74,3.42,2.29,7.18.78,10.57,1.05.88,2.13,1.68,3.31,2.42,5.87,3.75,13.34,6.15,17.36,4.12.86-.43,1.58-1.14,2.08-2,1.3-2.21.75-5.29-.96-8.66-4.26-8.4-15.91-18.64-26.04-22.31-4.22-1.56-9.76-2.66-15.23-3.11.54,1.47,1.12,3,1.77,4.42Zm14.86,22.54c.37-.46.69-1.02.88-1.59.74-2.12.32-4.4-.73-6.49-1.74-3.42-5.21-6.44-8.25-7.92-1.56-.69-3.04-1.22-4.41-1.53,3.04,5.86,7.31,12.44,12.52,17.53Z"/>
      <path class="cls-6" d="m25.14,106.02c1.2,3.57,6.52,9.51,11.29,12.66,5.99,3.89,10.99,6.18,15.72,8.02.27-1.11.72-3.61,1.21-4.98.29-.87.81-1.15,1.18-1.06.49.08.85.83.5,1.64-.7,1.69-1.12,3.89-1.39,4.93,4.16,1.46,8.48,3.5,14.08,5.63,3.79,1.43,6.65,3.18,7.27,4.15,1.17,1.71,2.5,6.17,2.61,8.15.05.66-.1.97-.34.93-.18-.04-.39-.33-.6-.73-1-1.9-2.86-3.98-5.91-5.89-7.04-4.23-12.63-7.01-17.65-9.48-.74,4.1-1.28,8.48-1.52,12.77,6,2.69,12.35,6.61,18.37,12.37,9.03,8.58,13.74,18.84,14.41,26.85.46,5.44-.92,9.89-4.05,12.02-1.31.89-2.71,1.37-4.15,1.49-7.71.65-16.07-9.25-19.24-14.83-1.09.63-2.45.99-3.88,1.11-5.32.45-12.42-2.39-18.2-8.83-5.51-6.1-9.01-14.18-9.58-20.99-.33-3.89.29-7.31,2.01-9.74,1.34-1.98,3.84-3.09,7.06-3.36,4.25-.35,9.76.75,15.81,3.31.27-4.66.81-8.98,1.51-12.89-4.96-2.42-9.55-4.8-14.53-8.18-7.78-5.19-12.32-11.19-13.56-15.24-.09-.35.19-.62.49-.64.35-.09.85.11,1.09.81Zm1.83,44.16c.47,5.62,3.77,12.63,7.45,17.14,5.89,7.03,15.18,10.83,20.66,9.47-2.49-6.05-4.39-14.38-4.97-22.64-2.53-1.41-4.8-2.01-6.39-2.24-.55-.07-.94-.4-1.03-.76-.02-.3.31-.63,1.34-.53,1.63.1,3.72.59,5.98,1.67-.08-.9-.09-1.8-.11-2.76.03-1.81.06-3.56.1-5.31-5.39-2.56-11-4.14-15.37-3.77-2.99.25-5.42,1.42-6.78,3.94-.83,1.58-1.08,3.58-.9,5.79Zm24.46-.48c.03,1.08.07,2.28.11,3.48,1.52.9,3.13,2.15,4.59,3.77,2.92,3.19,5.12,8,5.51,12.6.32,3.83-.57,7.51-3.25,10.08.64,1.21,1.34,2.36,2.16,3.49,4.03,5.68,10.05,10.72,14.53,10.34.96-.08,1.89-.46,2.68-1.07,2.04-1.56,2.68-4.62,2.37-8.39-.79-9.39-7.73-23.26-15.73-30.47-3.32-3.03-8.04-6.13-12.94-8.61-.05,1.57-.09,3.2-.02,4.76Zm5.29,26.47c.52-.28,1.03-.69,1.41-1.14,1.48-1.69,1.96-3.96,1.76-6.29-.32-3.83-2.41-7.93-4.67-10.45-1.19-1.23-2.36-2.27-3.51-3.08.61,6.57,2.1,14.27,5.01,20.96Z"/>
      <path class="cls-6" d="m50.73,62.24c-.23,3.76,2.46,11.26,5.7,15.98,4.08,5.86,7.86,9.87,11.55,13.34.67-.92,2.03-3.08,2.99-4.16.59-.69,1.18-.76,1.49-.54.42.26.48,1.09-.16,1.71-1.28,1.3-2.5,3.18-3.15,4.05,3.3,2.91,6.54,6.44,10.93,10.51,2.98,2.75,4.96,5.44,5.18,6.58.44,2.02,0,6.66-.65,8.53-.2.63-.46.86-.67.73-.15-.11-.24-.45-.28-.9-.21-2.14-1.16-4.76-3.26-7.68-4.93-6.57-9.06-11.25-12.79-15.43-2.23,3.52-4.37,7.37-6.21,11.26,4.55,4.75,8.96,10.77,12.37,18.37,5.14,11.34,5.64,22.62,3.25,30.3-1.62,5.21-4.57,8.82-8.28,9.61-1.55.33-3.03.25-4.41-.18-7.39-2.3-11.41-14.62-12.25-20.98-1.25.18-2.64,0-4.01-.43-5.1-1.59-10.61-6.89-13.54-15.03-2.81-7.73-3.02-16.53-.98-23.06,1.16-3.72,3.02-6.66,5.53-8.27,1.99-1.33,4.72-1.42,7.81-.46,4.07,1.27,8.76,4.36,13.4,9.02,2-4.21,4.13-8.01,6.25-11.37-3.69-4.1-7.04-8.04-10.39-13.04-5.25-7.74-7.2-15-6.83-19.22.05-.36.41-.5.69-.41.36.05.75.42.71,1.16Zm-14.92,41.6c-1.68,5.38-1.26,13.12.46,18.68,2.81,8.73,9.99,15.75,15.58,16.55-.03-6.55,1.34-14.98,3.92-22.85-1.81-2.26-3.7-3.67-5.08-4.48-.48-.27-.72-.73-.67-1.09.09-.29.52-.47,1.44,0,1.48.71,3.23,1.95,4.91,3.79.27-.86.59-1.7.94-2.6.71-1.66,1.4-3.27,2.09-4.88-4.03-4.4-8.64-7.97-12.82-9.28-2.86-.89-5.55-.73-7.76,1.1-1.36,1.15-2.35,2.91-3.01,5.03Zm17.79,35.27c.59-.07,1.21-.25,1.74-.53,2.01-1.01,3.3-2.93,4-5.16,1.14-3.67.75-8.25-.39-11.44-.64-1.58-1.33-2.99-2.09-4.17-1.91,6.32-3.43,14.02-3.25,21.3Zm5.06-26.51c-.38,1.01-.79,2.14-1.21,3.27,1.07,1.4,2.09,3.17,2.83,5.22,1.5,4.05,1.74,9.34.36,13.75-1.14,3.67-3.36,6.75-6.8,8.12.14,1.36.36,2.69.69,4.05,1.59,6.78,5.28,13.71,9.57,15.05.92.29,1.92.28,2.89.02,2.47-.67,4.22-3.27,5.35-6.88,2.8-8.99,1.59-24.45-3.11-34.15-1.94-4.06-5.14-8.71-8.75-12.85-.64,1.43-1.29,2.93-1.81,4.4Z"/>
      <path class="cls-6" d="m90.91,31.31c-1.63,3.4-1.96,11.36-.73,16.95,1.58,6.96,3.57,12.1,5.68,16.71.96-.6,3.04-2.09,4.34-2.73.81-.42,1.38-.26,1.58.06.29.4.03,1.19-.79,1.53-1.68.72-3.51,2.01-4.44,2.56,1.96,3.94,3.64,8.43,6.17,13.85,1.72,3.67,2.55,6.91,2.32,8.04-.36,2.04-2.51,6.17-3.81,7.66-.42.51-.75.63-.9.43-.1-.16-.05-.51.08-.95.61-2.06.72-4.85-.13-8.34-2.1-7.94-4.17-13.83-6.04-19.1-3.39,2.42-6.82,5.19-9.99,8.1,2.43,6.11,4.25,13.35,4.55,21.68.49,12.44-3.29,23.08-8.39,29.29-3.47,4.22-7.55,6.45-11.28,5.79-1.56-.27-2.9-.91-4.02-1.82-5.98-4.91-5.07-17.83-3.46-24.04-1.22-.31-2.44-1-3.55-1.91-4.12-3.39-7.24-10.38-6.89-19.02.31-8.21,3.42-16.45,7.77-21.73,2.48-3.01,5.3-5.04,8.24-5.58,2.34-.49,4.9.46,7.41,2.52,3.29,2.7,6.47,7.34,9.02,13.4,3.44-3.15,6.84-5.87,10.07-8.19-1.87-5.19-3.5-10.1-4.72-15.99-1.96-9.14-1.03-16.61.91-20.38.18-.32.57-.31.8-.12.32.18.53.67.22,1.34Zm-29.48,32.93c-3.58,4.36-6.11,11.68-6.6,17.48-.68,9.15,3.33,18.35,8.21,21.19,2.43-6.08,6.88-13.37,12.23-19.69-.83-2.78-2.04-4.79-3.02-6.06-.34-.44-.39-.94-.21-1.26.19-.23.66-.23,1.33.55,1.1,1.21,2.26,3.02,3.12,5.36.57-.7,1.19-1.35,1.85-2.06,1.28-1.28,2.53-2.51,3.77-3.74-2.08-5.59-5-10.64-8.39-13.42-2.32-1.9-4.87-2.76-7.6-1.9-1.69.55-3.28,1.81-4.69,3.53Zm17.87,16.71c-.73.8-1.54,1.69-2.35,2.57.46,1.7.75,3.72.66,5.9-.13,4.32-1.9,9.31-4.84,12.88-2.44,2.97-5.65,4.99-9.36,4.96-.38,1.32-.68,2.62-.89,4.01-1.07,6.88-.27,14.69,3.21,17.55.74.61,1.67.99,2.67,1.1,2.54.31,5.14-1.44,7.54-4.36,5.98-7.28,10.67-22.06,9.96-32.82-.27-4.49-1.49-10-3.28-15.2-1.13,1.09-2.3,2.23-3.33,3.39Zm-14.67,22.66c.57.16,1.21.22,1.81.16,2.24-.18,4.16-1.47,5.65-3.28,2.44-2.97,3.8-7.36,3.94-10.74,0-1.71-.11-3.27-.37-4.65-4.14,5.14-8.45,11.7-11.02,18.51Z"/>
      <path class="cls-6" d="m139.77,17.77c-2.79,2.54-6.09,9.79-7.06,15.43-1.16,7.05-1.24,12.55-1.02,17.62,1.12-.2,3.6-.79,5.04-.89.91-.08,1.38.28,1.45.65.12.48-.42,1.12-1.3,1.12-1.83.03-4.01.54-5.08.71.33,4.39.2,9.18.51,15.15.22,4.05-.24,7.36-.88,8.32-1.1,1.75-4.65,4.77-6.42,5.66-.58.31-.93.3-.99.06-.03-.19.15-.49.43-.85,1.34-1.68,2.49-4.22,3.01-7.78,1.04-8.14,1.34-14.38,1.59-19.97-4.05.97-8.27,2.24-12.31,3.74-.05,6.58-1.09,13.97-3.94,21.8-4.23,11.71-11.73,20.15-18.8,23.99-4.8,2.6-9.43,3.13-12.63,1.12-1.34-.84-2.35-1.94-3.03-3.2-3.69-6.8,2.02-18.43,5.84-23.58-1.02-.75-1.89-1.84-2.57-3.11-2.55-4.69-2.8-12.34.77-20.21,3.37-7.5,9.36-13.95,15.37-17.21,3.43-1.86,6.81-2.67,9.73-2.07,2.35.43,4.37,2.27,5.92,5.12,2.03,3.74,3.24,9.23,3.32,15.81,4.38-1.62,8.55-2.86,12.41-3.8.22-5.51.56-10.68,1.65-16.59,1.62-9.21,5.3-15.77,8.51-18.54.29-.22.64-.08.79.19.22.29.24.82-.3,1.33Zm-29.43,41.63c-.98.46-2.06.98-3.14,1.5-.21,1.75-.71,3.73-1.61,5.72-1.75,3.95-5.27,7.91-9.33,10.11-3.38,1.83-7.11,2.49-10.54,1.08-.85,1.08-1.62,2.17-2.33,3.38-3.58,5.97-5.78,13.51-3.63,17.46.46.84,1.18,1.54,2.06,2.02,2.24,1.24,5.31.6,8.63-1.2,8.28-4.49,18.19-16.42,21.58-26.65,1.44-4.26,2.38-9.83,2.68-15.31-1.46.59-2.97,1.2-4.37,1.89Zm-10.27-22.21c-4.96,2.69-10.05,8.52-12.7,13.71-4.07,8.22-3.82,18.25-.37,22.72,4.54-4.72,11.4-9.8,18.74-13.65.28-2.88-.09-5.21-.52-6.75-.15-.53,0-1.02.28-1.24.26-.14.7.03,1.03,1.01.56,1.54.96,3.65.88,6.15.79-.43,1.61-.81,2.48-1.21,1.67-.7,3.28-1.37,4.9-2.04.18-5.96-.63-11.74-2.72-15.59-1.43-2.64-3.48-4.39-6.33-4.62-1.78-.13-3.72.45-5.67,1.51Zm-11.84,37.69c.47.36,1.04.66,1.61.83,2.14.68,4.41.2,6.47-.91,3.38-1.83,6.29-5.39,7.69-8.47.65-1.58,1.13-3.07,1.41-4.45-5.77,3.2-12.23,7.66-17.18,13Z"/>
      <path class="cls-6" d="m190.14,23.61c-3.54,1.3-9.32,6.78-12.34,11.64-3.73,6.09-5.88,11.16-7.58,15.94,1.11.24,3.63.62,5.01,1.07.88.26,1.17.77,1.09,1.15-.07.49-.81.88-1.63.54-1.7-.66-3.92-1.01-4.97-1.26-1.34,4.2-3.27,8.58-5.23,14.23-1.32,3.83-2.99,6.73-3.94,7.38-1.68,1.21-6.1,2.67-8.07,2.83-.66.07-.97-.07-.94-.32.04-.19.32-.4.71-.62,1.88-1.05,3.89-2.97,5.72-6.07,4.03-7.15,6.66-12.82,8.99-17.91-4.12-.63-8.51-1.04-12.81-1.16-2.52,6.08-6.27,12.53-11.85,18.71-8.32,9.26-18.45,14.26-26.44,15.15-5.43.61-9.91-.64-12.13-3.72-.93-1.29-1.45-2.68-1.61-4.11-.86-7.69,8.8-16.32,14.29-19.65-.66-1.07-1.05-2.42-1.21-3.85-.59-5.31,2.05-12.48,8.32-18.44,5.95-5.68,13.92-9.4,20.72-10.16,3.88-.43,7.31.09,9.79,1.74,2.02,1.28,3.2,3.75,3.55,6.97.47,4.23-.48,9.77-2.87,15.9,4.66.14,9,.56,12.93,1.15,2.28-5.02,4.53-9.68,7.77-14.75,4.97-7.92,10.84-12.62,14.86-13.98.35-.1.62.17.66.47.1.35-.09.85-.78,1.11Zm-42.93,27.5c-1.08.06-2.28.13-3.48.21-.86,1.54-2.06,3.19-3.64,4.69-3.11,3-7.85,5.35-12.45,5.86-3.82.43-7.53-.37-10.17-2.97-1.19.68-2.32,1.41-3.43,2.25-5.57,4.18-10.43,10.34-9.93,14.81.11.95.51,1.87,1.14,2.65,1.61,1.99,4.69,2.55,8.45,2.13,9.36-1.05,23.03-8.37,30.02-16.58,2.94-3.41,5.9-8.21,8.25-13.18-1.57,0-3.2,0-4.76.11Zm-1.16-24.44c-5.6.63-12.52,4.12-16.92,7.93-6.87,6.08-10.4,15.47-8.89,20.92,5.98-2.66,14.25-4.79,22.49-5.59,1.34-2.57,1.87-4.86,2.06-6.45.06-.55.38-.95.73-1.05.3-.03.64.29.57,1.32-.06,1.64-.49,3.74-1.5,6.02.9-.1,1.8-.14,2.76-.19,1.81-.02,3.56-.04,5.31-.05,2.41-5.46,3.83-11.11,3.34-15.47-.33-2.98-1.57-5.38-4.12-6.66-1.6-.79-3.61-.98-5.82-.74Zm-25.15,30.46c.3.51.72,1.01,1.18,1.38,1.73,1.44,4.01,1.85,6.34,1.59,3.82-.43,7.86-2.63,10.31-4.96,1.19-1.22,2.21-2.42,2.98-3.59-6.55.79-14.21,2.49-20.81,5.59Z"/>
      <path class="cls-5" d="m177.01,73.95c0,5.11-4.1,12.42-6.21,15.9-6.09,10.06-20.04,26.01-32.99,26.01-4.63,0-7.87-2.23-7.87-6.86,0-4.06,2.47-7.47,4.62-8.76.53-.32,1.1-.45,1.58-.45,1.1,0,1.95.65,1.99,1.42.16,1.26-.73,2.31-1.66,2.52-.81.24-1.62-.45-1.66-1.1-.04-.32-.08-.49-.24-.53-.12-.04-.45,0-.73.2-.49.41-2.19,2.23-2.19,5.72s2.64,4.95,6.17,4.95c6.41,0,14.28-4.54,21.87-11.4,7.26-6.57,16.23-20.04,16.23-27.14,0-1.38-.32-2.52-1.09-3.33-1.22-1.3-2.84-1.83-4.63-1.83-4.83,0-11,3.9-14.65,7.42-3.85,3.65-8.36,10.47-8.36,15.09,0,.61.08,1.14.24,1.66.57,1.83,1.99,2.52,3.69,2.52,2.64,0,5.96-1.58,8.03-3.12,3.65-2.6,6-6.9,6.65-8.84.24-.69.57-.97.81-.97s.37.28.24.77c-.69,2.23-2.56,6.37-7.26,10.14-2.51,2.03-6.04,3.29-9.09,3.29-2.68,0-4.99-.97-5.96-3.21-.37-.85-.53-1.83-.53-2.84,0-4.95,3.98-11.6,9.94-16.72,4.71-4.02,11.08-6.45,15.91-6.45,2.6,0,4.79.73,6.04,2.27.77.97,1.1,2.23,1.1,3.65Z"/>
      <path class="cls-5" d="m125.32,69.7c1.28-1.52,3.48-2.22,6.08-2.17,4.83.08,11.16,2.62,15.8,6.71,5.88,5.21,9.75,11.93,9.67,16.88-.02,1.01-.2,1.98-.58,2.83-1.01,2.22-3.34,3.15-6.01,3.11-3.04-.05-6.55-1.36-9.03-3.43-4.64-3.85-6.44-8.02-7.1-10.26-.11-.49.01-.77.26-.77s.56.29.8.99c.62,1.96,2.9,6.3,6.51,8.95,2.04,1.58,5.34,3.21,7.98,3.26,1.7.03,3.13-.64,3.73-2.46.17-.52.26-1.05.27-1.66.08-4.62-4.32-11.51-8.11-15.23-3.59-3.59-9.7-7.58-14.52-7.66-1.79-.03-3.42.47-4.66,1.75-.78.8-1.13,1.93-1.15,3.31-.12,7.1,8.63,20.71,15.78,27.4,7.47,6.98,15.27,11.65,21.68,11.76,3.53.06,6.19-1.44,6.25-4.85.06-3.49-1.62-5.34-2.1-5.76-.28-.21-.6-.25-.73-.21-.16.04-.21.2-.25.52-.05.65-.88,1.33-1.68,1.07-.93-.22-1.8-1.29-1.62-2.54.05-.77.91-1.41,2.01-1.39.49,0,1.05.14,1.58.47,2.13,1.33,4.55,4.78,4.48,8.84-.08,4.62-3.36,6.8-7.98,6.73-12.94-.21-26.64-16.38-32.56-26.54-2.05-3.52-6.03-10.89-5.95-16,.02-1.42.37-2.67,1.16-3.63Z"/>
      <path class="cls-5" d="m193.98,82.37c-1.2,4.97-6.89,11.11-9.76,14.01-8.27,8.36-25.58,20.59-38.16,17.56-4.5-1.08-7.13-4.01-6.05-8.51.95-3.95,4.15-6.68,6.55-7.44.59-.19,1.17-.18,1.64-.06,1.07.26,1.74,1.09,1.6,1.85-.14,1.26-1.25,2.08-2.21,2.06-.85.05-1.47-.81-1.36-1.45.04-.33.04-.49-.11-.57-.11-.07-.43-.1-.76.03-.57.28-2.65,1.66-3.47,5.05-.8,3.31,1.4,5.43,4.84,6.26,6.23,1.5,14.95-1.07,23.93-5.96,8.6-4.69,20.47-15.69,22.13-22.59.32-1.34.27-2.52-.29-3.49-.88-1.55-2.33-2.44-4.07-2.86-4.7-1.13-11.6,1.21-15.98,3.79-4.6,2.65-10.58,8.22-11.66,12.72-.14.59-.19,1.12-.15,1.67.12,1.91,1.34,2.91,3,3.31,2.56.62,6.17-.14,8.54-1.16,4.16-1.67,7.45-5.3,8.54-7.04.4-.61.78-.81,1.02-.76s.29.36.06.81c-1.19,2.01-3.98,5.59-9.44,8.16-2.92,1.38-6.65,1.78-9.6,1.07-2.6-.63-4.62-2.12-5.05-4.51-.16-.91-.09-1.9.15-2.89,1.16-4.81,6.58-10.35,13.58-13.92,5.52-2.8,12.28-3.68,16.97-2.55,2.52.61,4.48,1.83,5.35,3.62.52,1.13.54,2.43.21,3.81Z"/>
      <path class="cls-5" d="m144.73,66.14c1.6-1.18,3.91-1.34,6.42-.69,4.67,1.21,10.23,5.16,13.79,10.22,4.5,6.44,6.68,13.88,5.45,18.67-.25.98-.65,1.88-1.22,2.62-1.5,1.92-3.98,2.28-6.58,1.61-2.95-.76-6.05-2.86-7.98-5.45-3.61-4.83-4.39-9.3-4.5-11.64,0-.5.19-.75.43-.69s.48.42.54,1.15c.14,2.05,1.34,6.8,4.23,10.23,1.62,2.01,4.44,4.37,7,5.03,1.65.43,3.2.11,4.2-1.51.29-.47.5-.96.65-1.55,1.16-4.48-1.5-12.2-4.32-16.7-2.65-4.33-7.65-9.64-12.33-10.85-1.73-.45-3.43-.34-4.94.61-.95.59-1.55,1.61-1.89,2.95-1.78,6.88,3.54,22.16,8.93,30.34,5.63,8.54,12.12,14.9,18.33,16.5,3.42.88,6.36.05,7.21-3.25.87-3.38-.32-5.57-.69-6.09-.22-.27-.53-.39-.66-.38-.17,0-.25.15-.37.45-.2.62-1.16,1.08-1.88.64-.85-.43-1.45-1.67-.98-2.85.23-.74,1.22-1.15,2.28-.88.47.12.99.38,1.42.83,1.76,1.79,3.3,5.71,2.29,9.64-1.16,4.48-4.86,5.83-9.33,4.67-12.53-3.23-22.06-22.16-25.44-33.43-1.17-3.91-3.31-12-2.04-16.95.35-1.38.98-2.51,1.97-3.26Z"/>
      <path class="cls-5" d="m208.51,94.54c-2.33,4.55-9.3,9.19-12.77,11.33-10,6.19-29.68,14.03-41.21,8.14-4.12-2.11-5.99-5.57-3.89-9.69,1.85-3.61,5.6-5.52,8.11-5.7.62-.05,1.18.1,1.61.32.98.5,1.44,1.46,1.12,2.17-.43,1.19-1.7,1.73-2.63,1.48-.83-.15-1.24-1.14-.98-1.73.11-.31.15-.47.02-.58-.09-.09-.4-.2-.74-.15-.62.14-2.97.99-4.55,4.1-1.55,3.03.09,5.61,3.24,7.21,5.71,2.92,14.79,2.46,24.66-.19,9.46-2.55,23.57-10.46,26.81-16.78.63-1.23.86-2.39.54-3.46-.49-1.71-1.7-2.92-3.29-3.73-4.3-2.2-11.56-1.54-16.42-.06-5.09,1.5-12.21,5.51-14.31,9.63-.28.54-.45,1.05-.54,1.59-.32,1.88.62,3.15,2.14,3.92,2.35,1.2,6.03,1.31,8.58.88,4.43-.65,8.49-3.41,9.95-4.85.53-.5.95-.61,1.17-.5.22.11.2.42-.13.8-1.63,1.67-5.17,4.51-11.08,5.73-3.16.66-6.88.17-9.59-1.21-2.38-1.22-4-3.14-3.85-5.57.06-.92.36-1.87.82-2.77,2.25-4.41,8.82-8.52,16.46-10.36,6.02-1.43,12.8-.7,17.1,1.5,2.31,1.18,3.93,2.83,4.35,4.78.24,1.22-.04,2.48-.69,3.75Z"/>
      <path class="cls-5" d="m164.42,67.22c1.83-.77,4.11-.39,6.4.83,4.26,2.27,8.74,7.41,11.01,13.17,2.86,7.31,3.25,15.06.92,19.43-.48.9-1.08,1.68-1.8,2.26-1.91,1.51-4.41,1.29-6.77.03-2.69-1.43-5.21-4.2-6.48-7.17-2.38-5.54-2.09-10.07-1.65-12.37.12-.49.36-.68.58-.57.21.11.37.52.26,1.24-.34,2.02-.28,6.93,1.72,10.93,1.1,2.33,3.3,5.29,5.62,6.53,1.5.8,3.08.86,4.44-.49.39-.39.71-.82,1-1.35,2.17-4.08,1.4-12.22-.29-17.25-1.57-4.83-5.18-11.17-9.44-13.43-1.58-.84-3.26-1.13-4.94-.56-1.06.35-1.88,1.21-2.53,2.42-3.33,6.27-1.75,22.37,1.58,31.58,3.48,9.62,8.29,17.33,13.95,20.34,3.12,1.66,6.17,1.54,7.77-1.47,1.64-3.08.99-5.49.75-6.08-.16-.31-.42-.5-.55-.52-.16-.04-.27.08-.46.35-.34.55-1.38.78-1.98.18-.73-.62-1.02-1.97-.29-3,.4-.66,1.46-.83,2.42-.32.43.23.87.6,1.19,1.14,1.29,2.16,1.87,6.33-.03,9.91-2.17,4.08-6.09,4.53-10.17,2.36-11.43-6.08-16.26-26.71-16.9-38.45-.22-4.07-.41-12.44,1.99-16.96.67-1.25,1.54-2.21,2.68-2.71Z"/>
      <path class="cls-5" d="m219.79,109.77c-3.33,3.88-11.19,6.76-15.07,8.03-11.17,3.68-32.15,6.69-41.97-1.73-3.51-3.01-4.52-6.82-1.51-10.33,2.64-3.08,6.74-4.06,9.22-3.64.61.1,1.12.37,1.49.69.83.71,1.06,1.76.58,2.37-.7,1.06-2.06,1.28-2.9.83-.77-.34-.94-1.39-.55-1.91.18-.27.26-.42.16-.56-.07-.11-.34-.29-.69-.32-.63,0-3.12.27-5.39,2.92-2.22,2.59-1.22,5.47,1.46,7.77,4.87,4.17,13.8,5.85,24.02,5.58,9.79-.26,25.37-4.65,29.99-10.04.9-1.05,1.39-2.12,1.33-3.24-.08-1.78-.97-3.24-2.32-4.4-3.67-3.14-10.88-4.2-15.95-3.9-5.3.26-13.16,2.5-16.17,6.01-.4.46-.68.92-.9,1.42-.76,1.76-.13,3.2,1.17,4.31,2,1.72,5.56,2.68,8.13,2.86,4.46.41,9.05-1.33,10.81-2.38.63-.37,1.06-.37,1.25-.21.18.16.09.45-.32.74-1.98,1.25-6.09,3.17-12.12,2.97-3.23-.1-6.73-1.44-9.04-3.42-2.03-1.74-3.15-3.99-2.44-6.32.28-.88.79-1.73,1.45-2.5,3.22-3.76,10.57-6.22,18.43-6.22,6.19.02,12.61,2.32,16.27,5.46,1.97,1.69,3.16,3.67,3.11,5.66-.05,1.24-.62,2.41-1.54,3.49Z"/>
      <path class="cls-5" d="m183.32,72.89c1.96-.32,4.09.59,6.03,2.31,3.61,3.2,6.76,9.25,7.62,15.38,1.07,7.78-.37,15.4-3.65,19.1-.67.76-1.44,1.38-2.28,1.77-2.21,1.02-4.58.22-6.59-1.56-2.28-2.02-4.09-5.3-4.62-8.49-1.02-5.95.33-10.28,1.29-12.41.23-.45.51-.58.69-.42.18.16.24.59-.04,1.27-.8,1.89-1.9,6.67-.89,11.03.52,2.53,1.96,5.92,3.94,7.67,1.28,1.13,2.8,1.56,4.43.57.47-.29.88-.63,1.29-1.08,3.07-3.46,4.22-11.55,3.76-16.84-.39-5.06-2.42-12.07-6.04-15.27-1.34-1.18-2.9-1.87-4.67-1.7-1.12.1-2.11.73-3.03,1.76-4.71,5.31-6.93,21.34-5.86,31.08,1.13,10.16,4,18.79,8.8,23.04,2.64,2.34,5.64,2.94,7.9.39,2.31-2.61,2.25-5.11,2.16-5.73-.08-.34-.29-.59-.41-.64-.15-.08-.29.02-.53.23-.46.46-1.53.44-1.97-.28-.56-.77-.53-2.15.42-2.99.54-.55,1.61-.47,2.43.26.36.32.71.79.89,1.38.75,2.4.34,6.59-2.35,9.63-3.07,3.46-6.98,2.98-10.44-.09-9.69-8.58-9.55-29.78-7.43-41.34.73-4.01,2.51-12.19,5.9-16.02.94-1.06,2.02-1.79,3.24-2.01Z"/>
      <path class="cls-5" d="m227.18,127.21c-4.14,2.99-12.46,3.95-16.53,4.28-11.72.96-32.82-1.02-40.4-11.51-2.71-3.75-2.8-7.69.95-10.4,3.29-2.38,7.5-2.37,9.81-1.38.57.24,1,.63,1.29,1.02.64.89.62,1.96.01,2.44-.92.87-2.3.76-3.01.12-.67-.52-.59-1.58-.09-1.99.24-.22.35-.35.29-.51-.04-.12-.26-.36-.59-.47-.61-.16-3.09-.47-5.92,1.57-2.76,2-2.47,5.04-.4,7.9,3.75,5.2,12.05,8.92,22.05,11.05,9.58,2.04,25.75,1.42,31.51-2.74,1.12-.81,1.85-1.74,2.06-2.84.34-1.75-.18-3.37-1.23-4.82-2.83-3.91-9.59-6.63-14.59-7.53-5.22-.99-13.38-.65-17.13,2.06-.49.36-.87.73-1.21,1.17-1.15,1.53-.88,3.08.12,4.47,1.54,2.14,4.78,3.91,7.24,4.68,4.24,1.44,9.11.83,11.07.22.7-.21,1.12-.11,1.26.09.14.2-.02.46-.48.65-2.21.75-6.66,1.66-12.47.05-3.12-.85-6.2-2.98-7.99-5.44-1.57-2.17-2.13-4.62-.89-6.71.48-.8,1.17-1.5,1.99-2.09,4.01-2.9,11.73-3.57,19.37-1.73,6.01,1.46,11.72,5.2,14.54,9.12,1.52,2.1,2.21,4.31,1.7,6.23-.34,1.2-1.17,2.19-2.32,3.03Z"/>
      <path class="cls-5" d="m200.37,82.82c1.98.15,3.84,1.53,5.32,3.66,2.76,3.96,4.41,10.58,3.81,16.73-.78,7.82-3.96,14.88-8.02,17.72-.83.58-1.72,1-2.63,1.19-2.39.48-4.51-.86-6.04-3.06-1.74-2.5-2.73-6.11-2.51-9.33.4-6.02,2.73-9.92,4.16-11.76.33-.38.63-.44.77-.24.14.2.09.63-.33,1.22-1.22,1.65-3.41,6.04-3.45,10.52-.08,2.58.52,6.21,2.03,8.38.98,1.4,2.35,2.17,4.18,1.59.52-.17,1-.4,1.5-.75,3.79-2.65,6.81-10.24,7.6-15.49.8-5.01.47-12.3-2.29-16.26-1.02-1.46-2.38-2.49-4.14-2.75-1.11-.17-2.22.22-3.35,1.01-5.82,4.06-11.74,19.12-12.97,28.84-1.28,10.15-.5,19.2,3.16,24.46,2.02,2.9,4.79,4.18,7.59,2.22,2.86-2,3.38-4.44,3.44-5.07,0-.35-.15-.64-.25-.72-.13-.11-.28-.05-.57.1-.55.34-1.59.07-1.85-.74-.37-.88-.01-2.22,1.11-2.8.66-.41,1.68-.08,2.3.82.28.4.5.93.54,1.55.17,2.51-1.21,6.49-4.54,8.81-3.79,2.65-7.48,1.26-10.13-2.53-7.41-10.61-2.31-31.18,2.46-41.93,1.65-3.73,5.3-11.27,9.49-14.19,1.17-.81,2.38-1.27,3.62-1.19Z"/>
      <path class="cls-5" d="m230.29,145.91c-4.73,1.94-13.04.92-17.07.29-11.62-1.81-31.67-8.68-36.58-20.65-1.75-4.28-.92-8.13,3.36-9.88,3.75-1.54,7.85-.54,9.86.95.5.37.83.84,1.01,1.29.42,1.01.14,2.05-.56,2.38-1.1.63-2.42.2-2.96-.58-.53-.66-.2-1.67.38-1.96.29-.16.42-.26.4-.43,0-.13-.17-.41-.46-.6-.56-.3-2.9-1.18-6.12.14-3.15,1.29-3.58,4.32-2.24,7.58,2.43,5.93,9.62,11.49,18.85,15.91,8.84,4.22,24.7,7.41,31.27,4.71,1.28-.52,2.21-1.25,2.66-2.28.74-1.62.61-3.32-.07-4.97-1.83-4.47-7.78-8.7-12.43-10.73-4.84-2.18-12.86-3.76-17.14-2.01-.56.23-1.02.51-1.45.86-1.47,1.22-1.57,2.79-.93,4.37,1,2.44,3.73,4.92,5.94,6.25,3.79,2.39,8.66,2.94,10.71,2.8.73-.04,1.12.16,1.21.38.09.22-.12.45-.62.52-2.33.21-6.86.05-12.14-2.87-2.83-1.56-5.33-4.35-6.49-7.16-1.02-2.48-.99-4.99.7-6.73.65-.66,1.49-1.18,2.43-1.57,4.58-1.88,12.25-.72,19.24,2.86,5.5,2.83,10.17,7.8,12,12.27.99,2.4,1.14,4.71.19,6.46-.61,1.08-1.65,1.86-2.96,2.4Z"/>
      <path class="cls-5" d="m214.61,96.47c1.89.61,3.37,2.38,4.32,4.8,1.76,4.5,1.81,11.32-.21,17.16-2.59,7.42-7.34,13.54-11.95,15.35-.94.37-1.91.57-2.84.54-2.43-.09-4.18-1.89-5.16-4.39-1.11-2.83-1.22-6.58-.25-9.66,1.8-5.76,4.97-9,6.8-10.46.41-.29.72-.28.81-.05s-.06.63-.61,1.11c-1.58,1.31-4.73,5.07-5.81,9.42-.68,2.49-.94,6.16.02,8.62.62,1.59,1.78,2.66,3.69,2.52.55-.04,1.07-.16,1.64-.38,4.31-1.68,9.02-8.36,11.01-13.28,1.96-4.69,3.34-11.85,1.58-16.34-.65-1.66-1.73-2.98-3.39-3.64-1.04-.42-2.21-.31-3.5.19-6.61,2.59-15.89,15.84-19.37,25-3.62,9.56-4.99,18.55-2.65,24.52,1.29,3.29,3.68,5.18,6.86,3.94,3.25-1.27,4.33-3.52,4.53-4.12.09-.34,0-.65-.08-.75-.1-.14-.26-.12-.58-.03-.62.2-1.56-.31-1.63-1.15-.15-.94.51-2.16,1.74-2.47.73-.24,1.65.31,2.05,1.33.18.45.27,1.03.16,1.64-.43,2.48-2.7,6.02-6.48,7.5-4.31,1.69-7.57-.52-9.25-4.83-4.71-12.05,5.05-30.86,12.2-40.19,2.48-3.24,7.79-9.71,12.55-11.58,1.32-.52,2.61-.67,3.8-.31Z"/>
      <path class="cls-5" d="m228.93,164.81c-5.05.78-12.89-2.16-16.66-3.71-10.87-4.48-28.76-15.85-30.73-28.64-.71-4.57,1.01-8.12,5.58-8.82,4.01-.62,7.76,1.31,9.37,3.24.4.47.61,1.01.68,1.5.17,1.08-.34,2.02-1.1,2.18-1.22.35-2.4-.37-2.74-1.26-.36-.76.19-1.67.83-1.81.31-.09.47-.15.48-.32.02-.13-.07-.44-.31-.69-.47-.42-2.54-1.83-5.99-1.29-3.37.52-4.49,3.36-3.95,6.85.98,6.33,6.67,13.42,14.6,19.88,7.6,6.18,22.28,12.99,29.3,11.91,1.36-.21,2.44-.7,3.12-1.59,1.1-1.4,1.37-3.09,1.1-4.85-.74-4.77-5.52-10.27-9.57-13.34-4.2-3.25-11.62-6.67-16.19-5.96-.6.09-1.11.25-1.61.49-1.72.84-2.18,2.35-1.92,4.03.4,2.61,2.47,5.65,4.31,7.46,3.12,3.21,7.73,4.88,9.75,5.23.72.13,1.05.41,1.09.65s-.23.4-.72.36c-2.31-.34-6.68-1.56-11.13-5.63-2.39-2.18-4.17-5.47-4.63-8.48-.41-2.65.2-5.08,2.26-6.38.79-.49,1.72-.8,2.73-.96,4.89-.75,12.07,2.16,18.03,7.28,4.69,4.04,8.06,9.96,8.8,14.74.4,2.57,0,4.84-1.33,6.32-.84.91-2.04,1.42-3.44,1.64Z"/>
      <path class="cls-5" d="m225.26,113.08c1.7,1.04,2.72,3.11,3.07,5.68.66,4.78-.89,11.42-4.23,16.63-4.25,6.6-10.3,11.45-15.21,12.12-1,.14-1.99.11-2.89-.14-2.34-.66-3.62-2.82-3.99-5.47-.41-3.01.35-6.68,2.02-9.45,3.1-5.18,6.94-7.59,9.06-8.58.47-.19.76-.11.8.14.03.24-.2.6-.85.94-1.84.91-5.78,3.83-7.86,7.8-1.25,2.26-2.36,5.77-2,8.38.23,1.69,1.11,3,3,3.32.54.09,1.08.1,1.68.01,4.58-.63,10.72-6.02,13.81-10.34,3-4.1,6.02-10.74,5.36-15.52-.24-1.77-.99-3.31-2.44-4.33-.91-.65-2.08-.82-3.44-.63-7.03.97-19.16,11.68-24.68,19.77-5.76,8.45-9.19,16.87-8.32,23.22.48,3.5,2.37,5.9,5.74,5.44,3.46-.48,5.03-2.41,5.37-2.95.16-.31.16-.64.1-.75-.06-.15-.23-.17-.56-.17-.65.05-1.44-.66-1.31-1.5.07-.95,1-1.98,2.27-1.99.77-.07,1.53.69,1.68,1.78.07.48.02,1.06-.23,1.63-.99,2.31-4.03,5.22-8.05,5.78-4.58.63-7.24-2.28-7.86-6.86-1.76-12.82,12.13-28.82,21.27-36.22,3.17-2.57,9.85-7.62,14.91-8.32,1.41-.19,2.7-.04,3.77.59Z"/>
      <path class="cls-5" d="m223.19,182.87c-5.09-.43-12.03-5.12-15.33-7.51-9.52-6.9-24.25-22.14-23.17-35.04.39-4.61,2.88-7.66,7.49-7.27,4.04.34,7.23,3.09,8.35,5.34.28.55.35,1.13.31,1.61-.09,1.09-.81,1.89-1.58,1.86-1.27.06-2.24-.92-2.37-1.87-.17-.83.58-1.58,1.23-1.57.33-.01.49-.04.55-.2.05-.12.04-.44-.14-.74-.36-.52-2.04-2.37-5.52-2.66-3.4-.28-5.15,2.22-5.45,5.73-.53,6.39,3.34,14.61,9.54,22.74,5.94,7.79,18.62,17.84,25.7,18.44,1.37.12,2.53-.11,3.41-.81,1.4-1.11,2.06-2.68,2.21-4.46.4-4.81-2.96-11.28-6.18-15.21-3.32-4.15-9.73-9.2-14.34-9.59-.61-.05-1.14-.01-1.68.1-1.87.41-2.67,1.77-2.81,3.47-.22,2.63,1.08,6.08,2.44,8.27,2.28,3.86,6.37,6.56,8.26,7.37.67.3.92.65.9.89s-.31.34-.79.18c-2.17-.87-6.13-3.08-9.5-8.08-1.81-2.68-2.77-6.3-2.52-9.33.22-2.67,1.39-4.89,3.69-5.68.88-.29,1.86-.37,2.87-.29,4.93.41,11.23,4.93,15.83,11.3,3.61,5.03,5.5,11.58,5.1,16.39-.22,2.59-1.13,4.71-2.77,5.84-1.03.69-2.31.91-3.73.79Z"/>
      <path class="cls-5" d="m231.73,131.71c1.41,1.41,1.92,3.66,1.66,6.24-.48,4.8-3.54,10.9-8,15.18-5.68,5.42-12.7,8.72-17.62,8.23-1.01-.1-1.96-.36-2.77-.81-2.12-1.19-2.86-3.59-2.6-6.25.3-3.03,1.91-6.42,4.17-8.72,4.22-4.31,8.53-5.75,10.82-6.22.5-.07.77.08.74.32s-.34.54-1.05.71c-2,.45-6.52,2.37-9.46,5.74-1.74,1.9-3.65,5.06-3.91,7.68-.17,1.7.38,3.18,2.14,3.92.51.21,1.03.35,1.63.41,4.6.46,11.83-3.34,15.85-6.81,3.88-3.28,8.37-9.03,8.85-13.83.18-1.78-.19-3.44-1.36-4.78-.73-.85-1.83-1.28-3.2-1.42-7.06-.71-21.36,6.87-28.62,13.45-7.58,6.87-12.88,14.25-13.52,20.62-.35,3.51.92,6.29,4.31,6.63,3.47.35,5.46-1.17,5.91-1.61.23-.26.3-.58.27-.71-.02-.17-.18-.22-.5-.29-.64-.11-1.25-.98-.92-1.77.29-.91,1.43-1.69,2.67-1.4.76.12,1.33,1.03,1.22,2.12-.05.48-.23,1.04-.6,1.53-1.51,2.01-5.14,4.13-9.18,3.73-4.6-.46-6.5-3.91-6.04-8.51,1.29-12.88,18.54-25.18,29.16-30.23,3.68-1.75,11.36-5.1,16.44-4.59,1.41.14,2.63.59,3.52,1.45Z"/>
      <path class="cls-5" d="m213.38,199.08c-4.85-1.61-10.5-7.79-13.15-10.89-7.64-8.94-18.39-27.2-14.32-39.49,1.45-4.39,4.59-6.77,8.98-5.32,3.85,1.28,6.31,4.7,6.87,7.15.14.6.08,1.18-.07,1.64-.34,1.04-1.23,1.65-1.97,1.44-1.25-.24-1.97-1.42-1.87-2.37.02-.85.93-1.4,1.56-1.24.32.06.49.08.58-.07.08-.1.14-.42.04-.76-.23-.59-1.43-2.78-4.74-3.88-3.24-1.07-5.53.95-6.64,4.3-2.01,6.08-.17,14.99,3.95,24.34,3.96,8.96,13.93,21.71,20.67,23.94,1.31.43,2.49.48,3.5,0,1.62-.75,2.63-2.12,3.19-3.82,1.52-4.58-.24-11.66-2.44-16.24-2.25-4.81-7.31-11.23-11.7-12.68-.58-.19-1.1-.28-1.66-.29-1.91-.03-3.01,1.1-3.55,2.71-.83,2.5-.37,6.16.44,8.61,1.32,4.28,4.66,7.87,6.3,9.1.58.45.75.85.67,1.08-.08.23-.38.26-.81-.01-1.9-1.36-5.24-4.43-7.35-10.08-1.14-3.03-1.22-6.77-.26-9.66.84-2.54,2.49-4.43,4.92-4.65.92-.08,1.9.07,2.86.39,4.7,1.56,9.77,7.42,12.74,14.69,2.33,5.73,2.64,12.54,1.12,17.13-.82,2.46-2.2,4.31-4.06,5.02-1.17.43-2.46.34-3.81-.11Z"/>
      <path class="cls-5" d="m233.66,151.35c1.04,1.7,1.01,4,.15,6.46-1.59,4.56-5.99,9.77-11.34,12.89-6.79,3.94-14.39,5.5-19.06,3.87-.96-.33-1.82-.81-2.51-1.44-1.79-1.65-1.94-4.16-1.06-6.69,1-2.87,3.36-5.79,6.1-7.5,5.12-3.2,9.64-3.6,11.97-3.51.5.04.73.25.65.48-.08.23-.46.44-1.19.45-2.05-.03-6.89.77-10.54,3.37-2.14,1.44-4.73,4.06-5.6,6.55-.56,1.61-.38,3.18,1.16,4.32.44.33.92.58,1.49.78,4.37,1.53,12.29-.48,17.01-2.91,4.54-2.28,10.25-6.82,11.84-11.38.59-1.68.63-3.39-.2-4.97-.51-1-1.48-1.68-2.78-2.13-6.7-2.34-22.38,1.68-30.98,6.37-8.98,4.9-15.86,10.83-17.97,16.89-1.16,3.33-.58,6.33,2.64,7.45,3.29,1.15,5.58.14,6.12-.18.29-.2.43-.49.43-.62.02-.17-.12-.26-.42-.4-.6-.25-.98-1.25-.49-1.93.5-.81,1.79-1.31,2.92-.74.71.29,1.05,1.31.68,2.35-.16.46-.46.96-.94,1.35-1.94,1.6-5.97,2.81-9.8,1.48-4.37-1.53-5.4-5.32-3.88-9.69,4.27-12.22,23.92-20.14,35.43-22.56,3.99-.84,12.24-2.3,17.06-.62,1.34.47,2.42,1.19,3.09,2.24Z"/>
      <path class="cls-5" d="m200.04,212.54c-4.34-2.7-8.38-10.03-10.23-13.67-5.33-10.48-11.51-30.75-4.68-41.74,2.44-3.93,6.05-5.51,9.98-3.07,3.45,2.14,5.04,6.04,5,8.55,0,.62-.2,1.17-.46,1.58-.58.93-1.58,1.31-2.26.94-1.15-.53-1.58-1.84-1.26-2.74.22-.82,1.23-1.14,1.81-.84.3.14.46.19.58.07.1-.08.23-.38.21-.73-.09-.63-.74-3.04-3.7-4.88-2.89-1.8-5.6-.37-7.46,2.62-3.38,5.44-3.68,14.53-1.86,24.59,1.75,9.64,8.46,24.36,14.49,28.11,1.17.73,2.31,1.05,3.4.83,1.75-.35,3.05-1.45,3.99-2.96,2.55-4.1,2.5-11.4,1.42-16.36-1.07-5.2-4.48-12.62-8.41-15.07-.52-.32-1.01-.53-1.54-.67-1.85-.48-3.19.36-4.09,1.81-1.39,2.24-1.8,5.9-1.59,8.47.28,4.47,2.69,8.74,4,10.32.46.57.53,1,.4,1.2-.13.21-.43.16-.78-.2-1.53-1.76-4.06-5.53-4.78-11.52-.4-3.21.4-6.87,2.01-9.45,1.41-2.27,3.46-3.72,5.87-3.37.92.14,1.83.52,2.69,1.05,4.2,2.61,7.76,9.5,8.95,17.27.93,6.12-.37,12.81-2.92,16.91-1.37,2.21-3.15,3.68-5.12,3.93-1.23.14-2.47-.25-3.68-1Z"/>
      <path class="cls-5" d="m230.94,170.89c.61,1.89.04,4.13-1.36,6.31-2.62,4.06-8.11,8.1-14.04,9.88-7.53,2.24-15.28,1.98-19.44-.7-.85-.55-1.58-1.21-2.1-1.98-1.35-2.03-.92-4.5.54-6.75,1.65-2.56,4.62-4.84,7.69-5.86,5.72-1.91,10.21-1.24,12.46-.61.48.16.65.42.52.62-.13.2-.55.32-1.26.15-1.99-.51-6.88-.86-11.04.8-2.42.9-5.55,2.84-6.98,5.06-.92,1.43-1.11,3,.12,4.47.36.42.75.78,1.27,1.11,3.89,2.51,12.06,2.41,17.21,1.15,4.94-1.16,11.56-4.23,14.17-8.29.97-1.5,1.4-3.15.97-4.88-.27-1.09-1.04-1.98-2.21-2.72-5.97-3.85-22.15-3.6-31.61-1.06-9.87,2.66-17.96,6.82-21.43,12.21-1.91,2.97-2.04,6.02.82,7.87,2.93,1.89,5.39,1.45,6,1.26.32-.13.53-.38.57-.5.05-.16-.06-.28-.31-.49-.52-.39-.66-1.44-.02-1.99.68-.67,2.05-.85,3.02-.04.63.45.71,1.52.12,2.44-.26.41-.67.82-1.23,1.09-2.26,1.1-6.46,1.34-9.87-.86-3.89-2.5-4.01-6.44-1.5-10.33,7.01-10.88,27.97-13.98,39.73-13.64,4.08.12,12.44.63,16.73,3.4,1.19.77,2.08,1.72,2.48,2.9Z"/>
      <path class="cls-5" d="m183.93,222.51c-3.59-3.64-5.8-11.72-6.75-15.68-2.73-11.44-3.99-32.59,5.23-41.68,3.29-3.25,7.17-3.94,10.42-.64,2.85,2.89,3.48,7.05,2.86,9.49-.15.6-.47,1.09-.81,1.43-.78.77-1.84.91-2.41.38-1-.78-1.1-2.16-.58-2.96.41-.74,1.47-.82,1.95-.39.26.2.4.29.54.2.12-.06.32-.31.38-.66.06-.63,0-3.13-2.46-5.61-2.39-2.43-5.35-1.67-7.87.81-4.56,4.5-6.98,13.26-7.57,23.47-.56,9.78,2.52,25.67,7.5,30.72.97.98,2,1.56,3.12,1.6,1.78.07,3.3-.69,4.58-1.95,3.44-3.39,5.09-10.49,5.21-15.57.18-5.31-1.4-13.32-4.64-16.62-.43-.43-.86-.75-1.34-1.01-1.69-.9-3.18-.4-4.4.8-1.88,1.85-3.14,5.31-3.53,7.86-.78,4.41.57,9.13,1.47,10.97.31.66.28,1.09.11,1.26-.17.17-.46.05-.71-.38-1.08-2.07-2.65-6.33-1.95-12.32.37-3.21,2-6.58,4.16-8.72,1.91-1.88,4.24-2.81,6.5-1.91.86.35,1.66.93,2.37,1.65,3.48,3.52,5.32,11.06,4.66,18.88-.53,6.17-3.36,12.37-6.8,15.76-1.85,1.82-3.92,2.84-5.9,2.63-1.23-.15-2.35-.82-3.34-1.83Z"/>
      <path class="cls-5" d="m223.72,189.24c.16,1.98-.92,4.02-2.8,5.82-3.49,3.33-9.78,5.97-15.96,6.32-7.84.42-15.32-1.65-18.73-5.23-.7-.73-1.25-1.55-1.58-2.42-.84-2.29.16-4.59,2.1-6.44,2.2-2.1,5.62-3.63,8.84-3.9,6.01-.52,10.22,1.18,12.26,2.32.42.27.53.56.36.73-.18.17-.61.19-1.26-.14-1.81-.96-6.49-2.45-10.92-1.8-2.56.31-6.06,1.46-7.97,3.29-1.23,1.18-1.78,2.66-.93,4.37.25.49.55.93.97,1.37,3.19,3.35,11.16,5.17,16.47,5.15,5.08.03,12.23-1.41,15.72-4.74,1.29-1.23,2.1-2.73,2.09-4.51,0-1.12-.55-2.16-1.5-3.16-4.9-5.14-20.69-8.69-30.48-8.43-10.22.28-19.05,2.43-23.69,6.85-2.55,2.44-3.4,5.37-1.04,7.84,2.41,2.52,4.9,2.67,5.54,2.63.35-.05.61-.24.67-.36.09-.14,0-.29-.19-.55-.42-.5-.31-1.56.45-1.94.81-.5,2.19-.35,2.94.67.5.59.33,1.64-.46,2.4-.35.34-.85.64-1.45.77-2.45.55-6.6-.21-9.4-3.15-3.19-3.35-2.39-7.2.96-10.39,9.36-8.94,30.47-7.04,41.82-3.96,3.94,1.07,11.94,3.52,15.47,7.22.98,1.03,1.61,2.16,1.73,3.4Z"/>
      <path class="cls-5" d="m165.93,228.42c-2.64-4.38-2.9-12.75-2.89-16.83.02-11.76,3.75-32.62,14.84-39.3,3.96-2.39,7.89-2.15,10.28,1.81,2.09,3.48,1.73,7.67.56,9.89-.28.55-.71.95-1.12,1.2-.94.56-2,.45-2.44-.19-.79-.99-.57-2.36.13-3.01.57-.63,1.62-.46,1.99.08.2.26.32.38.48.33.12-.03.38-.23.52-.55.21-.6.72-3.04-1.08-6.03-1.76-2.92-4.81-2.88-7.84-1.06-5.49,3.31-9.89,11.26-12.85,21.05-2.83,9.38-3.56,25.54.1,31.62.71,1.18,1.58,1.99,2.66,2.29,1.71.48,3.38.1,4.9-.82,4.14-2.49,7.41-9.01,8.72-13.92,1.42-5.12,1.76-13.28-.63-17.24-.31-.52-.66-.93-1.07-1.3-1.43-1.27-3-1.13-4.46-.25-2.26,1.36-4.29,4.43-5.27,6.82-1.79,4.11-1.59,9.01-1.14,11.01.15.72.02,1.13-.19,1.25-.21.12-.46-.06-.61-.54-.56-2.27-1.1-6.78.99-12.44,1.11-3.04,3.48-5.93,6.09-7.5,2.29-1.38,4.78-1.74,6.76-.33.75.54,1.39,1.29,1.92,2.16,2.55,4.24,2.58,11.99.11,19.45-1.96,5.87-6.16,11.24-10.3,13.73-2.22,1.34-4.48,1.84-6.35,1.17-1.16-.44-2.09-1.35-2.82-2.56Z"/>
      <path class="cls-5" d="m212.4,205.4c-.31,1.96-1.84,3.7-4.09,5-4.18,2.42-10.91,3.51-17,2.4-7.72-1.43-14.5-5.19-16.99-9.47-.51-.88-.86-1.8-.97-2.72-.28-2.42,1.23-4.42,3.55-5.77,2.63-1.53,6.32-2.21,9.51-1.72,5.97.9,9.66,3.54,11.37,5.13.35.36.39.67.18.79-.21.12-.63.04-1.19-.43-1.54-1.36-5.73-3.9-10.19-4.31-2.56-.3-6.23,0-8.52,1.33-1.47.85-2.36,2.16-1.93,4.03.12.54.32,1.03.62,1.56,2.32,4,9.64,7.64,14.8,8.86,4.93,1.22,12.22,1.49,16.39-.93,1.54-.9,2.68-2.17,3.08-3.9.26-1.09-.03-2.23-.72-3.43-3.56-6.14-18.08-13.29-27.66-15.33-10-2.12-19.09-2.1-24.64,1.11-3.05,1.77-4.56,4.43-2.85,7.38,1.75,3.02,4.14,3.74,4.77,3.85.35.03.65-.09.73-.19.12-.12.07-.28-.05-.58-.29-.58.07-1.59.89-1.78.91-.29,2.21.17,2.7,1.34.35.69-.06,1.68-1.01,2.23-.42.24-.97.42-1.59.41-2.51-.04-6.36-1.75-8.4-5.26-2.32-4-.63-7.56,3.37-9.88,11.2-6.5,31.27.29,41.58,5.94,3.58,1.96,10.79,6.22,13.35,10.64.71,1.23,1.06,2.48.88,3.71Z"/>
      <path class="cls-5" d="m147.04,229.96c-1.54-4.88.17-13.07,1.13-17.04,2.78-11.43,11.29-30.83,23.63-34.73,4.41-1.39,8.18-.24,9.57,4.17,1.22,3.87-.11,7.86-1.77,9.75-.41.47-.91.75-1.37.9-1.04.33-2.05-.03-2.32-.76-.53-1.15,0-2.42.83-2.9.7-.48,1.68-.06,1.92.54.14.3.22.44.39.43.13,0,.43-.13.64-.41.34-.53,1.42-2.79.37-6.11-1.03-3.25-4-3.93-7.37-2.86-6.11,1.93-12.25,8.63-17.42,17.45-4.95,8.45-9.44,24-7.31,30.77.42,1.32,1.07,2.3,2.05,2.84,1.55.87,3.26.89,4.96.35,4.6-1.45,9.31-7.02,11.73-11.49,2.58-4.64,4.82-12.5,3.43-16.91-.18-.58-.42-1.06-.73-1.51-1.09-1.57-2.65-1.8-4.28-1.29-2.51.79-5.21,3.3-6.72,5.4-2.7,3.58-3.65,8.38-3.68,10.44-.02.73-.25,1.1-.48,1.17s-.43-.16-.46-.66c-.01-2.34.52-6.84,3.87-11.86,1.79-2.69,4.78-4.95,7.68-5.87,2.55-.81,5.05-.57,6.65,1.26.61.7,1.05,1.58,1.36,2.55,1.49,4.72-.3,12.26-4.45,18.93-3.28,5.25-8.62,9.49-13.23,10.94-2.48.78-4.78.74-6.45-.35-1.03-.7-1.72-1.8-2.14-3.15Z"/>
      <path class="cls-5" d="m197.61,218.46c-.77,1.84-2.66,3.16-5.14,3.9-4.63,1.38-11.43.86-17.09-1.64-7.17-3.2-12.88-8.44-14.3-13.18-.29-.97-.41-1.95-.3-2.87.3-2.42,2.23-4.01,4.8-4.77,2.92-.87,6.66-.67,9.65.56,5.59,2.27,8.56,5.71,9.86,7.65.26.43.22.74-.01.81-.23.07-.62-.11-1.06-.7-1.18-1.68-4.66-5.13-8.9-6.58-2.42-.89-6.06-1.45-8.59-.7-1.63.49-2.8,1.55-2.82,3.46,0,.55.07,1.08.24,1.66,1.32,4.43,7.58,9.68,12.32,12.08,4.51,2.34,11.53,4.31,16.16,2.94,1.71-.51,3.12-1.48,3.91-3.07.51-1,.49-2.18.1-3.5-2.03-6.8-14.46-17.16-23.3-21.38-9.23-4.41-18.07-6.51-24.21-4.69-3.38,1.01-5.47,3.24-4.5,6.5,1,3.34,3.15,4.61,3.73,4.86.33.11.65.06.76-.01.14-.09.14-.25.08-.57-.15-.63.44-1.53,1.28-1.52.95-.07,2.11.68,2.31,1.94.18.75-.45,1.62-1.5,1.93-.46.14-1.04.18-1.64.02-2.43-.63-5.78-3.19-6.93-7.08-1.32-4.43,1.15-7.5,5.59-8.82,12.4-3.69,30.33,7.6,39.04,15.51,3.02,2.74,9.03,8.57,10.49,13.47.41,1.36.45,2.66,0,3.81Z"/>
      <path class="cls-5" d="m128.32,227.04c-.35-5.1,3.23-12.67,5.09-16.3,5.37-10.46,18.19-27.34,31.1-28.23,4.61-.32,8.01,1.68,8.33,6.29.28,4.05-1.95,7.62-4.01,9.06-.5.36-1.06.52-1.55.56-1.09.08-1.99-.51-2.08-1.28-.25-1.24.57-2.36,1.48-2.62.79-.3,1.65.33,1.74.98.06.32.12.48.28.51.12.03.45-.03.71-.25.46-.44,2.03-2.38,1.79-5.86-.24-3.4-2.97-4.75-6.5-4.51-6.39.44-13.93,5.52-21.03,12.89-6.79,7.06-14.8,21.12-14.31,28.2.1,1.38.5,2.49,1.32,3.24,1.3,1.21,2.96,1.62,4.74,1.5,4.82-.33,10.7-4.65,14.1-8.42,3.59-3.91,7.61-11.02,7.29-15.64-.04-.61-.16-1.13-.36-1.64-.69-1.78-2.16-2.37-3.86-2.25-2.63.18-5.84,1.99-7.8,3.67-3.46,2.84-5.51,7.3-6.03,9.29-.19.7-.5,1.01-.74,1.03s-.38-.26-.3-.75c.53-2.27,2.11-6.53,6.54-10.62,2.37-2.2,5.8-3.7,8.84-3.91,2.67-.19,5.05.62,6.17,2.78.42.82.65,1.78.72,2.8.34,4.94-3.16,11.85-8.76,17.37-4.42,4.33-10.6,7.2-15.42,7.54-2.59.18-4.83-.4-6.19-1.85-.84-.92-1.25-2.15-1.35-3.57Z"/>
      <path class="cls-5" d="m180.18,227.69c-1.17,1.61-3.32,2.45-5.92,2.59-4.82.26-11.31-1.84-16.23-5.6-6.23-4.79-10.55-11.22-10.81-16.16-.05-1.01.06-1.99.38-2.86.85-2.28,3.11-3.38,5.78-3.52,3.04-.16,6.63.91,9.25,2.8,4.9,3.52,6.98,7.55,7.79,9.74.15.48.04.77-.2.78-.24.01-.58-.25-.86-.93-.75-1.91-3.33-6.08-7.11-8.48-2.15-1.43-5.55-2.83-8.19-2.69-1.7.09-3.08.85-3.55,2.71-.13.54-.19,1.07-.15,1.67.25,4.62,5.11,11.19,9.15,14.63,3.83,3.33,10.2,6.89,15.02,6.64,1.78-.09,3.38-.71,4.52-2.07.73-.85.99-2,.92-3.38-.38-7.09-10.05-20.06-17.65-26.24-7.94-6.44-16.04-10.56-22.44-10.22-3.53.19-6.08,1.87-5.9,5.27.19,3.48,1.98,5.22,2.49,5.6.29.19.62.21.74.16.16-.05.19-.21.21-.54,0-.65.78-1.38,1.6-1.18.94.15,1.89,1.16,1.79,2.42,0,.77-.82,1.47-1.91,1.52-.49.03-1.06-.07-1.6-.36-2.22-1.18-4.87-4.45-5.08-8.51-.25-4.62,2.88-7.02,7.5-7.27,12.92-.69,27.71,14.49,34.32,24.22,2.29,3.37,6.77,10.45,7.04,15.55.08,1.42-.18,2.69-.9,3.7Z"/>
      <path class="cls-5" d="m110.8,219.81c.85-5.04,6.1-11.56,8.76-14.65,7.67-8.91,24.08-22.32,36.85-20.17,4.56.77,7.39,3.51,6.62,8.07-.67,4-3.68,6.95-6.02,7.87-.57.23-1.15.26-1.63.18-1.08-.18-1.81-.96-1.72-1.73.05-1.27,1.1-2.16,2.06-2.2.84-.11,1.53.71,1.46,1.36-.01.33,0,.49.15.56.11.06.44.07.75-.08.55-.32,2.53-1.84,3.11-5.28.57-3.36-1.78-5.32-5.26-5.91-6.32-1.06-14.84,2.11-23.46,7.61-8.25,5.28-19.33,17.07-20.51,24.07-.23,1.36-.1,2.53.53,3.46.99,1.48,2.5,2.27,4.26,2.57,4.76.8,11.49-2.01,15.68-4.89,4.41-2.96,9.98-8.93,10.75-13.5.1-.6.11-1.13.04-1.68-.26-1.89-1.54-2.81-3.22-3.09-2.6-.44-6.15.57-8.44,1.75-4.03,1.95-7.07,5.8-8.03,7.62-.35.64-.72.87-.96.82-.24-.04-.31-.34-.11-.8,1.05-2.09,3.58-5.86,8.85-8.8,2.82-1.58,6.51-2.24,9.51-1.73,2.64.45,4.76,1.79,5.35,4.15.22.9.22,1.89.05,2.89-.82,4.88-5.85,10.78-12.58,14.83-5.31,3.18-11.99,4.52-16.76,3.72-2.56-.43-4.6-1.51-5.58-3.24-.6-1.09-.71-2.38-.47-3.78Z"/>
      <path class="cls-5" d="m161.07,232.59c-1.52,1.29-3.8,1.61-6.36,1.13-4.75-.88-10.57-4.43-14.46-9.24-4.93-6.11-7.63-13.38-6.73-18.25.19-1,.52-1.92,1.04-2.7,1.36-2.02,3.81-2.55,6.45-2.07,2.99.55,6.23,2.43,8.34,4.89,3.94,4.57,5.02,8.98,5.29,11.3.03.5-.14.76-.38.71-.24-.04-.51-.38-.62-1.11-.28-2.03-1.81-6.69-4.93-9.91-1.75-1.89-4.74-4.05-7.33-4.54-1.68-.31-3.2.11-4.09,1.8-.25.49-.43.99-.54,1.59-.84,4.55,2.34,12.07,5.47,16.36,2.95,4.14,8.3,9.09,13.05,9.97,1.76.33,3.45.1,4.88-.95.91-.66,1.43-1.72,1.68-3.07,1.29-6.98-5.07-21.86-11.01-29.64-6.21-8.12-13.12-14.03-19.43-15.2-3.47-.64-6.34.39-6.96,3.75-.64,3.43.71,5.54,1.11,6.02.24.25.55.35.68.33.17,0,.24-.16.33-.47.16-.63,1.08-1.16,1.84-.77.88.37,1.57,1.57,1.18,2.78-.18.75-1.14,1.23-2.21,1.03-.48-.09-1.02-.31-1.47-.73-1.88-1.67-3.69-5.47-2.95-9.46.84-4.55,4.44-6.15,8.99-5.31,12.73,2.36,23.54,20.58,27.7,31.58,1.44,3.81,4.14,11.74,3.21,16.77-.26,1.4-.81,2.57-1.74,3.39Z"/>
      <path class="cls-5" d="m95.47,208.68c2-4.7,8.64-9.81,11.95-12.19,9.55-6.87,28.64-16.06,40.54-10.98,4.25,1.82,6.36,5.14,4.55,9.4-1.59,3.73-5.21,5.9-7.69,6.25-.61.09-1.18-.02-1.63-.21-1.01-.43-1.54-1.36-1.27-2.09.34-1.22,1.58-1.84,2.52-1.66.84.09,1.32,1.05,1.1,1.66-.09.31-.12.48.02.58.1.08.41.17.75.1.61-.18,2.89-1.19,4.26-4.4,1.34-3.13-.48-5.59-3.73-6.97-5.9-2.52-14.92-1.42-24.59,1.91-9.26,3.2-22.79,12.07-25.58,18.6-.54,1.27-.69,2.44-.3,3.49.61,1.67,1.9,2.79,3.54,3.5,4.44,1.89,11.64.73,16.39-1.08,4.98-1.85,11.79-6.35,13.61-10.6.24-.56.37-1.08.43-1.62.19-1.9-.84-3.09-2.41-3.76-2.43-1.03-6.11-.88-8.61-.28-4.38.96-8.23,3.99-9.59,5.52-.49.54-.9.67-1.13.58s-.22-.4.08-.8c1.51-1.78,4.85-4.86,10.66-6.48,3.11-.88,6.85-.65,9.65.54,2.46,1.05,4.21,2.85,4.23,5.29,0,.93-.23,1.89-.63,2.82-1.94,4.55-8.21,9.11-15.7,11.48-5.91,1.85-12.72,1.59-17.16-.31-2.39-1.02-4.12-2.55-4.67-4.46-.33-1.2-.13-2.48.43-3.79Z"/>
      <path class="cls-5" d="m141.34,232.87c-1.78.9-4.07.67-6.45-.39-4.41-1.97-9.24-6.78-11.9-12.37-3.36-7.1-4.29-14.79-2.27-19.32.41-.93.96-1.75,1.64-2.38,1.8-1.64,4.31-1.59,6.75-.5,2.78,1.24,5.49,3.83,6.96,6.7,2.76,5.36,2.78,9.9,2.5,12.22-.09.49-.31.7-.54.6-.22-.1-.4-.49-.34-1.22.2-2.04-.2-6.93-2.47-10.79-1.26-2.25-3.66-5.05-6.06-6.13-1.56-.69-3.13-.64-4.4.79-.36.42-.65.86-.9,1.42-1.88,4.22-.55,12.28,1.49,17.19,1.9,4.71,5.94,10.78,10.35,12.75,1.63.73,3.33.91,4.97.22,1.03-.43,1.79-1.33,2.35-2.59,2.89-6.48.19-22.44-3.77-31.4-4.14-9.35-9.47-16.71-15.33-19.32-3.22-1.44-6.26-1.1-7.65,2.01-1.42,3.19-.61,5.55-.33,6.12.18.3.46.47.58.48.17.03.27-.1.44-.38.3-.58,1.32-.88,1.97-.32.77.56,1.16,1.89.49,2.97-.35.69-1.39.93-2.39.49-.44-.2-.91-.54-1.26-1.05-1.44-2.06-2.31-6.18-.65-9.89,1.88-4.22,5.76-4.94,9.98-3.06,11.82,5.27,18.07,25.52,19.53,37.19.51,4.05,1.27,12.38-.81,17.05-.58,1.3-1.39,2.31-2.49,2.89Z"/>
      <path class="cls-5" d="m83.16,194.27c3.05-4.1,10.7-7.52,14.47-9.06,10.89-4.44,31.6-8.91,41.99-1.18,3.71,2.76,4.98,6.49,2.22,10.2-2.42,3.26-6.44,4.51-8.94,4.27-.62-.05-1.15-.3-1.54-.59-.88-.65-1.18-1.68-.75-2.33.62-1.11,1.97-1.42,2.83-1.03.8.29,1.04,1.33.68,1.87-.16.28-.23.44-.12.57.07.11.36.27.71.27.63-.04,3.09-.48,5.17-3.28,2.04-2.74.84-5.55-1.99-7.65-5.14-3.83-14.17-4.88-24.35-3.9-9.75.94-24.98,6.4-29.22,12.09-.82,1.11-1.24,2.21-1.11,3.32.2,1.77,1.19,3.16,2.62,4.23,3.87,2.88,11.15,3.44,16.18,2.78,5.27-.63,12.95-3.41,15.71-7.12.36-.49.61-.96.8-1.48.63-1.8-.09-3.21-1.46-4.22-2.12-1.57-5.73-2.29-8.31-2.29-4.48-.1-8.94,1.95-10.62,3.12-.61.41-1.04.44-1.23.3-.19-.14-.12-.45.26-.76,1.89-1.38,5.85-3.58,11.88-3.8,3.23-.13,6.81.97,9.25,2.79,2.15,1.6,3.42,3.76,2.87,6.13-.22.9-.67,1.78-1.27,2.59-2.96,3.97-10.12,6.94-17.95,7.48-6.17.41-12.74-1.43-16.61-4.32-2.08-1.55-3.41-3.44-3.49-5.43-.04-1.24.45-2.44,1.3-3.58Z"/>
      <path class="cls-5" d="m122.09,228.53c-1.94.46-4.12-.3-6.18-1.88-3.83-2.95-7.39-8.76-8.67-14.81-1.61-7.69-.7-15.39,2.31-19.31.62-.8,1.34-1.48,2.15-1.93,2.13-1.18,4.56-.54,6.68,1.1,2.41,1.86,4.44,5,5.2,8.15,1.43,5.86.38,10.28-.43,12.47-.2.46-.47.61-.66.46-.19-.15-.28-.57-.05-1.27.67-1.94,1.43-6.78.12-11.07-.7-2.48-2.37-5.77-4.46-7.38-1.35-1.04-2.9-1.36-4.46-.26-.45.32-.84.69-1.21,1.17-2.82,3.67-3.41,11.81-2.58,17.06.74,5.02,3.25,11.87,7.08,14.82,1.42,1.09,3.02,1.66,4.78,1.37,1.11-.17,2.06-.88,2.9-1.97,4.33-5.63,5.44-21.77,3.69-31.41-1.83-10.06-5.3-18.46-10.38-22.37-2.8-2.15-5.83-2.54-7.91.16-2.13,2.77-1.89,5.25-1.75,5.87.1.33.33.56.46.61.15.07.28-.04.51-.27.43-.49,1.49-.54,1.99.15.62.73.68,2.11-.22,3.01-.5.59-1.57.58-2.44-.09-.38-.3-.76-.74-.98-1.32-.91-2.34-.8-6.55,1.68-9.77,2.82-3.67,6.75-3.46,10.42-.63,10.26,7.89,11.59,29.04,10.28,40.73-.46,4.05-1.66,12.34-4.78,16.39-.87,1.13-1.89,1.92-3.1,2.23Z"/>
      <path class="cls-5" d="m74.57,177.38c3.93-3.27,12.16-4.8,16.19-5.42,11.63-1.77,32.81-1.26,41.1,8.68,2.96,3.55,3.33,7.47-.23,10.44-3.12,2.6-7.32,2.88-9.69,2.06-.59-.2-1.04-.56-1.36-.93-.7-.84-.75-1.91-.18-2.44.86-.93,2.24-.92,3-.33.71.47.7,1.53.22,1.98-.22.24-.32.37-.25.52.05.12.29.34.62.43.62.11,3.12.25,5.8-1.98,2.62-2.18,2.11-5.2-.15-7.91-4.1-4.92-12.64-8.06-22.76-9.5-9.7-1.37-25.79.37-31.24,4.92-1.06.88-1.72,1.86-1.85,2.97-.22,1.77.42,3.35,1.56,4.72,3.09,3.71,10.03,5.95,15.08,6.5,5.27.62,13.39-.28,16.95-3.25.47-.39.82-.79,1.12-1.25,1.04-1.61.66-3.14-.43-4.45-1.69-2.03-5.04-3.57-7.54-4.17-4.33-1.14-9.14-.2-11.05.55-.69.25-1.11.19-1.27,0-.16-.19-.02-.46.44-.68,2.16-.9,6.53-2.12,12.44-.92,3.17.63,6.4,2.54,8.34,4.88,1.71,2.06,2.45,4.46,1.36,6.63-.42.83-1.06,1.57-1.84,2.22-3.8,3.17-11.46,4.38-19.21,3.07-6.1-1.04-12.05-4.38-15.14-8.09-1.66-1.99-2.5-4.14-2.13-6.1.25-1.22,1.01-2.27,2.1-3.18Z"/>
      <path class="cls-5" d="m104.4,219.8c-1.99-.01-3.93-1.26-5.56-3.28-3.03-3.76-5.13-10.25-4.96-16.43.24-7.85,2.92-15.12,6.77-18.23.79-.64,1.65-1.12,2.54-1.37,2.35-.64,4.56.54,6.24,2.63,1.91,2.37,3.15,5.91,3.15,9.14.02,6.03-2.03,10.08-3.34,12.02-.3.4-.6.48-.75.29-.15-.19-.14-.62.25-1.24,1.11-1.73,2.98-6.26,2.71-10.73-.1-2.58-.95-6.16-2.61-8.21-1.07-1.33-2.5-2-4.28-1.29-.51.21-.97.47-1.45.85-3.6,2.9-6.08,10.69-6.5,15.98-.46,5.06.38,12.3,3.41,16.06,1.12,1.39,2.55,2.32,4.33,2.46,1.12.09,2.2-.37,3.28-1.24,5.53-4.46,10.38-19.89,10.94-29.67.57-10.21-.83-19.19-4.85-24.18-2.22-2.75-5.07-3.83-7.72-1.69-2.72,2.19-3.07,4.66-3.08,5.3.02.35.19.63.3.7.13.1.29.03.56-.14.53-.38,1.58-.18,1.9.61.43.85.17,2.21-.91,2.87-.62.45-1.67.2-2.35-.66-.31-.38-.57-.9-.65-1.51-.34-2.49.76-6.55,3.92-9.1,3.6-2.9,7.38-1.78,10.28,1.82,8.12,10.08,4.47,30.95.46,42-1.39,3.83-4.5,11.61-8.48,14.82-1.11.89-2.29,1.43-3.53,1.44Z"/>
      <path class="cls-5" d="m70.17,158.95c4.58-2.26,12.95-1.82,17.01-1.47,11.72,1,32.19,6.46,37.92,18.06,2.05,4.15,1.48,8.05-2.66,10.09-3.64,1.8-7.79,1.09-9.91-.27-.52-.33-.88-.79-1.1-1.22-.48-.98-.28-2.04.39-2.41,1.06-.7,2.4-.37,2.99.38.58.62.32,1.65-.25,1.98-.27.18-.4.29-.37.45.02.13.2.4.5.56.58.26,2.97.98,6.1-.57,3.06-1.51,3.27-4.56,1.71-7.72-2.84-5.75-10.4-10.79-19.91-14.56-9.11-3.6-25.16-5.68-31.52-2.53-1.24.61-2.11,1.4-2.5,2.45-.62,1.67-.38,3.36.41,4.96,2.14,4.33,8.36,8.13,13.14,9.85,4.98,1.84,13.09,2.86,17.23.81.55-.27.98-.58,1.38-.95,1.38-1.32,1.38-2.9.62-4.43-1.17-2.36-4.06-4.65-6.36-5.82-3.95-2.12-8.84-2.33-10.88-2.05-.73.09-1.12-.08-1.23-.3-.11-.22.09-.45.58-.56,2.31-.37,6.84-.53,12.31,2.02,2.93,1.36,5.62,3.97,6.97,6.69,1.19,2.4,1.34,4.9-.23,6.77-.6.71-1.4,1.28-2.31,1.73-4.44,2.19-12.17,1.57-19.39-1.51-5.69-2.44-10.69-7.08-12.83-11.41-1.15-2.33-1.46-4.62-.64-6.43.53-1.12,1.52-1.97,2.79-2.6Z"/>
      <path class="cls-5" d="m89.24,207.17c-1.93-.48-3.53-2.14-4.64-4.49-2.07-4.36-2.59-11.16-.98-17.14,2.07-7.58,6.38-14.02,10.85-16.14.92-.43,1.87-.7,2.79-.74,2.43-.08,4.3,1.6,5.45,4.02,1.3,2.75,1.68,6.48.92,9.62-1.4,5.87-4.34,9.33-6.06,10.91-.39.32-.7.33-.8.11s.01-.63.53-1.15c1.48-1.42,4.36-5.39,5.15-9.8.51-2.53.51-6.21-.61-8.6-.73-1.54-1.96-2.53-3.85-2.26-.55.08-1.06.23-1.61.49-4.18,1.98-8.41,8.97-10.06,14.01-1.63,4.81-2.51,12.05-.44,16.42.76,1.61,1.94,2.85,3.63,3.4,1.06.35,2.23.16,3.48-.43,6.42-3.04,14.75-16.91,17.58-26.29,2.95-9.79,3.69-18.85.94-24.64-1.51-3.19-4.03-4.91-7.11-3.46-3.15,1.49-4.07,3.82-4.23,4.43-.06.34.04.65.13.75.11.13.27.1.58,0,.6-.24,1.58.2,1.7,1.04.22.93-.35,2.19-1.56,2.58-.71.29-1.67-.2-2.13-1.19-.21-.44-.34-1.01-.27-1.62.25-2.5,2.27-6.19,5.94-7.93,4.18-1.98,7.59,0,9.57,4.18,5.54,11.7-2.9,31.14-9.39,40.94-2.25,3.4-7.1,10.23-11.72,12.42-1.28.61-2.56.85-3.77.57Z"/>
      <path class="cls-5" d="m70.22,140c4.99-1.13,13.01,1.26,16.88,2.55,11.16,3.72,29.79,13.82,32.64,26.44,1.02,4.51-.44,8.17-4.95,9.19-3.96.89-7.83-.77-9.57-2.58-.43-.44-.68-.97-.79-1.44-.24-1.07.2-2.04.95-2.25,1.19-.44,2.42.2,2.82,1.07.42.74-.08,1.68-.7,1.86-.31.11-.46.19-.46.35-.01.13.1.44.36.67.5.38,2.66,1.64,6.06.88,3.32-.75,4.25-3.66,3.47-7.11-1.41-6.25-7.58-12.93-15.94-18.82-8.01-5.63-23.13-11.41-30.05-9.84-1.35.3-2.38.87-3,1.8-1,1.47-1.15,3.17-.76,4.91,1.06,4.71,6.22,9.87,10.47,12.65,4.41,2.95,12.05,5.84,16.57,4.82.59-.13,1.09-.33,1.57-.6,1.66-.96,2.02-2.49,1.64-4.16-.58-2.57-2.86-5.47-4.82-7.15-3.34-2.99-8.05-4.34-10.09-4.54-.73-.08-1.08-.34-1.13-.58-.05-.24.2-.42.7-.41,2.33.18,6.78,1.09,11.49,4.85,2.53,2,4.54,5.17,5.21,8.14.59,2.61.15,5.08-1.81,6.52-.75.54-1.67.92-2.65,1.14-4.83,1.09-12.19-1.32-18.5-6.01-4.96-3.71-8.73-9.38-9.8-14.09-.57-2.53-.34-4.83.88-6.4.78-.97,1.94-1.56,3.32-1.87Z"/>
      <path class="cls-5" d="m77.46,191.35c-1.77-.92-2.93-2.91-3.46-5.45-.99-4.73.09-11.46,3.06-16.89,3.78-6.88,9.48-12.14,14.33-13.15.99-.21,1.98-.25,2.89-.06,2.38.5,3.81,2.56,4.36,5.18.62,2.98.11,6.69-1.36,9.57-2.73,5.38-6.4,8.05-8.44,9.18-.45.22-.75.16-.8-.08-.05-.24.16-.61.79-.99,1.77-1.03,5.5-4.22,7.3-8.32,1.09-2.34,1.96-5.92,1.42-8.5-.35-1.67-1.31-2.92-3.22-3.1-.55-.05-1.08-.02-1.68.1-4.53.95-10.28,6.75-13.06,11.27-2.71,4.3-5.26,11.13-4.27,15.85.36,1.75,1.21,3.23,2.73,4.16.95.59,2.13.67,3.48.39,6.95-1.45,18.3-12.99,23.25-21.44,5.16-8.83,8-17.46,6.69-23.74-.72-3.46-2.77-5.72-6.11-5.02-3.42.71-4.85,2.75-5.15,3.31-.14.32-.11.65-.05.76.07.15.24.16.57.13.64-.09,1.49.56,1.41,1.41,0,.95-.86,2.04-2.12,2.14-.76.12-1.57-.58-1.8-1.66-.1-.48-.1-1.06.11-1.64.83-2.37,3.66-5.49,7.63-6.32,4.53-.95,7.38,1.77,8.32,6.3,2.65,12.67-10.11,29.59-18.71,37.61-2.98,2.78-9.29,8.28-14.3,9.33-1.39.29-2.69.23-3.8-.33Z"/>
      <path class="cls-5" d="m74.69,121.58c5.11.07,12.36,4.27,15.82,6.43,9.98,6.23,25.72,20.41,25.54,33.35-.06,4.62-2.34,7.84-6.97,7.77-4.06-.06-7.43-2.58-8.7-4.75-.32-.53-.43-1.1-.42-1.59.02-1.09.68-1.94,1.45-1.97,1.26-.14,2.3.76,2.49,1.7.23.81-.47,1.62-1.12,1.65-.33.04-.49.07-.53.24-.04.12,0,.45.19.73.4.49,2.2,2.22,5.69,2.27,3.41.05,4.99-2.57,5.04-6.1.09-6.41-4.34-14.34-11.09-22.03-6.47-7.35-19.81-16.51-26.91-16.61-1.38-.02-2.52.29-3.34,1.05-1.31,1.2-1.86,2.81-1.89,4.6-.07,4.83,3.74,11.05,7.22,14.75,3.6,3.91,10.35,8.5,14.97,8.57.61,0,1.14-.07,1.67-.22,1.83-.54,2.54-1.95,2.57-3.66.04-2.64-1.5-5.99-3.01-8.08-2.54-3.69-6.81-6.1-8.75-6.78-.69-.25-.97-.58-.96-.83,0-.24.29-.36.77-.23,2.22.72,6.33,2.64,10.04,7.4,1.99,2.54,3.2,6.09,3.16,9.13-.04,2.68-1.04,4.98-3.29,5.92-.86.35-1.83.5-2.85.49-4.95-.07-11.55-4.14-16.57-10.17-3.95-4.76-6.3-11.17-6.23-15.99.04-2.6.8-4.78,2.36-6.01.98-.76,2.25-1.06,3.67-1.04Z"/>
      <path class="cls-5" d="m69.72,173.21c-1.5-1.3-2.17-3.52-2.09-6.11.15-4.83,2.77-11.12,6.93-15.7,5.29-5.81,12.06-9.58,17.01-9.43,1.01.03,1.98.22,2.82.61,2.2,1.04,3.1,3.38,3.02,6.06-.09,3.04-1.46,6.53-3.56,8.98-3.91,4.59-8.11,6.33-10.36,6.95-.49.11-.77-.02-.76-.27,0-.24.3-.56,1-.78,1.97-.59,6.34-2.81,9.04-6.38,1.6-2.02,3.29-5.3,3.37-7.93.05-1.7-.59-3.14-2.4-3.77-.52-.18-1.05-.27-1.66-.29-4.62-.14-11.57,4.16-15.34,7.9-3.64,3.54-7.72,9.59-7.87,14.41-.05,1.78.42,3.42,1.68,4.68.79.8,1.91,1.15,3.29,1.19,7.1.22,20.83-8.34,27.62-15.4,7.08-7.38,11.87-15.11,12.06-21.51.11-3.53-1.35-6.21-4.76-6.31-3.49-.11-5.36,1.54-5.79,2.02-.21.28-.26.6-.22.72.04.16.2.21.52.26.65.06,1.31.89,1.04,1.7-.23.93-1.31,1.79-2.56,1.59-.77-.06-1.39-.93-1.36-2.03.01-.49.15-1.05.49-1.57,1.36-2.11,4.85-4.48,8.9-4.36,4.62.14,6.75,3.45,6.61,8.08-.39,12.94-16.75,26.4-27,32.18-3.55,2-10.98,5.88-16.08,5.72-1.42-.04-2.67-.41-3.62-1.21Z"/>
      <path class="cls-5" d="m83.36,104.73c4.95,1.27,11.01,7.05,13.87,9.95,8.24,8.39,20.23,25.86,17.02,38.4-1.15,4.48-4.11,7.07-8.59,5.93-3.93-1.01-6.62-4.25-7.35-6.65-.18-.59-.16-1.17-.04-1.64.27-1.06,1.11-1.73,1.87-1.57,1.26.15,2.06,1.28,2.03,2.23.03.85-.83,1.46-1.47,1.34-.33-.04-.49-.04-.57.1-.07.11-.11.43.02.76.27.57,1.62,2.67,5,3.54,3.3.84,5.45-1.33,6.32-4.75,1.59-6.21-.87-14.96-5.63-24.01-4.57-8.66-15.4-20.69-22.28-22.45-1.34-.34-2.52-.31-3.49.24-1.56.86-2.47,2.3-2.92,4.03-1.2,4.68,1.05,11.62,3.57,16.03,2.58,4.64,8.07,10.69,12.55,11.84.59.15,1.12.2,1.67.18,1.91-.1,2.93-1.3,3.35-2.95.65-2.56-.06-6.17-1.04-8.56-1.61-4.18-5.2-7.53-6.92-8.64-.61-.41-.8-.79-.74-1.03.06-.24.37-.28.81-.04,1.99,1.22,5.54,4.05,8.03,9.55,1.34,2.94,1.69,6.67.93,9.62-.66,2.59-2.18,4.59-4.58,4.98-.92.14-1.9.06-2.88-.19-4.8-1.23-10.26-6.73-13.73-13.77-2.72-5.56-3.51-12.33-2.31-17.01.64-2.52,1.89-4.46,3.7-5.29,1.13-.51,2.43-.51,3.81-.16Z"/>
      <path class="cls-5" d="m66.43,153.75c-1.16-1.62-1.28-3.92-.6-6.43,1.27-4.66,5.3-10.16,10.41-13.64,6.5-4.41,13.97-6.49,18.75-5.18.98.27,1.88.68,2.6,1.26,1.9,1.53,2.23,4.01,1.52,6.6-.8,2.94-2.95,6.01-5.56,7.9-4.88,3.55-9.37,4.26-11.7,4.33-.5-.01-.74-.2-.68-.44.06-.23.42-.47,1.15-.53,2.05-.11,6.82-1.25,10.29-4.09,2.03-1.59,4.44-4.38,5.13-6.93.45-1.64.16-3.2-1.45-4.23-.47-.3-.95-.51-1.54-.67-4.46-1.22-12.22,1.33-16.76,4.09-4.37,2.59-9.75,7.51-11.02,12.17-.47,1.72-.39,3.43.54,4.94.58.96,1.59,1.57,2.92,1.93,6.85,1.87,22.21-3.23,30.46-8.5,8.61-5.51,15.07-11.91,16.76-18.09.93-3.41.14-6.36-3.15-7.25-3.37-.92-5.58.24-6.1.61-.27.22-.39.52-.39.65,0,.17.14.25.44.37.62.21,1.07,1.18.62,1.89-.44.85-1.69,1.43-2.87.94-.73-.24-1.13-1.24-.85-2.29.13-.47.4-.98.85-1.41,1.82-1.73,5.76-3.22,9.67-2.15,4.46,1.22,5.76,4.94,4.54,9.4-3.41,12.48-22.47,21.75-33.78,24.97-3.92,1.12-12.05,3.14-16.98,1.8-1.37-.37-2.5-1.02-3.23-2.02Z"/>
      <path class="cls-5" d="m95.72,90.38c4.52,2.39,9.06,9.43,11.15,12.93,6.05,10.09,13.61,29.88,7.56,41.32-2.16,4.09-5.65,5.91-9.74,3.75-3.59-1.9-5.44-5.68-5.58-8.19-.04-.62.12-1.18.35-1.61.51-.97,1.49-1.42,2.19-1.09,1.19.44,1.7,1.73,1.45,2.65-.16.83-1.15,1.23-1.75.96-.31-.12-.47-.16-.58-.03-.09.09-.21.39-.16.74.13.62.95,2.98,4.03,4.61,3.01,1.59,5.61-.02,7.26-3.14,3-5.67,2.66-14.75.15-24.66-2.41-9.49-10.13-23.72-16.4-27.04-1.22-.65-2.38-.89-3.45-.59-1.72.47-2.94,1.66-3.78,3.23-2.26,4.27-1.7,11.54-.29,16.42,1.42,5.11,5.34,12.28,9.43,14.45.54.29,1.04.46,1.58.56,1.88.35,3.15-.58,3.95-2.09,1.23-2.33,1.39-6.01,1-8.56-.59-4.44-3.29-8.53-4.71-10.02-.5-.54-.59-.96-.48-1.17s.42-.19.79.15c1.65,1.65,4.44,5.24,5.57,11.16.62,3.17.08,6.88-1.34,9.57-1.25,2.37-3.19,3.96-5.62,3.77-.92-.08-1.86-.39-2.76-.86-4.38-2.32-8.4-8.94-10.13-16.6-1.35-6.04-.52-12.81,1.74-17.08,1.21-2.29,2.88-3.89,4.83-4.28,1.22-.23,2.48.08,3.74.74Z"/>
      <path class="cls-5" d="m67.79,134.07c-.74-1.85-.33-4.12.92-6.39,2.33-4.23,7.53-8.64,13.32-10.83,7.35-2.76,15.1-3.04,19.44-.65.89.49,1.66,1.1,2.23,1.83,1.49,1.93,1.22,4.42-.07,6.77-1.47,2.67-4.27,5.15-7.26,6.38-5.57,2.31-10.1,1.95-12.39,1.47-.49-.13-.67-.37-.56-.58s.52-.36,1.24-.24c2.02.37,6.92.38,10.96-1.57,2.35-1.07,5.34-3.22,6.61-5.53.82-1.49.9-3.07-.42-4.45-.38-.4-.81-.72-1.34-1.02-4.05-2.23-12.2-1.57-17.25.05-4.85,1.5-11.24,5.02-13.57,9.25-.86,1.56-1.18,3.24-.63,4.93.34,1.07,1.18,1.9,2.39,2.56,6.22,3.42,22.34,2.06,31.6-1.13,9.67-3.34,17.44-8.05,20.53-13.67,1.7-3.09,1.62-6.15-1.37-7.79-3.06-1.68-5.48-1.07-6.07-.84-.31.15-.51.42-.53.54-.04.16.08.28.34.47.55.35.76,1.39.16,1.99-.63.72-1.98.99-3.01.25-.66-.41-.81-1.47-.29-2.43.23-.43.62-.87,1.15-1.17,2.17-1.26,6.35-1.78,9.91.17,4.05,2.23,4.44,6.15,2.21,10.2-6.24,11.34-26.94,15.88-38.69,16.36-4.07.17-12.45.24-16.93-2.23-1.25-.68-2.19-1.58-2.67-2.72Z"/>
      <path class="cls-5" d="m111.11,79.32c3.83,3.38,6.6,11.29,7.82,15.18,3.52,11.22,6.24,32.24-2.32,41.94-3.06,3.47-6.88,4.43-10.35,1.37-3.04-2.68-3.96-6.79-3.51-9.27.11-.61.39-1.12.71-1.48.72-.82,1.78-1.03,2.38-.55,1.05.71,1.25,2.08.79,2.91-.35.77-1.41.92-1.92.52-.27-.19-.42-.26-.56-.17-.11.06-.3.33-.33.68-.02.63.22,3.12,2.84,5.43,2.56,2.25,5.46,1.3,7.79-1.35,4.24-4.81,6.04-13.72,5.92-23.94-.12-9.79-4.29-25.43-9.62-30.13-1.03-.91-2.1-1.42-3.22-1.38-1.78.05-3.25.92-4.43,2.26-3.19,3.62-4.35,10.82-4.12,15.9.19,5.31,2.32,13.19,5.79,16.25.46.4.91.69,1.41.92,1.75.78,3.2.17,4.33-1.1,1.75-1.98,2.76-5.52,2.97-8.09.47-4.46-1.2-9.07-2.23-10.84-.36-.64-.35-1.07-.19-1.25.16-.18.46-.09.74.33,1.22,1.99,3.09,6.13,2.8,12.16-.14,3.23-1.54,6.71-3.55,8.99-1.77,2.01-4.03,3.1-6.35,2.35-.88-.29-1.72-.81-2.48-1.48-3.71-3.28-6.07-10.66-5.96-18.51.1-6.19,2.49-12.57,5.69-16.19,1.72-1.95,3.71-3.11,5.7-3.03,1.24.07,2.4.65,3.46,1.59Z"/>
      <path class="cls-5" d="m73.72,115.26c-.29-1.97.64-4.08,2.39-6,3.25-3.57,9.34-6.63,15.48-7.41,7.8-.96,15.39.58,19.05,3.92.75.68,1.36,1.46,1.74,2.3.99,2.22.15,4.59-1.65,6.57-2.05,2.25-5.36,4.01-8.55,4.5-5.96.94-10.27-.47-12.39-1.47-.44-.24-.57-.52-.41-.7.16-.18.59-.23,1.27.06,1.88.83,6.64,1.99,11.02,1.04,2.53-.49,5.94-1.88,7.72-3.83,1.15-1.26,1.59-2.77.63-4.42-.28-.48-.62-.89-1.07-1.3-3.42-3.12-11.49-4.38-16.78-3.99-5.07.32-12.1,2.25-15.36,5.82-1.2,1.32-1.91,2.87-1.77,4.65.08,1.12.7,2.12,1.72,3.05,5.25,4.78,21.24,7.23,30.99,6.3,10.18-.99,18.84-3.74,23.16-8.48,2.38-2.61,3.02-5.6.5-7.89-2.58-2.35-5.08-2.32-5.7-2.24-.34.07-.59.29-.64.4-.08.15.01.29.23.53.45.47.41,1.53-.31,1.97-.78.55-2.16.5-2.98-.47-.54-.55-.45-1.62.29-2.43.33-.36.8-.7,1.4-.87,2.41-.71,6.59-.25,9.59,2.49,3.42,3.12,2.88,7.02-.24,10.44-8.72,9.56-29.91,9.13-41.44,6.85-4-.79-12.16-2.68-15.94-6.13-1.05-.96-1.76-2.04-1.96-3.27Z"/>
      <path class="cls-5" d="m128.66,72.16c2.93,4.19,3.77,12.52,4.05,16.59.79,11.73-1.48,32.8-12.08,40.23-3.79,2.66-7.73,2.69-10.38-1.1-2.33-3.32-2.26-7.53-1.24-9.83.25-.57.64-.99,1.04-1.27.9-.63,1.97-.59,2.44.02.86.94.73,2.31.08,3.01-.52.67-1.58.57-1.99.06-.22-.24-.35-.35-.5-.29-.12.04-.37.26-.48.59-.17.61-.51,3.08,1.49,5.94,1.96,2.79,5,2.54,7.89.51,5.25-3.68,9.08-11.92,11.36-21.89,2.17-9.55,1.78-25.73-2.29-31.54-.79-1.13-1.71-1.87-2.81-2.1-1.74-.36-3.37.14-4.84,1.16-3.95,2.77-6.77,9.5-7.73,14.49-1.06,5.2-.83,13.37,1.82,17.16.35.5.72.88,1.15,1.22,1.51,1.17,3.07.92,4.47-.06,2.16-1.51,3.98-4.72,4.78-7.17,1.5-4.22.96-9.09.37-11.06-.2-.7-.09-1.12.11-1.26s.46.02.64.49c.72,2.22,1.56,6.68-.12,12.48-.89,3.1-3.06,6.16-5.55,7.91-2.19,1.54-4.64,2.07-6.72.8-.79-.49-1.48-1.19-2.06-2.02-2.84-4.05-3.41-11.78-1.46-19.39,1.55-5.99,5.37-11.64,9.32-14.41,2.12-1.49,4.34-2.15,6.25-1.61,1.19.35,2.18,1.2,2.99,2.36Z"/>
      <path class="cls-5" d="m83.9,98.36c.18-1.98,1.58-3.81,3.73-5.27,4-2.71,10.64-4.26,16.79-3.58,7.8.89,14.83,4.17,17.6,8.27.57.84.98,1.74,1.16,2.65.44,2.39-.92,4.5-3.14,6-2.52,1.71-6.15,2.64-9.37,2.37-6.01-.49-9.88-2.87-11.7-4.33-.37-.33-.43-.64-.23-.77s.63-.08,1.22.35c1.63,1.25,5.99,3.49,10.47,3.59,2.58.12,6.22-.44,8.4-1.92,1.41-.96,2.2-2.32,1.65-4.15-.16-.53-.39-1.01-.73-1.51-2.59-3.83-10.14-6.95-15.38-7.81-5-.88-12.29-.64-16.29,2.06-1.48,1-2.53,2.35-2.81,4.11-.18,1.1.19,2.23.96,3.37,3.98,5.88,18.96,12.01,28.66,13.38,10.13,1.42,19.19.77,24.5-2.82,2.92-1.98,4.24-4.73,2.33-7.56-1.96-2.89-4.39-3.45-5.02-3.51-.35,0-.64.14-.72.24-.11.12-.05.28.09.57.33.56.04,1.59-.76,1.84-.88.35-2.22-.02-2.79-1.15-.4-.66-.06-1.68.85-2.29.4-.27.94-.49,1.56-.52,2.51-.13,6.47,1.3,8.74,4.66,2.59,3.83,1.16,7.5-2.67,10.09-10.72,7.26-31.21,1.88-41.89-3.04-3.7-1.71-11.19-5.46-14.06-9.69-.8-1.18-1.23-2.4-1.14-3.64Z"/>
      <path class="cls-5" d="m147.39,69.32c1.87,4.76.74,13.05.05,17.07-1.97,11.59-9.12,31.54-21.16,36.29-4.3,1.7-8.14.81-9.84-3.5-1.49-3.78-.43-7.85,1.09-9.85.37-.49.86-.82,1.31-1,1.02-.4,2.05-.11,2.37.59.61,1.11.17,2.42-.62,2.95-.67.52-1.67.18-1.95-.41-.16-.29-.25-.42-.42-.4-.13,0-.42.16-.61.46-.3.56-1.22,2.88.06,6.13,1.25,3.17,4.27,3.64,7.55,2.35,5.96-2.35,11.62-9.46,16.17-18.62,4.35-8.78,7.75-24.6,5.15-31.2-.51-1.28-1.22-2.22-2.24-2.69-1.61-.76-3.31-.66-4.97,0-4.49,1.77-8.8,7.65-10.91,12.27-2.25,4.81-3.94,12.8-2.25,17.11.22.57.49,1.03.84,1.46,1.2,1.49,2.77,1.61,4.36.99,2.45-.97,4.97-3.66,6.33-5.85,2.45-3.75,3.06-8.62,2.95-10.67-.03-.73.17-1.11.4-1.2.23-.09.44.13.51.63.18,2.33-.04,6.86-3.04,12.1-1.6,2.81-4.42,5.27-7.25,6.39-2.49.98-5,.92-6.72-.8-.65-.66-1.16-1.51-1.53-2.45-1.81-4.61-.55-12.25,3.12-19.2,2.91-5.46,7.94-10.06,12.44-11.83,2.42-.95,4.72-1.08,6.46-.1,1.07.62,1.84,1.67,2.36,3Z"/>
      <path class="cls-5" d="m97.74,84.3c.64-1.88,2.43-3.34,4.86-4.25,4.52-1.7,11.34-1.65,17.16.45,7.38,2.69,13.44,7.52,15.18,12.16.36.95.55,1.92.5,2.84-.13,2.43-1.95,4.16-4.46,5.1-2.85,1.07-6.6,1.13-9.66.12-5.73-1.88-8.93-5.1-10.36-6.95-.29-.41-.27-.72-.04-.81.23-.08.63.07,1.1.63,1.29,1.59,5.01,4.8,9.34,5.94,2.48.72,6.15,1.03,8.62.1,1.59-.6,2.68-1.74,2.57-3.65-.03-.55-.14-1.07-.36-1.64-1.62-4.33-8.24-9.13-13.13-11.2-4.66-2.02-11.8-3.5-16.32-1.81-1.67.63-3.01,1.69-3.69,3.33-.44,1.03-.34,2.21.14,3.5,2.49,6.65,15.62,16.11,24.73,19.71,9.51,3.75,18.48,5.25,24.48,2.99,3.31-1.24,5.23-3.61,4.04-6.8-1.22-3.27-3.46-4.38-4.06-4.59-.34-.09-.65-.01-.75.07-.14.09-.12.26-.04.58.19.62-.33,1.55-1.17,1.61-.94.14-2.15-.54-2.44-1.77-.23-.74.34-1.64,1.36-2.03.46-.17,1.03-.26,1.64-.14,2.47.46,5.98,2.78,7.41,6.58,1.62,4.33-.63,7.56-4.96,9.19-12.12,4.54-30.79-5.48-40.02-12.77-3.2-2.53-9.6-7.92-11.4-12.71-.5-1.33-.64-2.62-.26-3.8Z"/>
      <circle class="cls-4" cx="150" cy="149.65" r="119"/>
      <circle class="cls-4" cx="150" cy="149.65" r="29"/>
    </g>
  </g>
</svg>