<?xml version="1.0" encoding="UTF-8"?>
<svg id="_レイヤー_2" data-name="レイヤー 2" xmlns="http://www.w3.org/2000/svg" viewBox="0 0 575.11 574.29">
  <defs>
    <style>
      .cls-1, .cls-2 {
        stroke-width: 0px;
      }

      .cls-2 {
        fill: #fff;
      }
    </style>
  </defs>
  <g id="_レイヤー_1-2" data-name="レイヤー 1">
    <path class="cls-1" d="m287.6,132.2c41.4,0,80.33,16.12,109.6,45.4,29.28,29.28,45.4,68.2,45.4,109.6s-16.12,80.33-45.4,109.6c-29.28,29.28-68.2,45.4-109.6,45.4s-80.33-16.12-109.6-45.4c-29.28-29.28-45.4-68.2-45.4-109.6s16.12-80.33,45.4-109.6,68.2-45.4,109.6-45.4m0-1c-86.16,0-156,69.84-156,156s69.84,156,156,156,156-69.84,156-156-69.84-156-156-156h0Z"/>
    <path class="cls-2" d="m575.11,284.16l-32.21,5.27c-.72,13.08-.59,10.77-1.31,23.85l31.44,8.77c-2.38,14.43-1.58,9.57-3.96,24l-32.59-1.78c-3.52,12.62-2.89,10.39-6.41,23.01l28.81,15.33c-5.42,13.58-3.6,9-9.02,22.58l-31.44-8.74c-6.15,11.57-5.06,9.53-11.21,21.1l24.85,21.16c-8.22,12.1-5.45,8.02-13.66,20.12l-28.83-15.3c-8.49,9.98-6.99,8.21-15.48,18.19l19.72,26.01c-10.63,10.05-7.04,6.66-17.67,16.71l-24.87-21.14c-10.44,7.92-8.59,6.52-19.03,14.44l13.66,29.64c-12.54,7.53-8.31,4.99-20.85,12.52l-19.74-25.99c-11.9,5.49-9.79,4.52-21.69,10.01l6.97,31.88c-13.86,4.66-9.19,3.09-23.05,7.75l-13.69-29.63c-12.8,2.81-10.54,2.31-23.34,5.12l-.04,32.64-24.18,2.61-7-31.88-23.89-.02-7.06,31.86c-14.54-1.59-9.64-1.06-24.17-2.65v-32.64c-12.78-2.83-10.52-2.33-23.31-5.16l-13.74,29.6c-13.85-4.68-9.18-3.1-23.04-7.79l7.03-31.87c-11.89-5.51-9.79-4.54-21.67-10.05l-19.79,25.96c-12.52-7.55-8.3-5.01-20.83-12.56l13.72-29.62c-10.42-7.94-8.58-6.53-19.01-14.47l-24.9,21.1c-10.61-10.07-7.03-6.67-17.64-16.74l19.76-25.98c-8.47-9.99-6.98-8.23-15.45-18.22l-28.86,15.25c-8.2-12.11-5.43-8.03-13.63-20.14l24.88-21.12c-6.13-11.58-5.04-9.53-11.17-21.12l-31.46,8.69-8.98-22.6,28.84-15.28c-3.49-12.63-2.88-10.4-6.37-23.02l-32.59,1.72c-2.35-14.43-1.56-9.57-3.91-24l31.45-8.72-1.27-23.86-32.2-5.32c.8-14.6.53-9.68,1.34-24.28l32.59-1.75c2.13-12.93,1.75-10.64,3.89-23.57l-30.3-12.12c3.92-14.09,2.6-9.34,6.53-23.43l32.21,5.29c4.86-12.17,4-10.02,8.86-22.18l-26.99-18.35,11.41-21.48,30.31,12.09c7.36-10.84,6.06-8.92,13.42-19.76l-22.41-23.73c9.48-11.14,6.28-7.38,15.76-18.52l27.01,18.33c9.52-9,7.84-7.41,17.36-16.41l-16.79-27.99c11.65-8.84,7.72-5.86,19.37-14.7l22.44,23.7c11.23-6.75,9.25-5.55,20.48-12.3l-10.38-30.94,22.08-10.19,16.82,27.97c12.42-4.17,10.22-3.44,22.65-7.61l-3.48-32.45,23.75-5.21,10.41,30.93c13.03-1.41,10.72-1.16,23.75-2.56l3.57-32.44,24.32.02,3.52,32.45c13.02,1.43,10.72,1.18,23.75,2.6l10.46-30.91c14.28,3.16,9.47,2.09,23.75,5.25l-3.54,32.44c12.41,4.19,10.22,3.45,22.63,7.65l16.86-27.94c13.27,6.15,8.8,4.08,22.06,10.23l-10.43,30.93,20.46,12.33,22.48-23.66c11.63,8.86,7.71,5.87,19.35,14.73l-16.84,27.96c9.5,9.02,7.82,7.42,17.33,16.44l27.04-18.28c9.46,11.15,6.27,7.39,15.73,18.55l-22.45,23.69c7.34,10.85,6.05,8.93,13.39,19.78l30.34-12.04c6.84,12.93,4.53,8.57,11.37,21.5l-27.02,18.31c4.84,12.18,3.98,10.02,8.82,22.2l32.21-5.24c3.9,14.09,2.59,9.34,6.49,23.44l-30.32,12.07c2.11,12.93,1.74,10.65,3.84,23.58l32.59,1.81c.78,14.6.52,9.68,1.3,24.28Z"/>
    <g>
      <circle class="cls-1" cx="287.6" cy="287.2" r="194.5"/>
      <path class="cls-1" d="m287.6,93.2c26.19,0,51.6,5.13,75.51,15.25,23.1,9.77,43.85,23.76,61.67,41.58,17.82,17.82,31.81,38.56,41.58,61.67,10.12,23.92,15.25,49.32,15.25,75.51s-5.13,51.6-15.25,75.51c-9.77,23.1-23.76,43.85-41.58,61.67-17.82,17.82-38.56,31.81-61.67,41.58-23.92,10.12-49.32,15.25-75.51,15.25s-51.6-5.13-75.51-15.25c-23.1-9.77-43.85-23.76-61.67-41.58-17.82-17.82-31.81-38.56-41.58-61.67-10.12-23.92-15.25-49.32-15.25-75.51s5.13-51.6,15.25-75.51c9.77-23.1,23.76-43.85,41.58-61.67,17.82-17.82,38.56-31.81,61.67-41.58,23.92-10.12,49.32-15.25,75.51-15.25m0-1c-107.7,0-195,87.3-195,195s87.3,195,195,195,195-87.3,195-195-87.3-195-195-195h0Z"/>
    </g>
    <g>
      <path class="cls-2" d="m287.64,448.7c-45.14,0-88.52-19.06-119.03-52.3-29.17-31.78-44.21-73.02-42.37-116.12,1.85-43.1,20.37-82.9,52.15-112.07,29.87-27.42,68.64-42.52,109.16-42.52,45.14,0,88.52,19.06,119.03,52.3,29.17,31.78,44.21,73.02,42.37,116.12-1.85,43.1-20.37,82.9-52.15,112.07-29.87,27.42-68.64,42.52-109.16,42.52Z"/>
      <path class="cls-1" d="m287.57,125.2v1c22.09,0,43.53,4.41,63.74,13.1,20.91,8.99,39.38,22.13,54.91,39.04,29.08,31.68,44.08,72.79,42.24,115.76-1.84,42.97-20.31,82.64-51.99,111.72-29.78,27.33-68.43,42.38-108.82,42.38-22.09,0-43.54-4.41-63.75-13.09-20.91-8.99-39.39-22.13-54.91-39.04-29.08-31.68-44.08-72.79-42.24-115.76,1.84-42.97,20.31-82.64,51.99-111.72,29.78-27.33,68.42-42.38,108.82-42.38v-1m0,0c-39.13,0-78.39,14.1-109.5,42.65-65.92,60.5-70.31,162.98-9.81,228.89,31.95,34.81,75.6,52.46,119.4,52.46,39.13,0,78.39-14.1,109.5-42.65,65.92-60.5,70.31-162.98,9.81-228.89-31.95-34.81-75.6-52.47-119.4-52.46h0Z"/>
    </g>
    <rect class="cls-2" x="283.6" y="82.2" width="9" height="62"/>
    <rect class="cls-2" x="307.79" y="83.96" width="9" height="62" transform="translate(19.02 -42.31) rotate(7.99)"/>
    <rect class="cls-2" x="331.5" y="89.07" width="9" height="62" transform="translate(46.07 -87.91) rotate(15.99)"/>
    <rect class="cls-2" x="354.28" y="97.42" width="9" height="62" transform="translate(83.17 -134.74) rotate(23.98)"/>
    <rect class="cls-2" x="375.67" y="108.87" width="9" height="62" transform="translate(131.76 -180.11) rotate(31.98)"/>
    <rect class="cls-2" x="395.26" y="123.17" width="9" height="62" transform="translate(192.44 -220.79) rotate(39.97)"/>
    <rect class="cls-2" x="412.67" y="140.06" width="9" height="62" transform="translate(264.9 -253.33) rotate(47.97)"/>
    <rect class="cls-2" x="427.56" y="159.21" width="9" height="62" transform="translate(347.82 -274.29) rotate(55.96)"/>
    <rect class="cls-2" x="439.65" y="180.25" width="9" height="62" transform="translate(438.92 -280.55) rotate(63.95)"/>
    <rect class="cls-2" x="448.69" y="202.76" width="9" height="62" transform="translate(535.01 -269.56) rotate(71.95)"/>
    <rect class="cls-2" x="454.51" y="226.31" width="9" height="62" transform="translate(632.2 -239.59) rotate(79.94)"/>
    <rect class="cls-2" x="457" y="250.44" width="9" height="62" transform="translate(726.14 -189.9) rotate(87.94)"/>
    <rect class="cls-2" x="456.11" y="274.68" width="9" height="62" transform="translate(812.25 -120.88) rotate(95.93)"/>
    <rect class="cls-2" x="451.86" y="298.56" width="9" height="62" transform="translate(886.06 -34.08) rotate(103.93)"/>
    <rect class="cls-2" x="444.33" y="321.62" width="9" height="62" transform="translate(943.51 67.87) rotate(111.92)"/>
    <rect class="cls-2" x="433.67" y="343.41" width="9" height="62" transform="translate(981.21 181.33) rotate(119.91)"/>
    <rect class="cls-2" x="420.07" y="363.5" width="9" height="62" transform="translate(996.69 301.89) rotate(127.91)"/>
    <rect class="cls-2" x="403.82" y="381.51" width="9" height="62" transform="translate(988.61 424.61) rotate(135.9)"/>
    <rect class="cls-2" x="385.22" y="397.08" width="9" height="62" transform="translate(956.84 544.31) rotate(143.9)"/>
    <rect class="cls-2" x="364.64" y="409.91" width="9" height="62" transform="translate(902.47 655.9) rotate(151.89)"/>
    <rect class="cls-2" x="342.47" y="419.76" width="9" height="62" transform="translate(827.78 754.7) rotate(159.89)"/>
    <rect class="cls-2" x="319.14" y="426.43" width="9" height="62" transform="translate(736.11 836.7) rotate(167.88)"/>
    <rect class="cls-2" x="295.12" y="429.78" width="9" height="62" transform="translate(631.61 898.82) rotate(175.87)"/>
    <rect class="cls-2" x="270.86" y="429.77" width="9" height="62" transform="translate(519.01 939.06) rotate(-176.13)"/>
    <rect class="cls-2" x="246.84" y="426.38" width="9" height="62" transform="translate(403.29 956.66) rotate(-168.14)"/>
    <rect class="cls-2" x="223.52" y="419.68" width="9" height="62" transform="translate(289.41 952.03) rotate(-160.14)"/>
    <rect class="cls-2" x="201.37" y="409.81" width="9" height="62" transform="translate(181.95 926.74) rotate(-152.15)"/>
    <rect class="cls-2" x="180.8" y="396.95" width="9" height="62" transform="translate(84.89 883.36) rotate(-144.15)"/>
    <rect class="cls-2" x="162.22" y="381.36" width="9" height="62" transform="translate(1.35 825.26) rotate(-136.16)"/>
    <rect class="cls-2" x="145.99" y="363.33" width="9" height="62" transform="translate(-66.55 756.32) rotate(-128.17)"/>
    <rect class="cls-2" x="132.42" y="343.22" width="9" height="62" transform="translate(-117.79 680.67) rotate(-120.17)"/>
    <rect class="cls-2" x="121.78" y="321.42" width="9" height="62" transform="translate(-152.4 602.39) rotate(-112.18)"/>
    <rect class="cls-2" x="114.28" y="298.35" width="9" height="62" transform="translate(-171.43 525.21) rotate(-104.18)"/>
    <rect class="cls-2" x="110.06" y="274.46" width="9" height="62" transform="translate(-176.77 452.28) rotate(-96.19)"/>
    <rect class="cls-2" x="109.2" y="250.22" width="9" height="62" transform="translate(-170.96 386) rotate(-88.19)"/>
    <rect class="cls-2" x="111.72" y="226.09" width="9" height="62" transform="translate(-156.9 327.86) rotate(-80.2)"/>
    <rect class="cls-2" x="117.57" y="202.55" width="9" height="62" transform="translate(-137.61 278.41) rotate(-72.21)"/>
    <rect class="cls-2" x="126.64" y="180.05" width="9" height="62" transform="translate(-115.94 237.32) rotate(-64.21)"/>
    <rect class="cls-2" x="138.75" y="159.03" width="9" height="62" transform="translate(-94.35 203.43) rotate(-56.22)"/>
    <rect class="cls-2" x="153.67" y="139.9" width="9" height="62" transform="translate(-74.66 175) rotate(-48.22)"/>
    <rect class="cls-2" x="171.1" y="123.03" width="9" height="62" transform="translate(-57.95 149.85) rotate(-40.23)"/>
    <rect class="cls-2" x="190.71" y="108.75" width="9" height="62" transform="translate(-44.45 125.66) rotate(-32.23)"/>
    <rect class="cls-2" x="212.11" y="97.34" width="9" height="62" transform="translate(-33.59 100.25) rotate(-24.24)"/>
    <rect class="cls-2" x="234.9" y="89.01" width="9" height="62" transform="translate(-24.01 71.77) rotate(-16.25)"/>
    <rect class="cls-2" x="258.62" y="83.93" width="9" height="62" transform="translate(-13.77 38.96) rotate(-8.25)"/>
    <rect class="cls-2" x="301.56" y="121.71" width="2" height="2" transform="translate(39.79 316.49) rotate(-58.48)"/>
    <circle class="cls-1" cx="287.6" cy="287.2" r="74"/>
    <g>
      <circle class="cls-2" cx="287.6" cy="287.2" r="38.5"/>
      <path class="cls-1" d="m287.6,249.2c20.95,0,38,17.05,38,38s-17.05,38-38,38-38-17.05-38-38,17.05-38,38-38m0-1c-21.54,0-39,17.46-39,39s17.46,39,39,39,39-17.46,39-39-17.46-39-39-39h0Z"/>
    </g>
    <path class="cls-1" d="m358.12,204.38c-2.48,3.26-6.75,9.79-8.78,12.6-7.09,0-12.94-3.6-14.29-10.13l-3.04-14.96c-1.46-7.31-5.29-9.56-10.24-9.56-.9,0-2.14.56-3.04,1.12v19.24c1.58.34,3.04.56,4.28.56,1.12,0,1.8-.67,3.49-2.7l1.8,1.35c-3.04,3.6-7.99,10.8-10.35,14.18-7.43-2.81-10.58-4.28-22.39-4.28-5.63,0-10.24,1.91-13.28,4.28l-1.46-1.8,8.21-7.2c5.63-4.95,9.9-9.9,9.9-17.1v-11.93h-1.46c-5.4,0-9,1.35-10.8,5.06l-1.01-.45c.67-12.15,6.41-16.54,12.94-16.54h.34v-20.48c5.74-2.48,20.82-9.79,28.35-14.29,5.63,3.71,8.66,4.84,11.7,4.84,1.46,0,2.81-1.01,4.16-2.93l1.58,1.35c-2.81,3.49-6.19,7.54-11.25,12.94-7.2-2.7-12.26-5.06-16.65-7.99l-4.84,2.36v21.72l21.04-14.96c3.04,3.04,10.01,11.03,14.06,17.33-4.61,3.15-14.85,9.56-14.85,9.56v.11c5.29.34,11.36,4.05,12.49,9.56l2.59,12.26c1.35,6.41,2.81,8.21,5.4,8.21,1.12,0,2.14-.56,3.49-2.81l1.91,1.46Zm-41.52-41.52c-1.8,1.24-3.49,2.59-4.61,3.38v15.75c0,6.64-3.83,13.61-13.5,19.58l.11.22c1.24-.45,4.28-1.46,6.08-1.46,3.71,0,8.1,1.01,11.93,1.91v-39.38Zm7.65-5.51c-1.01.67-3.15,2.25-5.51,3.94v20.03c7.88-4.73,11.36-6.86,16.09-9.9-2.25-4.39-7.65-11.36-10.58-14.06Z"/>
    <path class="cls-1" d="m215.99,202.92c1.35,2.25,2.36,2.81,3.49,2.81,2.59,0,4.05-1.8,5.4-8.21l2.59-12.26c1.13-5.51,7.2-9.23,12.49-9.56v-.11s-10.24-6.41-14.85-9.56c4.05-6.3,11.03-14.29,14.06-17.33l21.04,14.96v-21.72l-4.84-2.36c-4.39,2.93-9.45,5.29-16.65,7.99-5.06-5.4-8.44-9.45-11.25-12.94l1.58-1.35c1.35,1.91,2.7,2.93,4.16,2.93,3.04,0,6.08-1.12,11.7-4.84,7.54,4.5,22.62,11.81,28.35,14.29v20.48h.34c6.53,0,12.26,4.39,12.94,16.54l-1.01.45c-1.8-3.71-5.4-5.06-10.8-5.06h-1.46v11.93c0,7.2,4.28,12.15,9.9,17.1l8.21,7.2-1.46,1.8c-3.04-2.36-7.65-4.28-13.28-4.28-11.81,0-14.96,1.46-22.39,4.28-2.36-3.38-7.31-10.58-10.35-14.18l1.8-1.35c1.69,2.03,2.36,2.7,3.49,2.7,1.24,0,2.7-.23,4.28-.56v-19.24c-.9-.56-2.14-1.12-3.04-1.12-4.95,0-8.78,2.25-10.24,9.56l-3.04,14.96c-1.35,6.53-7.2,10.13-14.29,10.13-2.03-2.81-6.3-9.34-8.78-12.6l1.91-1.46Zm21.38-31.51c4.73,3.04,8.21,5.18,16.09,9.9v-20.03c-2.36-1.69-4.5-3.26-5.51-3.94-2.93,2.7-8.33,9.68-10.58,14.06Zm18.23,30.83c3.83-.9,8.21-1.91,11.93-1.91,1.8,0,4.84,1.01,6.08,1.46l.11-.22c-9.68-5.96-13.5-12.94-13.5-19.58v-15.75c-1.13-.79-2.81-2.14-4.61-3.38v39.38Z"/>
    <path class="cls-1" d="m396.02,278.42c-4.06.56-11.69,2.16-15.12,2.72-5.02-5.01-6.61-11.69-2.96-17.26l8.42-12.74c4.13-6.21,3.02-10.5-.49-14-.64-.64-1.91-1.11-2.94-1.35l-13.59,13.62c.88,1.35,1.75,2.54,2.63,3.42.8.79,1.75.79,4.38.55l.32,2.23c-4.69.4-13.29,2-17.34,2.72-3.27-7.24-4.46-10.5-12.82-18.85-3.98-3.97-8.6-5.88-12.42-6.35l.24-2.31,10.9.71c7.48.47,14-.01,19.09-5.11l8.43-8.44-1.03-1.03c-3.82-3.82-7.32-5.4-11.22-4.05l-.4-1.04c9.06-8.12,16.23-7.17,20.84-2.56l.24.24,14.47-14.49c5.81,2.3,21.65,7.78,30.16,9.92,1.36,6.6,2.71,9.54,4.86,11.69,1.04,1.03,2.71,1.27,5.01.87l.16,2.07c-4.46.48-9.71.96-17.1,1.21-3.19-7-5.1-12.25-6.14-17.42l-5.09-1.75-15.34,15.37,25.46,4.28c0,4.3-.7,14.88-2.29,22.2-5.49-1.03-17.27-3.73-17.27-3.73l-.08.08c3.5,3.98,5.18,10.9,2.08,15.59l-6.83,10.51c-3.58,5.49-3.81,7.8-1.98,9.63.8.79,1.91,1.11,4.46.47l.32,2.39Zm-.05-58.72c-2.15-.4-4.3-.63-5.65-.87l-11.13,11.15c-4.69,4.7-12.33,6.93-23.39,4.32l-.08.24c1.19.56,4.06,1.99,5.33,3.26,2.63,2.62,5.02,6.44,7.09,9.78l27.82-27.87Zm9.31,1.5c-1.19-.24-3.82-.63-6.68-1.11l-14.15,14.17c8.91,2.22,12.89,3.17,18.38,4.36,1.51-4.7,2.61-13.45,2.45-17.43Z"/>
    <path class="cls-1" d="m296.47,176.96c-.63,2.55-.32,3.66.48,4.45,1.83,1.83,4.14,1.59,9.62-2l10.5-6.85c4.69-3.11,11.62-1.44,15.6,2.06l.08-.08s-2.71-11.77-3.75-17.26c7.32-1.6,17.9-2.32,22.2-2.32l4.32,25.46,15.34-15.37-1.75-5.09c-5.17-1.03-10.42-2.94-17.43-6.11.23-7.4.71-12.65,1.18-17.11l2.07.16c-.4,2.31-.16,3.98.88,5.01,2.15,2.15,5.09,3.5,11.7,4.84,2.16,8.51,7.66,24.34,9.97,30.15l-14.47,14.49.24.24c4.62,4.61,5.58,11.77-2.53,20.85l-1.04-.4c1.35-3.9-.24-7.4-4.07-11.22l-1.03-1.03-8.43,8.44c-5.09,5.1-5.56,11.62-5.08,19.1l.72,10.9-2.31.24c-.48-3.82-2.39-8.43-6.38-12.41-8.36-8.35-11.62-9.54-18.87-12.79.71-4.06,2.3-12.65,2.69-17.35l2.23.32c-.24,2.63-.23,3.58.56,4.38.88.87,2.07,1.75,3.42,2.62l13.59-13.62c-.24-1.03-.72-2.31-1.35-2.94-3.5-3.5-7.8-4.61-14-.47l-12.72,8.44c-5.57,3.66-12.25,2.08-17.27-2.93.55-3.42,2.14-11.06,2.69-15.12l2.39.32Zm28.5,27.51c3.34,2.07,7.16,4.45,9.79,7.07,1.27,1.27,2.71,4.13,3.27,5.33l.24-.08c-2.63-11.06-.41-18.7,4.28-23.4l11.13-11.15c-.24-1.35-.48-3.5-.88-5.65l-27.83,27.87Zm8.88-34.7c1.2,5.49,2.16,9.47,4.39,18.38l14.15-14.17c-.48-2.86-.88-5.49-1.12-6.68-3.98-.16-12.73.96-17.42,2.48Z"/>
    <path class="cls-1" d="m370.53,357.59c-3.27-2.47-9.8-6.74-12.62-8.76-.01-7.09,3.58-12.95,10.1-14.31l14.96-3.06c7.31-1.47,9.56-5.3,9.55-10.25,0-.9-.57-2.14-1.13-3.04l-19.24.03c-.33,1.58-.56,3.04-.56,4.28,0,1.12.68,1.8,2.71,3.48l-1.35,1.8c-3.61-3.03-10.81-7.97-14.19-10.33,2.8-7.43,4.26-10.58,4.24-22.4,0-5.63-1.93-10.24-4.3-13.27l1.8-1.47,7.21,8.2c4.96,5.62,9.92,9.89,17.12,9.87l11.93-.02v-1.46c-.01-5.4-1.37-9-5.08-10.79l.45-1.01c12.15.66,16.55,6.39,16.56,12.91v.34s20.48-.03,20.48-.03c2.48,5.73,9.82,20.8,14.33,28.33-3.7,5.63-4.82,8.67-4.82,11.71,0,1.46,1.02,2.81,2.93,4.16l-1.35,1.58c-3.49-2.81-7.55-6.18-12.96-11.23,2.69-7.21,5.04-12.27,7.96-16.67l-2.37-4.83-21.72.03,15,21.02c-3.03,3.04-11.01,10.03-17.31,14.09-3.16-4.61-9.59-14.84-9.59-14.84h-.11c-.33,5.29-4.03,11.37-9.54,12.5l-12.26,2.61c-6.41,1.36-8.21,2.83-8.21,5.41,0,1.12.57,2.14,2.82,3.48l-1.46,1.92Zm41.45-41.58c-1.24-1.8-2.59-3.48-3.38-4.61l-15.75.02c-6.64.01-13.62-3.8-19.6-13.47l-.22.11c.45,1.24,1.47,4.27,1.47,6.07,0,3.71-1,8.1-1.89,11.93l39.38-.06Zm5.53,7.64c-.68-1.01-2.25-3.15-3.95-5.51l-20.03.03c4.74,7.87,6.88,11.35,9.93,16.07,4.38-2.26,11.35-7.67,14.05-10.6Z"/>
    <path class="cls-1" d="m371.77,215.46c-2.25,1.35-2.81,2.37-2.81,3.49,0,2.59,1.81,4.05,8.22,5.39l12.27,2.57c5.52,1.12,9.24,7.19,9.58,12.47h.11s6.4-10.25,9.54-14.87c6.31,4.04,14.31,11,17.35,14.04l-14.93,21.06,21.72-.03,2.36-4.84c-2.93-4.38-5.3-9.44-8.02-16.64,5.39-5.07,9.44-8.45,12.92-11.27l1.35,1.57c-1.91,1.35-2.92,2.7-2.92,4.17,0,3.04,1.13,6.07,4.86,11.69-4.49,7.55-11.78,22.63-14.25,28.38l-20.48.03v.34c.01,6.53-4.37,12.27-16.52,12.97l-.45-1.01c3.71-1.81,5.06-5.41,5.05-10.81v-1.46s-11.93.02-11.93.02c-7.2.01-12.15,4.29-17.09,9.93l-7.19,8.23-1.8-1.46c2.36-3.04,4.26-7.66,4.25-13.28-.02-11.81-1.49-14.96-4.31-22.38,3.37-2.37,10.57-7.33,14.16-10.37l1.35,1.8c-2.02,1.69-2.7,2.37-2.69,3.49,0,1.24.23,2.7.57,4.27l19.24-.03c.56-.9,1.12-2.14,1.12-3.04,0-4.95-2.26-8.77-9.58-10.22l-14.97-3.01c-6.53-1.34-10.14-7.19-10.15-14.27,2.81-2.03,9.33-6.32,12.59-8.8l1.47,1.91Zm.74,39.61c.91,3.82,1.93,8.21,1.93,11.92,0,1.8-1,4.84-1.45,6.08l.22.11c5.95-9.69,12.92-13.52,19.56-13.53l15.75-.02c.79-1.13,2.13-2.82,3.37-4.62l-39.38.06Zm30.8-18.28c-3.03,4.73-5.16,8.22-9.88,16.11l20.03-.03c1.68-2.37,3.26-4.51,3.93-5.52-2.7-2.92-9.69-8.31-14.08-10.55Z"/>
    <path class="cls-1" d="m296.55,395.61c-.57-4.06-2.18-11.69-2.74-15.11,5-5.02,11.68-6.63,17.26-2.98l12.75,8.4c6.22,4.12,10.51,3,14-.51.63-.64,1.11-1.91,1.35-2.95l-13.64-13.57c-1.35.88-2.54,1.76-3.41,2.63-.79.8-.79,1.75-.55,4.38l-2.23.32c-.41-4.69-2.02-13.28-2.75-17.34,7.23-3.28,10.49-4.48,18.83-12.85,3.97-3.99,5.87-8.61,6.33-12.43l2.31.23-.69,10.9c-.46,7.48.03,14,5.14,19.08l8.45,8.41,1.03-1.04c3.81-3.83,5.39-7.33,4.03-11.23l1.03-.4c8.14,9.05,7.2,16.21,2.6,20.84l-.24.24,14.52,14.45c-2.29,5.81-7.75,21.66-9.88,30.18-6.6,1.37-9.54,2.73-11.68,4.88-1.03,1.04-1.27,2.71-.86,5.01l-2.07.16c-.49-4.46-.98-9.71-1.23-17.1,6.99-3.2,12.24-5.12,17.41-6.17l1.74-5.1-15.39-15.32-4.24,25.47c-4.3.01-14.88-.68-22.2-2.25,1.02-5.49,3.7-17.27,3.7-17.27l-.08-.08c-3.97,3.51-10.89,5.2-15.59,2.11l-10.52-6.82c-5.5-3.57-7.81-3.8-9.63-1.97-.79.8-1.11,1.91-.47,4.46l-2.39.32Zm58.72-.14c.39-2.15.63-4.3.86-5.65l-11.16-11.11c-4.71-4.68-6.95-12.32-4.35-23.38l-.24-.08c-.55,1.19-1.98,4.06-3.25,5.34-2.62,2.63-6.43,5.03-9.77,7.1l27.91,27.78Zm-1.49,9.31c.24-1.19.63-3.82,1.1-6.69l-14.2-14.13c-2.21,8.92-3.15,12.9-4.33,18.39,4.7,1.5,13.45,2.59,17.43,2.43Z"/>
    <path class="cls-1" d="m397.85,295.9c-2.55-.63-3.66-.31-4.45.49-1.83,1.83-1.58,4.14,2.01,9.62l6.87,10.49c3.11,4.69,1.46,11.61-2.03,15.6l.08.08s11.77-2.73,17.26-3.78c1.61,7.32,2.35,17.9,2.36,22.19l-25.45,4.36,15.39,15.32,5.09-1.76c1.02-5.17,2.92-10.43,6.08-17.44,7.4.22,12.65.69,17.11,1.15l-.15,2.07c-2.31-.39-3.98-.15-5.01.89-2.14,2.15-3.49,5.1-4.83,11.71-8.51,2.17-24.33,7.7-30.13,10.02l-14.51-14.45-.24.24c-4.6,4.62-11.76,5.6-20.85-2.5l.4-1.04c3.9,1.34,7.4-.26,11.21-4.08l1.03-1.04-8.45-8.41c-5.1-5.08-11.63-5.54-19.11-5.05l-10.9.74-.24-2.31c3.82-.49,8.43-2.41,12.4-6.39,8.33-8.37,9.52-11.64,12.77-18.89,4.06.71,12.66,2.28,17.35,2.66l-.31,2.23c-2.63-.23-3.58-.23-4.37.57-.87.88-1.75,2.07-2.62,3.43l13.64,13.57c1.03-.24,2.31-.72,2.94-1.36,3.49-3.51,4.6-7.81.44-14l-8.46-12.71c-3.67-5.56-2.1-12.25,2.9-17.27,3.42.55,11.06,2.12,15.12,2.67l-.31,2.39Zm-27.46,28.55c-2.06,3.35-4.44,7.17-7.06,9.8-1.27,1.28-4.13,2.71-5.32,3.28l.08.24c11.05-2.65,18.7-.44,23.4,4.24l11.16,11.11c1.35-.24,3.5-.49,5.65-.89l-27.91-27.78Zm34.71,8.83c-5.49,1.21-9.46,2.17-18.37,4.42l14.2,14.13c2.86-.48,5.49-.89,6.68-1.13.15-3.98-.98-12.73-2.51-17.42Z"/>
    <path class="cls-1" d="m217.3,370.2c2.47-3.27,6.72-9.81,8.74-12.63,7.09-.02,12.95,3.56,14.32,10.08l3.08,14.96c1.49,7.31,5.32,9.55,10.27,9.53.9,0,2.14-.57,3.03-1.13l-.06-19.24c-1.58-.33-3.04-.55-4.28-.55-1.12,0-1.8.68-3.48,2.71l-1.8-1.34c3.03-3.61,7.96-10.83,10.31-14.21,7.44,2.79,10.59,4.24,22.4,4.21,5.63-.02,10.23-1.95,13.26-4.32l1.47,1.8-8.19,7.23c-5.61,4.97-9.87,9.93-9.85,17.13l.04,11.93h1.46c5.4-.02,9-1.38,10.79-5.1l1.01.45c-.64,12.15-6.36,16.56-12.89,16.58h-.34s.06,20.48.06,20.48c-5.73,2.49-20.79,9.85-28.31,14.38-5.64-3.7-8.68-4.81-11.72-4.8-1.46,0-2.81,1.02-4.15,2.94l-1.58-1.35c2.8-3.5,6.17-7.56,11.21-12.97,7.21,2.68,12.28,5.03,16.68,7.94l4.83-2.38-.07-21.72-20.99,15.03c-3.05-3.03-10.05-10.99-14.12-17.28,4.6-3.17,14.82-9.61,14.82-9.61v-.11c-5.29-.32-11.38-4.02-12.52-9.53l-2.63-12.26c-1.37-6.41-2.84-8.21-5.43-8.2-1.12,0-2.14.57-3.48,2.82l-1.92-1.46Zm34.02,46.93c1.01-.68,3.14-2.26,5.5-3.96l-.06-20.03c-7.86,4.75-11.34,6.9-16.06,9.95,2.26,4.38,7.69,11.34,10.62,14.03Zm7.63-5.54c1.8-1.24,3.48-2.6,4.6-3.39l-.05-15.75c-.02-6.64,3.78-13.63,13.44-19.62l-.11-.22c-1.24.45-4.27,1.48-6.07,1.48-3.71.01-8.1-.99-11.93-1.88l.12,39.38Z"/>
    <path class="cls-1" d="m359.51,371.22c-1.36-2.25-2.37-2.81-3.5-2.8-2.59,0-4.05,1.81-5.38,8.23l-2.55,12.27c-1.11,5.52-7.17,9.25-12.46,9.6v.11s10.26,6.38,14.88,9.52c-4.03,6.31-10.98,14.32-14.01,17.37l-21.09-14.9.07,21.72,4.85,2.35c4.38-2.94,9.44-5.32,16.63-8.04,5.08,5.38,8.47,9.42,11.29,12.91l-1.57,1.35c-1.36-1.91-2.71-2.92-4.17-2.91-3.04,0-6.07,1.14-11.69,4.87-7.55-4.48-22.65-11.74-28.4-14.2l-.06-20.48h-.34c-6.53.02-12.28-4.35-12.99-16.5l1.01-.45c1.81,3.71,5.42,5.05,10.82,5.03h1.46s-.04-11.93-.04-11.93c-.02-7.2-4.31-12.14-9.96-17.07l-8.24-7.18,1.46-1.8c3.04,2.35,7.66,4.25,13.29,4.23,11.81-.04,14.96-1.51,22.38-4.35,2.37,3.37,7.35,10.55,10.4,14.14l-1.8,1.36c-1.69-2.02-2.37-2.69-3.5-2.69-1.24,0-2.7.23-4.27.58l.06,19.24c.9.56,2.14,1.12,3.04,1.12,4.95-.02,8.77-2.28,10.21-9.6l2.99-14.97c1.33-6.53,7.17-10.15,14.26-10.17,2.03,2.81,6.33,9.32,8.82,12.57l-1.91,1.47Zm-39.6.8c-3.82.91-8.21,1.94-11.92,1.95-1.8,0-4.84-1-6.08-1.44l-.11.22c9.69,5.93,13.54,12.9,13.56,19.54l.05,15.75c1.13.78,2.82,2.13,4.62,3.36l-.12-39.38Zm18.33,30.77c-4.74-3.02-8.23-5.15-16.12-9.85l.06,20.03c2.37,1.68,4.51,3.25,5.53,3.92,2.92-2.71,8.3-9.7,10.53-14.1Z"/>
    <path class="cls-1" d="m179.2,296.27c4.06-.57,11.69-2.19,15.11-2.76,5.03,4.99,6.65,11.67,3.01,17.25l-8.38,12.76c-4.11,6.22-2.98,10.51.53,14,.64.63,1.91,1.11,2.95,1.34l13.55-13.66c-.88-1.35-1.76-2.54-2.64-3.41-.8-.79-1.75-.79-4.38-.54l-.33-2.23c4.69-.42,13.28-2.04,17.33-2.77,3.29,7.23,4.5,10.48,12.88,18.81,3.99,3.96,8.62,5.85,12.44,6.32l-.23,2.31-10.9-.67c-7.48-.45-14,.06-19.08,5.17l-8.4,8.47,1.04,1.03c3.83,3.8,7.34,5.38,11.23,4.01l.4,1.03c-9.04,8.15-16.2,7.22-20.83,2.63l-.24-.24-14.42,14.54c-5.82-2.29-21.67-7.71-30.19-9.83-1.38-6.6-2.74-9.54-4.9-11.68-1.04-1.03-2.71-1.26-5.02-.86l-.17-2.07c4.45-.49,9.7-.99,17.1-1.26,3.21,6.99,5.14,12.23,6.19,17.4l5.1,1.73,15.29-15.42-25.48-4.2c-.02-4.3.66-14.88,2.22-22.21,5.49,1.01,17.28,3.67,17.28,3.67l.08-.08c-3.52-3.96-5.21-10.88-2.13-15.59l6.8-10.53c3.56-5.5,3.79-7.81,1.95-9.63-.8-.79-1.91-1.11-4.46-.46l-.33-2.39Zm-9.08,57.24c1.19.23,3.82.62,6.69,1.09l14.11-14.22c-8.92-2.19-12.9-3.13-18.4-4.3-1.49,4.7-2.57,13.46-2.4,17.43Zm9.31,1.48c2.15.39,4.3.62,5.65.85l11.09-11.18c4.68-4.71,12.31-6.97,23.37-4.39l.08-.24c-1.19-.55-4.06-1.97-5.34-3.24-2.64-2.62-5.04-6.42-7.12-9.76l-27.74,27.96Z"/>
    <path class="cls-1" d="m279.12,397.46c.63-2.55.3-3.66-.49-4.45-1.84-1.82-4.14-1.58-9.62,2.03l-10.48,6.88c-4.68,3.12-11.61,1.48-15.6-2.01l-.08.08s2.75,11.76,3.81,17.25c-7.31,1.62-17.89,2.38-22.19,2.39l-4.4-25.44-15.29,15.42,1.77,5.09c5.18,1.01,10.44,2.9,17.45,6.06-.21,7.4-.67,12.65-1.13,17.11l-2.07-.15c.39-2.31.14-3.98-.9-5.01-2.16-2.14-5.11-3.48-11.71-4.81-2.18-8.5-7.73-24.32-10.06-30.12l14.42-14.54-.24-.24c-4.63-4.6-5.62-11.75,2.46-20.85l1.04.39c-1.34,3.9.27,7.4,4.1,11.2l1.04,1.03,8.4-8.47c5.07-5.11,5.52-11.64,5.02-19.11l-.76-10.9,2.31-.25c.49,3.82,2.42,8.42,6.41,12.39,8.39,8.32,11.65,9.5,18.91,12.73-.7,4.06-2.26,12.66-2.64,17.36l-2.23-.31c.23-2.63.22-3.58-.58-4.37-.88-.87-2.07-1.74-3.43-2.61l-13.55,13.66c.24,1.03.73,2.3,1.36,2.94,3.51,3.49,7.82,4.58,14,.42l12.7-8.48c5.55-3.68,12.24-2.12,17.28,2.88-.54,3.42-2.1,11.07-2.65,15.13l-2.39-.31Zm-28.59-27.42c-3.35-2.06-7.18-4.43-9.81-7.04-1.28-1.27-2.72-4.13-3.28-5.32l-.24.08c2.67,11.05.47,18.7-4.2,23.41l-11.1,11.18c.24,1.35.49,3.5.9,5.65l27.74-27.96Zm-8.77,34.72c-1.21-5.49-2.19-9.46-4.45-18.36l-14.11,14.22c.49,2.86.9,5.49,1.14,6.68,3.98.14,12.73-1,17.42-2.54Z"/>
    <path class="cls-1" d="m204.48,217.03c3.27,2.46,9.82,6.71,12.64,8.72.03,7.09-3.54,12.96-10.06,14.34l-14.95,3.11c-7.31,1.5-9.54,5.33-9.52,10.28,0,.9.57,2.14,1.14,3.03l19.24-.09c.33-1.58.55-3.04.54-4.28,0-1.12-.68-1.8-2.72-3.48l1.34-1.81c3.62,3.02,10.84,7.94,14.23,10.29-2.78,7.44-4.23,10.6-4.17,22.41.03,5.63,1.96,10.23,4.34,13.26l-1.79,1.47-7.24-8.18c-4.98-5.6-9.95-9.85-17.15-9.82l-11.93.06v1.46c.03,5.4,1.4,9,5.12,10.78l-.45,1.01c-12.15-.62-16.57-6.34-16.6-12.86v-.34s-20.48.1-20.48.1c-2.5-5.73-9.89-20.77-14.42-28.29,3.69-5.64,4.8-8.69,4.78-11.72,0-1.46-1.03-2.81-2.94-4.15l1.34-1.58c3.5,2.8,7.57,6.15,12.99,11.19-2.67,7.21-5.01,12.29-7.91,16.69l2.39,4.83,21.72-.1-15.06-20.97c3.02-3.05,10.98-10.07,17.26-14.15,3.17,4.6,9.63,14.81,9.63,14.81h.11c.31-5.29,4-11.38,9.51-12.54l12.25-2.65c6.41-1.38,8.2-2.85,8.19-5.44,0-1.12-.57-2.13-2.83-3.47l1.45-1.92Zm-46.87,34.09c.68,1.01,2.26,3.14,3.96,5.49l20.03-.09c-4.76-7.85-6.92-11.33-9.98-16.04-4.38,2.27-11.33,7.7-14.01,10.64Zm5.55,7.62c1.25,1.79,2.6,3.48,3.4,4.6l15.75-.07c6.64-.03,13.63,3.76,19.64,13.41l.22-.11c-.46-1.24-1.48-4.27-1.49-6.07-.02-3.71.97-8.11,1.86-11.94l-39.38.19Z"/>
    <path class="cls-1" d="m203.69,359.24c2.24-1.36,2.8-2.38,2.8-3.5-.01-2.59-1.82-4.04-8.24-5.36l-12.28-2.53c-5.52-1.1-9.26-7.16-9.62-12.44h-.11s-6.37,10.27-9.49,14.9c-6.32-4.02-14.34-10.96-17.39-13.98l14.87-21.11-21.72.1-2.34,4.85c2.95,4.37,5.33,9.43,8.07,16.62-5.38,5.09-9.41,8.48-12.89,11.31l-1.36-1.57c1.91-1.36,2.91-2.71,2.91-4.18-.01-3.04-1.15-6.07-4.89-11.68,4.46-7.56,11.71-22.67,14.16-28.42l20.48-.1v-.34c-.03-6.53,4.33-12.29,16.48-13.02l.45,1.01c-3.7,1.82-5.04,5.42-5.01,10.83v1.46s11.93-.06,11.93-.06c7.2-.03,12.13-4.33,17.06-9.98l7.16-8.25,1.81,1.45c-2.35,3.05-4.24,7.67-4.21,13.3.06,11.81,1.53,14.96,4.38,22.37-3.36,2.38-10.54,7.36-14.13,10.42l-1.36-1.79c2.02-1.7,2.69-2.38,2.68-3.5,0-1.24-.24-2.7-.58-4.27l-19.24.09c-.56.9-1.11,2.14-1.11,3.04.02,4.95,2.29,8.77,9.61,10.19l14.98,2.97c6.53,1.32,10.16,7.15,10.19,14.24-2.8,2.04-9.31,6.35-12.56,8.84l-1.47-1.91Zm-31.61-21.23c3.02-4.74,5.14-8.24,9.83-16.14l-20.03.09c-1.68,2.37-3.24,4.52-3.91,5.53,2.71,2.91,9.72,8.28,14.11,10.51Zm30.74-18.37c-.92-3.82-1.95-8.21-1.97-11.92,0-1.8.99-4.84,1.43-6.08l-.23-.11c-5.92,9.7-12.88,13.56-19.51,13.59l-15.75.07c-.78,1.13-2.12,2.82-3.35,4.63l39.38-.19Z"/>
    <path class="cls-1" d="m278.36,178.82c.58,4.06,2.21,11.68,2.79,15.1-4.98,5.04-11.66,6.67-17.25,3.04l-12.78-8.36c-6.23-4.1-10.52-2.97-14,.56-.63.64-1.1,1.92-1.34,2.95l13.68,13.53c1.35-.88,2.54-1.76,3.41-2.64.79-.8.79-1.75.53-4.38l2.23-.33c.42,4.69,2.06,13.28,2.8,17.33-7.22,3.3-10.48,4.51-18.79,12.91-3.96,4-5.84,8.63-6.29,12.45l-2.31-.23.66-10.9c.44-7.48-.08-14-5.2-19.07l-8.48-8.39-1.03,1.04c-3.8,3.84-5.37,7.35-4,11.24l-1.03.4c-8.17-9.03-7.25-16.19-2.66-20.83l.24-.24-14.56-14.4c2.28-5.82,7.68-21.68,9.78-30.21,6.6-1.39,9.53-2.76,11.67-4.92,1.03-1.04,1.26-2.71.85-5.02l2.07-.17c.5,4.45,1.01,9.7,1.29,17.1-6.98,3.22-12.22,5.16-17.39,6.22l-1.72,5.1,15.44,15.27,4.16-25.48c4.3-.02,14.88.63,22.21,2.19-1,5.5-3.64,17.28-3.64,17.28l.08.08c3.96-3.52,10.87-5.23,15.58-2.15l10.54,6.78c5.51,3.55,7.82,3.78,9.64,1.94.79-.8,1.1-1.92.45-4.46l2.39-.33Zm-58.72.32c-.39,2.15-.61,4.3-.84,5.65l11.2,11.08c4.72,4.67,6.99,12.29,4.42,23.37l.24.08c.55-1.2,1.97-4.07,3.23-5.35,2.61-2.64,6.42-5.05,9.75-7.14l-28-27.69Zm1.46-9.32c-.23,1.19-.62,3.82-1.08,6.69l14.24,14.08c2.18-8.92,3.11-12.91,4.27-18.4-4.7-1.49-13.46-2.55-17.44-2.37Z"/>
    <path class="cls-1" d="m177.32,278.9c2.55.62,3.66.3,4.45-.5,1.82-1.84,1.57-4.15-2.04-9.62l-6.9-10.46c-3.13-4.68-1.5-11.61,1.98-15.61l-.08-.08s-11.76,2.77-17.24,3.83c-1.63-7.31-2.41-17.89-2.43-22.19l25.44-4.44-15.44-15.27-5.08,1.78c-1.01,5.18-2.89,10.44-6.03,17.46-7.4-.2-12.65-.65-17.11-1.1l.15-2.07c2.31.39,3.98.14,5.01-.9,2.14-2.16,3.47-5.11,4.79-11.72,8.5-2.2,24.3-7.77,30.1-10.11l14.56,14.4.24-.24c4.59-4.64,11.74-5.63,20.86,2.43l-.39,1.04c-3.91-1.33-7.4.28-11.2,4.12l-1.03,1.04,8.48,8.39c5.12,5.06,11.65,5.51,19.12,4.99l10.9-.78.25,2.31c-3.82.5-8.42,2.43-12.38,6.43-8.31,8.4-9.48,11.67-12.71,18.93-4.06-.69-12.66-2.24-17.36-2.61l.31-2.23c2.63.22,3.58.22,4.37-.58.87-.88,1.74-2.08,2.61-3.44l-13.68-13.53c-1.03.25-2.3.73-2.94,1.37-3.48,3.52-4.57,7.82-.4,14.01l8.5,12.68c3.69,5.55,2.14,12.24-2.85,17.28-3.42-.54-11.07-2.09-15.13-2.62l.31-2.39Zm-7.37-37.35c5.48-1.22,9.46-2.2,18.35-4.48l-14.24-14.08c-2.86.49-5.49.9-6.68,1.15-.14,3.98,1.02,12.72,2.56,17.41Zm34.74,8.72c2.05-3.35,4.42-7.18,7.03-9.83,1.27-1.28,4.12-2.73,5.31-3.29l-.08-.24c-11.04,2.69-18.69.5-23.41-4.17l-11.2-11.08c-1.35.25-3.5.5-5.64.91l28,27.69Z"/>
    <path class="cls-1" d="m294.69,79.61l-5.13,7.18c-4.62,0-7.95-2.76-8.79-8.02l-1.22-7.63c-.9-5.45-2.24-6.73-6.67-7.12l-1.35.71v14.75c1.09.19,1.92.38,2.31.38.71,0,1.28-.32,2.44-1.92l1.03.71c-1.54,1.86-4.3,5.32-6.22,8.21-4.81-1.92-8.08-2.95-13.85-2.95-3.08,0-4.43.77-6.41,2.44l-.9-1.03,5.58-5.13c2.24-2.05,4.75-4.68,4.75-8.98v-7.31h-1.35c-3.01,0-5.07,1.15-5.84,2.89l-.64-.26c.26-5.96,2.82-9.43,7.5-9.43h.32v-8.08c-5-3.78-6.35-4.3-7.25-4.3-.83,0-1.6.45-2.63,1.41l-.77-.9,8.08-6.8c3.14,2.31,6.99,5.19,9.94,7.38l2.69-1.73v-1.41c0-1.6-.32-3.27-.58-4.1v-.13l1.48.19c.19.77.32,2.37.32,3.59v1.09l7.57-4.87c5.07,1.54,9.62,3.91,9.62,10.13,0,4.94-2.69,8.79-8.91,11.48,4.87.58,6.61,4.36,7.38,8.79l1.09,6.29c.83,4.75,2.24,5.13,3.46,5.13.64,0,1.22-.51,1.86-1.54l1.09.9Zm-24.37-34.12c-1.15.77-2.63,1.67-2.63,1.67v19.05c0,5.96-3.53,9.11-7.7,11.86l.06.13c.83-.26,1.99-.58,3.53-.58s4.36,1.09,6.73,1.6v-33.73Zm3.53-2.24l-2.31,1.48v18.6c7.12-3.14,9.49-6.41,9.49-11.54s-2.89-7.31-7.18-8.53Z"/>
    <path class="cls-1" d="m280.6,78.71c.64,1.03,1.22,1.54,1.86,1.54,1.22,0,2.63-.38,3.46-5.13l1.09-6.29c.77-4.43,2.5-8.21,7.38-8.79-6.22-2.69-8.91-6.54-8.91-11.48,0-6.22,4.55-8.59,9.62-10.13l7.57,4.87v-1.09c0-1.22.13-2.82.32-3.59l1.48-.19v.13c-.26.83-.58,2.5-.58,4.1v1.41l2.69,1.73c2.95-2.18,6.8-5.07,9.94-7.38l8.08,6.8-.77.9c-1.03-.96-1.8-1.41-2.63-1.41-.9,0-2.24.51-7.25,4.3v8.08h.32c4.68,0,7.25,3.46,7.5,9.43l-.64.26c-.77-1.73-2.82-2.89-5.84-2.89h-1.35v7.31c0,4.3,2.5,6.93,4.75,8.98l5.58,5.13-.9,1.03c-1.99-1.67-3.33-2.44-6.41-2.44-5.77,0-9.04,1.03-13.85,2.95-1.92-2.89-4.68-6.35-6.22-8.21l1.03-.71c1.15,1.6,1.73,1.92,2.44,1.92.38,0,1.22-.19,2.31-.38v-14.75l-1.35-.71c-4.43.38-5.77,1.67-6.67,7.12l-1.22,7.63c-.83,5.26-4.17,8.02-8.79,8.02l-5.13-7.18,1.09-.9Zm12.57-26.94c0,5.13,2.37,8.4,9.49,11.54v-18.6l-2.31-1.48c-4.3,1.22-7.18,3.53-7.18,8.53Zm10.71,27.45c2.37-.51,5.19-1.6,6.73-1.6s2.69.32,3.53.58l.06-.13c-4.17-2.76-7.7-5.9-7.7-11.86v-19.05s-1.48-.9-2.63-1.67v33.73Z"/>
    <path class="cls-1" d="m339.05,85.96l-6.55,5.92c-4.51-.99-7.18-4.4-6.86-9.71l.45-7.72c.29-5.52-.75-7.06-4.99-8.38l-1.47.4-3.16,14.41c1.02.42,1.8.79,2.17.87.69.15,1.32-.04,2.79-1.36l.85.91c-1.9,1.49-5.34,4.28-7.84,6.68-4.29-2.91-7.26-4.61-12.9-5.85-3.01-.66-4.49-.2-6.79,1l-.66-1.19,6.55-3.82c2.63-1.52,5.64-3.55,6.56-7.75l1.57-7.14-1.32-.29c-2.94-.65-5.2.04-6.32,1.57l-.57-.39c1.53-5.77,4.78-8.6,9.35-7.6l.31.07,1.73-7.89c-4.08-4.77-5.28-5.56-6.16-5.75-.81-.18-1.66.09-2.87.81l-.56-1.04,9.35-4.91c2.57,2.93,5.71,6.57,8.13,9.34l3-1.11.3-1.38c.34-1.57.39-3.26.32-4.13l.03-.12,1.4.5c.02.79-.2,2.39-.46,3.58l-.23,1.06,8.44-3.14c4.62,2.59,8.56,5.88,7.22,11.96-1.06,4.82-4.52,8-11.17,9.3,4.64,1.61,5.52,5.68,5.32,10.16l-.28,6.37c-.2,4.81,1.09,5.49,2.28,5.75.63.14,1.3-.24,2.15-1.1l.87,1.11Zm-16.49-38.55c-1.29.5-2.93,1.06-2.93,1.06l-4.08,18.6c-1.28,5.83-5.4,8.14-10.06,9.94l.04.14c.87-.07,2.07-.14,3.57.19s4.03,2,6.23,3.01l7.24-32.95Zm3.93-1.44l-2.57.95-3.99,18.17c7.63-1.54,10.65-4.23,11.75-9.24,1.07-4.89-1.25-7.76-5.19-9.87Z"/>
    <path class="cls-1" d="m325.48,82.06c.41,1.14.86,1.76,1.49,1.9,1.19.26,2.65.19,4.48-4.27l2.41-5.91c1.7-4.16,4.2-7.48,9.09-7-5.5-3.96-7.3-8.3-6.25-13.12,1.33-6.08,6.29-7.42,11.57-7.83l6.35,6.38.23-1.06c.26-1.19.73-2.73,1.08-3.44l1.48.13-.03.13c-.43.76-1.1,2.32-1.44,3.89l-.3,1.38,2.26,2.27c3.35-1.5,7.73-3.49,11.29-5.07l6.43,8.37-.94.71c-.8-1.16-1.45-1.76-2.27-1.94-.88-.19-2.3.02-8,2.64l-1.73,7.89.31.07c4.57,1,6.33,4.94,5.31,10.82l-.68.11c-.38-1.86-2.14-3.42-5.08-4.07l-1.32-.29-1.57,7.14c-.92,4.2.96,7.3,2.71,9.79l4.35,6.21-1.1.81c-1.58-2.06-2.73-3.1-5.74-3.76-5.64-1.24-9.05-.94-14.16-.09-1.26-3.23-3.21-7.21-4.32-9.35l1.15-.47c.78,1.81,1.28,2.25,1.97,2.4.38.08,1.23.07,2.34.12l3.16-14.41-1.16-.98c-4.4-.57-6,.39-8.04,5.52l-2.83,7.19c-1.94,4.96-5.79,6.94-10.3,5.95l-3.47-8.12,1.26-.64Zm18.05-23.61c-1.1,5.01.51,8.71,6.79,13.31l3.99-18.17-1.94-1.94c-4.46.27-7.77,1.9-8.84,6.79Zm4.57,29.11c2.43,0,5.42-.45,6.92-.12,1.5.33,2.56.89,3.32,1.32l.09-.11c-3.48-3.59-6.25-7.41-4.97-13.24l4.09-18.6s-1.25-1.19-2.21-2.19l-7.24,32.95Z"/>
    <path class="cls-1" d="m381.01,101.68l-7.67,4.37c-4.19-1.93-6.07-5.83-4.62-10.96l2.09-7.44c1.47-5.33.78-7.06-3.07-9.26l-1.52.08-6.18,13.39c.91.63,1.59,1.16,1.94,1.32.64.3,1.3.25,3.02-.73l.64,1.07c-2.18,1.04-6.13,3.03-9.09,4.85-3.56-3.76-6.1-6.07-11.34-8.48-2.8-1.29-4.34-1.16-6.84-.47l-.39-1.31,7.22-2.32c2.9-.92,6.27-2.26,8.07-6.16l3.06-6.64-1.22-.56c-2.74-1.26-5.08-1.08-6.51.17l-.48-.5c2.73-5.31,6.51-7.38,10.76-5.42l.29.13,3.39-7.34c-2.96-5.53-3.96-6.56-4.78-6.94-.76-.35-1.64-.26-2.98.18l-.32-1.14,10.19-2.79c1.89,3.41,4.17,7.65,5.94,10.86l3.17-.44.59-1.28c.67-1.46,1.08-3.11,1.2-3.97l.05-.12,1.26.79c-.15.78-.7,2.29-1.21,3.39l-.46.99,8.91-1.25c3.96,3.52,7.1,7.58,4.49,13.23-2.07,4.48-6.13,6.85-12.9,6.69,4.18,2.57,4.17,6.73,3.01,11.07l-1.64,6.16c-1.23,4.66-.11,5.6,1,6.11.58.27,1.32.04,2.33-.62l.61,1.27Zm-7.83-41.19c-1.37.22-3.09.41-3.09.41l-7.98,17.29c-2.5,5.42-7.02,6.79-11.96,7.55v.14c.87.12,2.05.31,3.45.95,1.4.64,3.5,2.82,5.44,4.28l14.13-30.63Zm4.14-.56l-2.71.37-7.79,16.89c7.78.13,11.31-1.85,13.45-6.5,2.1-4.54.44-7.85-2.95-10.75Z"/>
    <path class="cls-1" d="m368.59,94.96c.15,1.2.46,1.91,1.04,2.18,1.11.51,2.55.75,5.29-3.21l3.62-5.25c2.55-3.7,5.71-6.41,10.38-4.89-4.52-5.05-5.35-9.67-3.28-14.16,2.61-5.65,7.74-5.9,12.98-5.17l4.83,7.6.46-.99c.51-1.11,1.3-2.51,1.8-3.13l1.42.44-.05.12c-.58.65-1.57,2.03-2.24,3.49l-.59,1.28,1.72,2.7c3.59-.74,8.29-1.75,12.12-2.53l4.49,9.56-1.07.49c-.53-1.3-1.04-2.03-1.8-2.38-.82-.38-2.25-.47-8.38.87l-3.38,7.34.29.13c4.25,1.96,5.13,6.18,2.86,11.7l-.69-.04c.03-1.9-1.35-3.8-4.09-5.07l-1.22-.56-3.06,6.64c-1.8,3.9-.63,7.34.55,10.14l2.92,7-1.24.56c-1.11-2.35-2.01-3.61-4.8-4.9-5.24-2.42-8.64-2.86-13.81-3.12-.54-3.43-1.59-7.73-2.21-10.06l1.23-.21c.38,1.94.77,2.47,1.41,2.77.35.16,1.19.34,2.26.62l6.18-13.39-.93-1.21c-4.18-1.5-5.94-.9-9.04,3.67l-4.3,6.42c-2.96,4.43-7.14,5.53-11.34,3.6l-1.65-8.67,1.37-.36Zm20.92,10.22c2.37.53,5.39.72,6.79,1.37,1.4.64,2.31,1.42,2.96,2l.11-.09c-2.63-4.25-4.52-8.58-2.02-14l7.98-17.29s-.96-1.43-1.69-2.62l-14.13,30.63Zm1.78-29.41c-2.15,4.66-1.37,8.62,3.78,14.46l7.79-16.89-1.48-2.31c-4.41-.69-8,.19-10.09,4.74Z"/>
    <path class="cls-1" d="m418.63,126.03l-8.43,2.63c-3.68-2.79-4.67-7-2.16-11.7l3.64-6.82c2.58-4.89,2.28-6.72-1.02-9.7l-1.5-.25-8.91,11.76c.75.81,1.3,1.47,1.61,1.7.56.43,1.22.52,3.1-.06l.39,1.18c-2.35.55-6.64,1.65-9.92,2.79-2.67-4.44-4.66-7.23-9.26-10.72-2.45-1.86-3.99-2.06-6.58-1.93l-.1-1.36,7.55-.72c3.03-.28,6.61-.86,9.21-4.29l4.42-5.83-1.07-.81c-2.4-1.82-4.74-2.14-6.39-1.22l-.36-.59c3.81-4.6,7.94-5.81,11.67-2.98l.26.19,4.88-6.44c-1.7-6.04-2.47-7.26-3.18-7.8-.66-.5-1.55-.61-2.95-.46l-.07-1.18,10.55-.54c1.11,3.74,2.43,8.36,3.47,11.88l3.19.25.85-1.12c.97-1.28,1.72-2.8,2.02-3.62l.08-.1,1.06,1.04c-.31.73-1.18,2.08-1.91,3.06l-.66.87,8.98.69c3.11,4.29,5.3,8.93,1.55,13.89-2.98,3.94-7.45,5.38-14.04,3.76,3.54,3.4,2.63,7.46.57,11.46l-2.93,5.67c-2.2,4.29-1.31,5.45-.34,6.18.51.39,1.28.33,2.41-.1l.33,1.37Zm1.18-41.91c-1.38-.08-3.1-.26-3.1-.26l-11.5,15.18c-3.6,4.75-8.31,5.13-13.3,4.81l-.03.14c.82.3,1.93.74,3.16,1.67s2.82,3.5,4.4,5.35l20.37-26.89Zm4.17.34l-2.73-.22-11.23,14.82c7.57,1.79,11.44.62,14.54-3.47,3.02-3.99,2.12-7.57-.57-11.14Z"/>
    <path class="cls-1" d="m407.94,116.8c-.11,1.21.04,1.96.55,2.35.97.74,2.33,1.28,5.86-2l4.66-4.35c3.29-3.06,6.95-5.03,11.18-2.55-3.33-5.9-3.15-10.6-.17-14.53,3.76-4.96,8.82-4.1,13.79-2.27l3.09,8.46.66-.87c.74-.97,1.81-2.17,2.42-2.67l1.29.74-.08.1c-.71.51-1.97,1.64-2.94,2.92l-.85,1.12,1.1,3.01c3.67.04,8.48.07,12.38.13l2.33,10.3-1.16.25c-.24-1.39-.58-2.21-1.24-2.71-.72-.54-2.1-.95-8.37-.95l-4.88,6.44.26.19c3.73,2.83,3.68,7.14.29,12.05l-.67-.18c.43-1.84-.51-4-2.91-5.83l-1.07-.81-4.42,5.83c-2.6,3.42-2.19,7.03-1.64,10.02l1.35,7.46-1.34.28c-.58-2.53-1.19-3.96-3.64-5.82-4.6-3.49-7.83-4.64-12.82-6.02.21-3.46.1-7.89,0-10.3l1.24.06c-.05,1.98.22,2.58.78,3.01.31.23,1.09.58,2.07,1.09l8.91-11.76-.65-1.38c-3.76-2.37-5.61-2.16-9.62,1.65l-5.58,5.35c-3.84,3.69-8.16,3.87-11.84,1.08l.25-8.82,1.41-.06Zm18.24,14.47c2.2,1.02,5.11,1.86,6.34,2.79s1.95,1.88,2.46,2.59l.13-.06c-1.66-4.72-2.57-9.35,1.03-14.1l11.5-15.18s-.63-1.61-1.09-2.92l-20.38,26.89Zm8.04-28.34c-3.1,4.09-3.18,8.13.59,14.93l11.23-14.82-.95-2.57c-4.16-1.62-7.85-1.53-10.88,2.46Z"/>
    <path class="cls-1" d="m450.15,157.88l-8.79.76c-3-3.51-3.06-7.84.4-11.89l5.02-5.88c3.57-4.22,3.67-6.08,1.09-9.69l-1.41-.57-11.22,9.57c.56.96.96,1.71,1.21,2.01.46.54,1.08.77,3.04.61l.13,1.24c-2.41.04-6.84.18-10.28.59-1.66-4.91-3-8.06-6.74-12.46-2-2.34-3.46-2.87-6.02-3.3l.2-1.35,7.52.92c3.02.38,6.64.57,9.91-2.22l5.56-4.74-.87-1.02c-1.96-2.29-4.17-3.11-5.98-2.57l-.22-.65c4.7-3.67,9-3.97,12.04-.41l.21.24,6.15-5.24c-.37-6.26-.85-7.62-1.43-8.3-.54-.63-1.38-.93-2.78-1.09l.18-1.17,10.42,1.74c.28,3.89.58,8.69.84,12.35l3.07.93,1.07-.92c1.22-1.04,2.28-2.37,2.75-3.1l.1-.08.81,1.25c-.46.65-1.6,1.79-2.52,2.58l-.83.71,8.62,2.59c2.12,4.85,3.27,9.86-1.47,13.9-3.76,3.2-8.43,3.65-14.52.67,2.72,4.08.97,7.86-1.9,11.31l-4.07,4.91c-3.07,3.71-2.45,5.04-1.66,5.96.42.49,1.18.59,2.38.42l.02,1.41Zm10.15-40.68c-1.33-.38-2.98-.92-2.98-.92l-14.49,12.36c-4.54,3.87-9.22,3.22-14.02,1.84l-.06.13c.74.47,1.73,1.14,2.73,2.31,1,1.17,2,4.03,3.15,6.16l25.67-21.89Zm4,1.23l-2.62-.8-14.15,12.07c7.01,3.38,11.04,3.06,14.94-.27,3.81-3.25,3.69-6.94,1.83-11Z"/>
    <path class="cls-1" d="m441.69,146.58c-.37,1.15-.38,1.93.04,2.41.79.93,2,1.75,6.15-.69l5.49-3.25c3.87-2.29,7.87-3.42,11.47-.09-1.99-6.48-.81-11.03,2.95-14.23,4.73-4.04,9.49-2.11,13.95.74l1.2,8.92.83-.71c.93-.79,2.23-1.73,2.94-2.09l1.1,1-.1.08c-.8.35-2.28,1.18-3.5,2.22l-1.07.92.43,3.17c3.57.83,8.27,1.88,12.06,2.78l.07,10.56h-1.18c.07-1.41-.09-2.29-.63-2.92-.58-.68-1.85-1.37-7.97-2.73l-6.15,5.24.21.24c3.04,3.56,2.07,7.76-2.3,11.83l-.61-.32c.82-1.71.37-4.02-1.59-6.31l-.87-1.02-5.56,4.74c-3.27,2.79-3.65,6.4-3.75,9.44l-.28,7.58-1.36-.02c-.02-2.59-.31-4.12-2.31-6.46-3.75-4.39-6.65-6.21-11.23-8.62.95-3.34,1.79-7.68,2.21-10.06l1.2.32c-.47,1.92-.34,2.57.12,3.1.25.29.94.8,1.79,1.51l11.22-9.57-.34-1.48c-3.17-3.12-5.02-3.31-9.75-.46l-6.6,4.03c-4.54,2.78-8.8,2.03-11.8-1.48l2.14-8.57,1.39.25Zm14.72,18.05c1.93,1.47,4.59,2.91,5.59,4.08,1,1.17,1.5,2.26,1.85,3.06l.14-.03c-.61-4.96-.5-9.68,4.03-13.55l14.49-12.36s-.27-1.7-.44-3.08l-25.67,21.89Zm13.93-25.96c-3.9,3.33-4.85,7.26-2.62,14.71l14.15-12.07-.38-2.71c-3.72-2.48-7.35-3.18-11.15.07Z"/>
    <path class="cls-1" d="m474.1,195.76l-8.75-1.15c-2.17-4.07-1.31-8.31,2.94-11.53l6.16-4.67c4.39-3.36,4.89-5.15,3.14-9.24l-1.26-.86-13.01,6.94c.34,1.05.57,1.88.75,2.22.33.62.89.98,2.84,1.25l-.14,1.24c-2.37-.48-6.72-1.29-10.17-1.63-.57-5.15-1.2-8.52-3.92-13.61-1.45-2.72-2.76-3.54-5.17-4.51l.48-1.28,7.15,2.51c2.87,1.01,6.36,1.98,10.16-.04l6.45-3.44-.63-1.19c-1.42-2.66-3.4-3.93-5.29-3.79l-.08-.69c5.38-2.58,9.65-1.95,11.85,2.18l.15.28,7.13-3.8c.98-6.19.8-7.62.38-8.42-.39-.74-1.15-1.2-2.48-1.66l.43-1.1,9.8,3.93c-.56,3.86-1.29,8.61-1.83,12.24l2.8,1.56,1.25-.66c1.42-.75,2.74-1.82,3.35-2.44l.11-.06.52,1.39c-.59.53-1.94,1.4-3.02,1.97l-.96.51,7.86,4.38c1.03,5.19,1.08,10.33-4.41,13.26-4.36,2.32-9.02,1.76-14.32-2.46,1.78,4.57-.74,7.88-4.28,10.64l-5.03,3.92c-3.79,2.97-3.47,4.39-2.9,5.47.3.57,1.03.83,2.23.92l-.28,1.38Zm18.63-37.56c-1.22-.66-2.71-1.54-2.71-1.54l-16.81,8.96c-5.26,2.81-9.7,1.17-14.09-1.21l-.08.12c.62.62,1.44,1.48,2.17,2.84.72,1.36,1.09,4.36,1.75,6.7l29.76-15.88Zm3.64,2.06l-2.39-1.34-16.41,8.75c6.12,4.8,10.13,5.36,14.65,2.94,4.41-2.35,5.09-5.99,4.15-10.35Z"/>
    <path class="cls-1" d="m468.26,182.9c-.6,1.05-.79,1.8-.48,2.37.57,1.08,1.58,2.14,6.16.64l6.06-2c4.27-1.4,8.42-1.66,11.22,2.37-.55-6.76,1.58-10.94,5.93-13.27,5.49-2.93,9.73-.03,13.47,3.72l-.74,8.97.96-.51c1.07-.57,2.55-1.21,3.32-1.41l.86,1.21-.11.06c-.86.17-2.48.67-3.89,1.42l-1.24.66-.26,3.19c3.31,1.58,7.67,3.61,11.19,5.3l-2.2,10.33-1.15-.26c.37-1.36.4-2.25,0-2.98-.42-.79-1.51-1.74-7.2-4.37l-7.13,3.8.15.28c2.2,4.13.36,8.02-4.79,11.06l-.53-.45c1.17-1.49,1.22-3.85-.2-6.51l-.63-1.19-6.45,3.44c-3.79,2.02-4.93,5.47-5.69,8.41l-1.9,7.34-1.33-.31c.54-2.54.58-4.09-.87-6.81-2.72-5.09-5.16-7.5-9.12-10.83,1.64-3.06,3.4-7.12,4.32-9.35l1.11.57c-.87,1.77-.88,2.43-.55,3.06.18.34.74.98,1.43,1.86l13.01-6.94v-1.52c-2.43-3.72-4.2-4.31-9.43-2.53l-7.31,2.52c-5.03,1.74-9.04.09-11.21-3.98l3.92-7.91,1.31.54Zm10.5,20.78c1.57,1.85,3.86,3.83,4.58,5.19.72,1.36.98,2.53,1.15,3.38h.14c.47-4.98,1.58-9.57,6.85-12.38l16.81-8.96s.1-1.72.23-3.1l-29.76,15.88Zm19.18-22.37c-4.53,2.41-6.3,6.05-5.72,13.81l16.41-8.75.21-2.73c-3.1-3.22-6.49-4.68-10.91-2.32Z"/>
    <path class="cls-1" d="m489.37,237.89l-8.3-3c-1.25-4.45.5-8.4,5.34-10.63l7.02-3.24c5.01-2.34,5.88-3.98,5.05-8.35l-1.04-1.11-14.2,3.99c.11,1.1.15,1.96.25,2.33.19.68.66,1.15,2.51,1.83l-.4,1.18c-2.21-.98-6.29-2.7-9.59-3.77.55-5.15.65-8.58-.91-14.13-.83-2.96-1.94-4.05-4.08-5.51l.75-1.14,6.45,3.98c2.58,1.61,5.79,3.3,9.93,2.14l7.04-1.98-.36-1.3c-.82-2.9-2.48-4.57-4.36-4.84l.07-.69c5.81-1.37,9.84.17,11.11,4.67l.09.31,7.78-2.19c2.29-5.84,2.42-7.27,2.18-8.14-.23-.8-.87-1.42-2.07-2.15l.66-.98,8.73,5.94c-1.37,3.65-3.11,8.13-4.41,11.57l2.4,2.12,1.36-.38c1.54-.43,3.06-1.19,3.8-1.67l.12-.04.21,1.47c-.69.39-2.2.95-3.37,1.28l-1.05.29,6.74,5.97c-.11,5.29-1.16,10.32-7.15,12-4.75,1.33-9.19-.22-13.46-5.48.76,4.85-2.41,7.54-6.46,9.48l-5.76,2.75c-4.34,2.09-4.33,3.55-4,4.72.17.62.82,1.03,1.98,1.37l-.57,1.29Zm26.26-32.69c-1.05-.9-2.32-2.08-2.32-2.08l-18.34,5.15c-5.74,1.61-9.72-.93-13.5-4.2l-.11.1c.47.73,1.09,1.76,1.51,3.24.42,1.48.13,4.49.28,6.92l32.48-9.12Zm3.11,2.79l-2.04-1.82-17.91,5.03c4.95,6,8.74,7.4,13.68,6.02,4.82-1.35,6.26-4.76,6.27-9.22Z"/>
    <path class="cls-1" d="m486.43,224.08c-.82.9-1.15,1.59-.98,2.21.33,1.17,1.08,2.43,5.88,1.95l6.35-.65c4.47-.46,8.58.19,10.45,4.72.91-6.72,3.89-10.35,8.64-11.69,5.99-1.68,9.51,2.06,12.36,6.52l-2.65,8.6,1.05-.29c1.17-.33,2.75-.64,3.54-.66l.58,1.37-.12.04c-.87-.02-2.56.12-4.11.55l-1.36.38-.94,3.06c2.9,2.25,6.72,5.17,9.79,7.58l-4.36,9.62-1.07-.5c.65-1.25.87-2.11.65-2.91-.24-.87-1.1-2.02-6.1-5.82l-7.78,2.19.09.31c1.27,4.51-1.37,7.91-7.05,9.77l-.42-.55c1.46-1.21,2.02-3.5,1.2-6.4l-.36-1.3-7.04,1.98c-4.14,1.16-5.99,4.28-7.36,7l-3.43,6.76-1.23-.59c1.07-2.36,1.44-3.87.61-6.83-1.56-5.56-3.43-8.43-6.59-12.54,2.26-2.63,4.85-6.22,6.22-8.21l.96.8c-1.23,1.54-1.38,2.19-1.19,2.87.1.37.51,1.12.99,2.12l14.2-3.99.32-1.49c-1.57-4.16-3.17-5.11-8.66-4.5l-7.68.89c-5.29.62-8.84-1.85-10.09-6.29l5.53-6.88,1.16.81Zm5.8,22.55c1.13,2.15,2.95,4.57,3.36,6.05.42,1.48.42,2.68.4,3.55l.14.03c1.53-4.76,3.6-9,9.34-10.62l18.34-5.15s.46-1.66.89-2.98l-32.48,9.12Zm23.53-17.73c-4.94,1.39-7.45,4.56-8.55,12.26l17.91-5.03.8-2.62c-2.34-3.81-5.34-5.96-10.15-4.61Z"/>
    <path class="cls-1" d="m495.25,282.31l-7.47-4.71c-.27-4.61,2.29-8.1,7.5-9.23l7.55-1.66c5.39-1.21,6.59-2.63,6.72-7.07l-.78-1.3-14.73.85c-.13,1.1-.27,1.94-.25,2.33.04.7.39,1.26,2.06,2.32l-.65,1.07c-1.95-1.43-5.56-3.98-8.55-5.74,1.64-4.91,2.48-8.24,2.15-14-.18-3.07-1.02-4.37-2.8-6.26l.97-.96,5.44,5.28c2.18,2.12,4.95,4.47,9.24,4.22l7.3-.42-.08-1.34c-.17-3.01-1.44-4.99-3.22-5.66l.22-.66c5.97-.09,9.57,2.27,9.84,6.95l.02.32,8.07-.47c3.49-5.21,3.92-6.59,3.87-7.48-.05-.83-.54-1.57-1.56-2.54l.85-.82,7.25,7.67c-2.12,3.27-4.78,7.28-6.79,10.35l1.88,2.59,1.41-.08c1.6-.09,3.25-.51,4.06-.81h.13s-.11,1.48-.11,1.48c-.76.24-2.35.46-3.57.53l-1.09.06,5.3,7.27c-1.24,5.15-3.35,9.83-9.56,10.19-4.93.28-8.93-2.18-11.97-8.24-.3,4.9-3.97,6.85-8.35,7.87l-6.21,1.45c-4.69,1.11-4.99,2.54-4.92,3.75.04.64.58,1.19,1.64,1.77l-.83,1.14Zm32.66-26.3c-.83-1.11-1.82-2.53-1.82-2.53l-19.02,1.1c-5.95.34-9.3-3-12.29-7l-.12.07c.3.82.69,1.95.78,3.49s-.84,4.42-1.21,6.82l33.68-1.94Zm2.44,3.39l-1.61-2.22-18.57,1.07c3.55,6.93,6.95,9.11,12.07,8.81,4.99-.29,7.13-3.3,8.1-7.66Z"/>
    <path class="cls-1" d="m495.34,268.19c-.99.7-1.47,1.31-1.43,1.95.07,1.22.54,2.6,5.32,3.16l6.34.73c4.46.51,8.34,2.02,9.2,6.86,2.33-6.37,6.02-9.28,10.95-9.56,6.21-.36,8.84,4.05,10.67,9.02l-4.43,7.84,1.09-.06c1.22-.07,2.82-.03,3.6.11l.28,1.46h-.13c-.85-.2-2.53-.42-4.13-.33l-1.41.08-1.57,2.79c2.35,2.82,5.45,6.5,7.94,9.5l-6.32,8.46-.94-.72c.9-1.08,1.3-1.87,1.26-2.71-.05-.9-.64-2.21-4.71-6.99l-8.07.47.02.32c.27,4.67-3.04,7.43-8.98,8.03l-.29-.63c1.68-.87,2.72-2.98,2.54-5.99l-.08-1.34-7.3.42c-4.29.25-6.77,2.9-8.69,5.26l-4.8,5.87-1.08-.84c1.55-2.08,2.24-3.47,2.06-6.54-.33-5.76-1.55-8.97-3.74-13.66,2.77-2.09,6.07-5.04,7.84-6.68l.76.98c-1.53,1.25-1.82,1.84-1.78,2.54.02.38.26,1.21.52,2.28l14.73-.85.63-1.39c-.64-4.4-2-5.67-7.49-6.25l-7.69-.78c-5.3-.53-8.24-3.7-8.51-8.31l6.88-5.54.96,1.04Zm.83,23.27c.65,2.34,1.9,5.09,1.99,6.63.09,1.54-.17,2.71-.37,3.55l.13.06c2.51-4.32,5.45-8.02,11.4-8.37l19.02-1.1s.81-1.52,1.51-2.72l-33.68,1.94Zm26.79-12.27c-5.12.3-8.25,2.85-10.98,10.14l18.57-1.07,1.34-2.39c-1.46-4.22-3.94-6.97-8.93-6.68Z"/>
    <path class="cls-1" d="m491.47,326.96l-6.28-6.2c.73-4.56,3.98-7.42,9.3-7.41h7.73c5.53-.02,7-1.15,8.08-5.46l-.48-1.44-14.56-2.33c-.36,1.05-.68,1.84-.75,2.22-.11.7.11,1.32,1.51,2.71l-.86.9c-1.59-1.81-4.58-5.08-7.12-7.44,2.66-4.45,4.19-7.51,5.1-13.21.49-3.04-.06-4.49-1.39-6.72l1.16-.72,4.19,6.32c1.67,2.54,3.87,5.42,8.12,6.1l7.22,1.15.21-1.33c.48-2.98-.34-5.19-1.93-6.22l.35-.59c5.85,1.19,8.86,4.27,8.13,8.9l-.05.32,7.98,1.28c4.53-4.34,5.25-5.59,5.39-6.48.13-.82-.19-1.65-.98-2.82l1.01-.62,5.44,9.05c-2.78,2.74-6.23,6.08-8.85,8.65l1.29,2.93,1.39.22c1.58.25,3.28.2,4.14.08l.13.02-.42,1.43c-.79.07-2.39-.06-3.6-.25l-1.08-.17,3.62,8.24c-2.32,4.76-5.38,8.88-11.52,7.9-4.88-.78-8.25-4.05-9.93-10.62-1.34,4.72-5.35,5.83-9.84,5.9l-6.38.08c-4.82.07-5.42,1.41-5.61,2.61-.1.63.31,1.28,1.23,2.08l-1.06.94Zm37.54-18.68c-.58-1.26-1.23-2.86-1.23-2.86l-18.81-3.01c-5.89-.94-8.44-4.92-10.5-9.47l-.14.04c.12.86.26,2.05.01,3.57-.24,1.52-1.76,4.13-2.65,6.4l33.31,5.32Zm1.66,3.84l-1.09-2.51-18.37-2.94c1.98,7.53,4.84,10.38,9.9,11.19,4.94.79,7.67-1.7,9.56-5.75Z"/>
    <path class="cls-1" d="m494.58,313.19c-1.11.47-1.71.96-1.81,1.59-.19,1.2-.04,2.66,4.52,4.23l6.03,2.07c4.25,1.46,7.71,3.76,7.51,8.67,3.64-5.72,7.87-7.77,12.74-6.99,6.14.98,7.77,5.85,8.49,11.1l-6.01,6.7,1.08.17c1.2.19,2.77.57,3.5.88l-.04,1.49-.13-.02c-.78-.38-2.38-.96-3.96-1.22l-1.39-.22-2.13,2.39c1.69,3.26,3.93,7.51,5.71,10.98l-7.99,6.91-.77-.9c1.11-.86,1.68-1.55,1.81-2.37.14-.89-.15-2.3-3.1-7.83l-7.98-1.28-.05.32c-.74,4.62-4.56,6.61-10.49,5.92l-.15-.67c1.83-.49,3.29-2.33,3.77-5.31l.21-1.33-7.22-1.15c-4.24-.68-7.23,1.38-9.62,3.27l-5.95,4.7-.87-1.05c1.96-1.7,2.93-2.91,3.42-5.95.91-5.7.41-9.09-.73-14.14,3.15-1.44,7.01-3.62,9.09-4.85l.53,1.12c-1.77.89-2.17,1.41-2.28,2.1-.06.38,0,1.23.02,2.34l14.57,2.33.91-1.22c.32-4.43-.74-5.96-5.98-7.71l-7.34-2.41c-5.06-1.65-7.26-5.38-6.53-9.94l7.9-3.93.71,1.22Zm-4.18,22.91c.13,2.42.76,5.38.52,6.9-.24,1.52-.74,2.61-1.13,3.39l.12.08c3.38-3.68,7.04-6.67,12.93-5.73l18.81,3.01s1.12-1.31,2.06-2.33l-33.31-5.32Zm28.8-6.24c-5.07-.81-8.67,1.02-12.9,7.55l18.37,2.94,1.82-2.05c-.53-4.43-2.35-7.65-7.29-8.44Z"/>
    <path class="cls-1" d="m478.19,369.77l-4.81-7.4c1.69-4.3,5.48-6.39,10.68-5.24l7.55,1.66c5.4,1.16,7.09.38,9.07-3.6l-.16-1.51-13.73-5.4c-.58.94-1.06,1.65-1.2,2.01-.26.66-.17,1.31.9,2.97l-1.03.7c-1.17-2.11-3.38-5.95-5.36-8.79,3.55-3.77,5.7-6.44,7.81-11.81,1.13-2.87.9-4.4.08-6.86l1.28-.46,2.73,7.07c1.09,2.84,2.62,6.13,6.62,7.7l6.8,2.68.49-1.25c1.1-2.8.78-5.14-.55-6.49l.47-.5c5.46,2.42,7.74,6.08,6.03,10.43l-.12.3,7.52,2.96c5.35-3.27,6.32-4.34,6.65-5.17.3-.78.17-1.66-.35-2.96l1.12-.39,3.37,10.01c-3.3,2.08-7.39,4.6-10.5,6.55l.63,3.14,1.31.52c1.49.59,3.16.9,4.03.96l.12.05-.72,1.3c-.79-.1-2.33-.57-3.46-1.02l-1.01-.4,1.77,8.83c-3.29,4.15-7.16,7.52-12.95,5.25-4.6-1.81-7.19-5.72-7.42-12.5-2.32,4.33-6.48,4.55-10.88,3.65l-6.25-1.29c-4.72-.96-5.6.21-6.04,1.35-.23.6.03,1.32.75,2.29l-1.23.69Zm40.67-10.2c-.29-1.36-.59-3.06-.59-3.06l-17.73-6.97c-5.55-2.18-7.18-6.62-8.23-11.5h-.14c-.07.88-.19,2.08-.75,3.51-.56,1.43-2.61,3.66-3.96,5.68l31.39,12.34Zm.8,4.1l-.53-2.69-17.31-6.81c.32,7.77,2.5,11.18,7.27,13.06,4.66,1.83,7.86,0,10.57-3.56Z"/>
    <path class="cls-1" d="m484.19,356.98c-1.19.22-1.88.57-2.11,1.17-.45,1.13-.6,2.59,3.51,5.1l5.45,3.32c3.84,2.33,6.72,5.33,5.48,10.08,4.78-4.8,9.35-5.9,13.95-4.1,5.79,2.28,6.33,7.38,5.91,12.66l-7.31,5.26,1.01.4c1.13.45,2.58,1.15,3.23,1.61l-.36,1.44-.12-.05c-.68-.54-2.12-1.45-3.61-2.04l-1.31-.52-2.6,1.87c.95,3.54,2.23,8.18,3.23,11.95l-9.28,5.03-.55-1.04c1.27-.6,1.97-1.16,2.27-1.93.33-.84.34-2.28-1.35-8.32l-7.52-2.96-.12.3c-1.71,4.36-5.88,5.48-11.52,3.53v-.69c1.89-.08,3.71-1.57,4.82-4.38l.49-1.25-6.8-2.68c-4-1.57-7.36-.21-10.09,1.13l-6.82,3.32-.63-1.21c2.28-1.24,3.49-2.21,4.62-5.08,2.11-5.37,2.35-8.79,2.32-13.97,3.39-.73,7.62-2.03,9.92-2.79l.28,1.21c-1.92.49-2.42.91-2.68,1.56-.14.36-.27,1.21-.49,2.29l13.73,5.4,1.15-1c1.26-4.26.56-5.98-4.18-8.81l-6.66-3.93c-4.59-2.7-5.93-6.81-4.25-11.11l8.56-2.15.44,1.34Zm-9,21.48c-.39,2.4-.41,5.42-.97,6.85-.56,1.43-1.28,2.39-1.83,3.07l.1.11c4.09-2.87,8.31-5,13.86-2.82l17.73,6.97s1.38-1.04,2.51-1.84l-31.39-12.34Zm29.46.08c-4.77-1.88-8.69-.87-14.22,4.61l17.31,6.81,2.22-1.61c.44-4.45-.65-7.98-5.31-9.81Z"/>
    <path class="cls-1" d="m456.05,408.72l-3.11-8.26c2.57-3.83,6.72-5.07,11.55-2.83l7.02,3.24c5.03,2.29,6.84,1.89,9.63-1.57l.16-1.51-12.25-8.22c-.77.8-1.39,1.38-1.61,1.7-.39.59-.45,1.24.24,3.09l-1.16.46c-.69-2.31-2.03-6.54-3.35-9.74,4.28-2.92,6.95-5.07,10.17-9.86,1.71-2.56,1.83-4.1,1.55-6.68l1.35-.17,1.15,7.49c.45,3.01,1.25,6.55,4.81,8.94l6.07,4.07.75-1.12c1.68-2.5,1.86-4.85.85-6.45l.57-.39c4.81,3.54,6.26,7.59,3.65,11.48l-.18.27,6.71,4.5c5.93-2.05,7.11-2.88,7.61-3.62.46-.69.52-1.58.29-2.97l1.17-.14,1.14,10.5c-3.67,1.32-8.21,2.91-11.66,4.15l-.06,3.2,1.17.79c1.33.89,2.9,1.56,3.73,1.81l.11.07-.98,1.12c-.75-.27-2.15-1.06-3.16-1.73l-.91-.61-.17,9c-4.1,3.35-8.61,5.81-13.77,2.34-4.1-2.75-5.8-7.13-4.57-13.8-3.19,3.73-7.3,3.06-11.4,1.23l-5.83-2.6c-4.41-1.95-5.51-.99-6.19.02-.36.53-.25,1.3.24,2.4l-1.35.41Zm41.91-1.23c0-1.39.08-3.11.08-3.11l-15.82-10.61c-4.95-3.32-5.6-8-5.57-13l-.14-.02c-.25.84-.63,1.97-1.48,3.25s-3.33,3.01-5.08,4.7l28.02,18.79Zm-.1,4.18l.06-2.74-15.45-10.36c-1.36,7.66.04,11.46,4.3,14.31,4.16,2.79,7.68,1.68,11.09-1.21Z"/>
    <path class="cls-1" d="m464.65,397.52c-1.21-.04-1.96.16-2.31.69-.68,1.01-1.15,2.4,2.33,5.73l4.61,4.41c3.25,3.1,5.42,6.65,3.19,11.02,5.7-3.67,10.4-3.76,14.5-1.01,5.17,3.46,4.6,8.57,3.06,13.63l-8.26,3.57.91.61c1.01.68,2.27,1.68,2.8,2.27l-.66,1.33-.11-.07c-.55-.68-1.76-1.87-3.09-2.77l-1.17-.79-2.94,1.27c.17,3.66.42,8.47.59,12.36l-10.15,2.92-.32-1.14c1.37-.32,2.17-.71,2.64-1.4.5-.75.82-2.15.47-8.41l-6.71-4.5-.18.27c-2.61,3.89-6.91,4.09-12.01.98l.14-.67c1.87.33,3.97-.74,5.65-3.24l.75-1.12-6.07-4.07c-3.57-2.39-7.15-1.78-10.1-1.06l-7.37,1.78-.35-1.32c2.49-.72,3.88-1.41,5.6-3.97,3.21-4.79,4.18-8.08,5.27-13.15,3.47,0,7.88-.35,10.28-.6v1.25c-1.96.07-2.55.37-2.94.95-.21.32-.52,1.12-.97,2.13l12.25,8.22,1.34-.73c2.15-3.89,1.83-5.72-2.2-9.5l-5.66-5.26c-3.9-3.62-4.34-7.93-1.76-11.76l8.82-.26.14,1.41Zm-13.39,19.05c-.9,2.26-1.56,5.21-2.42,6.49-.86,1.28-1.77,2.06-2.44,2.61l.07.12c4.61-1.93,9.19-3.1,14.14.22l15.82,10.61s1.57-.72,2.85-1.25l-28.02-18.79Zm28.76,6.4c-4.26-2.86-8.3-2.71-14.87,1.45l15.45,10.36,2.51-1.1c1.38-4.25,1.07-7.93-3.08-10.72Z"/>
    <path class="cls-1" d="m426.07,442.03l-1.26-8.74c3.33-3.19,7.65-3.51,11.89-.29l6.16,4.67c4.42,3.32,6.28,3.31,9.74.53l.49-1.44-10.2-10.65c-.92.62-1.66,1.05-1.93,1.32-.51.49-.71,1.12-.43,3.08l-1.23.2c-.17-2.41-.58-6.82-1.19-10.23,4.8-1.94,7.88-3.46,12.04-7.45,2.22-2.13,2.66-3.62,2.95-6.2l1.36.12-.48,7.56c-.2,3.04-.19,6.66,2.78,9.77l5.06,5.28.97-.93c2.18-2.08,2.86-4.34,2.22-6.12l.64-.26c3.94,4.48,4.48,8.76,1.1,12l-.23.22,5.59,5.84c6.23-.73,7.56-1.29,8.21-1.91.6-.58.85-1.43.92-2.84l1.18.12-1.13,10.5c-3.87.51-8.64,1.08-12.28,1.55l-.75,3.11.97,1.02c1.11,1.16,2.5,2.14,3.26,2.57l.09.09-1.2.88c-.67-.42-1.87-1.49-2.71-2.37l-.75-.79-2.09,8.75c-4.72,2.39-9.65,3.83-13.96-.66-3.42-3.57-4.13-8.21-1.5-14.46-3.92,2.96-7.79,1.42-11.4-1.24l-5.13-3.78c-3.88-2.85-5.17-2.15-6.05-1.31-.46.44-.52,1.21-.28,2.4l-1.41.11Zm41.2,7.78c.3-1.35.75-3.02.75-3.02l-13.17-13.76c-4.12-4.31-3.75-9.02-2.65-13.89l-.13-.05c-.42.76-1.04,1.79-2.15,2.86s-3.9,2.23-5.97,3.5l23.33,24.36Zm-1,4.06l.65-2.66-12.87-13.43c-2.97,7.19-2.42,11.2,1.13,14.9,3.46,3.61,7.14,3.28,11.09,1.19Z"/>
    <path class="cls-1" d="m436.86,432.93c-1.17-.3-1.95-.27-2.41.17-.88.84-1.63,2.1,1.05,6.1l3.56,5.29c2.5,3.73,3.87,7.66.75,11.45,6.35-2.36,10.96-1.44,14.38,2.12,4.3,4.49,2.66,9.36.06,13.97l-8.84,1.71.75.79c.84.88,1.86,2.13,2.25,2.82l-.93,1.16-.09-.09c-.39-.78-1.31-2.21-2.42-3.36l-.98-1.02-3.14.61c-.62,3.62-1.41,8.36-2.08,12.2l-10.54.68-.07-1.18c1.41-.02,2.27-.22,2.88-.8.65-.62,1.27-1.92,2.26-8.12l-5.59-5.84-.23.22c-3.38,3.24-7.63,2.51-11.94-1.62l.29-.63c1.75.72,4.03.13,6.21-1.95l.97-.93-5.06-5.28c-2.97-3.1-6.6-3.27-9.64-3.2l-7.58.15-.06-1.36c2.59-.17,4.09-.55,6.32-2.68,4.17-3.99,5.82-7,7.96-11.71,3.39.75,7.77,1.35,10.17,1.63l-.25,1.22c-1.94-.36-2.58-.19-3.09.3-.28.27-.75.98-1.4,1.87l10.2,10.65,1.46-.42c2.93-3.34,3.02-5.2-.11-9.75l-4.4-6.35c-3.04-4.38-2.53-8.67.8-11.87l8.67,1.64-.17,1.4Zm-17.17,15.73c-1.36,2.01-2.64,4.75-3.75,5.82s-2.17,1.63-2.95,2.02l.04.14c4.92-.89,9.64-1.06,13.76,3.25l13.17,13.76s1.69-.37,3.05-.62l-23.33-24.36Zm26.72,12.41c-3.55-3.71-7.52-4.43-14.84-1.77l12.86,13.43,2.69-.53c2.26-3.85,2.75-7.52-.71-11.13Z"/>
    <path class="cls-1" d="m389.63,468.12l.64-8.8c3.94-2.4,8.23-1.79,11.68,2.27l5.01,5.88c3.61,4.19,5.42,4.58,9.4,2.6l.78-1.3-7.68-12.59c-1.03.4-1.84.67-2.17.87-.6.37-.93.94-1.08,2.91l-1.24-.07c.35-2.39.9-6.78,1.04-10.25,5.11-.86,8.43-1.69,13.36-4.69,2.63-1.6,3.38-2.96,4.21-5.42l1.3.41-2.09,7.29c-.85,2.92-1.61,6.47.62,10.14l3.81,6.24,1.15-.7c2.57-1.57,3.72-3.62,3.48-5.5l.68-.12c2.89,5.23,2.5,9.52-1.5,11.96l-.27.17,4.21,6.9c6.24.63,7.66.36,8.42-.11.71-.43,1.13-1.22,1.51-2.57l1.12.37-3.36,10.01c-3.88-.33-8.67-.79-12.33-1.12l-1.4,2.88.73,1.2c.83,1.37,1.98,2.63,2.63,3.2l.07.11-1.36.6c-.56-.56-1.51-1.86-2.14-2.9l-.57-.93-3.92,8.1c-5.13,1.32-10.25,1.67-13.49-3.64-2.57-4.22-2.28-8.9,1.63-14.44-4.46,2.04-7.91-.28-10.87-3.66l-4.2-4.8c-3.18-3.62-4.59-3.21-5.63-2.58-.55.33-.77,1.07-.79,2.28l-1.4-.2Zm38.57,16.44c.58-1.26,1.38-2.79,1.38-2.79l-9.92-16.26c-3.11-5.09-1.73-9.61.39-14.14l-.12-.08c-.58.65-1.4,1.53-2.71,2.33-1.31.8-4.29,1.34-6.58,2.14l17.56,28.8Zm-1.84,3.75l1.2-2.46-9.68-15.88c-4.44,6.39-4.76,10.42-2.09,14.8,2.61,4.27,6.27,4.74,10.57,3.54Z"/>
    <path class="cls-1" d="m402.13,461.55c-1.08-.54-1.84-.68-2.39-.35-1.04.63-2.04,1.7-.29,6.18l2.34,5.93c1.65,4.18,2.14,8.31-1.72,11.34,6.71-.94,11.02.94,13.59,5.16,3.24,5.31.59,9.71-2.94,13.66l-9-.22.57.93c.63,1.04,1.36,2.48,1.6,3.23l-1.16.93-.07-.11c-.22-.84-.81-2.44-1.64-3.8l-.73-1.2-3.2-.08c-1.38,3.4-3.17,7.87-4.65,11.47l-10.44-1.6.19-1.17c1.38.29,2.27.27,2.98-.17.77-.47,1.65-1.61,3.95-7.44l-4.21-6.9-.27.17c-4,2.44-7.99.82-11.31-4.14l.41-.55c1.56,1.08,3.91.99,6.48-.58l1.15-.7-3.81-6.24c-2.24-3.67-5.74-4.61-8.73-5.19l-7.44-1.47.23-1.34c2.57.39,4.12.34,6.74-1.26,4.93-3,7.19-5.58,10.29-9.73,3.15,1.46,7.3,2.98,9.59,3.77l-.51,1.14c-1.82-.77-2.48-.74-3.08-.37-.33.2-.94.8-1.77,1.53l7.68,12.59,1.52-.1c3.58-2.63,4.06-4.43,1.99-9.55l-2.93-7.15c-2.03-4.92-.62-9.01,3.33-11.42l8.12,3.46-.46,1.33Zm-20.14,11.68c-1.76,1.67-3.6,4.07-4.91,4.88-1.31.8-2.47,1.13-3.31,1.34v.14c5.01.18,9.65,1.03,12.76,6.12l9.92,16.26s1.73,0,3.11.05l-17.56-28.8Zm23.44,17.86c-2.67-4.38-6.4-5.94-14.11-4.91l9.68,15.88,2.74.06c3.03-3.28,4.3-6.75,1.69-11.02Z"/>
    <path class="cls-1" d="m348.46,485.8l2.51-8.46c4.37-1.5,8.42.02,10.92,4.72l3.64,6.82c2.62,4.86,4.31,5.64,8.62,4.56l1.04-1.11-4.8-13.95c-1.09.17-1.94.26-2.31.39-.67.23-1.11.72-1.68,2.61l-1.2-.33c.85-2.26,2.33-6.43,3.21-9.79,5.17.25,8.6.16,14.06-1.72,2.91-1,3.93-2.17,5.27-4.39l1.18.68-3.61,6.67c-1.45,2.67-2.96,5.97-1.57,10.03l2.38,6.91,1.27-.44c2.85-.98,4.42-2.74,4.58-4.63l.69.03c1.7,5.72.4,9.83-4.03,11.36l-.3.1,2.63,7.64c5.96,1.95,7.4,2,8.25,1.7.79-.27,1.37-.95,2.03-2.19l1.02.6-5.43,9.06c-3.72-1.16-8.3-2.64-11.8-3.74l-1.98,2.51.46,1.33c.52,1.52,1.37,2.99,1.88,3.69l.04.12-1.46.3c-.43-.67-1.08-2.14-1.47-3.29l-.35-1.03-5.57,7.07c-5.29.19-10.37-.57-12.39-6.45-1.61-4.67-.31-9.18,4.69-13.76-4.8,1.04-7.67-1.97-9.83-5.91l-3.08-5.59c-2.33-4.22-3.79-4.12-4.94-3.72-.61.21-.99.88-1.26,2.06l-1.32-.49Zm31.54,27.6l1.7-2.15-6.05-17.59c-5.71,5.29-6.89,9.15-5.22,14,1.63,4.73,5.11,5.97,9.57,5.73Zm2.6-3.27c.84-1.1,1.94-2.43,1.94-2.43l-6.2-18.01c-1.94-5.64.37-9.76,3.42-13.72l-.1-.1c-.71.51-1.69,1.19-3.15,1.69s-4.48.39-6.89.68l10.98,31.9Z"/>
    <path class="cls-1" d="m362.07,482.06c-.94-.76-1.65-1.06-2.26-.85-1.15.4-2.36,1.22-1.61,5.98l1.01,6.3c.71,4.43.31,8.58-4.11,10.71,6.76.52,10.56,3.28,12.17,7.95,2.03,5.88-1.51,9.61-5.8,12.71l-8.74-2.15.35,1.03c.4,1.15.8,2.71.87,3.5l-1.33.66-.04-.12c-.03-.87-.27-2.55-.79-4.07l-.46-1.33-3.11-.76c-2.08,3.02-4.78,7-7,10.21l-9.85-3.8.44-1.1c1.28.58,2.16.75,2.95.48.85-.29,1.96-1.21,5.45-6.42l-2.63-7.64-.3.1c-4.43,1.52-7.98-.92-10.16-6.47l.52-.45c1.29,1.39,3.61,1.81,6.46.83l1.27-.44-2.38-6.91c-1.4-4.06-4.62-5.73-7.41-6.95l-6.95-3.03.52-1.26c2.42.93,3.95,1.22,6.86.22,5.46-1.88,8.22-3.91,12.14-7.3,2.76,2.1,6.49,4.48,8.55,5.74l-.74,1c-1.61-1.14-2.26-1.26-2.93-1.03-.36.12-1.09.58-2.06,1.11l4.8,13.95,1.5.23c4.06-1.8,4.92-3.46,3.99-8.9l-1.33-7.61c-.92-5.24,1.33-8.94,5.7-10.44l7.19,5.12-.74,1.2Zm-22.18,7.09c-2.08,1.26-4.39,3.21-5.84,3.71-1.46.5-2.65.57-3.52.6l-.02.14c4.84,1.25,9.2,3.08,11.14,8.71l6.2,18.01s1.69.37,3.03.72l-10.98-31.9Zm19.06,22.47c-1.67-4.85-4.98-7.17-12.73-7.83l6.05,17.59,2.66.64c3.67-2.55,5.64-5.67,4.02-10.4Z"/>
    <path class="cls-1" d="m304.44,494.23l4.27-7.72c4.59-.53,8.22,1.82,9.65,6.95l2.09,7.44c1.52,5.31,3,6.43,7.45,6.3l1.26-.86-1.7-14.65c-1.1-.07-1.96-.16-2.34-.12-.7.08-1.24.46-2.2,2.19l-1.1-.58c1.32-2.02,3.66-5.78,5.24-8.87,5,1.36,8.37,2,14.1,1.34,3.06-.35,4.31-1.27,6.09-3.16l1.01.92-4.95,5.74c-1.99,2.3-4.17,5.2-3.68,9.46l.84,7.26,1.34-.15c2.99-.35,4.9-1.73,5.46-3.54l.67.18c.43,5.95-1.72,9.69-6.37,10.23l-.32.04.93,8.03c5.4,3.18,6.8,3.54,7.69,3.43.83-.1,1.54-.63,2.45-1.7l.87.8-7.24,7.68c-3.39-1.93-7.54-4.36-10.72-6.18l-2.48,2.03.16,1.4c.18,1.59.7,3.21,1.05,4.01v.13s-1.47-.02-1.47-.02c-.28-.74-.59-2.32-.73-3.53l-.12-1.08-6.96,5.71c-5.21-.95-10.01-2.78-10.72-8.96-.57-4.91,1.67-9.04,7.53-12.43-4.91-.01-7.06-3.57-8.34-7.88l-1.81-6.12c-1.37-4.62-2.82-4.84-4.03-4.7-.64.07-1.15.65-1.67,1.74l-1.19-.77Zm24.89,33.72l2.12-1.73-2.14-18.47c-6.71,3.94-8.69,7.46-8.1,12.56.58,4.97,3.71,6.93,8.12,7.65Zm3.25-2.64c1.06-.9,2.42-1.96,2.42-1.96l-2.19-18.92c-.69-5.92,2.46-9.45,6.28-12.67l-.08-.12c-.8.35-1.91.8-3.44.98-1.53.18-4.46-.58-6.87-.82l3.88,33.51Z"/>
    <path class="cls-1" d="m318.55,493.5c-.76-.95-1.39-1.39-2.02-1.32-1.21.14-2.57.69-2.85,5.5l-.36,6.37c-.26,4.48-1.54,8.44-6.31,9.58,6.49,1.96,9.61,5.47,10.18,10.38.72,6.18-3.53,9.06-8.39,11.17l-8.08-3.97.12,1.08c.14,1.21.2,2.82.09,3.6l-1.44.36v-.13c.14-.86.27-2.55.09-4.14l-.16-1.4-2.87-1.41c-2.68,2.51-6.17,5.82-9.03,8.47l-8.81-5.82.66-.98c1.13.84,1.95,1.19,2.77,1.1.89-.1,2.17-.77,6.7-5.1l-.93-8.03-.32.04c-4.65.54-7.6-2.61-8.54-8.5l.61-.33c.96,1.63,3.14,2.54,6.13,2.2l1.34-.16-.84-7.26c-.49-4.27-3.28-6.59-5.75-8.37l-6.13-4.46.77-1.12c2.17,1.43,3.59,2.04,6.65,1.68,5.73-.66,8.86-2.06,13.42-4.52,2.24,2.65,5.38,5.77,7.12,7.44l-.94.82c-1.33-1.46-1.94-1.71-2.64-1.63-.38.04-1.19.33-2.25.65l1.7,14.65,1.42.55c4.35-.89,5.54-2.32,5.81-7.84l.33-7.72c.22-5.32,3.22-8.44,7.81-8.97l5.92,6.54-.98,1.02Zm-23.18,2.17c-2.3.78-4.98,2.19-6.5,2.37-1.53.18-2.71,0-3.57-.17l-.05.13c4.46,2.26,8.32,4.97,9.01,10.9l2.19,18.92s1.57.72,2.8,1.35l-3.88-33.51Zm13.8,26.03c-.59-5.1-3.32-8.07-10.76-10.38l2.14,18.48,2.46,1.2c4.13-1.71,6.73-4.33,6.15-9.3Z"/>
    <path class="cls-1" d="m259.65,493.02l5.83-6.63c4.59.46,7.63,3.54,7.93,8.86l.44,7.71c.35,5.51,1.56,6.93,5.92,7.75l1.41-.57,1.48-14.68c-1.07-.3-1.88-.58-2.26-.62-.7-.07-1.31.19-2.62,1.67l-.95-.81c1.72-1.7,4.81-4.86,7.02-7.54,4.59,2.4,7.74,3.75,13.49,4.33,3.06.31,4.48-.32,6.63-1.78l.79,1.11-6.07,4.54c-2.44,1.82-5.19,4.18-5.63,8.46l-.74,7.27,1.34.14c3,.3,5.16-.64,6.1-2.28l.61.32c-.86,5.91-3.76,9.1-8.41,8.62l-.32-.03-.81,8.04c4.6,4.27,5.88,4.91,6.78,5,.83.08,1.64-.29,2.76-1.14l.68.97-8.72,5.95c-2.89-2.61-6.43-5.87-9.15-8.34l-2.85,1.45-.14,1.4c-.16,1.59,0,3.29.16,4.14v.13s-1.46-.34-1.46-.34c-.11-.79-.08-2.39.04-3.61l.11-1.08-8.02,4.09c-4.89-2.04-9.18-4.86-8.55-11.05.5-4.91,3.56-8.47,10.02-10.52-4.79-1.06-6.13-5-6.45-9.48l-.45-6.36c-.35-4.81-1.72-5.33-2.93-5.45-.64-.06-1.26.39-2.01,1.34l-.99-1Zm17.08,38.28l2.45-1.24,1.87-18.5c-7.4,2.41-10.09,5.43-10.61,10.53-.5,4.98,2.14,7.56,6.29,9.21Zm3.74-1.88c1.23-.65,2.78-1.39,2.78-1.39l1.92-18.95c.6-5.93,4.43-8.71,8.85-11.03l-.05-.13c-.85.17-2.04.37-3.57.22s-4.23-1.52-6.54-2.27l-3.4,33.56Z"/>
    <path class="cls-1" d="m273.58,495.34c-.54-1.09-1.06-1.65-1.7-1.72-1.21-.12-2.65.12-3.96,4.76l-1.72,6.14c-1.21,4.33-3.31,7.92-8.22,8,5.92,3.31,8.21,7.41,7.71,12.32-.63,6.19-5.4,8.09-10.59,9.11l-7.04-5.61-.11,1.08c-.12,1.21-.41,2.79-.68,3.54l-1.49.04v-.13c.35-.8.84-2.43,1-4.03l.14-1.4-2.5-1.99c-3.15,1.87-7.27,4.36-10.63,6.34l-7.36-7.58.86-.82c.92,1.06,1.64,1.58,2.47,1.67.89.09,2.29-.28,7.64-3.55l.81-8.04-.32-.03c-4.66-.47-6.86-4.17-6.52-10.13l.67-.19c.59,1.8,2.52,3.15,5.52,3.46l1.34.14.74-7.27c.43-4.28-1.79-7.14-3.82-9.41l-5.04-5.67,1-.93c1.81,1.86,3.07,2.76,6.13,3.07,5.74.58,9.1-.11,14.08-1.54,1.62,3.07,4.02,6.79,5.36,8.79l-1.09.6c-.99-1.71-1.53-2.09-2.23-2.16-.38-.04-1.23.07-2.34.15l-1.48,14.68,1.27.84c4.44.06,5.91-1.08,7.35-6.41l1.98-7.47c1.36-5.15,4.95-7.56,9.55-7.09l4.38,7.66-1.17.78Zm-23.11-2.85c-2.41.27-5.33,1.07-6.86.92s-2.65-.59-3.45-.93l-.08.12c3.87,3.16,7.06,6.64,6.46,12.58l-1.92,18.95s1.38,1.04,2.45,1.92l3.39-33.56Zm7.89,28.39c.52-5.1-1.52-8.6-8.28-12.44l-1.87,18.5,2.15,1.7c4.4-.78,7.5-2.79,8-7.76Z"/>
    <path class="cls-1" d="m216.15,482.24l7.11-5.23c4.39,1.44,6.7,5.1,5.85,10.36l-1.22,7.63c-.85,5.46.03,7.1,4.12,8.84l1.5-.25,4.6-14.02c-.98-.52-1.71-.96-2.07-1.08-.67-.22-1.32-.09-2.92,1.07l-.75-.99c2.04-1.29,5.74-3.72,8.47-5.86,3.97,3.33,6.76,5.32,12.24,7.12,2.93.96,4.44.65,6.85-.32l.53,1.25-6.9,3.14c-2.77,1.25-5.97,2.97-7.31,7.05l-2.28,6.95,1.28.42c2.86.94,5.17.48,6.44-.92l.53.44c-2.1,5.59-5.62,8.08-10.07,6.62l-.3-.1-2.52,7.68c3.57,5.15,4.69,6.06,5.55,6.34.79.26,1.66.07,2.94-.52l.45,1.09-9.8,3.94c-2.27-3.17-5.02-7.12-7.15-10.11l-3.1.81-.44,1.34c-.5,1.52-.72,3.21-.73,4.08l-.04.12-1.34-.64c.06-.79.44-2.36.81-3.51l.34-1.04-8.71,2.27c-4.33-3.04-7.92-6.72-5.98-12.63,1.54-4.69,5.3-7.51,12.05-8.13-4.45-2.07-4.92-6.2-4.27-10.65l.92-6.31c.69-4.77-.53-5.57-1.69-5.95-.61-.2-1.32.11-2.25.88l-.76-1.19Zm8.47,41.05l2.65-.68,5.8-17.67c-7.74.77-11.02,3.14-12.62,8.01-1.56,4.75.46,7.85,4.17,10.34Zm4.05-1.03c1.34-.37,3.02-.76,3.02-.76l5.94-18.1c1.86-5.67,6.19-7.55,11.01-8.88l-.02-.14c-.87-.02-2.07-.07-3.53-.55s-3.8-2.39-5.9-3.62l-10.51,32.05Z"/>
    <path class="cls-1" d="m229.27,487.49c-.29-1.18-.68-1.84-1.29-2.04-1.16-.38-2.62-.45-4.89,3.79l-2.99,5.63c-2.11,3.96-4.94,7.02-9.75,6.05,5.07,4.5,6.43,8.99,4.89,13.69-1.94,5.91-7.01,6.75-12.3,6.63l-5.67-6.99-.34,1.04c-.38,1.16-1,2.64-1.42,3.31l-1.46-.28.04-.12c.5-.71,1.33-2.2,1.83-3.72l.44-1.34-2.02-2.49c-3.48,1.15-8.04,2.7-11.75,3.91l-5.56-8.98,1.01-.61c.68,1.23,1.27,1.9,2.06,2.16.85.28,2.29.21,8.22-1.82l2.52-7.68-.31-.1c-4.45-1.46-5.81-5.55-4.19-11.3l.69-.04c.19,1.89,1.78,3.62,4.65,4.56l1.28.42,2.28-6.95c1.34-4.08-.22-7.36-1.71-10.01l-3.7-6.61,1.17-.7c1.37,2.2,2.41,3.36,5.33,4.31,5.48,1.8,8.91,1.84,14.08,1.51.93,3.34,2.47,7.49,3.35,9.74l-1.2.35c-.6-1.88-1.04-2.37-1.72-2.59-.37-.12-1.22-.2-2.31-.35l-4.6,14.02,1.06,1.09c4.32,1.01,6,.21,8.56-4.69l3.54-6.87c2.43-4.74,6.46-6.32,10.85-4.88l2.64,8.42-1.32.51Zm-21.96-7.74c-2.41-.25-5.44-.1-6.9-.58-1.46-.48-2.46-1.14-3.17-1.65l-.1.1c3.1,3.92,5.47,8,3.61,13.67l-5.94,18.1s1.12,1.31,1.98,2.4l10.51-32.05Zm1.62,29.42c1.6-4.87.36-8.72-5.42-13.93l-5.8,17.67,1.73,2.12c4.46.18,7.92-1.11,9.48-5.87Z"/>
    <path class="cls-1" d="m175.98,462.38l8.07-3.58c3.98,2.35,5.45,6.42,3.49,11.37l-2.83,7.19c-2,5.15-1.49,6.94,2.13,9.52l1.52.08,7.5-12.7c-.84-.72-1.46-1.31-1.79-1.5-.61-.36-1.27-.38-3.08.42l-.53-1.13c2.27-.82,6.41-2.4,9.53-3.91,3.17,4.1,5.46,6.65,10.43,9.58,2.65,1.56,4.2,1.59,6.76,1.16l.25,1.34-7.41,1.58c-2.98.63-6.47,1.62-8.65,5.32l-3.72,6.3,1.16.68c2.6,1.53,4.95,1.58,6.49.48l.42.55c-3.25,5.01-7.22,6.69-11.25,4.31l-.28-.16-4.11,6.96c2.39,5.8,3.28,6.93,4.06,7.38.72.42,1.61.43,2.98.12l.21,1.16-10.42,1.75c-1.53-3.59-3.38-8.03-4.81-11.4l-3.2.12-.72,1.21c-.81,1.38-1.39,2.98-1.59,3.83l-.07.11-1.17-.92c.22-.76.93-2.21,1.55-3.26l.55-.94-8.99.35c-3.58-3.9-6.3-8.26-3.13-13.62,2.51-4.25,6.79-6.2,13.51-5.36-3.9-2.97-3.47-7.11-1.89-11.32l2.26-5.97c1.69-4.51.67-5.56-.38-6.18-.55-.33-1.31-.18-2.38.38l-.48-1.33Zm-.53,41.91l2.74-.1,9.45-16.02c-7.73-.91-11.43.7-14.04,5.12-2.54,4.31-1.23,7.76,1.85,11Zm4.18-.14c1.38-.08,3.11-.1,3.11-.1l9.68-16.4c3.03-5.14,7.67-6.05,12.66-6.31v-.14c-.84-.2-2-.51-3.32-1.29-1.33-.78-3.2-3.16-4.98-4.8l-17.14,29.05Z"/>
    <path class="cls-1" d="m187.67,470.31c-.03-1.21-.27-1.94-.82-2.27-1.05-.62-2.46-1.01-5.59,2.66l-4.13,4.86c-2.91,3.42-6.33,5.8-10.82,3.82,3.99,5.48,4.35,10.17,1.84,14.42-3.16,5.36-8.29,5.09-13.44,3.84l-4.04-8.04-.55.94c-.62,1.05-1.54,2.37-2.1,2.93l-1.37-.58.07-.11c.64-.59,1.77-1.86,2.58-3.24l.72-1.21-1.44-2.86c-3.65.38-8.43.91-12.31,1.3l-3.5-9.96,1.12-.38c.39,1.35.83,2.13,1.55,2.55.77.46,2.19.7,8.43-.02l4.11-6.96-.28-.16c-4.03-2.38-4.48-6.67-1.67-11.93l.68.11c-.22,1.88.96,3.92,3.56,5.45l1.16.68,3.72-6.3c2.18-3.7,1.37-7.24.48-10.14l-2.2-7.25,1.29-.43c.86,2.45,1.63,3.79,4.28,5.36,4.97,2.93,8.31,3.71,13.43,4.5.19,3.46.8,7.85,1.19,10.23l-1.24.09c-.18-1.97-.51-2.54-1.12-2.9-.33-.2-1.15-.45-2.18-.84l-7.5,12.7.8,1.29c4.01,1.92,5.82,1.5,9.36-2.74l4.93-5.95c3.39-4.11,7.66-4.79,11.64-2.44l.77,8.79-1.4.22Zm-19.79-12.27c-2.3-.76-5.29-1.26-6.61-2.04-1.33-.78-2.16-1.64-2.75-2.29l-.12.08c2.19,4.49,3.63,8.99.6,14.13l-9.68,16.4s.81,1.52,1.42,2.77l17.14-29.05Zm-4.73,29.08c2.61-4.42,2.23-8.44-2.31-14.77l-9.45,16.02,1.24,2.44c4.32,1.13,7.98.61,10.52-3.7Z"/>
    <path class="cls-1" d="m141.01,434.36l8.65-1.76c3.38,3.15,3.94,7.44.97,11.85l-4.31,6.42c-3.06,4.6-2.94,6.46.04,9.76l1.47.4,10.05-10.8c-.67-.88-1.15-1.59-1.43-1.85-.52-.48-1.16-.64-3.09-.25l-.27-1.22c2.39-.31,6.77-.97,10.15-1.77,2.21,4.69,3.91,7.66,8.13,11.6,2.25,2.1,3.76,2.45,6.36,2.58l-.04,1.36-7.58-.04c-3.04-.03-6.66.2-9.59,3.34l-4.98,5.35.99.92c2.21,2.05,4.5,2.61,6.24,1.86l.29.62c-4.25,4.19-8.49,4.98-11.92,1.79l-.23-.22-5.5,5.92c1.09,6.18,1.72,7.47,2.38,8.08.61.57,1.48.76,2.89.76l-.05,1.18-10.55-.53c-.73-3.83-1.58-8.56-2.25-12.17l-3.15-.57-.96,1.03c-1.09,1.17-1.99,2.61-2.37,3.4l-.09.09-.95-1.14c.38-.7,1.38-1.96,2.21-2.85l.74-.8-8.86-1.59c-2.66-4.58-4.38-9.42-.14-13.97,3.36-3.62,7.96-4.6,14.35-2.33-3.18-3.74-1.87-7.69.58-11.46l3.48-5.34c2.62-4.04,1.85-5.29.96-6.12-.47-.44-1.24-.46-2.41-.14l-.19-1.4Zm-9.51,40.82l2.7.49,12.67-13.62c-7.35-2.55-11.32-1.77-14.81,1.99-3.41,3.66-2.87,7.32-.55,11.14Zm4.11.76c1.37.22,3.06.57,3.06.57l12.97-13.95c4.06-4.37,8.79-4.27,13.72-3.45l.04-.14c-.79-.38-1.85-.93-2.98-1.98s-2.45-3.77-3.84-5.76l-22.98,24.7Z"/>
    <path class="cls-1" d="m150.72,444.62c.23-1.19.16-1.96-.31-2.39-.89-.83-2.19-1.51-6.03,1.4l-5.08,3.86c-3.58,2.72-7.42,4.31-11.38,1.41,2.72,6.21,2.07,10.86-1.29,14.48-4.24,4.56-9.19,3.19-13.95.87l-2.22-8.72-.74.8c-.83.89-2.02,1.98-2.68,2.41l-1.21-.86.09-.09c.75-.44,2.12-1.44,3.22-2.61l.96-1.03-.79-3.1c-3.65-.41-8.43-.92-12.3-1.37l-1.29-10.48,1.17-.13c.1,1.4.35,2.26.96,2.82.66.61,1.99,1.15,8.23,1.79l5.5-5.92-.23-.22c-3.43-3.19-2.95-7.47.93-12.01l.64.25c-.62,1.79.1,4.04,2.31,6.09l.99.92,4.98-5.35c2.93-3.15,2.89-6.77,2.64-9.81l-.59-7.56,1.36-.14c.32,2.57.78,4.06,3.04,6.15,4.23,3.93,7.32,5.41,12.15,7.28-.56,3.42-.9,7.84-1.04,10.25l-1.23-.18c.25-1.96.04-2.59-.47-3.07-.28-.26-1.02-.69-1.95-1.29l-10.05,10.8.51,1.43c3.5,2.73,5.36,2.71,9.73-.67l6.09-4.76c4.19-3.28,8.51-3.03,11.89.11l-1.13,8.75-1.41-.08Zm-16.7-16.23c-2.09-1.24-4.9-2.36-6.02-3.41s-1.75-2.07-2.19-2.83l-.13.05c1.17,4.86,1.62,9.56-2.45,13.93l-12.97,13.95s.47,1.66.79,3.01l22.98-24.7Zm-10.85,27.39c3.5-3.76,3.99-7.77.91-14.92l-12.67,13.62.69,2.65c3.98,2.04,7.66,2.31,11.07-1.35Z"/>
    <path class="cls-1" d="m112.86,399.49l8.83.13c2.63,3.8,2.26,8.11-1.59,11.79l-5.58,5.34c-3.97,3.84-4.26,5.68-2.06,9.54l1.35.71,12.13-8.39c-.46-1.01-.78-1.8-1-2.12-.4-.58-.99-.87-2.97-.91v-1.25c2.4.21,6.82.5,10.29.44,1.15,5.05,2.17,8.32,5.46,13.07,1.75,2.53,3.15,3.2,5.65,3.89l-.33,1.32-7.39-1.67c-2.96-.68-6.55-1.24-10.08,1.21l-6.01,4.16.77,1.11c1.72,2.48,3.83,3.51,5.69,3.16l.15.67c-5.05,3.18-9.36,3.04-12.02-.8l-.18-.26-6.64,4.6c-.26,6.27.08,7.67.59,8.4.47.69,1.28,1.06,2.66,1.36l-.3,1.14-10.19-2.78c.11-3.9.29-8.71.41-12.37l-2.96-1.23-1.16.8c-1.32.91-2.51,2.12-3.05,2.81l-.11.07-.68-1.32c.52-.6,1.77-1.62,2.77-2.31l.9-.62-8.31-3.45c-1.62-5.04-2.26-10.14,2.86-13.68,4.06-2.81,8.76-2.78,14.51.8-2.3-4.34-.17-7.91,3.03-11.06l4.55-4.47c3.43-3.39,2.94-4.77,2.25-5.77-.36-.53-1.11-.71-2.32-.65l.12-1.41Zm-18.04,37.83l2.53,1.06,15.29-10.58c-6.63-4.07-10.67-4.16-14.89-1.24-4.11,2.85-4.37,6.53-2.93,10.76Zm3.85,1.62c1.29.51,2.87,1.21,2.87,1.21l15.66-10.84c4.9-3.39,9.5-2.28,14.14-.42l.07-.12c-.69-.54-1.61-1.31-2.48-2.57-.88-1.27-1.58-4.21-2.51-6.45l-27.74,19.2Z"/>
    <path class="cls-1" d="m120.14,411.6c.48-1.11.57-1.88.21-2.41-.69-1-1.81-1.94-6.19.07l-5.79,2.68c-4.08,1.88-8.17,2.61-11.42-1.06,1.33,6.65-.31,11.05-4.37,13.86-5.12,3.54-9.66,1.15-13.81-2.14l-.3-9-.9.62c-1,.69-2.39,1.5-3.14,1.78l-1-1.1.11-.07c.83-.26,2.38-.95,3.7-1.86l1.16-.8-.11-3.2c-3.47-1.18-8.04-2.71-11.72-3.98l.99-10.51,1.18.12c-.21,1.39-.14,2.28.34,2.96.51.74,1.7,1.55,7.66,3.51l6.64-4.6-.18-.26c-2.66-3.85-1.28-7.93,3.48-11.54l.58.38c-.99,1.62-.77,3.96.95,6.44l.77,1.11,6.01-4.16c3.53-2.45,4.27-6,4.68-9.01l1.04-7.51,1.35.15c-.24,2.58-.11,4.13,1.65,6.66,3.28,4.75,5.99,6.85,10.31,9.71-1.28,3.22-2.56,7.46-3.21,9.79l-1.16-.44c.66-1.86.6-2.52.2-3.1-.22-.32-.85-.89-1.63-1.68l-12.13,8.39.19,1.51c2.83,3.42,4.66,3.8,9.65,1.43l6.97-3.34c4.8-2.31,8.96-1.13,11.59,2.66l-2.99,8.31-1.36-.39Zm-12.83-19.44c-1.77-1.66-4.27-3.36-5.15-4.62-.88-1.27-1.27-2.4-1.53-3.23l-.14.02c.1,5-.47,9.69-5.38,13.08l-15.66,10.84s.1,1.72.12,3.11l27.74-19.2Zm-16.48,24.43c4.22-2.92,5.56-6.73,4.09-14.37l-15.29,10.58.1,2.74c3.45,2.84,6.99,3.9,11.1,1.05Z"/>
    <path class="cls-1" d="m92.84,359.4l8.59,2.02c1.75,4.27.47,8.4-4.08,11.17l-6.6,4.02c-4.7,2.9-5.38,4.63-4.06,8.87l1.16.98,13.65-5.6c-.24-1.08-.37-1.93-.52-2.28-.27-.65-.78-1.07-2.71-1.52l.26-1.22c2.3.72,6.56,1.96,9.96,2.64.04,5.18.34,8.6,2.53,13.94,1.17,2.85,2.39,3.8,4.69,5.01l-.61,1.22-6.86-3.21c-2.75-1.3-6.13-2.61-10.11-.98l-6.76,2.77.51,1.25c1.14,2.79,2.99,4.25,4.88,4.31v.69c-5.61,2.03-9.79.97-11.56-3.37l-.12-.3-7.48,3.07c-1.6,6.06-1.57,7.5-1.23,8.34.32.77,1.02,1.31,2.3,1.9l-.54,1.05-9.36-4.9c.94-3.78,2.15-8.44,3.05-12l-2.62-1.83-1.31.54c-1.48.61-2.9,1.54-3.58,2.09l-.12.05-.38-1.44c.64-.47,2.07-1.2,3.2-1.66l1.01-.41-7.38-5.15c-.5-5.27-.03-10.38,5.73-12.75,4.57-1.87,9.15-.84,14,3.89-1.32-4.73,1.53-7.77,5.33-10.16l5.4-3.39c4.07-2.57,3.89-4.02,3.43-5.15-.24-.59-.94-.93-2.13-1.14l.42-1.35Zm-25.74,33.08l2.24,1.58,17.21-7.06c-5.61-5.39-9.54-6.35-14.28-4.4-4.63,1.9-5.67,5.44-5.17,9.88Zm3.42,2.41c1.15.78,2.54,1.8,2.54,1.8l17.62-7.23c5.52-2.26,9.76-.19,13.9,2.62l.09-.11c-.55-.67-1.29-1.62-1.87-3.04s-.65-4.45-1.07-6.84l-31.21,12.8Z"/>
    <path class="cls-1" d="m97.35,372.79c.71-.98.96-1.71.72-2.3-.46-1.13-1.35-2.29-6.06-1.26l-6.23,1.38c-4.39.97-8.54.8-10.93-3.49-.13,6.78-2.67,10.73-7.24,12.6-5.76,2.36-9.68-.95-13.03-5.06l1.64-8.85-1.01.41c-1.13.46-2.66.95-3.44,1.07l-.74-1.29.12-.05c.87-.08,2.53-.42,4.02-1.02l1.3-.54.58-3.15c-3.14-1.9-7.27-4.37-10.6-6.4l3.22-10.06,1.12.37c-.5,1.31-.62,2.2-.31,2.97.34.83,1.33,1.88,6.72,5.07l7.48-3.07-.12-.3c-1.78-4.33.46-8.02,5.88-10.52l.48.5c-1.31,1.37-1.6,3.71-.46,6.49l.51,1.25,6.76-2.77c3.98-1.63,5.46-4.94,6.51-7.8l2.63-7.11,1.29.44c-.79,2.47-.99,4.01.18,6.86,2.19,5.34,4.38,7.98,7.99,11.7-1.94,2.88-4.1,6.74-5.23,8.87l-1.04-.68c1.04-1.68,1.12-2.33.85-2.98-.15-.36-.64-1.05-1.23-1.99l-13.65,5.6-.14,1.51c2.04,3.95,3.73,4.71,9.12,3.47l7.52-1.77c5.18-1.22,9,.81,10.75,5.09l-4.7,7.47-1.24-.67Zm-29.69-1.41c4.75-1.95,6.87-5.38,7.08-13.16l-17.21,7.06-.49,2.7c2.76,3.51,5.99,5.31,10.62,3.41Zm21.33-20.32c-1.38-2-3.45-4.2-4.04-5.62-.58-1.42-.73-2.61-.8-3.48h-.14c-.97,4.89-2.54,9.35-8.06,11.61l-17.62,7.23s-.27,1.71-.54,3.07l31.21-12.8Z"/>
    <path class="cls-1" d="m81.88,315.95l7.96,3.82c.79,4.55-1.35,8.31-6.38,10.04l-7.31,2.51c-5.22,1.82-6.25,3.37-5.86,7.8l.93,1.21,14.53-2.54c0-1.11.05-1.96-.02-2.34-.12-.7-.54-1.21-2.31-2.07l.52-1.13c2.1,1.2,5.98,3.32,9.16,4.71-1.07,5.07-1.52,8.47-.52,14.15.53,3.03,1.52,4.23,3.5,5.9l-.86,1.06-6.02-4.61c-2.41-1.86-5.43-3.87-9.66-3.13l-7.2,1.26.23,1.33c.52,2.97,2.01,4.79,3.85,5.25l-.14.68c-5.92.77-9.77-1.16-10.58-5.77l-.06-.32-7.96,1.39c-2.87,5.58-3.14,6.99-2.99,7.88.14.82.72,1.5,1.84,2.35l-.75.91-8.09-6.79c1.73-3.49,3.91-7.78,5.55-11.06l-2.17-2.36-1.39.24c-1.58.28-3.17.88-3.94,1.27l-.13.02-.06-1.49c.73-.32,2.28-.72,3.48-.93l1.07-.19-6.1-6.62c.64-5.25,2.2-10.15,8.33-11.22,4.86-.85,9.12,1.14,12.84,6.8-.27-4.9,3.16-7.26,7.38-8.78l6-2.16c4.53-1.64,4.67-3.09,4.46-4.29-.11-.63-.71-1.11-1.84-1.57l.7-1.23Zm-32.23,26.79l1.85,2.02,18.32-3.2c-4.32-6.47-7.95-8.25-13.01-7.36-4.93.86-6.71,4.1-7.17,8.54Zm2.82,3.09c.96,1,2.1,2.3,2.1,2.3l18.76-3.28c5.88-1.03,9.58,1.91,13.01,5.54l.11-.08c-.4-.78-.91-1.86-1.18-3.38-.26-1.52.32-4.48.42-6.91l-33.23,5.81Z"/>
    <path class="cls-1" d="m83.42,329.99c.9-.81,1.31-1.47,1.2-2.1-.21-1.2-.83-2.52-5.65-2.53h-6.38c-4.49.01-8.52-1.04-9.92-5.74-1.58,6.59-4.91,9.91-9.77,10.76-6.13,1.07-9.25-3.01-11.64-7.73l3.5-8.29-1.07.19c-1.2.21-2.8.36-3.59.3l-.44-1.42.13-.02c.87.11,2.56.14,4.14-.14l1.39-.24,1.24-2.95c-2.66-2.53-6.16-5.82-8.98-8.52l5.31-9.13,1.02.6c-.77,1.18-1.08,2.01-.94,2.83.15.88.89,2.12,5.48,6.4l7.96-1.39-.06-.32c-.81-4.61,2.16-7.73,8-9.01l.36.59c-1.57,1.06-2.36,3.28-1.84,6.25l.23,1.33,7.2-1.26c4.23-.74,6.39-3.66,8.03-6.22l4.09-6.38,1.17.71c-1.3,2.25-1.83,3.7-1.3,6.74.99,5.69,2.57,8.73,5.29,13.14-2.51,2.39-5.45,5.7-7.02,7.54l-.87-.89c1.38-1.41,1.6-2.04,1.47-2.73-.07-.38-.4-1.17-.78-2.21l-14.53,2.54-.46,1.45c1.14,4.29,2.64,5.4,8.16,5.34l7.73-.11c5.32-.08,8.62,2.73,9.41,7.28l-6.19,6.29-1.07-.92Zm-28.7-7.75c5.05-.88,7.87-3.78,9.74-11.34l-18.32,3.2-1.06,2.53c1.94,4.02,4.71,6.47,9.64,5.61Zm25.2-15.28c-.91-2.25-2.47-4.84-2.74-6.36s-.15-2.71-.04-3.57l-.14-.04c-2,4.58-4.49,8.6-10.36,9.62l-18.76,3.28s-.63,1.61-1.19,2.88l33.23-5.81Z"/>
    <path class="cls-1" d="m80.5,271.16l6.96,5.44c-.2,4.61-3.1,7.83-8.39,8.43l-7.68.89c-5.49.66-6.83,1.95-7.4,6.36l.65,1.38,14.74.64c.24-1.08.47-1.91.48-2.29.03-.7-.26-1.3-1.82-2.52l.75-1c1.79,1.62,5.13,4.52,7.93,6.57-2.13,4.72-3.3,7.95-3.55,13.71-.13,3.08.58,4.45,2.16,6.51l-1.06.85-4.89-5.8c-1.95-2.33-4.47-4.94-8.77-5.13l-7.3-.32-.06,1.35c-.13,3.01.93,5.11,2.63,5.96l-.28.63c-5.95-.51-9.3-3.23-9.1-7.9v-.32s-8.06-.35-8.06-.35c-4,4.83-4.57,6.16-4.61,7.05-.04.83.38,1.62,1.29,2.69l-.93.73-6.44-8.37c2.44-3.04,5.49-6.76,7.8-9.61l-1.61-2.77-1.41-.06c-1.6-.07-3.28.18-4.13.4h-.13s.26-1.47.26-1.47c.78-.16,2.38-.22,3.6-.17l1.09.05-4.54-7.77c1.76-5,4.32-9.44,10.54-9.17,4.93.21,8.66,3.07,11.08,9.4.79-4.84,4.64-6.41,9.1-6.99l6.33-.82c4.78-.63,5.22-2.02,5.27-3.24.03-.64-.46-1.24-1.46-1.92l.94-1.05Zm-37.23,19.26l1.37,2.37,18.58.8c-2.83-7.25-6-9.76-11.12-9.98-5-.22-7.43,2.57-8.83,6.81Zm2.09,3.62c.72,1.19,1.55,2.7,1.55,2.7l19.03.82c5.96.26,8.95,3.92,11.52,8.2l.13-.06c-.22-.84-.49-2.01-.42-3.55s1.28-4.31,1.89-6.66l-33.7-1.46Z"/>
    <path class="cls-1" d="m79,285.2c1.05-.6,1.59-1.15,1.62-1.79.05-1.22-.27-2.64-4.98-3.68l-6.23-1.36c-4.39-.96-8.09-2.85-8.46-7.75-2.96,6.1-6.92,8.62-11.85,8.41-6.22-.27-8.39-4.92-9.71-10.05l5.2-7.35-1.09-.05c-1.22-.05-2.81-.25-3.57-.48l-.13-1.48h.13c.82.3,2.47.69,4.08.76l1.41.06,1.85-2.62c-2.05-3.04-4.77-7.01-6.94-10.25l7.14-7.78.86.81c-1.01.98-1.49,1.73-1.52,2.57-.04.9.42,2.27,3.98,7.43l8.07.35v-.32c.22-4.68,3.79-7.09,9.76-7.09l.23.65c-1.76.69-3,2.69-3.13,5.71l-.06,1.35,7.3.32c4.29.19,7.03-2.2,9.17-4.35l5.37-5.35.99.94c-1.75,1.91-2.58,3.23-2.71,6.3-.25,5.77.63,9.08,2.35,13.97-2.97,1.8-6.55,4.4-8.47,5.86l-.66-1.06c1.65-1.08,2-1.65,2.03-2.35.02-.38-.14-1.23-.28-2.32l-14.74-.64-.76,1.31c.19,4.44,1.42,5.84,6.83,6.97l7.57,1.55c5.22,1.06,7.83,4.51,7.63,9.12l-7.4,4.82-.85-1.13Zm-26.37-13.72c5.13.22,8.5-2.01,11.94-8.98l-18.58-.8-1.57,2.24c1.03,4.35,3.21,7.33,8.21,7.54Zm27.89-9.52c-.41-2.39-1.38-5.26-1.31-6.8s.44-2.68.73-3.5l-.13-.07c-2.93,4.05-6.23,7.43-12.19,7.18l-19.03-.82s-.96,1.43-1.78,2.55l33.7,1.46Z"/>
    <path class="cls-1" d="m88.77,227.11l5.63,6.8c-1.18,4.46-4.7,6.98-10,6.44l-7.69-.78c-5.5-.53-7.08.44-8.59,4.62l.34,1.48,14.26,3.78c.47-1,.87-1.76.96-2.13.18-.68.02-1.32-1.23-2.85l.95-.81c1.4,1.96,4.04,5.52,6.34,8.12-3.09,4.16-4.92,7.05-6.4,12.63-.79,2.98-.39,4.47.71,6.82l-1.22.61-3.53-6.71c-1.41-2.7-3.31-5.79-7.46-6.89l-7.07-1.88-.34,1.3c-.77,2.91-.18,5.19,1.29,6.38l-.41.55c-5.7-1.78-8.39-5.15-7.19-9.67l.08-.31-7.81-2.07c-4.94,3.86-5.78,5.04-6.01,5.9-.21.81.02,1.67.69,2.9l-1.07.51-4.5-9.55c3.04-2.45,6.81-5.42,9.68-7.72l-.98-3.05-1.36-.36c-1.55-.41-3.24-.53-4.12-.49l-.12-.03.56-1.38c.79.01,2.38.3,3.55.61l1.05.28-2.77-8.56c2.79-4.5,6.25-8.3,12.26-6.7,4.77,1.27,7.8,4.86,8.81,11.56,1.81-4.56,5.91-5.27,10.38-4.88l6.35.56c4.8.41,5.53-.85,5.85-2.03.16-.62-.18-1.31-1.01-2.19l1.15-.82Zm-40.49,10.82l.83,2.61,17.98,4.77c-1.21-7.69-3.77-10.82-8.72-12.13-4.84-1.28-7.81.92-10.09,4.76Zm1.27,3.98c.45,1.31.94,2.97.94,2.97l18.41,4.88c5.77,1.53,7.9,5.74,9.5,10.48l.14-.03c-.03-.87-.05-2.07.35-3.56s2.17-3.94,3.28-6.1l-32.61-8.65Z"/>
    <path class="cls-1" d="m84.28,240.51c1.16-.36,1.8-.78,1.96-1.4.31-1.18.3-2.64-4.07-4.66l-5.79-2.67c-4.08-1.88-7.29-4.52-6.6-9.38-4.2,5.32-8.61,6.94-13.38,5.67-6.01-1.6-7.14-6.61-7.33-11.9l6.65-6.06-1.05-.28c-1.18-.31-2.69-.85-3.39-1.23l.19-1.48.12.03c.74.46,2.27,1.2,3.82,1.61l1.36.36,2.37-2.16c-1.35-3.41-3.15-7.87-4.58-11.5l8.64-6.07.67.97c-1.19.75-1.82,1.37-2.04,2.18-.23.87-.08,2.3,2.29,8.11l7.81,2.07.08-.31c1.2-4.53,5.21-6.12,11.04-4.84l.08.69c-1.87.3-3.51,1.99-4.29,4.9l-.34,1.3,7.07,1.88c4.15,1.1,7.34-.64,9.89-2.29l6.39-4.08.76,1.13c-2.12,1.49-3.21,2.6-4,5.57-1.48,5.58-1.33,9-.7,14.15-3.28,1.12-7.34,2.9-9.53,3.91l-.42-1.17c1.85-.7,2.3-1.18,2.48-1.86.1-.37.13-1.23.22-2.33l-14.26-3.78-1.03,1.12c-.76,4.38.13,6.01,5.17,8.27l7.06,3.13c4.87,2.16,6.68,6.08,5.5,10.55l-8.26,3.12-.59-1.28Zm-22.81-19.06c4.96,1.32,8.73-.14,13.59-6.21l-17.98-4.77-2.02,1.85c.08,4.47,1.57,7.85,6.4,9.13Zm29.28-3.31c.11-2.42-.22-5.43.18-6.92.39-1.49,1-2.52,1.46-3.26l-.11-.09c-3.73,3.32-7.68,5.93-13.44,4.4l-18.41-4.88s-1.25,1.2-2.29,2.11l32.61,8.65Z"/>
    <path class="cls-1" d="m106.28,185.87l4.04,7.85c-2.11,4.11-6.09,5.81-11.15,4.14l-7.34-2.41c-5.26-1.7-7.02-1.09-9.38,2.67v1.52s13.12,6.75,13.12,6.75c.67-.88,1.22-1.53,1.4-1.88.32-.63.3-1.29-.59-3.05l1.1-.59c.95,2.22,2.76,6.26,4.45,9.29-3.91,3.4-6.32,5.83-8.96,10.97-1.41,2.74-1.34,4.29-.77,6.82l-1.32.33-2.01-7.31c-.8-2.94-1.99-6.36-5.81-8.33l-6.5-3.35-.62,1.2c-1.38,2.68-1.29,5.03-.11,6.51l-.52.45c-5.19-2.96-7.09-6.82-4.95-10.99l.15-.29-7.18-3.7c-5.65,2.72-6.73,3.68-7.14,4.48-.38.74-.33,1.63.05,2.98l-1.15.27-2.34-10.3c3.49-1.74,7.82-3.84,11.11-5.46l-.31-3.19-1.25-.65c-1.43-.73-3.05-1.21-3.91-1.37l-.11-.06.85-1.22c.77.18,2.26.8,3.34,1.36l.97.5-.87-8.96c3.69-3.8,7.88-6.76,13.41-3.91,4.39,2.26,6.58,6.42,6.12,13.18,2.74-4.07,6.9-3.88,11.19-2.54l6.09,1.91c4.6,1.43,5.59.35,6.15-.73.29-.57.1-1.32-.52-2.36l1.3-.56Zm-41.87,1.89l.25,2.73,16.54,8.51c.46-7.77-1.36-11.37-5.92-13.72-4.45-2.29-7.82-.78-10.87,2.48Zm.38,4.16c.16,1.38.28,3.1.28,3.1l16.93,8.72c5.3,2.73,6.48,7.3,7.03,12.27h.14c.15-.86.4-2.03,1.1-3.4.7-1.37,2.97-3.38,4.51-5.25l-29.99-15.44Z"/>
    <path class="cls-1" d="m99.03,197.99c1.21-.1,1.93-.38,2.22-.95.56-1.08.86-2.51-2.98-5.43l-5.09-3.85c-3.58-2.71-6.15-5.98-4.44-10.58-5.24,4.3-9.9,4.93-14.29,2.67-5.53-2.85-5.56-7.98-4.61-13.19l7.8-4.5-.97-.5c-1.08-.56-2.45-1.41-3.05-1.93l.5-1.4.11.06c.62.61,1.96,1.66,3.39,2.39l1.25.65,2.77-1.6c-.59-3.62-1.39-8.36-2.01-12.21l9.74-4.07.45,1.09c-1.33.47-2.08.95-2.46,1.69-.41.8-.57,2.23.5,8.41l7.18,3.7.15-.29c2.14-4.16,6.4-4.86,11.82-2.36l-.07.69c-1.89-.11-3.86,1.19-5.24,3.87l-.62,1.2,6.5,3.35c3.82,1.97,7.3.95,10.16-.11l7.12-2.61.5,1.27c-2.39,1-3.69,1.85-5.1,4.59-2.64,5.13-3.23,8.51-3.72,13.67-3.45.39-7.79,1.26-10.15,1.77l-.16-1.24c1.95-.29,2.5-.66,2.83-1.29.18-.34.39-1.17.71-2.23l-13.11-6.75-1.24.87c-1.68,4.11-1.16,5.9,3.28,9.19l6.23,4.58c4.29,3.15,5.22,7.38,3.11,11.48l-8.73,1.27-.3-1.38Zm-18.19-23.51c4.56,2.35,8.56,1.74,14.61-3.15l-16.54-8.51-2.37,1.38c-.88,4.38-.15,8,4.3,10.29Zm29.31,3.04c.63-2.34.95-5.35,1.66-6.72.7-1.37,1.52-2.25,2.13-2.87l-.08-.12c-4.36,2.45-8.77,4.14-14.07,1.41l-16.93-8.72s-1.47.9-2.69,1.57l29.99,15.44Z"/>
    <path class="cls-1" d="m132.23,149.34l2.26,8.53c-2.94,3.56-7.2,4.37-11.78,1.65l-6.65-3.93c-4.77-2.79-6.62-2.57-9.74.6l-.32,1.49,11.36,9.41c.84-.72,1.52-1.24,1.77-1.53.45-.54.57-1.19.07-3.1l1.2-.34c.45,2.37,1.36,6.7,2.35,10.03-4.55,2.48-7.43,4.34-11.11,8.79-1.96,2.37-2.23,3.9-2.21,6.49l-1.36.04-.39-7.57c-.15-3.04-.58-6.64-3.89-9.38l-5.63-4.66-.86,1.04c-1.92,2.32-2.34,4.64-1.5,6.33l-.61.33c-4.43-4-5.46-8.19-2.48-11.79l.2-.25-6.22-5.15c-6.11,1.44-7.36,2.15-7.93,2.84-.53.64-.68,1.52-.59,2.93l-1.18.02-.08-10.56c3.78-.95,8.46-2.07,12.02-2.95l.38-3.18-1.09-.9c-1.23-1.02-2.72-1.84-3.53-2.17l-.1-.08,1.09-1.01c.71.34,2.03,1.27,2.97,2.04l.84.7,1.07-8.94c4.42-2.92,9.15-4.91,13.94-.95,3.8,3.15,5.05,7.68,3.16,14.19,3.55-3.39,7.57-2.31,11.47-.08l5.54,3.17c4.19,2.38,5.38,1.54,6.16.6.41-.49.38-1.26,0-2.41l1.39-.27Zm-41.82-2.99c-.14,1.38-.39,3.09-.39,3.09l14.67,12.15c4.59,3.8,4.76,8.52,4.23,13.5l.14.03c.33-.81.82-1.9,1.81-3.08s3.62-2.66,5.53-4.16l-25.98-21.51Zm.52-4.15l-.34,2.72,14.33,11.86c2.12-7.49,1.11-11.4-2.84-14.67-3.85-3.19-7.47-2.44-11.15.09Z"/>
    <path class="cls-1" d="m122.55,159.62c1.2.16,1.96.04,2.37-.45.78-.94,1.38-2.27-1.74-5.94l-4.15-4.85c-2.92-3.41-4.73-7.16-2.06-11.28-6.04,3.07-10.72,2.69-14.53-.46-4.79-3.97-3.71-8.99-1.67-13.87l8.58-2.72-.84-.7c-.94-.78-2.09-1.9-2.56-2.54l.79-1.26.1.08c.48.73,1.56,2.04,2.79,3.06l1.09.9,3.05-.97c.2-3.66.43-8.47.66-12.36l10.39-1.89.2,1.17c-1.4.18-2.23.48-2.76,1.12-.57.69-1.04,2.06-1.31,8.32l6.22,5.15.2-.25c2.99-3.61,7.29-3.37,12.05.23l-.21.66c-1.82-.51-4.02.33-5.94,2.65l-.86,1.04,5.63,4.66c3.31,2.74,6.93,2.49,9.94,2.07l7.51-1.03.22,1.35c-2.55.47-4,1.01-5.97,3.38-3.68,4.45-4.98,7.62-6.56,12.55-3.45-.36-7.88-.44-10.29-.44l.11-1.24c1.97.13,2.59-.11,3.04-.65.25-.3.63-1.06,1.18-2.02l-11.36-9.41-1.4.59c-2.53,3.65-2.4,5.51,1.23,9.68l5.1,5.81c3.52,4,3.52,8.32.57,11.88l-8.8-.63v-1.41Zm-12.73-26.86c3.95,3.27,7.98,3.53,14.94.05l-14.33-11.86-2.61.84c-1.8,4.09-1.86,7.78,1.99,10.97Zm27.97,9.26c1.12-2.16,2.08-5.02,3.06-6.21s1.96-1.87,2.69-2.35l-.06-.13c-4.78,1.45-9.45,2.16-14.05-1.64l-14.67-12.15s-1.63.56-2.96.96l25.98,21.51Z"/>
    <path class="cls-1" d="m165.42,119.22l.38,8.82c-3.64,2.84-7.96,2.72-11.86-.91l-5.66-5.26c-4.06-3.74-5.91-3.93-9.64-1.51l-.63,1.39,9.08,11.63c.98-.52,1.75-.88,2.06-1.12.56-.43.81-1.04.74-3.02l1.24-.08c-.07,2.41-.11,6.84.15,10.3-4.98,1.44-8.19,2.65-12.73,6.2-2.43,1.89-3.01,3.33-3.55,5.87l-1.34-.26,1.24-7.48c.51-3,.86-6.61-1.79-10l-4.5-5.76-1.06.83c-2.38,1.85-3.28,4.03-2.82,5.87l-.66.19c-3.47-4.86-3.58-9.17.11-12.05l.25-.2-4.97-6.37c-6.27.1-7.65.52-8.36,1.07-.66.51-.99,1.34-1.2,2.73l-1.16-.23,2.18-10.33c3.9-.11,8.71-.21,12.38-.31l1.06-3.02-.87-1.11c-.99-1.26-2.27-2.38-2.98-2.88l-.08-.1,1.28-.76c.62.49,1.71,1.67,2.46,2.63l.67.86,2.96-8.5c4.94-1.91,9.99-2.84,13.82,2.06,3.04,3.89,3.29,8.58.04,14.53,4.2-2.54,7.89-.63,11.22,2.39l4.73,4.28c3.58,3.23,4.93,2.66,5.89,1.91.51-.39.65-1.15.52-2.36l1.41.04Zm-40.21-11.89c-.44,1.32-1.05,2.93-1.05,2.93l11.72,15.01c3.67,4.7,2.83,9.35,1.24,14.09l.13.06c.5-.72,1.21-1.68,2.43-2.63s4.11-1.82,6.29-2.88l-20.76-26.59Zm1.4-3.94l-.91,2.58,11.45,14.66c3.68-6.86,3.53-10.9.38-14.94-3.08-3.94-6.77-3.99-10.91-2.3Z"/>
    <path class="cls-1" d="m153.75,127.19c1.14.41,1.91.46,2.41.07.96-.75,1.84-1.92-.43-6.18l-3.01-5.62c-2.12-3.96-3.08-8.01.4-11.46-6.56,1.71-11.05.33-14.09-3.56-3.83-4.9-1.7-9.58,1.35-13.91l8.96-.82-.67-.86c-.75-.96-1.64-2.3-1.96-3.03l1.04-1.06.08.1c.31.82,1.08,2.33,2.07,3.59l.87,1.11,3.19-.29c.98-3.54,2.24-8.18,3.3-11.93l10.55.38-.05,1.18c-1.4-.13-2.28,0-2.94.51-.71.55-1.45,1.79-3.07,7.85l4.97,6.37.25-.2c3.69-2.88,7.84-1.73,11.72,2.81l-.35.6c-1.67-.89-4-.54-6.38,1.32l-1.06.83,4.5,5.76c2.64,3.39,6.23,3.92,9.27,4.16l7.56.61-.08,1.36c-2.59-.09-4.13.13-6.55,2.03-4.55,3.55-6.49,6.38-9.1,10.85-3.29-1.09-7.6-2.12-9.96-2.64l.38-1.19c1.9.55,2.55.45,3.1.02.3-.24.84-.9,1.58-1.72l-9.08-11.62-1.5.27c-3.25,3.03-3.52,4.87-.88,9.72l3.74,6.76c2.58,4.66,1.65,8.88-1.99,11.73l-8.46-2.5.31-1.38Zm-6.67-28.97c3.16,4.04,7.04,5.16,14.59,3.26l-11.45-14.66-2.73.26c-2.64,3.61-3.49,7.2-.41,11.14Zm25.34,15.04c1.55-1.87,3.11-4.46,4.32-5.41s2.32-1.41,3.14-1.72l-.03-.14c-4.98.39-9.7.09-13.37-4.61l-11.72-15.01s-1.72.2-3.1.3l20.76,26.59Z"/>
    <path class="cls-1" d="m204.29,96.93l-1.52,8.7c-4.16,2-8.36.95-11.39-3.43l-4.4-6.36c-3.17-4.53-4.93-5.1-9.09-3.54l-.91,1.22,6.37,13.3c1.07-.3,1.9-.48,2.25-.65.64-.3,1.02-.84,1.37-2.79l1.23.19c-.58,2.34-1.58,6.66-2.06,10.09-5.17.34-8.56.83-13.77,3.33-2.78,1.33-3.66,2.61-4.73,4.97l-1.25-.54,2.81-7.04c1.14-2.82,2.26-6.27.4-10.15l-3.16-6.59-1.21.58c-2.72,1.3-4.07,3.23-4.02,5.12l-.69.05c-2.34-5.49-1.53-9.72,2.69-11.74l.29-.14-3.49-7.29c-6.15-1.25-7.58-1.13-8.39-.74-.75.36-1.25,1.1-1.76,2.41l-1.08-.48,4.35-9.62c3.83.72,8.55,1.66,12.15,2.36l1.68-2.73-.61-1.27c-.69-1.45-1.7-2.81-2.29-3.45l-.06-.12,1.41-.46c.51.61,1.31,2,1.84,3.1l.47.98,4.72-7.67c5.23-.8,10.37-.63,13.05,4.98,2.13,4.45,1.37,9.09-3.08,14.2,4.64-1.59,7.84,1.08,10.45,4.74l3.7,5.2c2.8,3.92,4.24,3.66,5.34,3.13.58-.28.88-.99,1.01-2.19l1.37.34Zm-36.72-20.24c-.71,1.19-1.65,2.64-1.65,2.64l8.23,17.18c2.58,5.38.75,9.74-1.81,14.03l.11.09c.64-.59,1.54-1.38,2.93-2.04s4.4-.9,6.77-1.46l-14.58-30.42Zm2.21-3.55l-1.44,2.33,8.04,16.77c5.06-5.91,5.79-9.89,3.57-14.51-2.16-4.51-5.76-5.35-10.16-4.59Z"/>
    <path class="cls-1" d="m191.19,102.21c1.02.65,1.76.86,2.34.58,1.1-.53,2.21-1.48.91-6.12l-1.73-6.14c-1.22-4.32-1.29-8.48,2.85-11.11-6.77.26-10.87-2.05-13-6.5-2.69-5.61.39-9.72,4.3-13.3l8.93,1.13-.47-.98c-.53-1.1-1.1-2.6-1.26-3.38l1.25-.81.06.12c.13.86.56,2.5,1.25,3.95l.61,1.27,3.18.4c1.72-3.24,3.94-7.51,5.78-10.95l10.22,2.64-.31,1.14c-1.34-.42-2.23-.5-2.98-.13-.81.39-1.8,1.43-4.68,7.01l3.49,7.29.29-.14c4.22-2.02,8.03,0,10.84,5.26l-.47.51c-1.44-1.23-3.79-1.38-6.51-.08l-1.21.58,3.16,6.59c1.86,3.88,5.25,5.17,8.16,6.05l7.25,2.22-.37,1.31c-2.51-.65-4.06-.76-6.84.57-5.21,2.49-7.71,4.83-11.22,8.65-2.98-1.77-6.96-3.7-9.16-4.71l.62-1.08c1.73.95,2.39.99,3.03.68.35-.17,1.02-.7,1.92-1.34l-6.37-13.3-1.52-.05c-3.82,2.26-4.48,4-2.94,9.3l2.2,7.41c1.52,5.1-.29,9.03-4.46,11.03l-7.73-4.26.6-1.28Zm-.3-29.72c2.22,4.63,5.77,6.55,13.55,6.31l-8.04-16.77-2.72-.33c-3.35,2.96-4.95,6.29-2.79,10.8Zm21.52,20.12c1.92-1.49,3.99-3.69,5.38-4.36,1.39-.67,2.57-.88,3.43-1v-.14c-4.95-.69-9.49-2-12.06-7.37l-8.23-17.18s-1.72-.17-3.09-.37l14.58,30.42Z"/>
    <path class="cls-1" d="m247.04,83.49l-3.35,8.17c-4.5,1.06-8.37-.87-10.39-5.8l-2.93-7.15c-2.12-5.1-3.73-6.04-8.12-5.41l-1.15.99,3.37,14.36c1.11-.06,1.96-.07,2.34-.15.69-.16,1.17-.61,1.93-2.43l1.16.45c-1.07,2.16-2.97,6.16-4.18,9.41-5.12-.77-8.54-1.02-14.16.3-3,.7-4.13,1.76-5.69,3.84l-1.11-.79,4.26-6.27c1.71-2.51,3.55-5.64,2.57-9.83l-1.67-7.12-1.31.31c-2.93.69-4.67,2.28-5.02,4.14l-.68-.1c-1.11-5.87.59-9.82,5.15-10.89l.31-.07-1.85-7.87c-5.73-2.54-7.16-2.73-8.04-2.53-.81.19-1.46.8-2.24,1.97l-.95-.7,6.31-8.47c3.59,1.53,7.99,3.46,11.36,4.91l2.23-2.3-.32-1.37c-.37-1.56-1.06-3.11-1.5-3.86l-.03-.12,1.48-.15c.36.71.86,2.24,1.13,3.42l.25,1.06,6.25-6.48c5.29.34,10.26,1.61,11.68,7.67,1.13,4.81-.61,9.17-6.05,13.21,4.88-.55,7.43,2.74,9.19,6.87l2.5,5.87c1.9,4.43,3.36,4.48,4.54,4.2.62-.15,1.07-.78,1.46-1.92l1.27.62Zm-31.53-27.64c-.95,1.01-2.18,2.23-2.18,2.23l4.36,18.54c1.36,5.81-1.35,9.67-4.78,13.31l.09.11c.75-.44,1.8-1.02,3.3-1.37,1.5-.35,4.5.06,6.92.02l-7.71-32.84Zm2.92-2.99l-1.91,1.96,4.25,18.11c6.21-4.69,7.77-8.41,6.6-13.41-1.14-4.87-4.48-6.46-8.94-6.66Z"/>
    <path class="cls-1" d="m233.11,85.84c.86.85,1.54,1.22,2.16,1.07,1.19-.28,2.47-.98,2.2-5.79l-.38-6.37c-.26-4.48.56-8.56,5.17-10.24-6.67-1.2-10.17-4.33-11.3-9.14-1.42-6.06,2.47-9.41,7.05-12.06l8.48,3.01-.25-1.06c-.28-1.19-.52-2.78-.51-3.57l1.39-.52.03.12c-.06.87,0,2.57.38,4.13l.32,1.37,3.02,1.07c2.37-2.8,5.46-6.49,7.99-9.45l9.42,4.77-.54,1.05c-1.22-.7-2.07-.96-2.88-.77-.87.21-2.07,1.01-6.07,5.84l1.85,7.87.31-.07c4.56-1.07,7.85,1.71,9.46,7.46l-.57.4c-1.15-1.51-3.41-2.16-6.34-1.47l-1.31.31,1.67,7.12c.98,4.18,4.02,6.17,6.67,7.66l6.6,3.72-.64,1.2c-2.32-1.17-3.8-1.61-6.8-.91-5.62,1.32-8.57,3.07-12.81,6.04-2.53-2.37-6.01-5.11-7.93-6.57l.84-.92c1.49,1.3,2.13,1.48,2.81,1.32.37-.09,1.14-.47,2.16-.9l-3.37-14.36-1.47-.38c-4.22,1.39-5.24,2.94-4.87,8.46l.56,7.71c.39,5.31-2.23,8.76-6.72,9.81l-6.64-5.82.86-1.12Zm6.08-29.1c1.17,4.99,4.23,7.64,11.88,9.07l-4.25-18.11-2.58-.91c-3.9,2.17-6.19,5.08-5.04,9.95Zm16.7,24.27c2.19-1.04,4.69-2.75,6.19-3.1,1.5-.35,2.69-.3,3.57-.24l.03-.14c-4.69-1.73-8.84-3.98-10.21-9.79l-4.36-18.54s-1.64-.54-2.94-1.02l7.71,32.84Z"/>
  </g>
</svg>