<svg xmlns="http://www.w3.org/2000/svg" viewBox="0 0 399.29 399.29"><defs><style>.cls-1{fill:#fff;}.cls-2{fill:none;stroke:#fff;stroke-miterlimit:10;stroke-width:25.53px;}</style></defs><g id="レイヤー_2" data-name="レイヤー 2"><g id="レイヤー_1-2" data-name="レイヤー 1"><circle cx="199.65" cy="199.65" r="166"/><path class="cls-1" d="M399.29,209.57V189.72l-23.48-8.63c-1.29-8.17-1.59-10.06-2.89-18.23l19.67-15.47-6.13-18.88-25-.95c-3.75-7.37-4.62-9.08-8.38-16.45L367,90.33,355.33,74.27l-24.07,6.82L318.21,68,325,44,309,32.3,288.18,46.22l-16.45-8.38-1-25L251.9,6.7,236.44,26.37,218.2,23.48,209.57,0H189.72l-8.63,23.48-18.23,2.89L147.39,6.7l-18.88,6.14-.95,25-16.45,8.38L90.33,32.3,74.27,44,81.09,68,68,81.09,44,74.27,32.3,90.33l13.92,20.78c-3.76,7.37-4.62,9.08-8.38,16.45l-25,.95c-3,9.36-3.1,9.52-6.14,18.88l19.67,15.47c-1.29,8.17-1.59,10.06-2.89,18.23L0,189.72v19.85l23.48,8.63c1.3,8.17,1.6,10.07,2.89,18.24L6.71,251.9c3,9.36,3.09,9.52,6.13,18.88l25,1c3.76,7.37,4.62,9.08,8.38,16.45L32.3,309,44,325,68,318.21l13.06,13.05-6.82,24.07L90.33,367l20.78-13.93,16.45,8.38.95,25,18.88,6.13,15.47-19.67,18.23,2.89,8.63,23.48h19.85l8.63-23.48,18.24-2.89,15.46,19.67,18.88-6.13,1-25,16.45-8.38L309,367l16-11.67-6.81-24.07,13.05-13.05L355.33,325c5.78-7.95,5.89-8.09,11.67-16l-13.93-20.79c3.76-7.37,4.63-9.08,8.38-16.45l25-1,6.13-18.88-19.67-15.46c1.3-8.17,1.6-10.07,2.89-18.24ZM199.65,357.65a158,158,0,1,1,158-158A158,158,0,0,1,199.65,357.65Z"/><path class="cls-2" d="M162.87,123.56h74.7c31.11,0,56.33,24.28,56.33,54.22v25.15c0,29.95-25.22,54.22-56.33,54.22h-74.7"/><polygon class="cls-1" points="114.03 253.61 181.65 292.65 181.65 214.58 114.03 253.61"/></g></g></svg>