<?xml version="1.0" encoding="UTF-8"?>
<svg id="_レイヤー_2" data-name="レイヤー 2" xmlns="http://www.w3.org/2000/svg" viewBox="0 0 233.66 233.66">
  <defs>
    <style>
      .cls-1 {
        fill: #fff;
        stroke-width: 0px;
      }
    </style>
  </defs>
  <g id="_レイヤー_1-2" data-name="レイヤー 1">
    <path class="cls-1" d="m233.66,130.91v-28.16l-28.81-10.4c-3.37-8.15-5.09-12.3-8.47-20.45l13.02-27.73c-9.91-9.91-10-10-19.91-19.91l-27.73,13.02c-8.15-3.38-12.3-5.1-20.45-8.47L130.91,0h-28.16l-10.4,28.81c-8.15,3.37-12.3,5.09-20.45,8.47l-27.73-13.02c-9.91,9.91-10,10-19.91,19.91l13.02,27.73c-3.38,8.15-5.1,12.3-8.47,20.45L0,102.75v28.16l28.81,10.4c3.37,8.15,5.09,12.3,8.47,20.45l-13.02,27.73,19.91,19.91,27.73-13.02c8.15,3.38,12.3,5.1,20.45,8.47l10.4,28.81h28.16l10.4-28.81c8.15-3.37,12.3-5.09,20.45-8.47l27.73,13.02,19.91-19.91-13.02-27.73c3.38-8.15,5.1-12.3,8.47-20.45l28.81-10.4Zm-117.83,53.92c-37.56,0-68-30.44-68-68s30.44-68,68-68,68,30.44,68,68-30.44,68-68,68Z"/>
  </g>
</svg>