<?xml version="1.0" encoding="UTF-8"?>
<svg id="_レイヤー_2" data-name="レイヤー 2" xmlns="http://www.w3.org/2000/svg" viewBox="0 0 300 300">
  <defs>
    <style>
      .cls-1 {
        stroke-width: .75px;
      }

      .cls-1, .cls-2, .cls-3, .cls-4, .cls-5 {
        fill: none;
        stroke-miterlimit: 10;
      }

      .cls-1, .cls-2, .cls-4 {
        stroke: #000;
      }

      .cls-2, .cls-3 {
        stroke-width: 2px;
      }

      .cls-3, .cls-5 {
        stroke: #fff;
      }

      .cls-6, .cls-7 {
        stroke-width: 0px;
      }

      .cls-7 {
        fill: #fff;
      }
    </style>
  </defs>
  <g id="_レイヤー_1-2" data-name="レイヤー 1">
    <path class="cls-7" d="m230.54,278.08l-20-10.89-15,6.7-5.32,22.21-18.17,3.9-13.85-18.12h-16.38l-13.82,18.12-18.23-3.9-5.33-22.21-15-6.7-20,10.88-15.08-11,4.12-22.46-11-12.25-22.58,1.76-9.33-16.24,12.86-18.88-5.07-15.66-21.36-7.61-2-18.64,19.36-12,1.72-16.38-16.48-15.71,5.76-17.83,22.53-3,8.19-14.27-8.68-21.09,12.47-13.93,21.79,6.47,13.26-9.68.61-22.84,17-7.62,17.32,14.79,16-3.43L140.67,0h18.64l9.8,20.62,16,3.42,17.31-14.82,17,7.62.61,22.84,13.25,9.69,21.79-6.48,12.48,13.94-8.68,21.11,8.19,14.27,22.53,3,5.8,17.79-16.47,15.73,1.72,16.39,19.36,12-1.95,18.64-21.41,7.64-5.06,15.67,12.86,18.84-9.33,16.23-22.65-1.78-11,12.25,4.13,22.46-15.05,11.01Z"/>
    <circle class="cls-6" cx="150" cy="149.65" r="109"/>
    <circle class="cls-7" cx="150" cy="149.65" r="85"/>
    <circle class="cls-6" cx="150" cy="149.65" r="60"/>
    <circle class="cls-7" cx="150" cy="149.65" r="39"/>
    <circle class="cls-6" cx="150" cy="149.65" r="34"/>
    <g>
      <path class="cls-3" d="m132.23,40.61c4.89,2.64,11.52,15.42,14.33,24.12,3.31,10.28,4.18,17.69,4.13,23.53,1.84,3.63,3.73,7.4,5.49,10.98-.77-3.76-2.55-14.3.67-19.62,1.59-2.73,3.65-3.05,5.68-1.96,2.53,1.36,5.04,5.11,6.65,9.33,3.85,10.21,7.88,19.21,11.11,21.66.89.6,1.96.46,2.49-1.65.91-3.34.04-9.19-1.3-15.66-1.2-5.79-2.78-12.15-4.85-17.81-.95-2.78,1.02-3.88,1.91-1.48.98,2.44,3.21,9.51,4.62,17.09,1.8,9.46,3.15,17.73,1.45,22.56-1.36,3.46-4.6,6.49-8.22,4.78-4.38-2.12-6.5-8.41-7.92-14.44-2.69-11.62-6.47-22.27-9.26-21.15-2.46,1.06-2.26,6.79-1.53,12.46.93,6.48,2.64,14.59,5.47,20.66,0,0,11.52,23.2,11.29,24.04-.17,1.22-1.9,3.52-2.62,3.02-1.36-.97-5.16-9.24-11.68-23.05-9.67-20.65-20.99-41.23-30.07-61.8-2.66-6.22-3.77-13.28-.92-15.58.89-.71,1.89-.65,3.07-.02Zm8.21,28.24c2.41,4.53,4.95,9.25,7.45,14.07-.18-5-1.7-11.8-3.48-17.67-3.18-10.09-10.79-22.45-13.03-20.66-2.89,2.15,5.95,18.4,9.06,24.27Z"/>
      <path class="cls-3" d="m171.86,40.63c2.84,2.3,1.74,9.35-.93,15.58-9.08,20.57-20.41,41.15-30.07,61.8-6.53,13.81-10.33,22.08-11.68,23.05-.72.51-2.44-1.79-2.62-3.02-.23-.84,11.29-24.04,11.29-24.04,2.83-6.07,4.54-14.18,5.47-20.66.74-5.66.94-11.39-1.53-12.46-2.79-1.13-6.58,9.53-9.26,21.15-1.41,6.03-3.54,12.32-7.92,14.44-3.62,1.71-6.86-1.33-8.22-4.78-1.7-4.83-.35-13.09,1.45-22.56,1.41-7.58,3.64-14.65,4.62-17.09.9-2.4,2.86-1.3,1.91,1.48-2.07,5.66-3.65,12.02-4.85,17.81-1.34,6.47-2.21,12.32-1.3,15.66.52,2.11,1.6,2.25,2.49,1.65,3.22-2.46,7.25-11.45,11.11-21.66,1.61-4.22,4.12-7.97,6.65-9.33,2.02-1.09,4.09-.77,5.68,1.96,3.22,5.32,1.43,15.86.67,19.62,1.76-3.58,3.65-7.35,5.49-10.98-.05-5.84.82-13.24,4.14-23.53,2.81-8.7,9.44-21.48,14.33-24.12,1.18-.64,2.18-.7,3.07.02Zm-2.23,3.95c-2.24-1.79-9.84,10.57-13.03,20.66-1.78,5.87-3.3,12.67-3.48,17.67,2.5-4.82,5.04-9.54,7.45-14.07,3.11-5.86,11.95-22.12,9.06-24.27Z"/>
    </g>
    <g>
      <path class="cls-3" d="m189.13,46.33c2.92,4.73,2.26,19.11.35,28.05-2.27,10.56-5.22,17.41-8.18,22.44-.22,4.06-.46,8.27-.73,12.25,1.22-3.64,4.94-13.66,10.39-16.66,2.74-1.58,4.69-.82,5.9,1.14,1.51,2.45,1.81,6.95,1.1,11.41-1.77,10.77-2.78,20.57-1.21,24.31.47.96,1.47,1.38,2.98-.18,2.45-2.44,4.63-7.94,6.7-14.21,1.86-5.61,3.66-11.91,4.7-17.85.57-2.89,2.82-2.85,2.4-.33-.37,2.61-1.97,9.84-4.54,17.11-3.18,9.09-6.14,16.93-10.02,20.26-2.9,2.31-7.23,3.33-9.51.03-2.73-4.03-1.43-10.54.36-16.46,3.48-11.41,5.53-22.52,2.55-22.95-2.67-.31-5.36,4.75-7.55,10.02-2.44,6.08-5,13.96-5.59,20.62,0,0-1.62,25.85-2.24,26.46-.76.97-3.4,2.1-3.77,1.3-.69-1.52.16-10.58,1.41-25.8,1.95-22.71,2.44-46.2,4.86-68.55.8-6.72,3.37-13.39,6.99-13.95,1.13-.17,1.97.38,2.67,1.52Zm-7.01,28.56c-.18,5.13-.34,10.48-.58,15.91,2.35-4.42,4.43-11.07,5.82-17.04,2.29-10.33,1.88-24.84-.95-24.41-3.58.42-4.05,18.91-4.29,25.54Z"/>
      <path class="cls-3" d="m223.44,66.16c1.32,3.41-3.17,8.97-8.59,13.03-18.15,13.27-38.25,25.44-56.94,38.48-12.56,8.7-19.98,13.96-21.64,14.12-.88.08-1.22-2.78-.76-3.92.22-.84,21.8-15.17,21.8-15.17,5.48-3.84,11.02-10,15.06-15.16,3.47-4.53,6.51-9.4,4.91-11.55-1.86-2.37-10.46,4.96-18.59,13.68-4.24,4.51-9.22,8.9-14.07,8.54-3.99-.33-5.28-4.58-4.73-8.25.95-5.03,6.25-11.51,12.53-18.81,5.02-5.86,10.48-10.86,12.55-12.49,1.98-1.63,3.13.3.92,2.24-4.62,3.87-9.17,8.58-13.11,13-4.39,4.93-8.07,9.56-8.96,12.91-.6,2.09.26,2.75,1.33,2.67,4.02-.51,12-6.29,20.45-13.21,3.5-2.85,7.55-4.84,10.43-4.75,2.3.07,3.93,1.38,3.94,4.54.13,6.22-6.69,14.45-9.23,17.33,3.31-2.22,6.84-4.54,10.25-6.76,2.88-5.08,7.33-11.06,15.35-18.31,6.79-6.12,18.91-13.88,24.47-13.72,1.34.04,2.24.49,2.65,1.55Zm-3.91,2.31c-1.04-2.67-13.81,4.23-21.62,11.38-4.48,4.19-9.19,9.32-11.84,13.56,4.57-2.92,9.13-5.74,13.48-8.46,5.63-3.52,21.41-13.18,19.98-16.49Z"/>
    </g>
    <g>
      <path class="cls-3" d="m235.55,79.73c.16,5.55-7.6,17.68-13.72,24.47-7.25,8.01-13.23,12.47-18.31,15.34-2.22,3.41-4.54,6.93-6.76,10.25,2.88-2.55,11.11-9.36,17.33-9.23,3.16,0,4.47,1.64,4.54,3.94.08,2.87-1.91,6.92-4.75,10.43-6.92,8.44-12.69,16.43-13.21,20.45-.07,1.07.58,1.93,2.67,1.33,3.35-.89,7.98-4.56,12.91-8.96,4.42-3.93,9.13-8.49,13-13.11,1.94-2.21,3.87-1.06,2.24.92-1.62,2.07-6.63,7.53-12.49,12.55-7.3,6.29-13.78,11.59-18.81,12.54-3.67.55-7.92-.74-8.25-4.73-.35-4.85,4.03-9.84,8.54-14.07,8.72-8.14,16.05-16.74,13.68-18.6-2.15-1.6-7.02,1.44-11.55,4.91-5.15,4.04-11.31,9.58-15.16,15.07,0,0-14.33,21.58-15.17,21.8-1.15.46-4,.12-3.92-.76.16-1.66,5.42-9.08,14.12-21.64,13.05-18.69,25.21-38.79,38.48-56.94,4.06-5.42,9.62-9.91,13.03-8.59,1.07.42,1.51,1.31,1.55,2.65Zm-20.35,21.23c-2.72,4.35-5.54,8.91-8.46,13.48,4.24-2.66,9.37-7.37,13.56-11.84,7.15-7.8,14.05-20.57,11.38-21.62-3.31-1.43-12.96,14.35-16.49,19.98Z"/>
      <path class="cls-3" d="m255.34,114.06c-.56,3.61-7.23,6.18-13.95,6.99-22.35,2.42-45.84,2.9-68.55,4.86-15.22,1.25-24.29,2.1-25.8,1.41-.8-.37.33-3.01,1.3-3.78.61-.61,26.46-2.24,26.46-2.24,6.67-.59,14.55-3.15,20.62-5.59,5.27-2.19,10.33-4.89,10.02-7.55-.42-2.98-11.54-.93-22.94,2.55-5.92,1.79-12.44,3.1-16.46.36-3.29-2.28-2.28-6.6.03-9.51,3.33-3.88,11.17-6.85,20.26-10.02,7.27-2.57,14.51-4.17,17.11-4.54,2.53-.42,2.56,1.83-.33,2.4-5.94,1.04-12.24,2.85-17.85,4.71-6.27,2.07-11.77,4.25-14.21,6.7-1.57,1.51-1.15,2.51-.18,2.98,3.74,1.56,13.54.56,24.31-1.21,4.46-.71,8.96-.41,11.41,1.1,1.96,1.21,2.71,3.16,1.14,5.9-3,5.45-13.02,9.17-16.66,10.39,3.98-.27,8.19-.51,12.25-.73,5.03-2.96,11.88-5.91,22.44-8.18,8.94-1.91,23.32-2.57,28.05.35,1.14.7,1.69,1.54,1.52,2.67Zm-4.54.05c.43-2.83-14.08-3.24-24.41-.95-5.97,1.39-12.62,3.48-17.04,5.82,5.42-.24,10.78-.4,15.9-.58,6.63-.24,25.13-.71,25.54-4.29Z"/>
    </g>
    <g>
      <path class="cls-3" d="m259.04,131.87c-2.64,4.89-15.42,11.52-24.12,14.33-10.28,3.31-17.69,4.18-23.53,4.13-3.63,1.84-7.4,3.73-10.98,5.49,3.76-.77,14.3-2.55,19.62.67,2.73,1.59,3.06,3.65,1.96,5.68-1.36,2.53-5.11,5.04-9.33,6.65-10.21,3.85-19.21,7.88-21.66,11.11-.6.89-.46,1.96,1.65,2.49,3.34.91,9.19.04,15.66-1.3,5.79-1.2,12.15-2.78,17.81-4.85,2.78-.95,3.88,1.02,1.48,1.91-2.44.98-9.51,3.21-17.09,4.62-9.46,1.8-17.73,3.15-22.56,1.45-3.46-1.36-6.49-4.6-4.78-8.22,2.12-4.38,8.41-6.5,14.44-7.92,11.62-2.69,22.27-6.47,21.15-9.26-1.07-2.46-6.8-2.26-12.46-1.53-6.48.93-14.59,2.64-20.66,5.47,0,0-23.2,11.52-24.04,11.29-1.22-.17-3.52-1.9-3.02-2.62.97-1.36,9.24-5.16,23.05-11.68,20.65-9.67,41.23-20.99,61.8-30.07,6.22-2.66,13.28-3.77,15.57-.92.71.89.66,1.89.02,3.07Zm-28.24,8.21c-4.53,2.41-9.25,4.95-14.07,7.45,5-.18,11.8-1.7,17.67-3.48,10.09-3.18,22.45-10.79,20.67-13.03-2.15-2.89-18.4,5.95-24.27,9.06Z"/>
      <path class="cls-3" d="m259.03,171.5c-2.29,2.84-9.35,1.74-15.58-.93-20.57-9.08-41.15-20.41-61.8-30.07-13.81-6.53-22.08-10.33-23.05-11.68-.51-.72,1.79-2.44,3.02-2.62.84-.23,24.04,11.29,24.04,11.29,6.07,2.83,14.18,4.54,20.66,5.47,5.66.74,11.39.94,12.46-1.53,1.13-2.79-9.53-6.58-21.15-9.26-6.03-1.41-12.32-3.54-14.44-7.92-1.71-3.62,1.33-6.86,4.78-8.22,4.83-1.7,13.09-.35,22.56,1.45,7.58,1.41,14.65,3.64,17.09,4.62,2.4.9,1.3,2.86-1.48,1.91-5.66-2.07-12.02-3.65-17.81-4.85-6.47-1.34-12.32-2.21-15.66-1.3-2.11.52-2.25,1.6-1.65,2.49,2.46,3.22,11.45,7.25,21.66,11.11,4.22,1.61,7.97,4.12,9.33,6.65,1.09,2.02.77,4.09-1.96,5.68-5.32,3.22-15.86,1.43-19.62.67,3.58,1.76,7.35,3.65,10.98,5.49,5.84-.05,13.25.82,23.53,4.14,8.7,2.81,21.48,9.44,24.12,14.33.64,1.18.7,2.18-.02,3.07Zm-3.95-2.23c1.79-2.24-10.57-9.84-20.66-13.03-5.87-1.78-12.67-3.3-17.67-3.48,4.82,2.5,9.54,5.04,14.07,7.45,5.86,3.11,22.12,11.95,24.27,9.06Z"/>
    </g>
    <g>
      <path class="cls-3" d="m253.32,188.77c-4.73,2.92-19.11,2.26-28.05.35-10.56-2.27-17.41-5.22-22.44-8.18-4.06-.22-8.27-.46-12.25-.73,3.64,1.22,13.66,4.94,16.66,10.39,1.58,2.74.82,4.69-1.14,5.9-2.45,1.51-6.95,1.81-11.41,1.1-10.77-1.77-20.57-2.78-24.31-1.21-.96.47-1.38,1.47.18,2.98,2.44,2.45,7.94,4.63,14.21,6.7,5.61,1.86,11.91,3.66,17.85,4.7,2.89.57,2.85,2.82.33,2.4-2.61-.37-9.84-1.97-17.11-4.54-9.09-3.18-16.93-6.14-20.26-10.02-2.31-2.9-3.33-7.23-.03-9.51,4.03-2.73,10.54-1.43,16.46.36,11.41,3.48,22.52,5.53,22.95,2.55.31-2.67-4.75-5.36-10.02-7.55-6.08-2.44-13.96-5-20.62-5.59,0,0-25.85-1.62-26.46-2.24-.97-.76-2.1-3.4-1.3-3.77,1.52-.69,10.58.16,25.8,1.41,22.71,1.95,46.2,2.44,68.55,4.86,6.72.8,13.39,3.37,13.95,6.99.17,1.13-.38,1.97-1.52,2.67Zm-28.56-7.01c-5.13-.18-10.48-.34-15.91-.58,4.42,2.35,11.07,4.43,17.04,5.82,10.33,2.29,24.84,1.88,24.41-.95-.42-3.58-18.91-4.05-25.54-4.29Z"/>
      <path class="cls-3" d="m233.49,223.08c-3.41,1.32-8.97-3.17-13.02-8.59-13.27-18.15-25.44-38.25-38.48-56.94-8.7-12.56-13.96-19.98-14.12-21.64-.08-.88,2.78-1.22,3.92-.76.84.22,15.17,21.8,15.17,21.8,3.84,5.48,10,11.02,15.16,15.06,4.53,3.47,9.4,6.51,11.55,4.91,2.37-1.86-4.96-10.46-13.68-18.59-4.51-4.24-8.9-9.22-8.54-14.07.33-3.99,4.58-5.28,8.25-4.73,5.03.95,11.51,6.25,18.81,12.53,5.86,5.02,10.86,10.48,12.49,12.55,1.63,1.98-.3,3.13-2.24.92-3.87-4.62-8.58-9.17-13-13.11-4.93-4.39-9.56-8.07-12.91-8.96-2.09-.6-2.75.26-2.67,1.33.51,4.02,6.29,12,13.21,20.45,2.85,3.5,4.84,7.55,4.75,10.43-.07,2.3-1.38,3.93-4.54,3.94-6.22.13-14.45-6.69-17.33-9.23,2.22,3.31,4.54,6.84,6.76,10.25,5.08,2.88,11.06,7.33,18.31,15.35,6.12,6.79,13.88,18.91,13.72,24.47-.04,1.34-.49,2.24-1.55,2.65Zm-2.31-3.91c2.67-1.04-4.23-13.81-11.38-21.62-4.19-4.48-9.32-9.19-13.56-11.84,2.92,4.57,5.74,9.13,8.46,13.48,3.52,5.63,13.18,21.41,16.49,19.98Z"/>
    </g>
    <g>
      <path class="cls-3" d="m219.92,235.19c-5.55.16-17.68-7.6-24.47-13.72-8.01-7.25-12.47-13.23-15.34-18.31-3.41-2.22-6.93-4.54-10.25-6.76,2.55,2.88,9.36,11.11,9.23,17.33,0,3.16-1.64,4.47-3.94,4.54-2.87.08-6.92-1.9-10.43-4.75-8.44-6.92-16.43-12.69-20.45-13.21-1.07-.07-1.93.58-1.33,2.67.89,3.35,4.56,7.98,8.96,12.91,3.93,4.42,8.49,9.13,13.11,13,2.21,1.94,1.06,3.87-.92,2.24-2.07-1.62-7.53-6.63-12.55-12.49-6.29-7.3-11.59-13.78-12.54-18.81-.55-3.67.74-7.92,4.73-8.25,4.85-.35,9.84,4.03,14.07,8.55,8.14,8.72,16.74,16.05,18.6,13.68,1.6-2.15-1.44-7.02-4.91-11.55-4.04-5.15-9.58-11.31-15.07-15.16,0,0-21.58-14.33-21.8-15.17-.46-1.15-.12-4,.76-3.92,1.66.16,9.08,5.42,21.64,14.12,18.69,13.05,38.79,25.21,56.94,38.48,5.42,4.06,9.91,9.62,8.59,13.03-.42,1.07-1.31,1.51-2.65,1.55Zm-21.23-20.35c-4.35-2.72-8.91-5.54-13.48-8.46,2.66,4.24,7.37,9.37,11.84,13.56,7.8,7.15,20.57,14.05,21.62,11.38,1.43-3.31-14.35-12.96-19.98-16.49Z"/>
      <path class="cls-3" d="m185.59,254.99c-3.61-.57-6.18-7.23-6.99-13.95-2.42-22.35-2.9-45.84-4.86-68.55-1.25-15.22-2.1-24.29-1.41-25.8.37-.8,3.01.33,3.78,1.3.61.61,2.24,26.46,2.24,26.46.59,6.67,3.15,14.55,5.59,20.62,2.19,5.27,4.89,10.33,7.55,10.02,2.98-.42.93-11.54-2.55-22.95-1.79-5.92-3.1-12.43-.36-16.46,2.28-3.29,6.6-2.28,9.51.03,3.88,3.33,6.85,11.17,10.02,20.26,2.57,7.27,4.17,14.51,4.54,17.11.42,2.52-1.83,2.56-2.4-.33-1.04-5.94-2.85-12.24-4.71-17.85-2.07-6.27-4.25-11.77-6.7-14.21-1.51-1.57-2.51-1.15-2.98-.18-1.56,3.74-.56,13.54,1.21,24.31.71,4.46.41,8.96-1.1,11.41-1.21,1.96-3.16,2.71-5.9,1.14-5.45-3-9.17-13.02-10.39-16.66.27,3.98.51,8.19.73,12.25,2.96,5.03,5.91,11.88,8.18,22.44,1.91,8.94,2.57,23.32-.35,28.05-.7,1.14-1.54,1.69-2.67,1.52Zm-.05-4.54c2.83.43,3.24-14.08.95-24.41-1.39-5.97-3.48-12.62-5.82-17.04.24,5.42.4,10.78.58,15.91.24,6.63.71,25.13,4.29,25.54Z"/>
    </g>
    <g>
      <path class="cls-3" d="m167.78,258.68c-4.89-2.64-11.52-15.42-14.33-24.12-3.31-10.28-4.18-17.69-4.13-23.53-1.84-3.63-3.73-7.4-5.49-10.98.77,3.76,2.55,14.3-.67,19.62-1.59,2.73-3.65,3.06-5.68,1.96-2.53-1.36-5.04-5.11-6.65-9.33-3.85-10.21-7.88-19.21-11.11-21.66-.89-.6-1.96-.46-2.49,1.65-.91,3.34-.04,9.19,1.3,15.66,1.2,5.79,2.78,12.15,4.85,17.81.95,2.78-1.02,3.88-1.91,1.48-.98-2.44-3.21-9.51-4.62-17.09-1.8-9.46-3.15-17.73-1.45-22.56,1.36-3.46,4.6-6.49,8.22-4.78,4.38,2.12,6.5,8.41,7.92,14.44,2.69,11.62,6.47,22.27,9.26,21.15,2.46-1.07,2.26-6.8,1.53-12.46-.93-6.48-2.64-14.59-5.47-20.66,0,0-11.52-23.2-11.29-24.04.17-1.22,1.9-3.52,2.62-3.02,1.36.97,5.16,9.24,11.68,23.05,9.67,20.65,20.99,41.23,30.07,61.8,2.66,6.22,3.77,13.28.92,15.57-.89.71-1.89.66-3.07.02Zm-8.21-28.24c-2.41-4.53-4.95-9.25-7.45-14.07.18,5,1.7,11.8,3.48,17.67,3.18,10.09,10.79,22.45,13.03,20.67,2.89-2.15-5.95-18.4-9.06-24.27Z"/>
      <path class="cls-3" d="m128.15,258.67c-2.84-2.29-1.74-9.35.93-15.58,9.08-20.57,20.41-41.15,30.07-61.8,6.53-13.81,10.33-22.08,11.68-23.05.72-.51,2.44,1.79,2.62,3.02.23.84-11.29,24.04-11.29,24.04-2.83,6.07-4.54,14.18-5.47,20.66-.74,5.66-.94,11.39,1.53,12.46,2.79,1.13,6.58-9.53,9.26-21.15,1.41-6.03,3.54-12.32,7.92-14.44,3.62-1.71,6.86,1.33,8.22,4.78,1.7,4.83.35,13.09-1.45,22.56-1.41,7.58-3.64,14.65-4.62,17.09-.9,2.4-2.86,1.3-1.91-1.48,2.07-5.66,3.65-12.02,4.85-17.81,1.34-6.47,2.21-12.32,1.3-15.66-.52-2.11-1.6-2.25-2.49-1.65-3.22,2.46-7.25,11.45-11.11,21.66-1.61,4.22-4.12,7.97-6.65,9.33-2.02,1.09-4.09.77-5.68-1.96-3.22-5.32-1.43-15.86-.67-19.62-1.76,3.58-3.65,7.35-5.49,10.98.05,5.84-.82,13.25-4.14,23.53-2.81,8.7-9.44,21.48-14.33,24.12-1.18.64-2.18.7-3.07-.02Zm2.23-3.95c2.24,1.79,9.84-10.57,13.03-20.66,1.78-5.87,3.3-12.67,3.48-17.67-2.5,4.82-5.04,9.54-7.45,14.07-3.11,5.86-11.95,22.12-9.06,24.27Z"/>
    </g>
    <g>
      <path class="cls-3" d="m110.88,252.97c-2.92-4.73-2.26-19.11-.35-28.05,2.27-10.56,5.22-17.41,8.18-22.44.22-4.06.46-8.27.73-12.25-1.22,3.64-4.94,13.66-10.39,16.66-2.74,1.58-4.69.82-5.9-1.14-1.51-2.45-1.81-6.95-1.1-11.41,1.77-10.77,2.78-20.57,1.21-24.31-.47-.96-1.47-1.38-2.98.18-2.45,2.44-4.63,7.94-6.7,14.21-1.86,5.61-3.66,11.91-4.7,17.85-.57,2.89-2.82,2.85-2.4.33.37-2.61,1.97-9.84,4.54-17.11,3.18-9.09,6.14-16.93,10.02-20.26,2.9-2.31,7.23-3.33,9.51-.03,2.73,4.03,1.43,10.54-.36,16.46-3.48,11.41-5.53,22.52-2.55,22.95,2.67.31,5.36-4.75,7.55-10.02,2.44-6.08,5-13.96,5.59-20.62,0,0,1.62-25.85,2.24-26.46.76-.97,3.4-2.1,3.77-1.3.69,1.52-.16,10.58-1.41,25.8-1.95,22.71-2.44,46.2-4.86,68.55-.8,6.72-3.37,13.39-6.99,13.95-1.13.17-1.97-.38-2.67-1.52Zm7.01-28.56c.18-5.13.34-10.48.58-15.91-2.35,4.42-4.43,11.07-5.82,17.04-2.29,10.33-1.88,24.84.95,24.41,3.58-.42,4.05-18.91,4.29-25.54Z"/>
      <path class="cls-3" d="m76.57,233.14c-1.32-3.41,3.17-8.97,8.59-13.02,18.15-13.27,38.25-25.44,56.94-38.48,12.56-8.7,19.98-13.96,21.64-14.12.88-.08,1.22,2.78.76,3.92-.22.84-21.8,15.17-21.8,15.17-5.48,3.84-11.02,10-15.06,15.16-3.47,4.53-6.51,9.4-4.91,11.55,1.86,2.37,10.46-4.96,18.59-13.68,4.24-4.51,9.22-8.9,14.07-8.54,3.99.33,5.28,4.58,4.73,8.25-.95,5.03-6.25,11.51-12.53,18.81-5.02,5.86-10.48,10.86-12.55,12.49-1.98,1.63-3.13-.3-.92-2.24,4.62-3.87,9.17-8.58,13.11-13,4.39-4.93,8.07-9.56,8.96-12.91.6-2.09-.26-2.75-1.33-2.67-4.02.51-12,6.29-20.45,13.21-3.5,2.85-7.55,4.84-10.43,4.75-2.3-.07-3.93-1.38-3.94-4.54-.13-6.22,6.69-14.45,9.23-17.33-3.31,2.22-6.84,4.54-10.25,6.76-2.88,5.08-7.33,11.06-15.35,18.31-6.79,6.12-18.91,13.88-24.47,13.72-1.34-.04-2.24-.49-2.65-1.55Zm3.91-2.31c1.04,2.67,13.81-4.23,21.62-11.38,4.48-4.19,9.19-9.32,11.84-13.56-4.57,2.92-9.13,5.74-13.48,8.46-5.63,3.52-21.41,13.18-19.98,16.49Z"/>
    </g>
    <g>
      <path class="cls-3" d="m64.46,219.56c-.16-5.55,7.6-17.68,13.72-24.47,7.25-8.01,13.23-12.47,18.31-15.34,2.22-3.41,4.54-6.93,6.76-10.25-2.88,2.55-11.11,9.36-17.33,9.23-3.16,0-4.47-1.64-4.54-3.94-.08-2.87,1.91-6.92,4.75-10.43,6.92-8.44,12.69-16.43,13.21-20.45.07-1.07-.58-1.93-2.67-1.33-3.35.89-7.98,4.56-12.91,8.96-4.42,3.93-9.13,8.49-13,13.11-1.94,2.21-3.87,1.06-2.24-.92,1.63-2.07,6.63-7.53,12.49-12.55,7.3-6.29,13.78-11.59,18.81-12.54,3.67-.55,7.92.74,8.25,4.73.35,4.85-4.03,9.84-8.55,14.07-8.72,8.14-16.05,16.74-13.68,18.6,2.15,1.6,7.02-1.44,11.55-4.91,5.15-4.04,11.31-9.58,15.15-15.07,0,0,14.33-21.58,15.17-21.8,1.15-.46,4-.12,3.92.76-.16,1.66-5.42,9.08-14.12,21.64-13.05,18.69-25.21,38.79-38.48,56.94-4.06,5.42-9.62,9.91-13.03,8.59-1.07-.42-1.51-1.31-1.55-2.65Zm20.35-21.23c2.72-4.35,5.54-8.91,8.46-13.48-4.24,2.66-9.37,7.37-13.56,11.84-7.15,7.8-14.05,20.57-11.38,21.62,3.31,1.43,12.96-14.35,16.49-19.98Z"/>
      <path class="cls-3" d="m44.66,185.23c.56-3.61,7.23-6.18,13.95-6.99,22.36-2.42,45.84-2.9,68.55-4.86,15.22-1.25,24.29-2.1,25.8-1.41.8.37-.33,3.01-1.3,3.78-.61.61-26.46,2.24-26.46,2.24-6.67.59-14.55,3.15-20.62,5.59-5.27,2.19-10.33,4.89-10.03,7.55.42,2.98,11.54.93,22.95-2.55,5.92-1.79,12.43-3.1,16.46-.36,3.29,2.28,2.28,6.6-.03,9.51-3.33,3.88-11.17,6.85-20.26,10.02-7.27,2.57-14.51,4.17-17.11,4.54-2.52.42-2.56-1.83.33-2.4,5.94-1.04,12.24-2.85,17.85-4.71,6.27-2.07,11.77-4.25,14.21-6.7,1.57-1.51,1.15-2.51.18-2.98-3.74-1.56-13.54-.56-24.31,1.21-4.46.71-8.96.41-11.41-1.1-1.96-1.21-2.71-3.16-1.14-5.9,3-5.45,13.02-9.17,16.66-10.39-3.98.27-8.19.51-12.25.73-5.03,2.96-11.88,5.91-22.44,8.18-8.94,1.91-23.32,2.57-28.05-.35-1.14-.7-1.69-1.54-1.52-2.67Zm4.54-.05c-.43,2.83,14.08,3.24,24.41.95,5.97-1.39,12.62-3.48,17.04-5.82-5.42.24-10.78.4-15.91.58-6.63.24-25.13.71-25.54,4.29Z"/>
    </g>
    <g>
      <path class="cls-3" d="m40.97,167.42c2.64-4.89,15.42-11.52,24.12-14.33,10.28-3.31,17.69-4.18,23.53-4.13,3.63-1.84,7.4-3.73,10.98-5.49-3.76.77-14.3,2.55-19.62-.67-2.73-1.59-3.06-3.65-1.96-5.68,1.36-2.53,5.11-5.04,9.33-6.65,10.21-3.85,19.21-7.88,21.66-11.11.6-.89.46-1.96-1.65-2.49-3.34-.91-9.19-.04-15.66,1.3-5.79,1.2-12.15,2.78-17.81,4.85-2.79.95-3.88-1.02-1.48-1.91,2.44-.98,9.51-3.21,17.09-4.62,9.46-1.8,17.73-3.15,22.56-1.45,3.46,1.36,6.5,4.6,4.78,8.22-2.12,4.38-8.41,6.5-14.44,7.92-11.62,2.69-22.27,6.47-21.15,9.26,1.07,2.46,6.8,2.26,12.46,1.53,6.48-.93,14.59-2.64,20.66-5.47,0,0,23.2-11.52,24.04-11.29,1.22.17,3.52,1.9,3.02,2.62-.97,1.36-9.24,5.16-23.05,11.68-20.65,9.67-41.23,20.99-61.8,30.07-6.22,2.66-13.28,3.77-15.57.92-.71-.89-.66-1.89-.02-3.07Zm28.24-8.21c4.53-2.41,9.25-4.95,14.07-7.45-5,.18-11.8,1.7-17.67,3.48-10.09,3.18-22.45,10.79-20.67,13.03,2.15,2.89,18.4-5.95,24.27-9.06Z"/>
      <path class="cls-3" d="m40.98,127.8c2.29-2.84,9.35-1.74,15.58.93,20.57,9.08,41.15,20.41,61.8,30.07,13.81,6.53,22.08,10.33,23.05,11.68.51.72-1.79,2.44-3.02,2.62-.84.23-24.04-11.29-24.04-11.29-6.07-2.83-14.18-4.54-20.66-5.47-5.66-.74-11.39-.94-12.46,1.53-1.13,2.79,9.53,6.58,21.15,9.26,6.03,1.41,12.32,3.54,14.44,7.92,1.71,3.62-1.33,6.86-4.78,8.22-4.83,1.7-13.09.35-22.56-1.45-7.58-1.41-14.65-3.64-17.09-4.62-2.4-.9-1.3-2.86,1.48-1.91,5.66,2.07,12.02,3.65,17.81,4.85,6.47,1.34,12.32,2.21,15.66,1.3,2.11-.52,2.25-1.6,1.65-2.49-2.46-3.22-11.45-7.25-21.66-11.11-4.22-1.61-7.97-4.12-9.33-6.65-1.09-2.02-.77-4.09,1.96-5.68,5.32-3.22,15.86-1.43,19.62-.67-3.58-1.76-7.35-3.65-10.98-5.49-5.84.05-13.25-.82-23.53-4.14-8.7-2.81-21.48-9.44-24.12-14.33-.64-1.18-.7-2.18.02-3.07Zm3.95,2.23c-1.79,2.24,10.57,9.84,20.66,13.03,5.87,1.78,12.67,3.3,17.67,3.48-4.82-2.5-9.54-5.04-14.07-7.45-5.86-3.11-22.12-11.95-24.27-9.06Z"/>
    </g>
    <g>
      <path class="cls-3" d="m46.69,110.52c4.73-2.92,19.11-2.26,28.05-.35,10.56,2.27,17.41,5.22,22.44,8.18,4.06.22,8.27.46,12.25.73-3.64-1.22-13.66-4.94-16.66-10.39-1.58-2.74-.82-4.69,1.14-5.9,2.45-1.51,6.95-1.81,11.41-1.1,10.77,1.77,20.57,2.78,24.31,1.21.96-.47,1.38-1.47-.18-2.98-2.44-2.45-7.94-4.63-14.21-6.7-5.61-1.86-11.91-3.66-17.85-4.7-2.89-.57-2.85-2.82-.33-2.4,2.61.37,9.84,1.97,17.11,4.54,9.09,3.18,16.93,6.14,20.26,10.02,2.31,2.9,3.33,7.23.03,9.51-4.03,2.73-10.54,1.43-16.46-.36-11.41-3.48-22.52-5.53-22.95-2.55-.31,2.67,4.75,5.36,10.02,7.55,6.08,2.44,13.96,5,20.62,5.59,0,0,25.85,1.62,26.46,2.24.97.76,2.1,3.4,1.3,3.77-1.52.69-10.58-.16-25.8-1.41-22.71-1.95-46.2-2.44-68.55-4.86-6.72-.8-13.39-3.37-13.95-6.99-.17-1.13.38-1.97,1.52-2.67Zm28.56,7.01c5.13.18,10.48.34,15.91.58-4.42-2.35-11.07-4.43-17.04-5.82-10.33-2.29-24.84-1.88-24.41.95.42,3.58,18.91,4.05,25.54,4.29Z"/>
      <path class="cls-3" d="m66.52,76.21c3.41-1.32,8.97,3.17,13.02,8.59,13.27,18.15,25.44,38.25,38.48,56.94,8.7,12.56,13.96,19.98,14.12,21.64.08.88-2.78,1.22-3.92.76-.84-.22-15.17-21.8-15.17-21.8-3.84-5.48-10-11.02-15.16-15.06-4.53-3.47-9.4-6.51-11.55-4.91-2.37,1.86,4.96,10.46,13.68,18.59,4.51,4.24,8.9,9.22,8.54,14.07-.33,3.99-4.58,5.28-8.25,4.73-5.03-.95-11.51-6.25-18.81-12.53-5.86-5.02-10.86-10.48-12.49-12.55-1.63-1.98.3-3.13,2.24-.92,3.87,4.62,8.58,9.17,13,13.11,4.93,4.39,9.56,8.07,12.91,8.96,2.09.6,2.75-.26,2.67-1.33-.51-4.02-6.29-12-13.21-20.45-2.85-3.5-4.84-7.55-4.75-10.43.07-2.3,1.38-3.93,4.54-3.94,6.22-.13,14.45,6.69,17.33,9.23-2.22-3.31-4.54-6.84-6.76-10.25-5.08-2.88-11.06-7.33-18.31-15.35-6.12-6.79-13.88-18.91-13.72-24.47.04-1.34.49-2.24,1.55-2.65Zm2.31,3.91c-2.67,1.04,4.23,13.81,11.38,21.62,4.19,4.48,9.32,9.19,13.56,11.84-2.92-4.57-5.74-9.13-8.46-13.48-3.52-5.63-13.18-21.41-16.49-19.98Z"/>
    </g>
    <g>
      <path class="cls-3" d="m80.09,64.11c5.55-.16,17.68,7.6,24.47,13.72,8.01,7.25,12.47,13.23,15.34,18.31,3.41,2.22,6.93,4.54,10.25,6.76-2.55-2.88-9.36-11.11-9.23-17.33,0-3.16,1.64-4.47,3.94-4.54,2.87-.08,6.92,1.91,10.43,4.75,8.45,6.92,16.43,12.69,20.45,13.21,1.07.07,1.93-.58,1.33-2.67-.89-3.35-4.56-7.98-8.96-12.91-3.93-4.42-8.49-9.13-13.11-13-2.21-1.94-1.06-3.87.92-2.24,2.07,1.63,7.53,6.63,12.55,12.49,6.29,7.3,11.59,13.78,12.54,18.81.55,3.67-.74,7.92-4.73,8.25-4.85.35-9.84-4.03-14.07-8.55-8.14-8.72-16.74-16.05-18.6-13.68-1.6,2.15,1.44,7.02,4.91,11.55,4.04,5.15,9.58,11.31,15.06,15.15,0,0,21.58,14.33,21.8,15.17.46,1.15.12,4-.76,3.92-1.66-.16-9.08-5.42-21.64-14.12-18.69-13.05-38.79-25.21-56.94-38.48-5.42-4.06-9.9-9.62-8.59-13.03.42-1.07,1.31-1.51,2.65-1.55Zm21.23,20.35c4.35,2.72,8.91,5.54,13.48,8.46-2.66-4.24-7.37-9.37-11.84-13.56-7.8-7.15-20.57-14.05-21.62-11.38-1.43,3.31,14.35,12.96,19.98,16.49Z"/>
      <path class="cls-3" d="m114.42,44.31c3.61.56,6.18,7.23,6.99,13.95,2.42,22.36,2.9,45.84,4.86,68.55,1.25,15.22,2.1,24.29,1.41,25.8-.37.8-3.01-.33-3.78-1.3-.61-.61-2.24-26.46-2.24-26.46-.59-6.67-3.15-14.55-5.59-20.62-2.19-5.27-4.89-10.33-7.55-10.03-2.98.42-.93,11.54,2.55,22.95,1.79,5.92,3.1,12.43.37,16.46-2.28,3.29-6.61,2.28-9.51-.03-3.88-3.33-6.85-11.17-10.02-20.26-2.57-7.27-4.17-14.51-4.54-17.11-.42-2.52,1.83-2.56,2.4.33,1.04,5.94,2.85,12.24,4.71,17.85,2.07,6.27,4.25,11.77,6.7,14.21,1.51,1.57,2.51,1.15,2.98.18,1.56-3.74.56-13.54-1.21-24.31-.71-4.46-.41-8.96,1.1-11.41,1.21-1.96,3.16-2.71,5.9-1.14,5.45,3,9.17,13.02,10.39,16.66-.27-3.98-.51-8.19-.73-12.25-2.96-5.03-5.91-11.88-8.18-22.44-1.91-8.94-2.57-23.32.35-28.05.7-1.14,1.54-1.69,2.67-1.52Zm.05,4.54c-2.83-.43-3.24,14.08-.95,24.41,1.39,5.97,3.48,12.62,5.82,17.04-.24-5.42-.4-10.78-.58-15.91-.24-6.63-.71-25.13-4.29-25.54Z"/>
    </g>
    <path class="cls-6" d="m143.86,84.6c-.31-2.08.91-5.3,1.55-6.85,1.86-4.47,6.57-11.8,11.84-12.59,1.88-.28,3.34.43,3.62,2.31.25,1.65-.55,3.19-1.35,3.85-.2.16-.42.25-.62.28-.45.07-.83-.14-.9-.46-.14-.5.16-.99.52-1.12.31-.15.69.08.74.34.04.13.06.19.13.2.05,0,.18-.03.28-.13.17-.19.75-1.04.54-2.46-.21-1.39-1.38-1.85-2.81-1.64-2.61.39-5.53,2.72-8.2,5.97-2.55,3.12-5.38,9.14-4.95,12.03.08.56.29,1,.65,1.29.57.45,1.27.57,1.99.46,1.96-.29,4.24-2.25,5.51-3.91,1.35-1.72,2.76-4.77,2.48-6.65-.04-.25-.1-.46-.2-.66-.34-.71-.96-.9-1.66-.8-1.07.16-2.33,1.01-3.08,1.76-1.33,1.28-2.02,3.17-2.17,4-.06.3-.17.43-.27.45s-.17-.09-.15-.3c.14-.95.65-2.75,2.34-4.57.9-.98,2.26-1.7,3.5-1.89,1.09-.16,2.09.09,2.62.94.2.32.33.71.39,1.12.3,2.02-.91,4.96-3.03,7.41-1.67,1.92-4.11,3.3-6.08,3.59-1.06.16-1.99,0-2.6-.56-.37-.35-.58-.84-.67-1.42Z"/>
    <path class="cls-6" d="m155.48,86.02c-.61.55-1.54.71-2.6.56-1.96-.29-4.41-1.67-6.08-3.6-2.12-2.44-3.33-5.39-3.02-7.41.06-.41.19-.8.39-1.12.53-.85,1.53-1.1,2.62-.94,1.24.19,2.6.91,3.5,1.89,1.68,1.82,2.19,3.62,2.34,4.57.02.21-.05.31-.15.3-.1-.02-.21-.15-.27-.45-.15-.83-.84-2.73-2.17-4-.75-.75-2.01-1.6-3.08-1.76-.69-.1-1.31.09-1.65.8-.1.21-.16.41-.2.66-.28,1.88,1.14,4.93,2.48,6.65,1.27,1.66,3.54,3.62,5.51,3.91.73.11,1.42,0,1.99-.46.36-.28.56-.73.65-1.29.43-2.89-2.39-8.92-4.95-12.03-2.67-3.25-5.59-5.58-8.2-5.97-1.44-.21-2.6.25-2.81,1.64-.21,1.42.37,2.27.54,2.46.1.1.23.14.29.13.07,0,.1-.07.13-.2.06-.26.43-.49.74-.34.37.14.67.62.52,1.13-.06.31-.45.52-.9.46-.2-.03-.42-.11-.62-.28-.8-.66-1.6-2.2-1.35-3.85.28-1.88,1.74-2.59,3.62-2.31,5.27.79,9.97,8.13,11.84,12.59.65,1.55,1.87,4.77,1.55,6.85-.09.58-.3,1.07-.67,1.42Z"/>
    <path class="cls-6" d="m155.25,84.52c.05-2.1,1.82-5.06,2.72-6.47,2.61-4.08,8.52-10.49,13.84-10.35,1.9.05,3.21,1,3.16,2.9-.04,1.67-1.1,3.04-1.99,3.56-.22.13-.46.17-.66.17-.45-.01-.79-.29-.8-.61-.05-.52.33-.94.71-1.02.34-.09.66.2.67.47.01.13.03.2.09.22.05.02.18,0,.3-.08.2-.16.92-.89.96-2.33.04-1.4-1.03-2.06-2.48-2.1-2.64-.07-5.92,1.72-9.12,4.46-3.06,2.63-6.89,8.07-6.96,10.99-.02.57.11,1.04.41,1.38.49.55,1.15.78,1.88.8,1.99.05,4.56-1.49,6.1-2.9,1.62-1.46,3.55-4.22,3.6-6.12,0-.25-.02-.47-.08-.69-.21-.76-.79-1.06-1.49-1.07-1.09-.03-2.47.59-3.34,1.2-1.53,1.03-2.54,2.77-2.83,3.57-.11.28-.24.39-.34.39-.1,0-.15-.12-.09-.32.31-.91,1.12-2.59,3.09-4.1,1.06-.81,2.52-1.29,3.77-1.25,1.1.03,2.04.45,2.42,1.38.14.35.2.76.19,1.17-.05,2.04-1.76,4.73-4.27,6.77-1.98,1.6-4.62,2.54-6.61,2.49-1.07-.03-1.96-.35-2.46-1-.31-.41-.43-.93-.41-1.51Z"/>
    <path class="cls-6" d="m166.45,87.93c-.69.44-1.64.44-2.66.1-1.88-.63-4.05-2.41-5.36-4.6-1.66-2.77-2.34-5.89-1.69-7.82.13-.4.32-.75.58-1.04.67-.74,1.7-.82,2.75-.47,1.19.4,2.4,1.35,3.12,2.47,1.34,2.09,1.53,3.95,1.51,4.91-.02.21-.1.3-.2.27-.09-.03-.18-.18-.19-.49,0-.84-.35-2.83-1.44-4.32-.61-.87-1.7-1.92-2.73-2.27-.67-.22-1.31-.14-1.77.5-.13.18-.23.38-.31.62-.61,1.8.26,5.05,1.29,6.98.96,1.85,2.86,4.18,4.74,4.81.7.23,1.4.24,2.04-.11.41-.22.68-.62.86-1.16.93-2.77-.81-9.2-2.78-12.71-2.06-3.67-4.54-6.47-7.04-7.31-1.38-.46-2.61-.21-3.05,1.12-.46,1.36-.03,2.3.11,2.52.08.12.21.17.26.17.07,0,.11-.05.16-.17.1-.25.51-.41.79-.21.34.2.55.73.32,1.2-.12.29-.53.44-.96.29-.19-.06-.4-.19-.56-.38-.67-.79-1.19-2.44-.66-4.02.6-1.8,2.16-2.25,3.97-1.65,5.05,1.69,8.41,9.74,9.47,14.46.37,1.64,1.01,5.02.34,7.02-.19.55-.48,1-.9,1.28Z"/>
    <path class="cls-6" d="m166.48,86.42c.42-2.06,2.67-4.67,3.8-5.9,3.28-3.56,10.21-8.85,15.43-7.79,1.86.38,2.99,1.54,2.61,3.41-.33,1.64-1.61,2.81-2.58,3.16-.24.09-.48.09-.67.05-.44-.09-.73-.42-.69-.74.04-.52.48-.87.88-.88.35-.03.62.31.58.58,0,.13,0,.2.06.23.05.03.18.04.31-.02.23-.12,1.07-.72,1.35-2.13.28-1.38-.66-2.21-2.08-2.5-2.58-.52-6.13.66-9.75,2.81-3.47,2.06-8.18,6.75-8.76,9.62-.11.56-.08,1.04.17,1.43.38.62,1,.97,1.72,1.11,1.95.4,4.75-.67,6.51-1.79,1.85-1.16,4.23-3.54,4.61-5.4.05-.25.06-.46.04-.69-.08-.78-.6-1.18-1.28-1.32-1.06-.21-2.53.15-3.49.6-1.69.75-2.99,2.29-3.41,3.02-.16.26-.31.35-.41.33-.1-.02-.12-.14-.04-.33.46-.84,1.55-2.36,3.76-3.5,1.18-.61,2.71-.83,3.93-.58,1.08.22,1.93.8,2.14,1.78.08.37.06.78-.02,1.19-.41,2-2.55,4.35-5.38,5.93-2.23,1.23-4.99,1.69-6.94,1.3-1.05-.21-1.87-.69-2.25-1.41-.23-.46-.26-.99-.14-1.56Z"/>
    <path class="cls-6" d="m176.92,91.73c-.76.31-1.69.14-2.63-.37-1.75-.95-3.57-3.08-4.48-5.46-1.15-3.02-1.28-6.21-.31-8,.2-.37.45-.69.75-.92.79-.62,1.82-.51,2.79.01,1.1.6,2.13,1.75,2.64,2.97.96,2.29.82,4.15.63,5.09-.05.2-.15.28-.24.23-.09-.05-.15-.21-.1-.51.15-.83.14-2.85-.67-4.5-.44-.96-1.34-2.19-2.29-2.71-.62-.33-1.27-.36-1.83.18-.16.16-.29.33-.42.55-.91,1.67-.62,5.02.06,7.1.63,1.99,2.09,4.61,3.84,5.56.65.35,1.34.48,2.03.25.44-.14.78-.49,1.05-.99,1.39-2.57.8-9.2-.53-13-1.4-3.97-3.35-7.16-5.67-8.42-1.28-.69-2.53-.65-3.2.58-.69,1.26-.43,2.26-.33,2.5.06.13.17.21.22.22.07.02.11-.03.19-.14.14-.23.57-.32.82-.07.3.26.41.81.11,1.24-.17.27-.6.34-1,.12-.18-.1-.36-.25-.48-.47-.52-.89-.75-2.61.05-4.08.91-1.67,2.52-1.84,4.19-.93,4.68,2.54,6.59,11.05,6.81,15.88.08,1.68.12,5.12-.88,6.97-.28.51-.64.9-1.11,1.11Z"/>
    <path class="cls-6" d="m177.21,90.24c.77-1.96,3.44-4.13,4.77-5.15,3.85-2.94,11.59-6.94,16.55-4.99,1.77.7,2.68,2.04,1.98,3.81-.61,1.55-2.07,2.49-3.09,2.66-.25.04-.49,0-.67-.07-.42-.17-.65-.54-.55-.84.13-.5.63-.78,1.01-.71.35.03.55.42.47.67-.03.13-.04.2.01.24.04.03.17.07.31.03.25-.08,1.17-.52,1.7-1.86.51-1.3-.26-2.29-1.62-2.82-2.46-.97-6.15-.41-10.09,1.07-3.77,1.42-9.23,5.23-10.3,7.95-.21.53-.25,1.01-.08,1.44.27.68.81,1.13,1.5,1.4,1.85.73,4.8.17,6.73-.64,2.03-.82,4.78-2.75,5.47-4.52.09-.23.14-.45.16-.67.06-.78-.38-1.26-1.03-1.52-1.01-.4-2.52-.29-3.55-.01-1.79.44-3.34,1.74-3.88,2.38-.2.23-.36.29-.46.25-.09-.04-.1-.16.02-.33.6-.75,1.94-2.05,4.31-2.79,1.27-.4,2.81-.35,3.97.11,1.03.4,1.76,1.12,1.8,2.12.01.38-.07.78-.23,1.17-.75,1.9-3.27,3.84-6.32,4.9-2.41.83-5.21.8-7.06.07-.99-.39-1.72-1-1.97-1.78-.15-.49-.08-1.02.13-1.56Z"/>
    <path class="cls-6" d="m186.56,97.28c-.8.17-1.69-.15-2.53-.82-1.55-1.24-2.98-3.65-3.47-6.15-.61-3.17-.18-6.33,1.08-7.93.26-.33.56-.6.9-.78.88-.47,1.88-.19,2.74.5.98.78,1.79,2.09,2.08,3.39.55,2.42.09,4.23-.26,5.13-.09.19-.2.25-.28.19-.08-.06-.11-.24-.01-.52.29-.79.63-2.78.12-4.55-.27-1.03-.94-2.39-1.79-3.06-.55-.44-1.18-.58-1.83-.14-.19.13-.35.28-.5.47-1.19,1.49-1.48,4.84-1.18,7,.27,2.07,1.26,4.91,2.81,6.14.57.46,1.23.7,1.96.6.46-.06.85-.35,1.21-.79,1.82-2.29,2.39-8.92,1.73-12.9-.68-4.15-2.05-7.63-4.12-9.27-1.14-.9-2.38-1.08-3.25.01-.89,1.12-.81,2.15-.76,2.4.04.14.13.23.18.25.06.03.12-.01.21-.11.18-.2.62-.21.81.07.25.3.27.87-.11,1.24-.21.24-.65.23-1-.05-.16-.12-.31-.31-.4-.55-.36-.97-.28-2.7.76-4.01,1.19-1.49,2.8-1.38,4.29-.19,4.17,3.32,4.57,12.03,3.95,16.82-.22,1.66-.77,5.06-2.08,6.71-.36.46-.79.78-1.29.89Z"/>
    <path class="cls-6" d="m187.11,95.86c1.1-1.79,4.1-3.48,5.59-4.25,4.3-2.22,12.62-4.82,17.16-2.04,1.62.99,2.28,2.47,1.29,4.1-.87,1.42-2.47,2.09-3.51,2.08-.25,0-.48-.08-.65-.18-.38-.24-.54-.65-.39-.93.21-.48.75-.65,1.12-.53.34.09.47.51.35.74-.06.12-.08.19-.03.24.03.04.16.1.3.09.26-.04,1.25-.31,2-1.54.73-1.2.14-2.3-1.1-3.06-2.25-1.38-5.99-1.47-10.12-.7-3.96.75-10,3.55-11.53,6.04-.3.48-.43.95-.33,1.4.15.72.61,1.25,1.23,1.63,1.7,1.04,4.7,1,6.73.54,2.14-.45,5.18-1.88,6.18-3.5.13-.21.22-.42.27-.64.19-.76-.16-1.31-.75-1.68-.92-.57-2.43-.72-3.49-.63-1.84.13-3.59,1.13-4.24,1.67-.23.19-.41.22-.49.17-.09-.05-.07-.18.08-.32.72-.63,2.26-1.69,4.73-2,1.32-.17,2.83.15,3.89.8.94.58,1.54,1.41,1.4,2.41-.05.38-.21.75-.42,1.11-1.06,1.74-3.89,3.22-7.08,3.73-2.51.4-5.27-.12-6.97-1.15-.91-.56-1.52-1.28-1.63-2.1-.06-.51.09-1.02.4-1.52Z"/>
    <path class="cls-6" d="m195.1,104.42c-.82.03-1.64-.44-2.35-1.24-1.32-1.49-2.3-4.12-2.35-6.66-.05-3.23.92-6.27,2.44-7.62.31-.28.66-.49,1.02-.61.95-.31,1.88.14,2.61.97.83.94,1.4,2.37,1.46,3.7.12,2.48-.65,4.18-1.15,5-.12.17-.24.21-.3.13-.07-.08-.07-.25.08-.52.42-.73,1.11-2.63.91-4.46-.09-1.06-.51-2.52-1.23-3.33-.46-.53-1.06-.78-1.78-.45-.21.09-.39.21-.58.38-1.43,1.26-2.3,4.51-2.38,6.69-.09,2.09.39,5.05,1.7,6.54.49.55,1.09.91,1.82.93.46.02.9-.19,1.32-.57,2.19-1.93,3.9-8.37,3.95-12.4.05-4.21-.7-7.87-2.44-9.85-.96-1.09-2.16-1.48-3.21-.55-1.08.95-1.17,1.97-1.17,2.23.02.14.09.25.14.28.06.04.12,0,.23-.07.21-.16.64-.1.79.21.19.34.11.91-.32,1.2-.25.2-.68.11-.98-.23-.13-.15-.25-.36-.29-.61-.19-1.02.19-2.71,1.44-3.81,1.43-1.26,3-.87,4.26.56,3.53,3.99,2.41,12.64.97,17.25-.5,1.6-1.64,4.85-3.21,6.25-.44.39-.91.63-1.42.66Z"/>
    <path class="cls-6" d="m195.89,103.13c1.39-1.58,4.65-2.71,6.25-3.21,4.62-1.44,13.27-2.56,17.26.97,1.43,1.26,1.82,2.83.56,4.26-1.11,1.25-2.8,1.63-3.81,1.44-.25-.04-.46-.16-.61-.29-.34-.3-.42-.73-.23-.98.29-.43.86-.51,1.2-.32.32.14.38.58.22.79-.08.11-.11.17-.07.23.03.05.14.12.28.14.26,0,1.28-.09,2.23-1.17.93-1.05.54-2.24-.55-3.21-1.98-1.75-5.64-2.49-9.85-2.45-4.03.05-10.46,1.76-12.4,3.95-.38.43-.58.86-.57,1.32.02.73.38,1.34.93,1.82,1.49,1.32,4.45,1.8,6.54,1.7,2.18-.07,5.43-.95,6.69-2.38.17-.19.29-.37.38-.58.32-.72.07-1.32-.45-1.78-.81-.72-2.27-1.14-3.33-1.22-1.83-.2-3.73.49-4.46.91-.26.15-.44.14-.52.08-.07-.07-.04-.19.13-.3.82-.5,2.52-1.27,5-1.15,1.33.06,2.76.63,3.7,1.46.83.73,1.27,1.66.97,2.61-.12.36-.33.71-.61,1.02-1.35,1.53-4.39,2.49-7.62,2.45-2.54-.04-5.17-1.03-6.66-2.35-.8-.71-1.28-1.53-1.24-2.35.03-.51.27-.99.66-1.42Z"/>
    <path class="cls-6" d="m202.27,112.94c-.81-.11-1.54-.72-2.09-1.63-1.04-1.7-1.55-4.45-1.15-6.97.51-3.19,1.99-6.02,3.73-7.08.36-.22.73-.37,1.11-.43.99-.14,1.83.47,2.41,1.41.65,1.07.97,2.58.8,3.89-.31,2.46-1.36,4.01-2,4.73-.15.15-.27.17-.32.08-.05-.08-.02-.26.17-.49.54-.65,1.55-2.4,1.67-4.24.1-1.06-.06-2.56-.63-3.49-.37-.6-.91-.95-1.68-.75-.22.05-.42.14-.64.27-1.62.99-3.05,4.04-3.5,6.18-.45,2.04-.5,5.04.54,6.73.38.63.92,1.08,1.63,1.23.45.1.92-.04,1.4-.33,2.49-1.53,5.29-7.57,6.04-11.53.78-4.13.68-7.87-.7-10.12-.76-1.24-1.87-1.83-3.06-1.1-1.22.75-1.5,1.74-1.54,2,0,.14.05.27.09.3.05.05.12.03.24-.03.24-.12.65.01.74.35.13.37-.05.91-.53,1.12-.28.15-.69,0-.92-.39-.11-.17-.19-.4-.18-.65,0-1.04.66-2.63,2.08-3.51,1.62-.99,3.1-.33,4.1,1.29,2.78,4.54.18,12.87-2.04,17.16-.77,1.49-2.45,4.5-4.25,5.6-.5.3-1.01.46-1.52.4Z"/>
    <path class="cls-6" d="m203.27,111.8c1.64-1.31,5.05-1.86,6.71-2.08,4.8-.62,13.51-.21,16.83,3.95,1.18,1.49,1.3,3.11-.19,4.29-1.31,1.04-3.04,1.12-4.01.76-.24-.09-.42-.24-.55-.4-.28-.35-.29-.79-.05-1,.36-.37.93-.36,1.24-.11.29.2.27.64.07.82-.09.1-.14.15-.11.21.02.05.11.14.25.18.26.05,1.28.13,2.4-.76,1.1-.87.92-2.12.01-3.25-1.64-2.06-5.12-3.43-9.27-4.12-3.98-.65-10.61-.09-12.9,1.73-.44.35-.73.75-.79,1.21-.11.72.14,1.38.6,1.96,1.24,1.55,4.07,2.54,6.14,2.81,2.16.31,5.51,0,7-1.18.2-.16.34-.32.47-.5.44-.65.3-1.29-.14-1.83-.68-.85-2.04-1.51-3.06-1.79-1.77-.51-3.76-.17-4.55.12-.28.1-.46.07-.52-.01-.06-.08,0-.19.18-.28.9-.35,2.71-.81,5.13-.26,1.3.29,2.61,1.1,3.39,2.08.69.86.97,1.86.5,2.74-.18.34-.45.64-.78.9-1.59,1.27-4.75,1.69-7.93,1.08-2.5-.49-4.92-1.91-6.15-3.47-.67-.84-.99-1.73-.82-2.53.12-.5.44-.92.89-1.29Z"/>
    <path class="cls-6" d="m207.85,122.58c-.78-.25-1.39-.98-1.78-1.97-.73-1.85-.75-4.65.07-7.06,1.06-3.05,3.01-5.58,4.9-6.32.39-.15.79-.24,1.17-.23,1,.04,1.72.78,2.13,1.8.46,1.17.51,2.71.11,3.97-.74,2.37-2.04,3.71-2.79,4.31-.17.12-.29.12-.33.02-.04-.09.02-.26.25-.46.65-.54,1.94-2.09,2.38-3.88.28-1.03.38-2.54-.01-3.55-.26-.65-.73-1.09-1.52-1.03-.23.02-.44.07-.67.16-1.77.7-3.7,3.45-4.52,5.47-.8,1.93-1.36,4.88-.64,6.73.27.68.71,1.23,1.4,1.5.43.17.91.13,1.44-.08,2.72-1.07,6.53-6.53,7.95-10.3,1.48-3.94,2.04-7.63,1.07-10.09-.53-1.35-1.52-2.13-2.83-1.62-1.34.53-1.78,1.45-1.86,1.7-.04.14,0,.27.03.31.04.06.11.05.24.01.25-.08.64.12.67.47.06.39-.21.89-.71,1.02-.3.1-.68-.13-.84-.55-.07-.19-.11-.42-.07-.67.17-1.02,1.11-2.48,2.66-3.09,1.77-.7,3.11.21,3.81,1.98,1.95,4.96-2.05,12.7-4.99,16.55-1.02,1.33-3.2,4-5.16,4.77-.54.21-1.07.28-1.56.13Z"/>
    <path class="cls-6" d="m209.03,121.62c1.85-1,5.29-.96,6.97-.88,4.83.22,13.34,2.13,15.88,6.81.91,1.67.74,3.28-.93,4.19-1.47.8-3.19.57-4.08.05-.22-.13-.38-.31-.47-.48-.22-.4-.15-.83.12-1,.42-.31.98-.19,1.24.11.25.25.16.67-.07.82-.11.08-.16.12-.14.19,0,.05.09.16.22.22.24.1,1.24.35,2.5-.33,1.23-.67,1.27-1.93.58-3.2-1.26-2.32-4.45-4.27-8.42-5.67-3.8-1.33-10.43-1.93-13-.53-.5.27-.85.61-.99,1.05-.23.7-.1,1.39.25,2.03.95,1.75,3.57,3.21,5.56,3.84,2.08.68,5.43.96,7.1.05.22-.12.39-.25.55-.41.55-.56.52-1.21.18-1.83-.52-.95-1.74-1.84-2.71-2.29-1.66-.81-3.67-.81-4.5-.67-.3.05-.46-.01-.51-.1s.03-.19.23-.24c.94-.19,2.8-.33,5.09.63,1.23.51,2.38,1.54,2.97,2.64.53.97.63,1.99.01,2.79-.24.3-.56.55-.92.75-1.79.97-4.98.84-8-.31-2.38-.91-4.51-2.74-5.46-4.48-.51-.94-.68-1.88-.37-2.63.2-.47.59-.83,1.11-1.11Z"/>
    <path class="cls-6" d="m211.67,133.03c-.72-.38-1.2-1.2-1.41-2.25-.4-1.95.06-4.71,1.3-6.94,1.57-2.82,3.93-4.97,5.93-5.38.41-.08.81-.1,1.19-.02.98.21,1.56,1.06,1.78,2.14.25,1.23.03,2.75-.58,3.93-1.14,2.21-2.65,3.3-3.5,3.76-.19.09-.31.06-.33-.04-.02-.1.07-.25.33-.41.73-.42,2.27-1.72,3.02-3.41.45-.96.82-2.43.6-3.5-.14-.69-.53-1.2-1.32-1.28-.23-.02-.45-.01-.69.04-1.87.38-4.25,2.75-5.4,4.61-1.12,1.76-2.19,4.57-1.79,6.51.15.72.49,1.33,1.12,1.72.39.25.88.28,1.43.17,2.86-.58,7.56-5.3,9.62-8.77,2.14-3.62,3.33-7.17,2.81-9.75-.29-1.42-1.13-2.36-2.5-2.08-1.41.29-2,1.12-2.13,1.35-.06.13-.05.27-.02.31.03.06.1.07.23.06.26-.04.61.23.58.58,0,.39-.36.84-.88.88-.31.05-.65-.24-.74-.68-.04-.2-.04-.44.05-.67.35-.97,1.52-2.25,3.16-2.58,1.87-.38,3.03.75,3.41,2.61,1.06,5.22-4.23,12.15-7.79,15.43-1.23,1.14-3.84,3.39-5.9,3.8-.57.12-1.11.09-1.56-.14Z"/>
    <path class="cls-6" d="m213,132.3c1.99-.67,5.38-.02,7.02.34,4.72,1.06,12.77,4.42,14.46,9.47.6,1.8.16,3.36-1.65,3.97-1.58.53-3.24.01-4.02-.66-.19-.16-.32-.37-.38-.56-.14-.43,0-.84.29-.96.47-.23,1-.02,1.2.32.2.29.04.69-.21.79-.12.06-.18.09-.17.16,0,.05.06.17.17.26.22.14,1.16.56,2.52.11,1.33-.45,1.59-1.67,1.13-3.05-.84-2.5-3.64-4.98-7.31-7.04-3.51-1.97-9.94-3.71-12.71-2.78-.54.18-.94.46-1.16.86-.35.64-.34,1.35-.11,2.04.63,1.88,2.96,3.78,4.81,4.74,1.93,1.03,5.18,1.89,6.98,1.29.24-.08.43-.18.62-.31.64-.46.72-1.1.5-1.77-.34-1.03-1.4-2.12-2.27-2.72-1.49-1.08-3.48-1.44-4.32-1.44-.3,0-.45-.09-.49-.19-.03-.09.06-.18.27-.2.96-.02,2.82.16,4.91,1.51,1.12.72,2.07,1.93,2.47,3.12.35,1.04.27,2.07-.47,2.75-.28.25-.64.44-1.04.58-1.93.65-5.05-.03-7.82-1.69-2.18-1.31-3.96-3.48-4.6-5.36-.34-1.01-.34-1.96.1-2.66.28-.43.73-.72,1.28-.91Z"/>
    <path class="cls-6" d="m213.62,143.99c-.65-.5-.97-1.39-1-2.46-.05-1.99.88-4.63,2.48-6.61,2.04-2.51,4.73-4.21,6.77-4.26.42-.01.82.04,1.17.19.93.38,1.35,1.32,1.38,2.42.03,1.25-.45,2.72-1.25,3.77-1.5,1.98-3.19,2.79-4.1,3.09-.2.05-.32,0-.32-.09,0-.1.11-.24.39-.34.79-.29,2.54-1.3,3.57-2.83.61-.87,1.23-2.25,1.2-3.34-.02-.7-.32-1.28-1.07-1.49-.22-.06-.44-.09-.69-.08-1.9.05-4.66,1.97-6.12,3.6-1.41,1.54-2.95,4.12-2.9,6.1.02.73.25,1.4.8,1.88.34.31.81.43,1.38.42,2.92-.07,8.37-3.9,10.99-6.96,2.74-3.19,4.53-6.48,4.46-9.11-.04-1.45-.7-2.52-2.1-2.49-1.44.04-2.17.76-2.33.96-.08.12-.09.25-.08.3.02.07.08.08.22.09.27,0,.56.34.47.67-.07.39-.5.77-1.02.71-.32,0-.59-.35-.61-.8,0-.2.04-.44.17-.66.51-.9,1.89-1.95,3.56-2,1.9-.05,2.85,1.26,2.9,3.17.14,5.32-6.27,11.23-10.35,13.84-1.41.91-4.37,2.67-6.48,2.72-.58.01-1.11-.11-1.51-.41Z"/>
    <path class="cls-6" d="m215.05,143.5c2.08-.31,5.3.91,6.85,1.55,4.47,1.86,11.8,6.57,12.59,11.84.28,1.88-.43,3.34-2.31,3.62-1.65.25-3.19-.55-3.85-1.35-.16-.2-.25-.42-.28-.62-.07-.45.15-.83.46-.9.5-.14.99.16,1.12.52.15.32-.08.69-.34.74-.13.04-.19.06-.2.13,0,.05.03.18.13.29.19.17,1.04.75,2.46.54,1.39-.21,1.85-1.38,1.64-2.81-.39-2.61-2.72-5.53-5.97-8.2-3.12-2.55-9.15-5.38-12.04-4.95-.56.08-1,.29-1.29.65-.45.57-.57,1.27-.46,1.99.29,1.96,2.26,4.24,3.92,5.51,1.72,1.35,4.77,2.76,6.65,2.48.25-.04.46-.1.66-.2.71-.34.9-.96.8-1.66-.16-1.07-1.01-2.33-1.76-3.08-1.28-1.33-3.17-2.02-4-2.17-.29-.06-.43-.17-.45-.27-.01-.1.09-.17.3-.15.95.14,2.75.65,4.57,2.34.98.9,1.71,2.26,1.89,3.5.16,1.09-.09,2.09-.94,2.62-.32.2-.71.33-1.12.39-2.02.3-4.96-.91-7.41-3.03-1.92-1.67-3.3-4.11-3.6-6.08-.16-1.06,0-1.99.56-2.6.35-.37.84-.58,1.42-.67Z"/>
    <path class="cls-6" d="m213.64,155.12c-.55-.61-.71-1.54-.56-2.6.29-1.97,1.67-4.41,3.59-6.08,2.44-2.12,5.39-3.33,7.41-3.03.41.06.8.19,1.12.39.85.53,1.1,1.53.94,2.62-.19,1.24-.91,2.6-1.89,3.5-1.82,1.68-3.62,2.19-4.57,2.34-.21.02-.31-.05-.3-.15.01-.1.15-.21.45-.27.83-.15,2.73-.84,4-2.17.75-.75,1.6-2,1.76-3.08.1-.69-.09-1.31-.8-1.66-.21-.1-.41-.16-.66-.2-1.88-.28-4.93,1.13-6.65,2.48-1.66,1.27-3.62,3.54-3.91,5.51-.11.73,0,1.42.46,1.99.28.36.73.56,1.29.65,2.89.43,8.92-2.39,12.03-4.95,3.25-2.67,5.58-5.59,5.97-8.2.22-1.44-.25-2.6-1.64-2.81-1.42-.21-2.27.37-2.46.54-.1.1-.14.23-.13.29,0,.07.07.09.2.13.26.06.49.43.35.74-.14.37-.62.67-1.13.52-.31-.06-.52-.45-.46-.89.03-.2.11-.42.28-.62.66-.8,2.2-1.59,3.85-1.35,1.88.28,2.59,1.74,2.31,3.62-.79,5.27-8.13,9.97-12.59,11.83-1.55.65-4.77,1.87-6.85,1.55-.58-.09-1.07-.29-1.42-.67Z"/>
    <path class="cls-6" d="m215.13,154.89c2.1.05,5.06,1.82,6.48,2.72,4.08,2.61,10.49,8.52,10.35,13.84-.05,1.9-1,3.21-2.9,3.17-1.67-.04-3.04-1.1-3.56-2-.13-.22-.17-.46-.17-.66.01-.45.29-.79.61-.8.52-.05.94.33,1.02.71.09.34-.2.66-.47.67-.13.01-.2.03-.22.09-.02.05,0,.18.08.3.16.21.89.92,2.33.96,1.4.04,2.06-1.03,2.1-2.48.07-2.64-1.72-5.92-4.46-9.12-2.63-3.06-8.07-6.89-10.99-6.96-.57-.01-1.04.11-1.38.42-.55.49-.78,1.15-.8,1.88-.05,1.99,1.49,4.56,2.9,6.1,1.46,1.62,4.22,3.55,6.12,3.6.25,0,.47-.02.69-.08.76-.21,1.06-.79,1.07-1.49.03-1.08-.59-2.47-1.2-3.34-1.03-1.53-2.77-2.54-3.57-2.83-.28-.11-.39-.24-.39-.34,0-.1.12-.15.32-.09.91.31,2.59,1.12,4.1,3.09.81,1.06,1.29,2.52,1.25,3.77-.03,1.1-.45,2.04-1.38,2.42-.35.14-.76.2-1.17.19-2.04-.05-4.73-1.76-6.77-4.27-1.6-1.98-2.54-4.62-2.48-6.61.03-1.07.35-1.96,1-2.46.41-.31.93-.43,1.51-.41Z"/>
    <path class="cls-6" d="m211.72,166.09c-.44-.69-.44-1.64-.1-2.66.63-1.88,2.41-4.05,4.6-5.36,2.77-1.66,5.89-2.34,7.82-1.69.4.13.75.32,1.04.58.74.67.82,1.7.47,2.75-.4,1.19-1.35,2.4-2.47,3.12-2.09,1.34-3.95,1.53-4.91,1.51-.21-.02-.3-.1-.27-.2.03-.09.19-.18.49-.19.84,0,2.83-.35,4.32-1.44.87-.6,1.92-1.7,2.27-2.73.22-.67.14-1.31-.5-1.77-.18-.13-.38-.23-.62-.31-1.8-.6-5.05.26-6.98,1.29-1.85.96-4.18,2.86-4.81,4.74-.23.7-.24,1.4.11,2.04.22.41.62.68,1.15.86,2.77.93,9.2-.81,12.71-2.78,3.67-2.06,6.47-4.54,7.31-7.04.46-1.38.21-2.61-1.12-3.05-1.36-.46-2.3-.03-2.52.11-.12.09-.18.21-.17.26,0,.07.05.11.17.16.25.1.41.51.21.79-.2.34-.73.55-1.2.32-.29-.12-.44-.53-.29-.96.06-.19.19-.4.38-.56.79-.67,2.44-1.19,4.02-.66,1.8.61,2.25,2.16,1.65,3.97-1.69,5.05-9.74,8.41-14.46,9.47-1.64.37-5.02,1.01-7.02.34-.55-.19-1-.48-1.28-.9Z"/>
    <path class="cls-6" d="m213.23,166.12c2.06.42,4.67,2.67,5.9,3.8,3.56,3.28,8.85,10.21,7.79,15.43-.38,1.87-1.54,2.99-3.41,2.61-1.64-.33-2.81-1.61-3.16-2.58-.09-.24-.09-.48-.05-.67.09-.44.42-.73.74-.69.52.04.87.48.88.88.03.35-.31.62-.58.58-.13-.01-.2,0-.23.06-.03.04-.04.18.02.31.12.23.72,1.07,2.13,1.35,1.38.28,2.21-.66,2.5-2.08.52-2.58-.66-6.13-2.81-9.75-2.06-3.47-6.75-8.18-9.62-8.77-.56-.11-1.04-.08-1.43.17-.62.38-.97,1-1.11,1.71-.39,1.95.67,4.75,1.79,6.51,1.16,1.85,3.54,4.23,5.4,4.61.25.05.46.06.69.04.78-.08,1.18-.6,1.32-1.28.22-1.06-.15-2.53-.6-3.5-.75-1.69-2.29-2.99-3.02-3.41-.26-.16-.35-.31-.33-.41.02-.1.14-.12.33-.04.84.46,2.36,1.55,3.5,3.76.61,1.18.83,2.71.58,3.93-.22,1.08-.8,1.93-1.78,2.14-.37.08-.78.06-1.19-.02-2-.41-4.35-2.55-5.93-5.38-1.23-2.23-1.69-4.99-1.3-6.94.21-1.05.69-1.87,1.41-2.25.46-.23.99-.26,1.56-.14Z"/>
    <path class="cls-6" d="m207.93,176.56c-.31-.76-.14-1.69.37-2.63.95-1.75,3.08-3.57,5.46-4.48,3.02-1.15,6.21-1.28,8-.31.37.2.69.45.92.75.62.79.51,1.82-.01,2.79-.6,1.1-1.75,2.13-2.97,2.64-2.29.96-4.15.82-5.09.63-.2-.05-.28-.15-.23-.24.05-.09.21-.15.51-.1.83.15,2.85.14,4.5-.67.96-.45,2.19-1.34,2.71-2.29.33-.62.37-1.26-.18-1.83-.16-.16-.33-.29-.55-.42-1.67-.91-5.02-.62-7.1.06-1.99.62-4.61,2.09-5.56,3.83-.35.65-.48,1.34-.25,2.03.14.44.49.78.99,1.05,2.57,1.39,9.2.8,13-.53,3.97-1.39,7.16-3.35,8.42-5.67.69-1.28.66-2.53-.58-3.2-1.26-.69-2.26-.43-2.5-.33-.13.06-.21.17-.22.22-.02.07.03.11.14.19.23.14.32.57.07.82-.26.3-.81.41-1.24.11-.27-.17-.34-.6-.12-1,.1-.18.25-.36.47-.48.89-.52,2.61-.75,4.08.05,1.67.91,1.84,2.52.93,4.19-2.54,4.68-11.05,6.59-15.88,6.81-1.68.08-5.12.12-6.97-.88-.51-.28-.9-.64-1.1-1.11Z"/>
    <path class="cls-6" d="m209.41,176.85c1.96.77,4.13,3.44,5.15,4.77,2.94,3.85,6.94,11.59,4.99,16.55-.7,1.77-2.04,2.68-3.81,1.98-1.55-.61-2.49-2.07-2.66-3.09-.04-.25,0-.49.07-.67.17-.42.54-.65.84-.55.51.13.77.63.71,1.02-.03.35-.42.55-.67.47-.13-.03-.2-.04-.24.01-.03.04-.07.17-.03.31.08.25.52,1.17,1.86,1.7,1.31.51,2.29-.26,2.83-1.62.96-2.46.41-6.15-1.07-10.09-1.42-3.77-5.23-9.23-7.95-10.3-.53-.21-1.01-.25-1.44-.08-.68.27-1.13.81-1.4,1.5-.73,1.85-.16,4.8.64,6.73.82,2.03,2.75,4.78,4.52,5.47.23.09.45.14.67.16.78.06,1.26-.38,1.52-1.04.4-1.01.29-2.52.01-3.55-.44-1.79-1.74-3.34-2.38-3.88-.23-.2-.29-.36-.25-.46.04-.09.16-.1.33.02.75.6,2.05,1.94,2.79,4.31.4,1.27.35,2.81-.11,3.97-.4,1.03-1.12,1.76-2.12,1.8-.38.01-.78-.07-1.17-.23-1.9-.75-3.84-3.27-4.9-6.32-.83-2.41-.8-5.21-.08-7.06.39-.99,1-1.72,1.78-1.97.49-.15,1.02-.08,1.56.13Z"/>
    <path class="cls-6" d="m202.37,186.21c-.17-.8.15-1.69.82-2.53,1.24-1.55,3.65-2.98,6.15-3.47,3.17-.61,6.33-.18,7.93,1.08.33.26.6.56.78.9.47.88.19,1.88-.5,2.74-.78.98-2.09,1.79-3.39,2.08-2.42.55-4.23.09-5.13-.26-.19-.09-.25-.2-.19-.28.06-.08.24-.11.52-.01.79.29,2.78.63,4.55.13,1.03-.27,2.39-.94,3.06-1.79.44-.55.58-1.18.14-1.83-.13-.19-.28-.35-.47-.5-1.49-1.19-4.84-1.48-7-1.18-2.07.27-4.91,1.26-6.14,2.81-.46.57-.7,1.23-.6,1.96.06.46.35.85.79,1.21,2.29,1.82,8.92,2.39,12.9,1.73,4.15-.69,7.63-2.05,9.27-4.12.91-1.14,1.08-2.38-.01-3.25-1.12-.89-2.15-.81-2.4-.76-.14.04-.24.13-.25.18-.03.06.01.12.11.21.2.18.21.62-.07.81-.3.25-.87.27-1.24-.11-.24-.21-.23-.65.05-1,.12-.16.31-.31.55-.4.97-.36,2.7-.28,4.01.76,1.49,1.19,1.38,2.8.19,4.29-3.32,4.17-12.03,4.57-16.82,3.95-1.66-.21-5.06-.77-6.71-2.08-.46-.36-.78-.79-.9-1.29Z"/>
    <path class="cls-6" d="m203.79,186.75c1.79,1.1,3.48,4.1,4.25,5.59,2.22,4.3,4.82,12.62,2.04,17.16-.99,1.62-2.47,2.28-4.1,1.29-1.42-.87-2.09-2.47-2.08-3.51,0-.25.08-.48.18-.65.24-.38.65-.54.93-.39.48.21.65.75.52,1.12-.09.34-.5.47-.74.35-.12-.06-.19-.08-.24-.03-.04.03-.1.16-.09.3.04.26.31,1.25,1.54,2,1.2.73,2.3.14,3.06-1.1,1.38-2.25,1.47-5.99.7-10.12-.75-3.96-3.55-10-6.04-11.53-.48-.3-.95-.43-1.4-.33-.72.15-1.25.61-1.63,1.23-1.04,1.7-1,4.7-.54,6.73.45,2.14,1.88,5.18,3.5,6.18.21.13.42.22.64.27.76.19,1.31-.16,1.68-.75.57-.92.73-2.43.63-3.49-.13-1.84-1.13-3.59-1.67-4.24-.19-.23-.22-.41-.17-.49.05-.09.18-.07.32.08.64.72,1.69,2.26,2,4.73.17,1.32-.15,2.83-.8,3.89-.58.94-1.41,1.54-2.41,1.4-.38-.05-.75-.21-1.11-.42-1.74-1.06-3.22-3.89-3.73-7.08-.4-2.51.12-5.27,1.15-6.97.56-.91,1.29-1.52,2.1-1.63.51-.06,1.02.09,1.52.4Z"/>
    <path class="cls-6" d="m195.23,194.74c-.03-.82.44-1.64,1.24-2.35,1.49-1.32,4.12-2.3,6.66-2.35,3.23-.05,6.27.92,7.62,2.44.28.31.49.66.61,1.02.31.95-.14,1.88-.97,2.61-.94.83-2.37,1.4-3.7,1.46-2.48.12-4.18-.65-5-1.15-.17-.12-.21-.24-.13-.3.07-.07.25-.07.52.08.73.42,2.63,1.11,4.46.91,1.06-.09,2.52-.51,3.33-1.23.53-.46.78-1.06.45-1.78-.09-.21-.21-.39-.38-.58-1.26-1.43-4.51-2.3-6.69-2.38-2.09-.09-5.05.39-6.54,1.7-.55.49-.91,1.09-.93,1.82-.02.46.19.9.57,1.33,1.93,2.19,8.37,3.9,12.4,3.94,4.21.05,7.87-.7,9.85-2.44,1.09-.96,1.48-2.16.55-3.21-.95-1.07-1.97-1.17-2.23-1.17-.14.02-.25.09-.28.14-.04.06,0,.12.07.23.17.21.1.65-.21.79-.34.19-.91.11-1.2-.32-.2-.25-.11-.68.23-.98.15-.13.36-.25.61-.29,1.02-.19,2.71.19,3.81,1.44,1.26,1.43.87,3-.56,4.26-3.99,3.53-12.64,2.41-17.25.97-1.6-.5-4.85-1.64-6.25-3.21-.39-.44-.63-.91-.66-1.42Z"/>
    <path class="cls-6" d="m196.53,195.53c1.57,1.39,2.71,4.65,3.21,6.25,1.44,4.62,2.55,13.27-.97,17.26-1.26,1.43-2.83,1.82-4.26.56-1.25-1.11-1.63-2.8-1.44-3.81.04-.25.16-.46.29-.61.3-.34.73-.42.98-.23.43.29.51.85.32,1.2-.15.32-.58.38-.79.21-.11-.08-.17-.11-.23-.07-.04.03-.12.14-.14.28,0,.26.09,1.28,1.17,2.23,1.05.93,2.24.54,3.21-.55,1.75-1.98,2.49-5.64,2.45-9.85-.05-4.03-1.76-10.46-3.95-12.4-.43-.38-.86-.59-1.33-.57-.73.02-1.34.38-1.82.93-1.31,1.49-1.79,4.45-1.7,6.54.07,2.18.95,5.43,2.38,6.69.19.17.37.29.58.38.72.32,1.32.07,1.78-.45.72-.81,1.14-2.27,1.22-3.33.2-1.83-.49-3.73-.91-4.46-.15-.26-.15-.44-.08-.52.07-.07.19-.04.3.13.5.82,1.27,2.52,1.15,5-.06,1.33-.63,2.76-1.46,3.7-.73.83-1.66,1.27-2.61.97-.36-.12-.71-.33-1.02-.61-1.53-1.35-2.49-4.39-2.44-7.62.04-2.54,1.03-5.17,2.34-6.66.71-.8,1.53-1.28,2.35-1.25.51.03.99.27,1.42.66Z"/>
    <path class="cls-6" d="m186.71,201.91c.11-.81.72-1.54,1.63-2.1,1.7-1.04,4.45-1.55,6.97-1.15,3.19.51,6.01,1.99,7.08,3.73.22.36.37.73.42,1.11.14.99-.46,1.83-1.4,2.41-1.07.65-2.58.97-3.9.8-2.46-.31-4-1.37-4.73-2-.15-.14-.17-.27-.08-.32.08-.05.26-.02.49.17.65.54,2.4,1.55,4.23,1.67,1.06.1,2.57-.06,3.49-.63.6-.37.95-.91.75-1.67-.06-.22-.14-.42-.27-.64-.99-1.62-4.04-3.05-6.18-3.5-2.04-.45-5.04-.5-6.73.54-.63.38-1.08.92-1.23,1.63-.1.45.03.92.33,1.4,1.52,2.49,7.57,5.29,11.53,6.04,4.14.78,7.87.68,10.12-.7,1.24-.76,1.83-1.87,1.1-3.06-.75-1.22-1.74-1.5-2-1.54-.14,0-.27.05-.3.09-.05.05-.03.12.03.24.12.24-.01.65-.35.74-.37.13-.91-.05-1.12-.53-.15-.28,0-.69.39-.92.17-.1.4-.18.65-.18,1.03,0,2.63.66,3.51,2.08.99,1.62.33,3.1-1.29,4.1-4.54,2.78-12.87.18-17.16-2.04-1.49-.77-4.5-2.45-5.59-4.25-.3-.5-.46-1.01-.4-1.52Z"/>
    <path class="cls-6" d="m187.85,202.91c1.31,1.64,1.86,5.05,2.08,6.71.62,4.8.21,13.51-3.95,16.83-1.49,1.19-3.11,1.3-4.29-.19-1.04-1.31-1.12-3.04-.76-4.01.09-.24.24-.42.4-.55.35-.28.79-.29,1-.05.37.36.36.93.11,1.24-.2.29-.64.27-.82.07-.1-.09-.15-.14-.21-.11-.05.02-.14.11-.18.25-.05.26-.13,1.28.76,2.4.87,1.1,2.12.92,3.25.01,2.06-1.64,3.43-5.12,4.12-9.27.65-3.98.09-10.61-1.73-12.9-.35-.44-.75-.73-1.21-.79-.72-.11-1.38.14-1.96.6-1.55,1.24-2.54,4.07-2.81,6.14-.31,2.16,0,5.51,1.18,7,.16.2.32.34.5.47.65.44,1.29.3,1.83-.14.85-.68,1.51-2.04,1.78-3.06.51-1.77.17-3.76-.12-4.55-.1-.28-.07-.46.01-.52.08-.06.19,0,.27.19.35.89.81,2.71.26,5.12-.29,1.3-1.1,2.61-2.08,3.39-.86.69-1.86.97-2.74.5-.34-.18-.64-.45-.9-.78-1.27-1.59-1.69-4.75-1.08-7.93.49-2.5,1.91-4.92,3.47-6.15.84-.67,1.73-.99,2.53-.82.5.12.92.44,1.29.89Z"/>
    <path class="cls-6" d="m177.08,207.49c.25-.78.98-1.39,1.97-1.78,1.85-.73,4.65-.75,7.06.07,3.05,1.06,5.58,3.01,6.32,4.9.15.39.24.79.23,1.17-.04,1-.78,1.72-1.8,2.13-1.17.46-2.71.51-3.97.11-2.37-.74-3.71-2.04-4.31-2.79-.12-.17-.12-.3-.02-.33.09-.04.26.02.46.25.54.65,2.09,1.94,3.88,2.38,1.02.28,2.54.38,3.55-.01.65-.26,1.09-.74,1.03-1.52-.02-.23-.06-.44-.16-.67-.7-1.77-3.45-3.7-5.47-4.52-1.93-.8-4.88-1.36-6.73-.64-.68.27-1.23.71-1.5,1.4-.17.43-.13.91.08,1.44,1.07,2.72,6.53,6.53,10.3,7.95,3.94,1.48,7.64,2.04,10.09,1.07,1.35-.53,2.13-1.52,1.62-2.83-.53-1.34-1.45-1.78-1.7-1.86-.14-.03-.27,0-.31.03-.06.04-.05.11-.01.24.08.25-.12.64-.47.67-.39.06-.89-.21-1.02-.71-.1-.3.13-.68.55-.84.19-.07.42-.11.67-.07,1.02.17,2.48,1.1,3.09,2.66.7,1.77-.21,3.11-1.98,3.81-4.96,1.95-12.7-2.05-16.55-4.99-1.33-1.02-4-3.2-4.77-5.16-.21-.54-.28-1.07-.13-1.56Z"/>
    <path class="cls-6" d="m178.03,208.67c1,1.85.96,5.29.88,6.97-.22,4.83-2.13,13.34-6.81,15.88-1.67.91-3.28.74-4.19-.93-.8-1.47-.57-3.19-.05-4.08.13-.22.31-.38.48-.47.4-.22.83-.15,1,.12.31.42.19.98-.11,1.24-.25.25-.67.16-.82-.07-.08-.11-.12-.16-.19-.14-.05,0-.16.09-.22.22-.1.24-.35,1.24.33,2.5.67,1.23,1.93,1.27,3.2.58,2.32-1.26,4.27-4.45,5.67-8.42,1.33-3.8,1.93-10.43.53-13-.27-.5-.61-.85-1.05-.99-.7-.23-1.38-.1-2.03.25-1.75.95-3.21,3.57-3.84,5.56-.68,2.08-.96,5.43-.05,7.1.12.22.25.39.41.55.56.55,1.21.52,1.83.18.95-.52,1.84-1.74,2.29-2.71.81-1.66.81-3.67.67-4.5-.05-.3.01-.46.1-.51s.19.03.24.23c.19.94.33,2.81-.63,5.09-.51,1.23-1.54,2.38-2.64,2.97-.97.53-1.99.63-2.79.01-.3-.24-.55-.56-.75-.92-.97-1.79-.84-4.98.31-8,.91-2.38,2.74-4.51,4.48-5.46.94-.51,1.87-.68,2.63-.37.47.2.83.59,1.11,1.11Z"/>
    <path class="cls-6" d="m166.62,211.31c.38-.72,1.2-1.2,2.25-1.41,1.95-.4,4.71.07,6.94,1.3,2.82,1.57,4.97,3.93,5.38,5.93.08.41.1.81.02,1.19-.21.98-1.06,1.56-2.14,1.78-1.23.25-2.75.03-3.93-.58-2.21-1.14-3.3-2.65-3.76-3.5-.09-.19-.06-.31.04-.33.1-.02.25.07.41.33.42.73,1.72,2.27,3.41,3.02.96.45,2.43.82,3.5.6.69-.14,1.2-.53,1.28-1.32.02-.23.01-.45-.04-.69-.38-1.87-2.75-4.25-4.61-5.4-1.76-1.12-4.57-2.19-6.51-1.79-.72.15-1.33.49-1.72,1.11-.24.39-.28.88-.17,1.43.58,2.86,5.3,7.56,8.77,9.62,3.62,2.14,7.17,3.33,9.75,2.81,1.42-.29,2.36-1.13,2.08-2.5-.29-1.41-1.12-2-1.35-2.13-.13-.06-.27-.05-.31-.02-.06.03-.07.1-.06.23.04.26-.23.61-.58.58-.39,0-.84-.36-.88-.88-.05-.31.24-.65.69-.74.2-.04.44-.04.67.05.97.35,2.25,1.52,2.58,3.16.38,1.87-.75,3.03-2.61,3.41-5.22,1.06-12.15-4.23-15.43-7.79-1.14-1.23-3.39-3.84-3.8-5.91-.12-.57-.09-1.11.14-1.56Z"/>
    <path class="cls-6" d="m167.35,212.64c.67,1.99.02,5.38-.34,7.02-1.06,4.72-4.42,12.77-9.47,14.46-1.8.6-3.36.16-3.97-1.65-.53-1.58-.01-3.24.66-4.02.16-.2.37-.32.56-.38.43-.14.84,0,.96.29.23.47.02,1-.32,1.2-.29.2-.69.04-.79-.21-.06-.12-.09-.18-.16-.17-.05,0-.17.06-.26.17-.14.22-.56,1.16-.11,2.52.45,1.33,1.68,1.59,3.05,1.12,2.5-.84,4.98-3.64,7.04-7.31,1.97-3.52,3.71-9.94,2.78-12.71-.18-.54-.46-.94-.86-1.15-.64-.35-1.35-.34-2.04-.11-1.88.63-3.78,2.96-4.74,4.81-1.03,1.93-1.89,5.18-1.29,6.98.08.24.18.43.31.62.46.64,1.11.72,1.77.5,1.03-.34,2.12-1.4,2.73-2.27,1.08-1.49,1.44-3.47,1.44-4.32,0-.3.09-.45.19-.49s.18.06.2.27c.02.96-.16,2.82-1.51,4.91-.72,1.12-1.93,2.07-3.12,2.47-1.04.35-2.07.27-2.75-.47-.25-.29-.45-.64-.58-1.04-.65-1.93.03-5.05,1.69-7.82,1.31-2.18,3.48-3.96,5.36-4.6,1.01-.34,1.96-.34,2.66.1.43.28.72.73.91,1.28Z"/>
    <path class="cls-6" d="m155.66,213.26c.5-.65,1.39-.97,2.46-1,1.99-.05,4.63.88,6.61,2.49,2.51,2.04,4.21,4.73,4.27,6.77.01.42-.04.82-.19,1.17-.38.93-1.32,1.35-2.42,1.38-1.25.03-2.72-.45-3.77-1.25-1.98-1.5-2.79-3.18-3.09-4.09-.05-.2,0-.32.09-.32.1,0,.24.11.34.39.29.79,1.3,2.54,2.83,3.57.87.61,2.25,1.23,3.34,1.2.7-.02,1.28-.32,1.49-1.07.06-.22.09-.44.08-.69-.05-1.9-1.97-4.66-3.6-6.12-1.54-1.41-4.12-2.95-6.1-2.9-.73.02-1.4.25-1.88.8-.31.34-.43.81-.42,1.38.08,2.92,3.91,8.37,6.96,10.99,3.19,2.74,6.48,4.53,9.11,4.46,1.45-.04,2.52-.7,2.49-2.1-.04-1.44-.76-2.17-.96-2.33-.12-.08-.25-.09-.3-.08-.07.02-.08.09-.09.22,0,.27-.34.56-.67.47-.39-.07-.77-.5-.71-1.02,0-.32.35-.59.8-.6.2,0,.44.04.66.17.9.51,1.95,1.89,2,3.56.05,1.9-1.26,2.85-3.17,2.9-5.32.14-11.23-6.27-13.84-10.35-.91-1.41-2.67-4.37-2.72-6.48-.01-.58.11-1.1.41-1.51Z"/>
    <path class="cls-6" d="m156.15,214.7c.31,2.08-.91,5.3-1.55,6.85-1.86,4.47-6.57,11.8-11.84,12.59-1.88.28-3.34-.43-3.62-2.31-.25-1.65.55-3.19,1.35-3.85.2-.16.42-.25.62-.28.45-.07.83.15.9.46.14.5-.16.99-.52,1.12-.32.15-.69-.08-.74-.34-.04-.13-.06-.19-.13-.2-.05,0-.18.03-.28.13-.17.19-.76,1.04-.54,2.46.21,1.39,1.38,1.85,2.81,1.64,2.61-.39,5.53-2.72,8.2-5.97,2.55-3.12,5.38-9.15,4.95-12.04-.08-.56-.29-1-.65-1.29-.57-.45-1.27-.57-1.99-.46-1.97.29-4.24,2.26-5.51,3.91-1.35,1.72-2.76,4.77-2.48,6.65.04.25.1.46.2.66.34.71.96.9,1.66.8,1.07-.16,2.33-1.01,3.08-1.76,1.33-1.28,2.02-3.17,2.17-4,.06-.29.17-.43.27-.45.1-.01.17.09.15.3-.14.95-.65,2.75-2.34,4.57-.9.98-2.26,1.71-3.5,1.89-1.09.16-2.09-.09-2.62-.94-.2-.32-.33-.71-.39-1.12-.3-2.01.91-4.96,3.03-7.41,1.67-1.92,4.11-3.3,6.08-3.6,1.06-.16,1.99,0,2.6.56.37.35.58.84.67,1.42Z"/>
    <path class="cls-6" d="m144.53,213.28c.61-.55,1.54-.71,2.6-.55,1.97.29,4.41,1.67,6.08,3.59,2.12,2.44,3.33,5.39,3.03,7.41-.06.41-.19.8-.39,1.12-.53.85-1.53,1.1-2.62.94-1.24-.19-2.6-.91-3.5-1.89-1.68-1.82-2.19-3.62-2.34-4.57-.02-.21.05-.31.15-.3.1.01.21.15.27.45.15.83.84,2.72,2.17,4,.75.75,2.01,1.6,3.08,1.76.69.1,1.31-.09,1.66-.8.1-.2.16-.41.2-.66.28-1.88-1.14-4.93-2.48-6.65-1.27-1.66-3.54-3.62-5.51-3.91-.73-.11-1.42,0-1.99.46-.36.28-.56.73-.65,1.29-.43,2.89,2.39,8.92,4.95,12.03,2.67,3.25,5.59,5.58,8.2,5.97,1.44.22,2.6-.25,2.81-1.64.21-1.42-.37-2.27-.54-2.46-.1-.1-.23-.14-.28-.13-.07,0-.1.07-.13.2-.06.26-.43.49-.74.34-.37-.14-.67-.62-.52-1.12.06-.31.45-.52.89-.46.2.03.42.11.62.28.8.66,1.59,2.2,1.35,3.85-.28,1.88-1.74,2.59-3.62,2.31-5.27-.79-9.97-8.13-11.84-12.59-.65-1.55-1.87-4.77-1.55-6.85.09-.58.3-1.07.67-1.42Z"/>
    <path class="cls-6" d="m144.76,214.78c-.05,2.1-1.82,5.06-2.72,6.48-2.61,4.07-8.52,10.48-13.84,10.35-1.9-.05-3.21-1-3.17-2.9.04-1.67,1.1-3.04,2-3.56.22-.13.46-.17.65-.17.45.01.79.29.8.61.05.52-.33.94-.71,1.02-.34.09-.66-.2-.67-.47-.01-.13-.03-.2-.09-.22-.05-.02-.18,0-.3.08-.21.16-.92.89-.96,2.33-.04,1.4,1.03,2.06,2.48,2.1,2.64.07,5.92-1.72,9.12-4.46,3.06-2.63,6.89-8.07,6.96-10.99.01-.57-.11-1.04-.42-1.38-.49-.55-1.15-.78-1.88-.8-1.99-.05-4.56,1.48-6.1,2.9-1.62,1.46-3.55,4.22-3.6,6.12,0,.25.02.47.08.69.21.76.79,1.06,1.49,1.07,1.08.03,2.47-.59,3.34-1.2,1.53-1.03,2.54-2.77,2.83-3.57.11-.28.24-.39.34-.39.1,0,.15.12.09.32-.31.91-1.12,2.59-3.09,4.1-1.06.81-2.52,1.29-3.77,1.25-1.1-.03-2.04-.45-2.42-1.38-.14-.35-.2-.76-.19-1.17.05-2.04,1.76-4.73,4.26-6.77,1.98-1.6,4.62-2.54,6.61-2.49,1.07.03,1.96.35,2.46,1,.31.41.43.93.41,1.51Z"/>
    <path class="cls-6" d="m133.56,211.36c.69-.44,1.64-.43,2.66-.1,1.88.63,4.05,2.41,5.36,4.6,1.66,2.77,2.34,5.89,1.69,7.82-.13.4-.32.75-.58,1.04-.67.74-1.7.82-2.75.47-1.19-.4-2.4-1.35-3.12-2.47-1.34-2.09-1.53-3.95-1.51-4.91.02-.21.1-.3.2-.27.09.03.18.19.19.49,0,.84.35,2.83,1.44,4.32.61.87,1.7,1.92,2.73,2.27.67.22,1.31.14,1.77-.5.13-.18.23-.38.31-.62.6-1.8-.26-5.05-1.29-6.98-.96-1.85-2.86-4.18-4.74-4.81-.7-.23-1.4-.24-2.04.11-.41.22-.68.62-.86,1.16-.93,2.77.81,9.2,2.78,12.71,2.06,3.67,4.54,6.47,7.04,7.31,1.38.46,2.61.21,3.05-1.12.46-1.36.03-2.3-.11-2.52-.08-.12-.21-.17-.26-.17-.07,0-.11.05-.17.17-.1.25-.51.41-.79.21-.34-.2-.55-.73-.32-1.2.12-.3.53-.44.96-.29.19.06.4.18.56.38.67.79,1.19,2.44.66,4.02-.61,1.8-2.16,2.25-3.97,1.65-5.05-1.69-8.41-9.74-9.47-14.46-.37-1.64-1.01-5.02-.34-7.02.19-.55.48-1,.9-1.28Z"/>
    <path class="cls-6" d="m133.53,212.88c-.42,2.06-2.67,4.67-3.8,5.9-3.28,3.56-10.21,8.85-15.43,7.79-1.87-.38-2.99-1.54-2.61-3.41.33-1.64,1.61-2.81,2.58-3.16.24-.09.48-.09.67-.05.44.09.73.42.69.74-.04.52-.48.87-.88.88-.35.03-.62-.31-.58-.58,0-.13,0-.2-.05-.23-.04-.03-.18-.04-.31.02-.23.12-1.07.72-1.35,2.13-.28,1.38.66,2.21,2.08,2.5,2.58.53,6.13-.66,9.75-2.81,3.47-2.06,8.18-6.75,8.77-9.62.11-.56.07-1.04-.17-1.43-.38-.62-1-.97-1.71-1.11-1.95-.4-4.75.67-6.51,1.79-1.85,1.16-4.23,3.54-4.61,5.4-.05.25-.06.47-.04.69.08.78.6,1.18,1.28,1.32,1.06.22,2.54-.15,3.5-.6,1.68-.75,2.98-2.29,3.41-3.02.15-.26.31-.35.41-.33.1.02.12.14.04.33-.46.84-1.55,2.36-3.76,3.5-1.18.61-2.71.83-3.93.58-1.08-.22-1.93-.8-2.14-1.78-.08-.37-.06-.78.02-1.19.41-2,2.55-4.35,5.38-5.93,2.23-1.23,5-1.7,6.94-1.3,1.05.21,1.87.69,2.25,1.41.23.46.26.99.14,1.56Z"/>
    <path class="cls-6" d="m123.1,207.57c.76-.31,1.69-.14,2.63.37,1.75.95,3.57,3.08,4.48,5.46,1.15,3.02,1.28,6.21.31,8-.2.37-.45.69-.75.92-.79.62-1.82.51-2.79-.01-1.1-.6-2.13-1.75-2.64-2.97-.96-2.29-.82-4.15-.63-5.09.05-.2.15-.28.24-.23s.15.21.1.51c-.15.83-.14,2.85.67,4.5.45.96,1.34,2.19,2.29,2.71.62.34,1.26.37,1.83-.18.16-.16.3-.33.42-.55.91-1.67.62-5.02-.06-7.1-.63-1.99-2.09-4.61-3.83-5.56-.65-.35-1.34-.48-2.03-.25-.44.14-.78.49-1.05.99-1.39,2.57-.8,9.2.53,13,1.39,3.97,3.35,7.16,5.67,8.42,1.28.7,2.53.66,3.2-.58.69-1.26.43-2.26.33-2.5-.06-.13-.17-.21-.22-.22-.07-.02-.11.03-.19.14-.14.23-.57.32-.82.07-.3-.26-.41-.81-.11-1.24.17-.27.6-.34,1-.12.18.1.36.25.48.47.52.89.75,2.61-.05,4.08-.91,1.67-2.52,1.84-4.19.93-4.68-2.54-6.59-11.05-6.81-15.88-.08-1.68-.12-5.12.88-6.97.28-.51.64-.9,1.11-1.1Z"/>
    <path class="cls-6" d="m122.8,209.05c-.77,1.96-3.44,4.14-4.77,5.15-3.85,2.94-11.59,6.94-16.55,4.99-1.77-.7-2.68-2.04-1.98-3.81.61-1.55,2.07-2.49,3.09-2.66.25-.04.49,0,.67.07.42.17.65.54.55.84-.13.51-.63.77-1.02.71-.35-.03-.55-.42-.47-.67.03-.13.04-.2-.01-.24-.04-.03-.17-.07-.31-.03-.25.08-1.17.52-1.7,1.86-.51,1.31.26,2.29,1.62,2.83,2.45.97,6.15.41,10.09-1.07,3.77-1.42,9.23-5.23,10.3-7.95.21-.53.25-1.01.08-1.44-.27-.68-.81-1.13-1.5-1.39-1.85-.73-4.8-.17-6.73.64-2.03.82-4.78,2.75-5.47,4.52-.09.23-.14.45-.16.67-.06.78.38,1.26,1.03,1.52,1.01.4,2.52.29,3.55.01,1.79-.44,3.34-1.74,3.88-2.38.2-.23.36-.29.46-.25.09.04.1.16-.02.33-.6.75-1.94,2.05-4.31,2.79-1.27.4-2.81.35-3.97-.11-1.03-.4-1.76-1.12-1.8-2.12-.01-.38.07-.78.23-1.17.75-1.9,3.27-3.84,6.32-4.9,2.41-.83,5.21-.8,7.06-.08.99.39,1.72,1,1.97,1.78.15.49.08,1.02-.13,1.56Z"/>
    <path class="cls-6" d="m113.45,202.01c.8-.17,1.69.15,2.53.82,1.55,1.24,2.98,3.65,3.47,6.15.61,3.17.18,6.33-1.08,7.93-.26.33-.56.6-.9.78-.88.47-1.88.19-2.74-.5-.98-.78-1.79-2.09-2.08-3.39-.55-2.42-.09-4.23.26-5.13.09-.19.2-.25.28-.19.08.06.11.24.01.52-.29.79-.63,2.78-.13,4.55.27,1.03.94,2.39,1.79,3.06.55.44,1.18.58,1.83.14.19-.13.35-.28.5-.47,1.19-1.49,1.48-4.84,1.18-7-.27-2.07-1.26-4.91-2.81-6.14-.57-.46-1.23-.7-1.96-.6-.46.06-.85.35-1.21.79-1.82,2.29-2.39,8.92-1.73,12.9.68,4.15,2.05,7.63,4.12,9.27,1.14.9,2.38,1.08,3.25-.01.89-1.12.81-2.15.76-2.4-.04-.14-.13-.23-.18-.25-.06-.03-.12.01-.21.11-.18.2-.62.21-.82-.07-.25-.3-.27-.87.11-1.24.21-.24.65-.23,1,.05.16.12.31.31.4.55.36.97.28,2.7-.76,4.01-1.19,1.49-2.8,1.38-4.29.19-4.17-3.32-4.57-12.03-3.95-16.82.21-1.66.77-5.06,2.08-6.71.36-.46.79-.78,1.29-.9Z"/>
    <path class="cls-6" d="m112.9,203.43c-1.1,1.79-4.11,3.48-5.59,4.25-4.3,2.22-12.62,4.82-17.16,2.04-1.62-.99-2.28-2.47-1.29-4.1.87-1.42,2.47-2.09,3.51-2.08.25,0,.48.08.65.18.38.24.54.65.39.93-.21.48-.75.65-1.12.52-.34-.09-.47-.51-.35-.74.06-.12.08-.19.03-.24-.03-.04-.16-.1-.3-.09-.26.04-1.25.31-2,1.54-.73,1.2-.14,2.3,1.1,3.06,2.25,1.38,5.99,1.47,10.12.7,3.96-.75,10-3.55,11.53-6.04.3-.48.43-.95.33-1.4-.15-.72-.6-1.25-1.23-1.63-1.69-1.04-4.69-1-6.74-.54-2.14.45-5.18,1.88-6.17,3.5-.13.21-.22.42-.27.64-.19.76.16,1.31.75,1.68.93.57,2.43.73,3.49.63,1.84-.13,3.59-1.13,4.24-1.67.23-.19.41-.22.49-.17.09.05.07.18-.08.32-.72.64-2.26,1.69-4.73,2-1.32.17-2.83-.15-3.9-.8-.94-.58-1.54-1.41-1.41-2.41.06-.38.21-.75.43-1.11,1.06-1.74,3.89-3.22,7.08-3.73,2.51-.4,5.27.12,6.97,1.15.91.56,1.52,1.29,1.63,2.1.06.51-.09,1.02-.4,1.52Z"/>
    <path class="cls-6" d="m104.91,194.87c.82-.03,1.64.44,2.35,1.24,1.32,1.49,2.3,4.12,2.35,6.66.05,3.23-.92,6.27-2.45,7.62-.31.28-.66.49-1.02.61-.95.31-1.88-.14-2.61-.96-.83-.94-1.4-2.37-1.46-3.7-.12-2.48.65-4.18,1.15-5,.12-.17.24-.21.3-.13.07.07.07.25-.08.52-.42.73-1.11,2.63-.91,4.46.09,1.06.51,2.52,1.23,3.33.46.53,1.06.78,1.78.45.21-.09.39-.21.58-.38,1.43-1.26,2.3-4.51,2.38-6.69.09-2.09-.39-5.05-1.7-6.54-.49-.55-1.09-.91-1.82-.93-.46-.02-.9.19-1.32.57-2.19,1.93-3.9,8.37-3.95,12.4-.05,4.21.7,7.87,2.44,9.85.96,1.09,2.16,1.48,3.21.55,1.08-.95,1.17-1.97,1.17-2.23-.02-.14-.09-.25-.14-.28-.06-.04-.12,0-.23.07-.21.17-.65.1-.79-.21-.19-.34-.11-.91.32-1.2.25-.2.68-.11.98.23.13.15.25.36.29.61.19,1.02-.19,2.71-1.44,3.81-1.43,1.26-3,.87-4.26-.56-3.53-3.99-2.41-12.64-.97-17.26.5-1.6,1.63-4.85,3.21-6.25.44-.39.91-.63,1.42-.66Z"/>
    <path class="cls-6" d="m104.12,196.17c-1.39,1.58-4.65,2.71-6.25,3.21-4.62,1.44-13.27,2.56-17.26-.97-1.43-1.26-1.82-2.83-.56-4.26,1.11-1.25,2.8-1.63,3.81-1.44.25.04.46.16.61.29.34.3.42.73.23.98-.29.43-.86.51-1.2.32-.32-.15-.38-.58-.22-.79.08-.11.11-.17.07-.23-.03-.04-.14-.12-.28-.14-.26,0-1.28.09-2.23,1.17-.93,1.05-.54,2.25.55,3.21,1.98,1.75,5.64,2.49,9.85,2.44,4.03-.05,10.46-1.76,12.4-3.95.38-.42.58-.86.57-1.32-.02-.73-.38-1.34-.93-1.82-1.49-1.32-4.45-1.79-6.54-1.7-2.18.08-5.43.95-6.69,2.38-.17.19-.29.37-.38.58-.32.72-.07,1.32.45,1.78.81.72,2.27,1.14,3.33,1.23,1.83.19,3.73-.49,4.46-.91.26-.15.44-.14.52-.08.07.07.04.19-.13.3-.82.5-2.52,1.27-5,1.15-1.33-.06-2.76-.63-3.7-1.46-.83-.73-1.27-1.66-.97-2.61.12-.36.33-.71.61-1.02,1.35-1.53,4.39-2.49,7.62-2.44,2.54.04,5.17,1.03,6.66,2.34.8.71,1.28,1.53,1.24,2.35-.03.51-.27.99-.66,1.42Z"/>
    <path class="cls-6" d="m97.74,186.35c.81.11,1.54.72,2.1,1.63,1.04,1.7,1.55,4.45,1.15,6.97-.51,3.19-1.99,6.02-3.73,7.08-.36.22-.73.37-1.11.43-.99.14-1.83-.47-2.41-1.41-.65-1.07-.97-2.58-.8-3.89.31-2.46,1.36-4.01,2-4.73.15-.15.27-.17.32-.08.05.08.02.26-.17.49-.54.65-1.55,2.4-1.67,4.23-.1,1.06.06,2.57.63,3.49.37.6.91.95,1.68.75.22-.06.42-.14.64-.27,1.62-.99,3.05-4.04,3.5-6.18.45-2.04.5-5.04-.54-6.73-.38-.63-.92-1.08-1.63-1.23-.45-.1-.92.03-1.4.33-2.49,1.53-5.29,7.57-6.04,11.53-.78,4.13-.68,7.87.7,10.12.76,1.24,1.87,1.83,3.06,1.1,1.22-.75,1.5-1.74,1.54-2,0-.14-.04-.27-.09-.3-.05-.05-.12-.03-.24.03-.24.13-.65-.01-.74-.35-.13-.37.05-.91.53-1.12.28-.15.69,0,.92.39.11.17.19.4.18.65,0,1.03-.66,2.63-2.08,3.5-1.62.99-3.1.33-4.1-1.29-2.78-4.54-.18-12.86,2.04-17.16.77-1.49,2.45-4.5,4.25-5.59.5-.3,1.01-.46,1.52-.4Z"/>
    <path class="cls-6" d="m96.74,187.5c-1.64,1.31-5.05,1.86-6.71,2.08-4.8.62-13.51.21-16.82-3.95-1.19-1.49-1.3-3.1.19-4.29,1.31-1.04,3.04-1.12,4.01-.76.24.09.42.24.55.39.28.35.29.79.05,1.01-.36.37-.93.36-1.24.11-.29-.2-.27-.64-.07-.82.1-.1.14-.15.11-.21-.02-.05-.11-.14-.25-.18-.25-.05-1.28-.13-2.4.76-1.1.87-.92,2.12-.01,3.25,1.64,2.06,5.12,3.43,9.27,4.12,3.98.65,10.61.09,12.9-1.73.44-.35.73-.75.79-1.21.11-.72-.14-1.38-.6-1.96-1.24-1.55-4.07-2.54-6.14-2.81-2.16-.3-5.51,0-7,1.18-.2.16-.34.32-.47.51-.44.65-.3,1.29.14,1.83.68.85,2.04,1.51,3.06,1.78,1.77.51,3.76.17,4.55-.12.28-.1.46-.07.52.01.06.08,0,.19-.19.27-.9.35-2.71.81-5.13.26-1.3-.29-2.61-1.1-3.39-2.08-.69-.86-.96-1.86-.5-2.74.18-.33.45-.64.78-.9,1.59-1.27,4.75-1.69,7.93-1.08,2.5.48,4.92,1.91,6.15,3.46.67.84.99,1.73.82,2.53-.12.5-.44.92-.89,1.29Z"/>
    <path class="cls-6" d="m92.16,176.72c.78.25,1.39.98,1.78,1.97.73,1.85.75,4.65-.07,7.06-1.06,3.05-3.01,5.58-4.9,6.32-.39.15-.79.24-1.17.23-1-.04-1.72-.78-2.13-1.8-.46-1.17-.51-2.71-.11-3.98.74-2.37,2.04-3.71,2.79-4.31.17-.12.3-.12.33-.02.04.09-.02.26-.25.46-.65.54-1.94,2.09-2.38,3.88-.28,1.03-.38,2.54.01,3.55.26.65.74,1.09,1.52,1.03.23-.02.44-.07.67-.16,1.77-.7,3.7-3.45,4.52-5.47.8-1.93,1.36-4.88.64-6.72-.27-.68-.71-1.23-1.4-1.5-.43-.17-.91-.13-1.44.08-2.72,1.07-6.53,6.53-7.95,10.3-1.48,3.94-2.04,7.64-1.07,10.09.53,1.35,1.52,2.13,2.82,1.62,1.34-.53,1.78-1.45,1.86-1.7.04-.14,0-.27-.03-.31-.04-.06-.11-.05-.24-.01-.25.08-.64-.12-.67-.47-.06-.39.21-.89.71-1.02.3-.1.68.13.84.55.07.19.11.42.07.67-.17,1.02-1.11,2.48-2.66,3.09-1.77.7-3.11-.21-3.81-1.98-1.95-4.95,2.05-12.7,4.99-16.55,1.02-1.33,3.2-4,5.16-4.77.54-.21,1.07-.28,1.56-.13Z"/>
    <path class="cls-6" d="m90.98,177.67c-1.85,1-5.29.96-6.97.88-4.83-.22-13.34-2.14-15.88-6.81-.91-1.67-.74-3.28.93-4.19,1.47-.8,3.18-.57,4.08-.05.22.13.38.31.47.48.21.4.15.83-.12,1-.42.3-.98.19-1.24-.11-.25-.25-.16-.68.07-.82.11-.08.16-.12.14-.19,0-.05-.09-.16-.22-.22-.24-.1-1.24-.35-2.5.33-1.23.67-1.27,1.93-.58,3.2,1.26,2.32,4.45,4.27,8.42,5.67,3.8,1.33,10.43,1.93,13,.53.5-.27.85-.61.99-1.05.23-.7.1-1.39-.25-2.03-.95-1.75-3.57-3.21-5.56-3.84-2.08-.68-5.43-.96-7.1-.06-.22.12-.4.25-.55.42-.55.56-.52,1.21-.18,1.83.52.95,1.74,1.85,2.71,2.29,1.66.81,3.67.82,4.5.67.3-.05.46.01.51.1.05.09-.03.19-.23.24-.94.19-2.8.33-5.09-.63-1.23-.51-2.38-1.54-2.97-2.64-.53-.97-.63-2-.01-2.79.24-.3.56-.55.92-.75,1.79-.97,4.98-.84,8,.31,2.38.91,4.51,2.74,5.46,4.48.51.94.68,1.88.37,2.63-.2.47-.59.83-1.1,1.11Z"/>
    <path class="cls-6" d="m88.34,166.26c.72.38,1.2,1.21,1.41,2.25.4,1.95-.06,4.71-1.3,6.94-1.57,2.82-3.93,4.97-5.93,5.38-.41.08-.81.1-1.19.02-.98-.21-1.56-1.06-1.78-2.14-.25-1.23-.03-2.75.58-3.93,1.14-2.21,2.65-3.3,3.5-3.76.19-.09.31-.06.33.04.02.1-.07.25-.33.41-.73.42-2.27,1.72-3.02,3.41-.45.96-.82,2.43-.6,3.5.14.69.53,1.2,1.32,1.28.23.02.45.01.69-.04,1.87-.38,4.25-2.75,5.4-4.61,1.12-1.76,2.19-4.57,1.79-6.51-.15-.72-.49-1.33-1.11-1.72-.39-.24-.88-.28-1.43-.17-2.86.58-7.56,5.3-9.62,8.77-2.14,3.62-3.33,7.17-2.81,9.75.29,1.42,1.13,2.36,2.5,2.08,1.41-.29,2-1.12,2.13-1.35.06-.13.05-.27.02-.31-.03-.06-.1-.07-.23-.05-.26.04-.61-.23-.58-.58,0-.39.36-.84.88-.88.31-.05.65.24.74.68.04.2.04.44-.05.68-.35.97-1.52,2.25-3.16,2.58-1.87.38-3.03-.75-3.41-2.61-1.06-5.22,4.23-12.15,7.79-15.43,1.23-1.14,3.84-3.39,5.9-3.8.57-.12,1.11-.09,1.56.14Z"/>
    <path class="cls-6" d="m87.01,167c-1.99.67-5.38.02-7.02-.34-4.72-1.06-12.77-4.42-14.46-9.47-.6-1.8-.16-3.36,1.64-3.97,1.58-.53,3.24-.01,4.02.66.2.16.32.37.38.56.14.43,0,.85-.29.96-.47.23-1,.02-1.2-.32-.2-.29-.04-.69.21-.79.12-.06.18-.09.17-.16,0-.05-.06-.17-.17-.26-.22-.14-1.16-.56-2.52-.11-1.33.45-1.59,1.68-1.12,3.05.84,2.5,3.64,4.98,7.31,7.04,3.51,1.97,9.94,3.71,12.71,2.78.54-.18.94-.46,1.15-.86.35-.64.34-1.35.11-2.04-.63-1.88-2.96-3.78-4.81-4.74-1.93-1.03-5.18-1.89-6.98-1.29-.24.08-.43.18-.62.31-.64.46-.72,1.1-.5,1.77.34,1.03,1.4,2.12,2.27,2.73,1.49,1.08,3.47,1.44,4.32,1.44.3,0,.45.09.49.19s-.06.18-.27.2c-.96.02-2.82-.16-4.91-1.51-1.12-.72-2.07-1.93-2.47-3.12-.35-1.04-.27-2.07.47-2.75.29-.25.64-.44,1.04-.58,1.93-.65,5.05.03,7.82,1.69,2.18,1.31,3.96,3.48,4.6,5.36.34,1.01.34,1.96-.1,2.66-.28.43-.73.72-1.28.9Z"/>
    <path class="cls-6" d="m86.39,155.3c.65.5.97,1.39,1,2.46.05,1.99-.88,4.63-2.49,6.61-2.04,2.51-4.73,4.21-6.77,4.27-.42.01-.82-.05-1.17-.19-.93-.38-1.35-1.32-1.38-2.42-.03-1.25.45-2.72,1.25-3.77,1.5-1.98,3.19-2.79,4.1-3.09.2-.06.32,0,.32.09,0,.1-.11.24-.39.34-.79.29-2.54,1.3-3.57,2.83-.61.87-1.23,2.25-1.2,3.34.02.7.32,1.28,1.07,1.49.22.06.44.09.69.08,1.9-.05,4.66-1.97,6.12-3.6,1.41-1.54,2.95-4.12,2.9-6.1-.02-.73-.25-1.4-.8-1.88-.34-.31-.81-.43-1.38-.42-2.92.08-8.37,3.91-10.99,6.96-2.74,3.19-4.53,6.48-4.46,9.12.04,1.45.7,2.52,2.1,2.48,1.43-.04,2.17-.76,2.33-.96.08-.12.09-.25.08-.3-.02-.07-.09-.08-.22-.09-.27,0-.56-.34-.47-.67.07-.39.5-.76,1.02-.71.32,0,.59.35.61.8,0,.2-.04.44-.17.66-.51.9-1.89,1.95-3.55,2-1.9.05-2.86-1.26-2.9-3.17-.14-5.32,6.27-11.23,10.35-13.84,1.41-.91,4.37-2.67,6.48-2.72.58-.02,1.1.11,1.51.41Z"/>
    <path class="cls-6" d="m84.95,155.79c-2.08.31-5.3-.91-6.85-1.55-4.46-1.86-11.8-6.57-12.59-11.84-.28-1.88.43-3.34,2.31-3.62,1.65-.25,3.19.55,3.85,1.35.16.2.25.42.28.62.07.45-.15.83-.46.9-.5.14-.99-.16-1.12-.52-.15-.32.08-.69.34-.74.13-.04.19-.06.2-.13,0-.05-.03-.18-.13-.29-.2-.17-1.04-.75-2.46-.54-1.39.21-1.85,1.38-1.64,2.81.39,2.61,2.72,5.53,5.97,8.2,3.12,2.55,9.15,5.38,12.04,4.95.56-.08,1-.29,1.29-.65.46-.57.57-1.27.46-1.99-.29-1.96-2.25-4.24-3.91-5.51-1.72-1.35-4.77-2.76-6.65-2.48-.25.04-.46.1-.66.2-.71.34-.9.96-.8,1.66.16,1.07,1.01,2.33,1.76,3.08,1.28,1.33,3.17,2.02,4,2.17.3.06.43.17.45.27.02.1-.09.17-.3.15-.95-.14-2.75-.65-4.57-2.34-.98-.9-1.71-2.26-1.89-3.5-.16-1.09.09-2.09.94-2.62.32-.2.71-.33,1.12-.39,2.01-.3,4.96.91,7.41,3.02,1.92,1.67,3.3,4.11,3.59,6.08.16,1.06,0,1.99-.55,2.6-.35.37-.84.58-1.42.67Z"/>
    <path class="cls-6" d="m86.37,144.17c.55.61.71,1.54.56,2.6-.29,1.96-1.67,4.41-3.59,6.08-2.44,2.12-5.39,3.33-7.41,3.02-.41-.06-.8-.19-1.12-.39-.85-.53-1.1-1.53-.94-2.62.19-1.24.91-2.6,1.89-3.5,1.82-1.68,3.62-2.19,4.57-2.34.21-.02.31.05.3.15-.02.1-.15.21-.45.27-.83.14-2.73.84-4,2.17-.75.75-1.6,2.01-1.76,3.08-.1.69.09,1.31.8,1.66.21.1.41.16.66.2,1.88.28,4.93-1.13,6.65-2.48,1.66-1.27,3.62-3.54,3.91-5.51.11-.73,0-1.42-.46-1.99-.28-.36-.73-.57-1.29-.65-2.89-.43-8.92,2.39-12.03,4.95-3.25,2.67-5.58,5.59-5.97,8.2-.21,1.44.25,2.6,1.64,2.81,1.42.21,2.27-.37,2.46-.54.1-.1.14-.23.13-.29,0-.07-.07-.09-.2-.13-.26-.05-.49-.43-.34-.74.14-.37.62-.67,1.12-.52.31.06.52.45.46.9-.03.2-.11.42-.28.62-.66.8-2.2,1.6-3.85,1.35-1.88-.28-2.59-1.74-2.31-3.62.79-5.26,8.13-9.97,12.59-11.83,1.55-.65,4.77-1.87,6.85-1.56.58.09,1.07.3,1.42.67Z"/>
    <path class="cls-6" d="m84.87,144.41c-2.1-.05-5.06-1.82-6.47-2.72-4.08-2.61-10.48-8.52-10.35-13.84.05-1.9,1-3.21,2.9-3.17,1.67.04,3.04,1.1,3.56,2,.13.22.17.46.17.66-.01.45-.29.79-.61.8-.52.05-.94-.33-1.02-.71-.09-.34.2-.66.47-.67.13-.01.2-.03.22-.09.02-.05,0-.18-.08-.3-.16-.2-.89-.92-2.33-.96-1.4-.04-2.07,1.03-2.1,2.48-.07,2.64,1.72,5.92,4.46,9.12,2.63,3.06,8.07,6.89,10.99,6.96.57.01,1.04-.11,1.38-.42.55-.49.78-1.15.8-1.88.05-1.99-1.49-4.56-2.9-6.1-1.46-1.62-4.22-3.55-6.12-3.6-.25,0-.47.02-.69.08-.76.21-1.06.79-1.07,1.49-.03,1.08.59,2.47,1.2,3.34,1.03,1.53,2.77,2.54,3.57,2.83.28.11.39.24.39.34s-.12.15-.32.09c-.91-.31-2.59-1.12-4.09-3.09-.81-1.06-1.29-2.52-1.26-3.77.03-1.1.45-2.04,1.38-2.42.35-.14.76-.2,1.17-.19,2.04.05,4.73,1.76,6.77,4.27,1.6,1.98,2.54,4.62,2.49,6.61-.03,1.07-.35,1.96-1,2.46-.41.31-.93.43-1.51.41Z"/>
    <path class="cls-6" d="m88.29,133.2c.44.69.43,1.64.1,2.66-.63,1.88-2.41,4.05-4.6,5.36-2.77,1.66-5.89,2.34-7.82,1.69-.4-.13-.75-.32-1.04-.58-.74-.67-.82-1.7-.47-2.75.4-1.19,1.35-2.4,2.47-3.12,2.09-1.34,3.95-1.53,4.91-1.51.21.02.3.1.27.2-.03.09-.19.18-.49.19-.84,0-2.83.35-4.32,1.44-.87.61-1.92,1.7-2.27,2.73-.22.67-.14,1.31.5,1.77.18.13.38.23.62.31,1.8.6,5.05-.26,6.98-1.29,1.85-.96,4.18-2.86,4.81-4.74.23-.7.24-1.4-.11-2.04-.22-.41-.62-.68-1.15-.86-2.77-.93-9.2.81-12.71,2.78-3.67,2.06-6.47,4.54-7.31,7.04-.46,1.38-.21,2.61,1.12,3.05,1.36.46,2.3.03,2.52-.11.12-.08.17-.21.17-.26,0-.07-.05-.11-.17-.16-.25-.1-.41-.51-.21-.79.2-.34.73-.55,1.2-.32.29.12.44.53.29.96-.06.19-.19.4-.38.56-.79.67-2.44,1.19-4.02.66-1.8-.6-2.25-2.16-1.65-3.97,1.69-5.05,9.74-8.41,14.46-9.47,1.64-.37,5.02-1.01,7.02-.34.55.19,1,.48,1.28.9Z"/>
    <path class="cls-6" d="m86.77,133.18c-2.06-.42-4.67-2.67-5.9-3.8-3.56-3.28-8.85-10.21-7.79-15.43.38-1.86,1.54-2.99,3.41-2.61,1.64.33,2.81,1.61,3.16,2.58.09.24.09.48.05.67-.09.44-.42.73-.74.69-.52-.04-.87-.48-.88-.88-.03-.35.31-.62.58-.58.13,0,.2,0,.23-.05.03-.05.04-.18-.02-.31-.12-.23-.72-1.07-2.13-1.35-1.37-.28-2.21.66-2.5,2.08-.52,2.58.66,6.13,2.81,9.75,2.06,3.47,6.75,8.18,9.62,8.77.56.11,1.04.08,1.43-.17.62-.38.97-1,1.11-1.72.39-1.95-.67-4.75-1.79-6.51-1.16-1.85-3.54-4.23-5.4-4.6-.25-.05-.47-.06-.69-.04-.78.08-1.18.6-1.32,1.28-.22,1.06.15,2.53.6,3.5.75,1.68,2.29,2.99,3.02,3.41.26.15.35.31.33.41-.02.1-.14.12-.33.04-.84-.46-2.36-1.55-3.5-3.76-.61-1.18-.83-2.71-.58-3.93.22-1.08.8-1.93,1.78-2.14.37-.08.78-.06,1.19.02,2,.41,4.35,2.55,5.93,5.38,1.23,2.23,1.69,5,1.3,6.94-.21,1.05-.69,1.87-1.41,2.25-.46.23-.99.26-1.56.14Z"/>
    <path class="cls-6" d="m92.08,122.74c.31.76.14,1.69-.37,2.63-.95,1.75-3.08,3.57-5.46,4.48-3.02,1.15-6.21,1.28-8,.31-.37-.2-.69-.45-.92-.75-.62-.79-.51-1.82.01-2.79.6-1.1,1.75-2.13,2.97-2.64,2.29-.96,4.15-.82,5.09-.63.2.05.28.15.23.24-.05.09-.21.15-.51.1-.83-.15-2.85-.14-4.5.67-.96.45-2.19,1.34-2.71,2.29-.33.62-.36,1.26.18,1.83.16.16.33.29.55.42,1.67.91,5.02.62,7.1-.06,1.99-.62,4.61-2.09,5.56-3.83.35-.65.48-1.34.25-2.03-.14-.44-.49-.78-.99-1.05-2.57-1.39-9.2-.8-13,.53-3.97,1.4-7.16,3.35-8.42,5.67-.69,1.28-.65,2.53.58,3.2,1.26.69,2.26.43,2.5.33.13-.06.21-.17.22-.22.02-.07-.03-.11-.14-.19-.23-.14-.32-.57-.07-.82.26-.3.81-.41,1.24-.11.27.17.34.6.12,1-.09.18-.25.36-.47.49-.89.52-2.61.75-4.08-.05-1.67-.91-1.84-2.52-.93-4.19,2.54-4.68,11.05-6.59,15.88-6.81,1.68-.08,5.12-.12,6.97.88.51.28.9.64,1.11,1.11Z"/>
    <path class="cls-6" d="m90.59,122.45c-1.96-.77-4.14-3.44-5.15-4.77-2.94-3.85-6.94-11.59-4.99-16.55.7-1.77,2.04-2.68,3.81-1.98,1.55.61,2.49,2.07,2.66,3.09.04.25,0,.49-.07.67-.17.42-.54.65-.84.55-.51-.13-.78-.63-.71-1.02.03-.35.42-.55.67-.47.13.03.2.04.24-.01.03-.04.07-.17.03-.31-.08-.25-.52-1.18-1.86-1.7-1.3-.51-2.29.26-2.82,1.62-.97,2.46-.41,6.15,1.07,10.09,1.42,3.77,5.23,9.23,7.95,10.3.53.21,1.01.25,1.44.08.68-.27,1.13-.81,1.4-1.5.73-1.85.17-4.8-.64-6.73-.82-2.03-2.75-4.78-4.52-5.47-.23-.09-.45-.14-.67-.16-.79-.06-1.26.38-1.52,1.04-.4,1.01-.29,2.52-.01,3.55.44,1.79,1.74,3.34,2.38,3.88.23.2.29.36.25.46-.04.09-.16.1-.33-.02-.75-.6-2.05-1.94-2.79-4.31-.4-1.27-.35-2.81.11-3.98.4-1.03,1.12-1.76,2.13-1.8.38-.01.78.07,1.17.23,1.89.75,3.84,3.27,4.9,6.32.83,2.41.8,5.21.07,7.06-.39,1-1,1.72-1.78,1.97-.49.15-1.02.08-1.56-.13Z"/>
    <path class="cls-6" d="m97.64,113.09c.17.8-.15,1.69-.82,2.53-1.24,1.55-3.65,2.98-6.15,3.47-3.17.61-6.33.18-7.93-1.08-.33-.26-.6-.56-.78-.9-.47-.88-.19-1.88.5-2.74.78-.98,2.09-1.79,3.39-2.08,2.42-.55,4.23-.09,5.13.26.19.09.25.2.19.28-.06.08-.24.11-.52.01-.79-.29-2.78-.63-4.55-.13-1.03.27-2.39.94-3.07,1.79-.44.55-.58,1.18-.14,1.83.13.19.28.35.47.51,1.49,1.19,4.84,1.48,7,1.18,2.07-.27,4.91-1.26,6.14-2.81.46-.57.7-1.23.6-1.96-.06-.46-.35-.85-.79-1.21-2.29-1.82-8.92-2.39-12.9-1.73-4.15.69-7.63,2.05-9.27,4.12-.91,1.14-1.08,2.38.01,3.25,1.12.89,2.15.81,2.4.76.14-.04.24-.13.25-.18.03-.06-.01-.12-.11-.21-.2-.18-.21-.62.07-.81.31-.25.87-.27,1.24.11.24.21.23.65-.05,1-.12.16-.31.31-.55.4-.97.36-2.7.28-4.01-.76-1.49-1.19-1.38-2.8-.19-4.29,3.32-4.17,12.03-4.57,16.82-3.95,1.66.21,5.06.77,6.71,2.08.46.36.78.79.89,1.29Z"/>
    <path class="cls-6" d="m96.22,112.54c-1.79-1.1-3.48-4.1-4.25-5.59-2.22-4.3-4.82-12.62-2.04-17.16.99-1.62,2.47-2.28,4.1-1.29,1.42.87,2.09,2.47,2.08,3.51,0,.25-.08.48-.18.65-.24.38-.65.54-.93.39-.48-.21-.65-.75-.52-1.12.09-.34.5-.47.74-.35.12.06.19.08.24.03.04-.03.1-.16.09-.3-.04-.26-.31-1.25-1.54-2-1.2-.73-2.3-.14-3.06,1.1-1.38,2.25-1.47,5.99-.7,10.12.75,3.96,3.55,10,6.04,11.53.48.3.95.43,1.4.33.72-.15,1.25-.61,1.63-1.23,1.04-1.7,1-4.7.54-6.74-.45-2.14-1.88-5.18-3.5-6.17-.21-.13-.42-.22-.64-.27-.76-.19-1.31.16-1.68.75-.57.93-.73,2.43-.63,3.49.13,1.84,1.13,3.59,1.67,4.24.19.23.22.41.17.49-.05.09-.18.07-.32-.08-.64-.72-1.69-2.26-2-4.73-.17-1.32.15-2.83.8-3.89.58-.94,1.41-1.54,2.41-1.41.38.06.75.21,1.11.42,1.74,1.06,3.22,3.89,3.73,7.08.4,2.51-.12,5.27-1.15,6.97-.56.91-1.28,1.52-2.09,1.63-.51.06-1.02-.09-1.52-.4Z"/>
    <path class="cls-6" d="m104.78,104.55c.03.82-.44,1.64-1.25,2.35-1.49,1.32-4.12,2.3-6.66,2.34-3.23.05-6.27-.92-7.62-2.44-.28-.31-.49-.66-.61-1.02-.31-.95.14-1.88.96-2.61.94-.83,2.37-1.4,3.7-1.46,2.48-.12,4.18.65,5,1.15.17.12.21.24.13.3s-.25.07-.52-.08c-.73-.42-2.63-1.11-4.46-.91-1.06.09-2.51.51-3.33,1.23-.53.46-.78,1.06-.45,1.78.09.21.21.39.38.58,1.26,1.43,4.51,2.3,6.69,2.38,2.09.09,5.05-.39,6.54-1.7.55-.49.91-1.09.93-1.82.02-.46-.19-.9-.57-1.33-1.93-2.19-8.37-3.9-12.4-3.94-4.21-.05-7.87.7-9.85,2.44-1.09.96-1.48,2.16-.55,3.21.95,1.08,1.97,1.17,2.23,1.17.14-.02.25-.09.28-.14.04-.06,0-.12-.07-.23-.16-.21-.1-.65.21-.79.34-.19.91-.11,1.2.32.2.25.11.68-.22.98-.15.13-.36.25-.61.29-1.02.19-2.71-.19-3.81-1.44-1.26-1.43-.87-3,.56-4.26,3.99-3.53,12.64-2.41,17.25-.97,1.6.5,4.85,1.64,6.25,3.21.39.44.63.91.66,1.42Z"/>
    <path class="cls-6" d="m103.48,103.77c-1.58-1.39-2.71-4.65-3.21-6.25-1.44-4.62-2.56-13.27.97-17.25,1.26-1.43,2.83-1.82,4.26-.56,1.25,1.11,1.63,2.8,1.44,3.81-.04.25-.16.46-.29.61-.3.34-.73.42-.98.22-.43-.29-.51-.86-.32-1.2.15-.32.58-.38.79-.21.11.08.17.11.23.07.05-.03.12-.14.14-.28,0-.26-.09-1.28-1.17-2.23-1.05-.93-2.25-.54-3.21.55-1.75,1.98-2.49,5.64-2.44,9.85.05,4.03,1.76,10.46,3.95,12.4.42.38.86.59,1.32.57.73-.02,1.34-.38,1.82-.93,1.32-1.49,1.79-4.45,1.7-6.54-.08-2.18-.95-5.43-2.38-6.69-.19-.17-.37-.28-.58-.38-.72-.32-1.32-.07-1.78.45-.72.81-1.14,2.27-1.23,3.33-.19,1.83.49,3.73.91,4.46.15.26.14.44.08.51s-.19.04-.3-.13c-.5-.82-1.27-2.52-1.15-5,.06-1.33.63-2.76,1.46-3.7.73-.83,1.66-1.27,2.61-.96.36.12.71.33,1.02.61,1.53,1.35,2.49,4.39,2.44,7.62-.04,2.54-1.03,5.17-2.34,6.66-.71.8-1.53,1.28-2.35,1.25-.51-.03-.99-.27-1.42-.66Z"/>
    <path class="cls-6" d="m113.3,97.38c-.11.81-.72,1.54-1.63,2.1-1.69,1.04-4.45,1.55-6.97,1.15-3.19-.51-6.02-1.99-7.08-3.73-.22-.36-.37-.73-.42-1.11-.14-.99.46-1.83,1.4-2.41,1.07-.65,2.58-.97,3.9-.8,2.46.31,4,1.36,4.73,2,.15.14.17.27.08.32-.08.05-.26.02-.49-.17-.65-.54-2.4-1.55-4.24-1.67-1.06-.1-2.56.06-3.49.63-.6.37-.95.91-.75,1.68.06.22.14.42.27.64.99,1.62,4.04,3.05,6.18,3.5,2.04.45,5.04.5,6.73-.54.63-.38,1.08-.92,1.23-1.63.1-.45-.03-.92-.33-1.4-1.53-2.49-7.57-5.29-11.53-6.04-4.13-.78-7.87-.68-10.12.7-1.24.76-1.83,1.87-1.1,3.06.75,1.22,1.74,1.5,2,1.54.14,0,.27-.05.3-.09.05-.05.03-.12-.03-.24-.12-.24.01-.65.35-.74.37-.13.91.05,1.12.53.15.28,0,.69-.39.92-.17.1-.4.18-.65.18-1.03,0-2.63-.66-3.51-2.08-.99-1.62-.33-3.1,1.29-4.1,4.54-2.78,12.87-.18,17.16,2.04,1.49.77,4.5,2.45,5.59,4.25.3.5.46,1.01.4,1.52Z"/>
    <path class="cls-6" d="m112.16,96.38c-1.31-1.64-1.86-5.05-2.08-6.71-.62-4.8-.21-13.51,3.95-16.82,1.49-1.19,3.1-1.3,4.29.19,1.04,1.31,1.12,3.04.76,4.01-.09.24-.24.42-.39.55-.35.28-.79.29-1,.05-.38-.36-.36-.93-.11-1.24.2-.29.64-.27.82-.07.1.1.15.14.21.11.05-.02.14-.11.18-.25.05-.25.13-1.28-.76-2.4-.87-1.1-2.12-.92-3.25-.01-2.06,1.64-3.43,5.12-4.12,9.27-.65,3.98-.09,10.61,1.73,12.9.35.44.75.73,1.21.79.72.11,1.38-.14,1.96-.6,1.55-1.24,2.54-4.07,2.81-6.14.3-2.16,0-5.51-1.18-7-.16-.2-.32-.34-.5-.47-.65-.44-1.29-.3-1.83.14-.85.68-1.51,2.04-1.79,3.06-.51,1.77-.17,3.76.12,4.55.1.28.07.46-.01.52-.08.06-.19,0-.28-.19-.35-.9-.81-2.71-.26-5.13.29-1.3,1.1-2.61,2.08-3.39.86-.69,1.86-.96,2.74-.5.33.18.64.45.9.78,1.27,1.59,1.7,4.75,1.08,7.93-.49,2.5-1.91,4.92-3.47,6.15-.84.67-1.73.99-2.53.82-.5-.12-.93-.44-1.29-.89Z"/>
    <path class="cls-6" d="m122.93,91.8c-.25.78-.98,1.39-1.97,1.78-1.85.73-4.66.75-7.06-.07-3.05-1.06-5.58-3.01-6.32-4.9-.15-.39-.24-.79-.23-1.17.04-1,.78-1.72,1.8-2.13,1.17-.46,2.71-.51,3.97-.11,2.37.74,3.71,2.04,4.31,2.79.12.17.12.29.02.33-.09.04-.26-.02-.46-.25-.54-.65-2.09-1.94-3.88-2.38-1.02-.28-2.54-.38-3.55.01-.65.26-1.09.74-1.03,1.52.02.23.07.44.16.67.7,1.77,3.45,3.7,5.47,4.52,1.93.8,4.88,1.36,6.72.64.68-.27,1.23-.71,1.5-1.4.17-.43.13-.91-.08-1.44-1.07-2.72-6.53-6.52-10.3-7.95-3.94-1.48-7.64-2.04-10.09-1.07-1.35.53-2.13,1.52-1.62,2.82.53,1.34,1.45,1.78,1.7,1.86.14.04.27,0,.31-.03.06-.04.05-.11.01-.24-.08-.25.12-.64.47-.67.39-.06.89.21,1.02.71.1.3-.13.68-.55.84-.19.07-.42.11-.67.07-1.02-.17-2.48-1.11-3.09-2.66-.7-1.77.21-3.11,1.98-3.81,4.96-1.95,12.7,2.05,16.55,4.99,1.33,1.02,4,3.2,4.77,5.16.21.54.28,1.07.13,1.56Z"/>
    <path class="cls-6" d="m121.98,90.62c-1-1.85-.96-5.29-.88-6.97.22-4.83,2.14-13.34,6.81-15.88,1.67-.91,3.28-.74,4.19.93.8,1.47.57,3.19.05,4.08-.13.22-.31.38-.48.47-.4.22-.83.15-1-.12-.31-.42-.19-.98.11-1.24.25-.25.67-.16.82.07.08.11.12.16.19.14.05,0,.16-.09.22-.22.1-.24.35-1.24-.33-2.5-.67-1.23-1.93-1.27-3.2-.58-2.32,1.26-4.27,4.45-5.67,8.42-1.33,3.8-1.93,10.44-.53,13,.27.5.61.85,1.05.99.7.23,1.38.1,2.03-.25,1.75-.95,3.21-3.57,3.84-5.56.68-2.08.96-5.43.06-7.1-.12-.22-.25-.39-.42-.55-.56-.55-1.21-.52-1.83-.18-.95.52-1.84,1.74-2.29,2.71-.81,1.66-.82,3.67-.67,4.5.05.3-.01.46-.1.51s-.19-.03-.24-.23c-.19-.94-.33-2.8.63-5.09.51-1.23,1.54-2.38,2.64-2.97.97-.53,2-.63,2.79-.01.3.24.55.56.75.92.97,1.79.84,4.98-.31,8-.91,2.38-2.74,4.51-4.48,5.46-.94.51-1.87.68-2.63.37-.47-.2-.83-.59-1.11-1.11Z"/>
    <path class="cls-6" d="m133.39,87.98c-.38.72-1.21,1.2-2.25,1.41-1.95.4-4.71-.06-6.94-1.3-2.82-1.57-4.97-3.93-5.38-5.93-.08-.41-.1-.82-.02-1.19.21-.98,1.06-1.56,2.14-1.78,1.23-.25,2.75-.03,3.93.58,2.21,1.14,3.3,2.65,3.76,3.5.09.19.06.31-.04.33-.1.02-.25-.07-.41-.33-.42-.73-1.72-2.27-3.41-3.02-.96-.45-2.43-.82-3.5-.6-.69.14-1.2.53-1.28,1.32-.02.23-.01.45.04.69.38,1.87,2.75,4.25,4.61,5.4,1.76,1.12,4.57,2.19,6.51,1.79.72-.15,1.33-.49,1.72-1.12.24-.39.28-.88.17-1.43-.58-2.86-5.3-7.56-8.77-9.62-3.62-2.14-7.17-3.33-9.75-2.81-1.42.29-2.36,1.13-2.08,2.5.29,1.41,1.12,2,1.35,2.13.13.06.27.05.31.02.06-.03.07-.1.06-.23-.04-.26.23-.61.58-.58.39,0,.84.36.88.88.05.31-.24.65-.69.73-.2.04-.44.04-.67-.05-.97-.35-2.25-1.52-2.58-3.16-.38-1.87.75-3.03,2.61-3.41,5.22-1.06,12.15,4.23,15.43,7.79,1.14,1.23,3.39,3.84,3.8,5.9.12.57.09,1.11-.14,1.56Z"/>
    <path class="cls-6" d="m132.65,86.65c-.67-1.99-.02-5.38.34-7.02,1.06-4.72,4.42-12.77,9.47-14.46,1.8-.61,3.36-.16,3.97,1.64.53,1.58.01,3.24-.66,4.02-.16.19-.37.32-.56.38-.43.14-.84,0-.96-.29-.23-.47-.02-1,.32-1.2.29-.2.69-.04.79.21.06.12.09.18.16.17.05,0,.17-.06.26-.17.14-.22.56-1.16.11-2.52-.45-1.33-1.67-1.59-3.05-1.12-2.5.84-4.98,3.64-7.04,7.31-1.97,3.51-3.71,9.94-2.78,12.71.18.54.46.94.86,1.16.64.35,1.35.34,2.04.11,1.88-.63,3.78-2.96,4.74-4.81,1.03-1.93,1.89-5.18,1.29-6.98-.08-.24-.18-.43-.31-.62-.46-.64-1.11-.72-1.77-.5-1.03.34-2.12,1.4-2.73,2.27-1.08,1.49-1.44,3.48-1.44,4.32,0,.3-.09.45-.19.49-.1.03-.18-.06-.2-.27-.02-.96.16-2.82,1.51-4.91.72-1.12,1.93-2.07,3.12-2.47,1.04-.35,2.07-.27,2.75.47.25.28.44.64.58,1.04.65,1.93-.03,5.05-1.69,7.82-1.31,2.18-3.48,3.96-5.36,4.6-1.01.34-1.96.34-2.66-.1-.43-.28-.72-.73-.91-1.28Z"/>
    <path class="cls-6" d="m144.35,86.03c-.5.65-1.39.97-2.46,1-1.99.05-4.63-.88-6.61-2.48-2.51-2.04-4.21-4.73-4.26-6.77-.01-.42.04-.82.19-1.17.38-.93,1.32-1.35,2.42-1.38,1.25-.03,2.72.45,3.77,1.25,1.98,1.5,2.79,3.19,3.09,4.1.05.2,0,.32-.09.32-.1,0-.24-.11-.34-.39-.29-.79-1.3-2.54-2.83-3.57-.87-.61-2.25-1.23-3.34-1.2-.7.02-1.28.32-1.49,1.07-.06.22-.09.44-.08.69.05,1.9,1.97,4.66,3.6,6.12,1.54,1.41,4.12,2.95,6.1,2.9.73-.02,1.4-.25,1.88-.8.31-.34.43-.81.42-1.38-.08-2.92-3.91-8.37-6.96-10.99-3.19-2.74-6.48-4.53-9.12-4.46-1.45.04-2.52.7-2.48,2.1.04,1.44.76,2.17.96,2.33.12.08.25.09.3.08.07-.02.08-.09.1-.22,0-.27.34-.56.67-.47.39.07.76.5.71,1.02,0,.32-.35.59-.8.61-.2,0-.44-.04-.66-.17-.9-.51-1.95-1.89-1.99-3.55-.05-1.9,1.26-2.86,3.16-2.9,5.32-.14,11.23,6.27,13.84,10.35.91,1.41,2.67,4.37,2.72,6.48.02.58-.11,1.1-.41,1.51Z"/>
    <circle class="cls-5" cx="150" cy="149.65" r="59.5"/>
    <circle class="cls-2" cx="149.5" cy="150.15" r="113.5"/>
    <circle class="cls-4" cx="149.5" cy="150.15" r="118.5"/>
    <circle class="cls-1" cx="149.5" cy="150.15" r="123"/>
  </g>
</svg>